<?xml version="1.0" encoding="utf-8" standalone="no"?>
<!DOCTYPE svg PUBLIC "-//W3C//DTD SVG 1.1//EN"
  "http://www.w3.org/Graphics/SVG/1.1/DTD/svg11.dtd">
<svg xmlns:xlink="http://www.w3.org/1999/xlink" width="420.838811pt" height="278.377656pt" viewBox="0 0 420.838811 278.377656" xmlns="http://www.w3.org/2000/svg" version="1.1">
 <metadata>
  <rdf:RDF xmlns:dc="http://purl.org/dc/elements/1.1/" xmlns:cc="http://creativecommons.org/ns#" xmlns:rdf="http://www.w3.org/1999/02/22-rdf-syntax-ns#">
   <cc:Work>
    <dc:type rdf:resource="http://purl.org/dc/dcmitype/StillImage"/>
    <dc:date>2026-06-17T09:41:08.861195</dc:date>
    <dc:format>image/svg+xml</dc:format>
    <dc:creator>
     <cc:Agent>
      <dc:title>Matplotlib v3.10.0, https://matplotlib.org/</dc:title>
     </cc:Agent>
    </dc:creator>
   </cc:Work>
  </rdf:RDF>
 </metadata>
 <defs>
  <style type="text/css">*{stroke-linejoin: round; stroke-linecap: butt}</style>
 </defs>
 <g id="figure_1">
  <g id="patch_1">
   <path d="M 0 278.377656 
L 420.838811 278.377656 
L 420.838811 0 
L 0 0 
z
" style="fill: #ffffff"/>
  </g>
  <g id="axes_1">
   <g id="patch_2">
    <path d="M 47.477812 237.917969 
L 307.241813 237.917969 
L 307.241813 23.077969 
L 47.477812 23.077969 
z
" style="fill: #ffffff"/>
   </g>
   <g id="matplotlib.axis_1">
    <g id="xtick_1">
     <g id="line2d_1">
      <path d="M 69.112151 237.917969 
L 69.112151 23.077969 
" clip-path="url(#p968454b593)" style="fill: none; stroke-dasharray: 0.6,0.99; stroke-dashoffset: 0; stroke: #b0b0b0; stroke-width: 0.6"/>
     </g>
     <g id="line2d_2">
      <defs>
       <path id="m8f8864a7d8" d="M 0 0 
L 0 3.5 
" style="stroke: #000000; stroke-width: 0.8"/>
      </defs>
      <g>
       <use xlink:href="#m8f8864a7d8" x="69.112151" y="237.917969" style="stroke: #000000; stroke-width: 0.8"/>
      </g>
     </g>
     <g id="text_1">
      <!-- 9800 -->
      <g transform="translate(55.114651 253.27625) scale(0.11 -0.11)">
       <defs>
        <path id="DejaVuSerif-39" d="M 2994 2091 
Q 2784 1856 2512 1740 
Q 2241 1625 1900 1625 
Q 1206 1625 804 2044 
Q 403 2463 403 3188 
Q 403 3897 839 4323 
Q 1275 4750 2003 4750 
Q 2794 4750 3217 4161 
Q 3641 3572 3641 2478 
Q 3641 1253 3137 581 
Q 2634 -91 1722 -91 
Q 1475 -91 1203 -44 
Q 931 3 647 97 
L 647 872 
L 997 872 
Q 1038 556 1241 387 
Q 1444 219 1784 219 
Q 2391 219 2687 676 
Q 2984 1134 2994 2091 
z
M 1978 4441 
Q 1534 4441 1298 4117 
Q 1063 3794 1063 3188 
Q 1063 2581 1298 2256 
Q 1534 1931 1978 1931 
Q 2422 1931 2658 2245 
Q 2894 2559 2894 3150 
Q 2894 3772 2656 4106 
Q 2419 4441 1978 4441 
z
" transform="scale(0.015625)"/>
        <path id="DejaVuSerif-38" d="M 2981 1275 
Q 2981 1775 2732 2051 
Q 2484 2328 2034 2328 
Q 1584 2328 1336 2051 
Q 1088 1775 1088 1275 
Q 1088 772 1336 495 
Q 1584 219 2034 219 
Q 2484 219 2732 495 
Q 2981 772 2981 1275 
z
M 2853 3541 
Q 2853 3966 2637 4203 
Q 2422 4441 2034 4441 
Q 1650 4441 1433 4203 
Q 1216 3966 1216 3541 
Q 1216 3113 1433 2875 
Q 1650 2638 2034 2638 
Q 2422 2638 2637 2875 
Q 2853 3113 2853 3541 
z
M 2516 2484 
Q 3047 2413 3344 2092 
Q 3641 1772 3641 1275 
Q 3641 619 3225 264 
Q 2809 -91 2034 -91 
Q 1263 -91 845 264 
Q 428 619 428 1275 
Q 428 1772 725 2092 
Q 1022 2413 1556 2484 
Q 1084 2569 832 2842 
Q 581 3116 581 3541 
Q 581 4103 968 4426 
Q 1356 4750 2034 4750 
Q 2713 4750 3100 4426 
Q 3488 4103 3488 3541 
Q 3488 3116 3236 2842 
Q 2984 2569 2516 2484 
z
" transform="scale(0.015625)"/>
        <path id="DejaVuSerif-30" d="M 2034 219 
Q 2513 219 2750 744 
Q 2988 1269 2988 2328 
Q 2988 3391 2750 3916 
Q 2513 4441 2034 4441 
Q 1556 4441 1318 3916 
Q 1081 3391 1081 2328 
Q 1081 1269 1318 744 
Q 1556 219 2034 219 
z
M 2034 -91 
Q 1275 -91 848 546 
Q 422 1184 422 2328 
Q 422 3475 848 4112 
Q 1275 4750 2034 4750 
Q 2797 4750 3222 4112 
Q 3647 3475 3647 2328 
Q 3647 1184 3222 546 
Q 2797 -91 2034 -91 
z
" transform="scale(0.015625)"/>
       </defs>
       <use xlink:href="#DejaVuSerif-39"/>
       <use xlink:href="#DejaVuSerif-38" transform="translate(63.623047 0)"/>
       <use xlink:href="#DejaVuSerif-30" transform="translate(127.246094 0)"/>
       <use xlink:href="#DejaVuSerif-30" transform="translate(190.869141 0)"/>
      </g>
     </g>
    </g>
    <g id="xtick_2">
     <g id="line2d_3">
      <path d="M 122.245666 237.917969 
L 122.245666 23.077969 
" clip-path="url(#p968454b593)" style="fill: none; stroke-dasharray: 0.6,0.99; stroke-dashoffset: 0; stroke: #b0b0b0; stroke-width: 0.6"/>
     </g>
     <g id="line2d_4">
      <g>
       <use xlink:href="#m8f8864a7d8" x="122.245666" y="237.917969" style="stroke: #000000; stroke-width: 0.8"/>
      </g>
     </g>
     <g id="text_2">
      <!-- 9900 -->
      <g transform="translate(108.248166 253.27625) scale(0.11 -0.11)">
       <use xlink:href="#DejaVuSerif-39"/>
       <use xlink:href="#DejaVuSerif-39" transform="translate(63.623047 0)"/>
       <use xlink:href="#DejaVuSerif-30" transform="translate(127.246094 0)"/>
       <use xlink:href="#DejaVuSerif-30" transform="translate(190.869141 0)"/>
      </g>
     </g>
    </g>
    <g id="xtick_3">
     <g id="line2d_5">
      <path d="M 175.379181 237.917969 
L 175.379181 23.077969 
" clip-path="url(#p968454b593)" style="fill: none; stroke-dasharray: 0.6,0.99; stroke-dashoffset: 0; stroke: #b0b0b0; stroke-width: 0.6"/>
     </g>
     <g id="line2d_6">
      <g>
       <use xlink:href="#m8f8864a7d8" x="175.379181" y="237.917969" style="stroke: #000000; stroke-width: 0.8"/>
      </g>
     </g>
     <g id="text_3">
      <!-- 10000 -->
      <g transform="translate(157.882306 253.27625) scale(0.11 -0.11)">
       <defs>
        <path id="DejaVuSerif-31" d="M 909 0 
L 909 331 
L 1722 331 
L 1722 4213 
L 781 3603 
L 781 4013 
L 1919 4750 
L 2350 4750 
L 2350 331 
L 3163 331 
L 3163 0 
L 909 0 
z
" transform="scale(0.015625)"/>
       </defs>
       <use xlink:href="#DejaVuSerif-31"/>
       <use xlink:href="#DejaVuSerif-30" transform="translate(63.623047 0)"/>
       <use xlink:href="#DejaVuSerif-30" transform="translate(127.246094 0)"/>
       <use xlink:href="#DejaVuSerif-30" transform="translate(190.869141 0)"/>
       <use xlink:href="#DejaVuSerif-30" transform="translate(254.492188 0)"/>
      </g>
     </g>
    </g>
    <g id="xtick_4">
     <g id="line2d_7">
      <path d="M 228.512696 237.917969 
L 228.512696 23.077969 
" clip-path="url(#p968454b593)" style="fill: none; stroke-dasharray: 0.6,0.99; stroke-dashoffset: 0; stroke: #b0b0b0; stroke-width: 0.6"/>
     </g>
     <g id="line2d_8">
      <g>
       <use xlink:href="#m8f8864a7d8" x="228.512696" y="237.917969" style="stroke: #000000; stroke-width: 0.8"/>
      </g>
     </g>
     <g id="text_4">
      <!-- 10100 -->
      <g transform="translate(211.015821 253.27625) scale(0.11 -0.11)">
       <use xlink:href="#DejaVuSerif-31"/>
       <use xlink:href="#DejaVuSerif-30" transform="translate(63.623047 0)"/>
       <use xlink:href="#DejaVuSerif-31" transform="translate(127.246094 0)"/>
       <use xlink:href="#DejaVuSerif-30" transform="translate(190.869141 0)"/>
       <use xlink:href="#DejaVuSerif-30" transform="translate(254.492188 0)"/>
      </g>
     </g>
    </g>
    <g id="xtick_5">
     <g id="line2d_9">
      <path d="M 281.646211 237.917969 
L 281.646211 23.077969 
" clip-path="url(#p968454b593)" style="fill: none; stroke-dasharray: 0.6,0.99; stroke-dashoffset: 0; stroke: #b0b0b0; stroke-width: 0.6"/>
     </g>
     <g id="line2d_10">
      <g>
       <use xlink:href="#m8f8864a7d8" x="281.646211" y="237.917969" style="stroke: #000000; stroke-width: 0.8"/>
      </g>
     </g>
     <g id="text_5">
      <!-- 10200 -->
      <g transform="translate(264.149336 253.27625) scale(0.11 -0.11)">
       <defs>
        <path id="DejaVuSerif-32" d="M 819 3553 
L 469 3553 
L 469 4384 
Q 803 4563 1142 4656 
Q 1481 4750 1806 4750 
Q 2534 4750 2956 4397 
Q 3378 4044 3378 3438 
Q 3378 2753 2422 1800 
Q 2347 1728 2309 1691 
L 1131 513 
L 3078 513 
L 3078 1088 
L 3444 1088 
L 3444 0 
L 434 0 
L 434 341 
L 1850 1753 
Q 2319 2222 2519 2614 
Q 2719 3006 2719 3438 
Q 2719 3909 2473 4175 
Q 2228 4441 1797 4441 
Q 1350 4441 1106 4219 
Q 863 3997 819 3553 
z
" transform="scale(0.015625)"/>
       </defs>
       <use xlink:href="#DejaVuSerif-31"/>
       <use xlink:href="#DejaVuSerif-30" transform="translate(63.623047 0)"/>
       <use xlink:href="#DejaVuSerif-32" transform="translate(127.246094 0)"/>
       <use xlink:href="#DejaVuSerif-30" transform="translate(190.869141 0)"/>
       <use xlink:href="#DejaVuSerif-30" transform="translate(254.492188 0)"/>
      </g>
     </g>
    </g>
    <g id="text_6">
     <!-- Time (ns) -->
     <g transform="translate(148.66575 268.682031) scale(0.12 -0.12)">
      <defs>
       <path id="DejaVuSerif-54" d="M 1222 0 
L 1222 331 
L 1819 331 
L 1819 4294 
L 447 4294 
L 447 3566 
L 63 3566 
L 63 4666 
L 4206 4666 
L 4206 3566 
L 3822 3566 
L 3822 4294 
L 2450 4294 
L 2450 331 
L 3047 331 
L 3047 0 
L 1222 0 
z
" transform="scale(0.015625)"/>
       <path id="DejaVuSerif-69" d="M 622 4353 
Q 622 4497 726 4603 
Q 831 4709 978 4709 
Q 1122 4709 1226 4603 
Q 1331 4497 1331 4353 
Q 1331 4206 1228 4103 
Q 1125 4000 978 4000 
Q 831 4000 726 4103 
Q 622 4206 622 4353 
z
M 1356 331 
L 1900 331 
L 1900 0 
L 231 0 
L 231 331 
L 781 331 
L 781 2988 
L 231 2988 
L 231 3322 
L 1356 3322 
L 1356 331 
z
" transform="scale(0.015625)"/>
       <path id="DejaVuSerif-6d" d="M 3316 2675 
Q 3481 3041 3739 3227 
Q 3997 3413 4341 3413 
Q 4863 3413 5119 3089 
Q 5375 2766 5375 2113 
L 5375 331 
L 5894 331 
L 5894 0 
L 4300 0 
L 4300 331 
L 4800 331 
L 4800 2047 
Q 4800 2556 4650 2772 
Q 4500 2988 4153 2988 
Q 3769 2988 3567 2697 
Q 3366 2406 3366 1850 
L 3366 331 
L 3866 331 
L 3866 0 
L 2291 0 
L 2291 331 
L 2791 331 
L 2791 2069 
Q 2791 2566 2641 2777 
Q 2491 2988 2144 2988 
Q 1759 2988 1557 2697 
Q 1356 2406 1356 1850 
L 1356 331 
L 1856 331 
L 1856 0 
L 263 0 
L 263 331 
L 781 331 
L 781 2994 
L 231 2994 
L 231 3322 
L 1356 3322 
L 1356 2731 
Q 1516 3063 1762 3238 
Q 2009 3413 2322 3413 
Q 2709 3413 2968 3220 
Q 3228 3028 3316 2675 
z
" transform="scale(0.015625)"/>
       <path id="DejaVuSerif-65" d="M 3469 1600 
L 991 1600 
L 991 1575 
Q 991 903 1244 561 
Q 1497 219 1991 219 
Q 2369 219 2611 417 
Q 2853 616 2950 1006 
L 3413 1006 
Q 3275 459 2904 184 
Q 2534 -91 1931 -91 
Q 1203 -91 761 389 
Q 319 869 319 1663 
Q 319 2450 753 2931 
Q 1188 3413 1894 3413 
Q 2647 3413 3050 2948 
Q 3453 2484 3469 1600 
z
M 2791 1931 
Q 2772 2513 2545 2808 
Q 2319 3103 1894 3103 
Q 1497 3103 1269 2806 
Q 1041 2509 991 1931 
L 2791 1931 
z
" transform="scale(0.015625)"/>
       <path id="DejaVuSerif-20" transform="scale(0.015625)"/>
       <path id="DejaVuSerif-28" d="M 2041 -997 
Q 1281 -656 893 83 
Q 506 822 506 1931 
Q 506 3044 893 3783 
Q 1281 4522 2041 4863 
L 2041 4556 
Q 1559 4225 1350 3623 
Q 1141 3022 1141 1931 
Q 1141 844 1350 242 
Q 1559 -359 2041 -691 
L 2041 -997 
z
" transform="scale(0.015625)"/>
       <path id="DejaVuSerif-6e" d="M 263 0 
L 263 331 
L 781 331 
L 781 2988 
L 231 2988 
L 231 3322 
L 1356 3322 
L 1356 2731 
Q 1516 3069 1770 3241 
Q 2025 3413 2363 3413 
Q 2913 3413 3172 3097 
Q 3431 2781 3431 2113 
L 3431 331 
L 3944 331 
L 3944 0 
L 2356 0 
L 2356 331 
L 2853 331 
L 2853 1931 
Q 2853 2541 2703 2767 
Q 2553 2994 2175 2994 
Q 1775 2994 1565 2701 
Q 1356 2409 1356 1850 
L 1356 331 
L 1856 331 
L 1856 0 
L 263 0 
z
" transform="scale(0.015625)"/>
       <path id="DejaVuSerif-73" d="M 359 184 
L 359 959 
L 691 959 
Q 703 588 923 403 
Q 1144 219 1575 219 
Q 1963 219 2166 364 
Q 2369 509 2369 788 
Q 2369 1006 2220 1140 
Q 2072 1275 1594 1428 
L 1178 1569 
Q 750 1706 558 1912 
Q 366 2119 366 2438 
Q 366 2894 700 3153 
Q 1034 3413 1625 3413 
Q 1888 3413 2178 3344 
Q 2469 3275 2778 3144 
L 2778 2419 
L 2447 2419 
Q 2434 2741 2221 2922 
Q 2009 3103 1644 3103 
Q 1281 3103 1095 2975 
Q 909 2847 909 2591 
Q 909 2381 1050 2254 
Q 1191 2128 1613 1997 
L 2069 1856 
Q 2541 1709 2748 1489 
Q 2956 1269 2956 922 
Q 2956 450 2595 179 
Q 2234 -91 1600 -91 
Q 1278 -91 972 -22 
Q 666 47 359 184 
z
" transform="scale(0.015625)"/>
       <path id="DejaVuSerif-29" d="M 453 -997 
L 453 -691 
Q 934 -359 1145 242 
Q 1356 844 1356 1931 
Q 1356 3022 1145 3623 
Q 934 4225 453 4556 
L 453 4863 
Q 1216 4522 1603 3783 
Q 1991 3044 1991 1931 
Q 1991 822 1603 83 
Q 1216 -656 453 -997 
z
" transform="scale(0.015625)"/>
      </defs>
      <use xlink:href="#DejaVuSerif-54"/>
      <use xlink:href="#DejaVuSerif-69" transform="translate(66.699219 0)"/>
      <use xlink:href="#DejaVuSerif-6d" transform="translate(98.681641 0)"/>
      <use xlink:href="#DejaVuSerif-65" transform="translate(193.505859 0)"/>
      <use xlink:href="#DejaVuSerif-20" transform="translate(252.685547 0)"/>
      <use xlink:href="#DejaVuSerif-28" transform="translate(284.472656 0)"/>
      <use xlink:href="#DejaVuSerif-6e" transform="translate(323.486328 0)"/>
      <use xlink:href="#DejaVuSerif-73" transform="translate(387.890625 0)"/>
      <use xlink:href="#DejaVuSerif-29" transform="translate(439.208984 0)"/>
     </g>
    </g>
   </g>
   <g id="matplotlib.axis_2">
    <g id="ytick_1">
     <g id="line2d_11">
      <path d="M 47.477812 229.735447 
L 307.241813 229.735447 
" clip-path="url(#p968454b593)" style="fill: none; stroke-dasharray: 0.6,0.99; stroke-dashoffset: 0; stroke: #b0b0b0; stroke-width: 0.6"/>
     </g>
     <g id="line2d_12">
      <defs>
       <path id="mbf69d2251b" d="M 0 0 
L -3.5 0 
" style="stroke: #000000; stroke-width: 0.8"/>
      </defs>
      <g>
       <use xlink:href="#mbf69d2251b" x="47.477812" y="229.735447" style="stroke: #000000; stroke-width: 0.8"/>
      </g>
     </g>
     <g id="text_7">
      <!-- 0.1 -->
      <g transform="translate(22.984375 233.914588) scale(0.11 -0.11)">
       <defs>
        <path id="DejaVuSerif-2e" d="M 603 325 
Q 603 500 722 622 
Q 841 744 1019 744 
Q 1191 744 1312 622 
Q 1434 500 1434 325 
Q 1434 153 1312 31 
Q 1191 -91 1019 -91 
Q 841 -91 722 29 
Q 603 150 603 325 
z
" transform="scale(0.015625)"/>
       </defs>
       <use xlink:href="#DejaVuSerif-30"/>
       <use xlink:href="#DejaVuSerif-2e" transform="translate(63.623047 0)"/>
       <use xlink:href="#DejaVuSerif-31" transform="translate(95.410156 0)"/>
      </g>
     </g>
    </g>
    <g id="ytick_2">
     <g id="line2d_13">
      <path d="M 47.477812 201.400781 
L 307.241813 201.400781 
" clip-path="url(#p968454b593)" style="fill: none; stroke-dasharray: 0.6,0.99; stroke-dashoffset: 0; stroke: #b0b0b0; stroke-width: 0.6"/>
     </g>
     <g id="line2d_14">
      <g>
       <use xlink:href="#mbf69d2251b" x="47.477812" y="201.400781" style="stroke: #000000; stroke-width: 0.8"/>
      </g>
     </g>
     <g id="text_8">
      <!-- 0.2 -->
      <g transform="translate(22.984375 205.579921) scale(0.11 -0.11)">
       <use xlink:href="#DejaVuSerif-30"/>
       <use xlink:href="#DejaVuSerif-2e" transform="translate(63.623047 0)"/>
       <use xlink:href="#DejaVuSerif-32" transform="translate(95.410156 0)"/>
      </g>
     </g>
    </g>
    <g id="ytick_3">
     <g id="line2d_15">
      <path d="M 47.477812 173.066114 
L 307.241813 173.066114 
" clip-path="url(#p968454b593)" style="fill: none; stroke-dasharray: 0.6,0.99; stroke-dashoffset: 0; stroke: #b0b0b0; stroke-width: 0.6"/>
     </g>
     <g id="line2d_16">
      <g>
       <use xlink:href="#mbf69d2251b" x="47.477812" y="173.066114" style="stroke: #000000; stroke-width: 0.8"/>
      </g>
     </g>
     <g id="text_9">
      <!-- 0.3 -->
      <g transform="translate(22.984375 177.245255) scale(0.11 -0.11)">
       <defs>
        <path id="DejaVuSerif-33" d="M 622 4469 
Q 988 4606 1323 4678 
Q 1659 4750 1953 4750 
Q 2638 4750 3022 4454 
Q 3406 4159 3406 3634 
Q 3406 3213 3140 2930 
Q 2875 2647 2388 2547 
Q 2963 2466 3280 2130 
Q 3597 1794 3597 1259 
Q 3597 606 3158 257 
Q 2719 -91 1894 -91 
Q 1528 -91 1179 -12 
Q 831 66 488 225 
L 488 1131 
L 838 1131 
Q 869 681 1141 450 
Q 1413 219 1906 219 
Q 2384 219 2661 495 
Q 2938 772 2938 1253 
Q 2938 1803 2653 2086 
Q 2369 2369 1819 2369 
L 1522 2369 
L 1522 2688 
L 1678 2688 
Q 2225 2688 2498 2914 
Q 2772 3141 2772 3597 
Q 2772 4006 2547 4223 
Q 2322 4441 1900 4441 
Q 1478 4441 1245 4241 
Q 1013 4041 972 3647 
L 622 3647 
L 622 4469 
z
" transform="scale(0.015625)"/>
       </defs>
       <use xlink:href="#DejaVuSerif-30"/>
       <use xlink:href="#DejaVuSerif-2e" transform="translate(63.623047 0)"/>
       <use xlink:href="#DejaVuSerif-33" transform="translate(95.410156 0)"/>
      </g>
     </g>
    </g>
    <g id="ytick_4">
     <g id="line2d_17">
      <path d="M 47.477812 144.731448 
L 307.241813 144.731448 
" clip-path="url(#p968454b593)" style="fill: none; stroke-dasharray: 0.6,0.99; stroke-dashoffset: 0; stroke: #b0b0b0; stroke-width: 0.6"/>
     </g>
     <g id="line2d_18">
      <g>
       <use xlink:href="#mbf69d2251b" x="47.477812" y="144.731448" style="stroke: #000000; stroke-width: 0.8"/>
      </g>
     </g>
     <g id="text_10">
      <!-- 0.4 -->
      <g transform="translate(22.984375 148.910588) scale(0.11 -0.11)">
       <defs>
        <path id="DejaVuSerif-34" d="M 2234 1581 
L 2234 4063 
L 641 1581 
L 2234 1581 
z
M 3609 0 
L 1484 0 
L 1484 331 
L 2234 331 
L 2234 1247 
L 197 1247 
L 197 1588 
L 2241 4750 
L 2859 4750 
L 2859 1581 
L 3750 1581 
L 3750 1247 
L 2859 1247 
L 2859 331 
L 3609 331 
L 3609 0 
z
" transform="scale(0.015625)"/>
       </defs>
       <use xlink:href="#DejaVuSerif-30"/>
       <use xlink:href="#DejaVuSerif-2e" transform="translate(63.623047 0)"/>
       <use xlink:href="#DejaVuSerif-34" transform="translate(95.410156 0)"/>
      </g>
     </g>
    </g>
    <g id="ytick_5">
     <g id="line2d_19">
      <path d="M 47.477812 116.396781 
L 307.241813 116.396781 
" clip-path="url(#p968454b593)" style="fill: none; stroke-dasharray: 0.6,0.99; stroke-dashoffset: 0; stroke: #b0b0b0; stroke-width: 0.6"/>
     </g>
     <g id="line2d_20">
      <g>
       <use xlink:href="#mbf69d2251b" x="47.477812" y="116.396781" style="stroke: #000000; stroke-width: 0.8"/>
      </g>
     </g>
     <g id="text_11">
      <!-- 0.5 -->
      <g transform="translate(22.984375 120.575922) scale(0.11 -0.11)">
       <defs>
        <path id="DejaVuSerif-35" d="M 3219 4666 
L 3219 4153 
L 1081 4153 
L 1081 2816 
Q 1244 2928 1461 2984 
Q 1678 3041 1947 3041 
Q 2703 3041 3140 2622 
Q 3578 2203 3578 1478 
Q 3578 738 3136 323 
Q 2694 -91 1894 -91 
Q 1572 -91 1234 -12 
Q 897 66 544 225 
L 544 1131 
L 897 1131 
Q 925 688 1179 453 
Q 1434 219 1894 219 
Q 2388 219 2653 544 
Q 2919 869 2919 1478 
Q 2919 2084 2655 2407 
Q 2391 2731 1894 2731 
Q 1613 2731 1398 2631 
Q 1184 2531 1019 2322 
L 750 2322 
L 750 4666 
L 3219 4666 
z
" transform="scale(0.015625)"/>
       </defs>
       <use xlink:href="#DejaVuSerif-30"/>
       <use xlink:href="#DejaVuSerif-2e" transform="translate(63.623047 0)"/>
       <use xlink:href="#DejaVuSerif-35" transform="translate(95.410156 0)"/>
      </g>
     </g>
    </g>
    <g id="ytick_6">
     <g id="line2d_21">
      <path d="M 47.477812 88.062115 
L 307.241813 88.062115 
" clip-path="url(#p968454b593)" style="fill: none; stroke-dasharray: 0.6,0.99; stroke-dashoffset: 0; stroke: #b0b0b0; stroke-width: 0.6"/>
     </g>
     <g id="line2d_22">
      <g>
       <use xlink:href="#mbf69d2251b" x="47.477812" y="88.062115" style="stroke: #000000; stroke-width: 0.8"/>
      </g>
     </g>
     <g id="text_12">
      <!-- 0.6 -->
      <g transform="translate(22.984375 92.241255) scale(0.11 -0.11)">
       <defs>
        <path id="DejaVuSerif-36" d="M 2094 219 
Q 2534 219 2771 542 
Q 3009 866 3009 1472 
Q 3009 2078 2771 2401 
Q 2534 2725 2094 2725 
Q 1647 2725 1412 2412 
Q 1178 2100 1178 1509 
Q 1178 888 1415 553 
Q 1653 219 2094 219 
z
M 1075 2569 
Q 1288 2803 1556 2918 
Q 1825 3034 2163 3034 
Q 2859 3034 3264 2615 
Q 3669 2197 3669 1472 
Q 3669 763 3233 336 
Q 2797 -91 2069 -91 
Q 1278 -91 853 498 
Q 428 1088 428 2181 
Q 428 3406 931 4078 
Q 1434 4750 2350 4750 
Q 2597 4750 2869 4703 
Q 3141 4656 3425 4563 
L 3425 3794 
L 3072 3794 
Q 3034 4109 2831 4275 
Q 2628 4441 2284 4441 
Q 1678 4441 1381 3981 
Q 1084 3522 1075 2569 
z
" transform="scale(0.015625)"/>
       </defs>
       <use xlink:href="#DejaVuSerif-30"/>
       <use xlink:href="#DejaVuSerif-2e" transform="translate(63.623047 0)"/>
       <use xlink:href="#DejaVuSerif-36" transform="translate(95.410156 0)"/>
      </g>
     </g>
    </g>
    <g id="ytick_7">
     <g id="line2d_23">
      <path d="M 47.477812 59.727448 
L 307.241813 59.727448 
" clip-path="url(#p968454b593)" style="fill: none; stroke-dasharray: 0.6,0.99; stroke-dashoffset: 0; stroke: #b0b0b0; stroke-width: 0.6"/>
     </g>
     <g id="line2d_24">
      <g>
       <use xlink:href="#mbf69d2251b" x="47.477812" y="59.727448" style="stroke: #000000; stroke-width: 0.8"/>
      </g>
     </g>
     <g id="text_13">
      <!-- 0.7 -->
      <g transform="translate(22.984375 63.906589) scale(0.11 -0.11)">
       <defs>
        <path id="DejaVuSerif-37" d="M 3609 4347 
L 1784 0 
L 1319 0 
L 3059 4153 
L 903 4153 
L 903 3578 
L 538 3578 
L 538 4666 
L 3609 4666 
L 3609 4347 
z
" transform="scale(0.015625)"/>
       </defs>
       <use xlink:href="#DejaVuSerif-30"/>
       <use xlink:href="#DejaVuSerif-2e" transform="translate(63.623047 0)"/>
       <use xlink:href="#DejaVuSerif-37" transform="translate(95.410156 0)"/>
      </g>
     </g>
    </g>
    <g id="ytick_8">
     <g id="line2d_25">
      <path d="M 47.477812 31.392782 
L 307.241813 31.392782 
" clip-path="url(#p968454b593)" style="fill: none; stroke-dasharray: 0.6,0.99; stroke-dashoffset: 0; stroke: #b0b0b0; stroke-width: 0.6"/>
     </g>
     <g id="line2d_26">
      <g>
       <use xlink:href="#mbf69d2251b" x="47.477812" y="31.392782" style="stroke: #000000; stroke-width: 0.8"/>
      </g>
     </g>
     <g id="text_14">
      <!-- 0.8 -->
      <g transform="translate(22.984375 35.571923) scale(0.11 -0.11)">
       <use xlink:href="#DejaVuSerif-30"/>
       <use xlink:href="#DejaVuSerif-2e" transform="translate(63.623047 0)"/>
       <use xlink:href="#DejaVuSerif-38" transform="translate(95.410156 0)"/>
      </g>
     </g>
    </g>
    <g id="text_15">
     <!-- Voltage (V) -->
     <g transform="translate(16.318125 164.117656) rotate(-90) scale(0.12 -0.12)">
      <defs>
       <path id="DejaVuSerif-56" d="M 1119 4331 
L 2497 750 
L 3872 4331 
L 3347 4331 
L 3347 4666 
L 4716 4666 
L 4716 4331 
L 4263 4331 
L 2597 0 
L 2059 0 
L 403 4331 
L -63 4331 
L -63 4666 
L 1638 4666 
L 1638 4331 
L 1119 4331 
z
" transform="scale(0.015625)"/>
       <path id="DejaVuSerif-6f" d="M 1925 219 
Q 2388 219 2623 584 
Q 2859 950 2859 1663 
Q 2859 2375 2623 2739 
Q 2388 3103 1925 3103 
Q 1463 3103 1227 2739 
Q 991 2375 991 1663 
Q 991 950 1228 584 
Q 1466 219 1925 219 
z
M 1925 -91 
Q 1200 -91 759 389 
Q 319 869 319 1663 
Q 319 2456 758 2934 
Q 1197 3413 1925 3413 
Q 2653 3413 3092 2934 
Q 3531 2456 3531 1663 
Q 3531 869 3092 389 
Q 2653 -91 1925 -91 
z
" transform="scale(0.015625)"/>
       <path id="DejaVuSerif-6c" d="M 1313 331 
L 1856 331 
L 1856 0 
L 184 0 
L 184 331 
L 738 331 
L 738 4531 
L 184 4531 
L 184 4863 
L 1313 4863 
L 1313 331 
z
" transform="scale(0.015625)"/>
       <path id="DejaVuSerif-74" d="M 691 2988 
L 184 2988 
L 184 3322 
L 691 3322 
L 691 4353 
L 1269 4353 
L 1269 3322 
L 2350 3322 
L 2350 2988 
L 1269 2988 
L 1269 878 
Q 1269 456 1350 337 
Q 1431 219 1650 219 
Q 1875 219 1978 351 
Q 2081 484 2088 781 
L 2522 781 
Q 2497 328 2275 118 
Q 2053 -91 1600 -91 
Q 1103 -91 897 129 
Q 691 350 691 878 
L 691 2988 
z
" transform="scale(0.015625)"/>
       <path id="DejaVuSerif-61" d="M 2547 1044 
L 2547 1747 
L 1806 1747 
Q 1378 1747 1168 1562 
Q 959 1378 959 997 
Q 959 650 1171 447 
Q 1384 244 1747 244 
Q 2106 244 2326 466 
Q 2547 688 2547 1044 
z
M 3122 2075 
L 3122 331 
L 3634 331 
L 3634 0 
L 2547 0 
L 2547 359 
Q 2356 128 2106 18 
Q 1856 -91 1522 -91 
Q 969 -91 644 203 
Q 319 497 319 997 
Q 319 1513 691 1797 
Q 1063 2081 1741 2081 
L 2547 2081 
L 2547 2309 
Q 2547 2688 2317 2895 
Q 2088 3103 1672 3103 
Q 1328 3103 1125 2947 
Q 922 2791 872 2484 
L 575 2484 
L 575 3156 
Q 875 3284 1158 3348 
Q 1441 3413 1709 3413 
Q 2400 3413 2761 3070 
Q 3122 2728 3122 2075 
z
" transform="scale(0.015625)"/>
       <path id="DejaVuSerif-67" d="M 3359 2988 
L 3359 72 
Q 3359 -644 2965 -1033 
Q 2572 -1422 1844 -1422 
Q 1516 -1422 1216 -1362 
Q 916 -1303 641 -1184 
L 641 -488 
L 941 -488 
Q 997 -813 1206 -963 
Q 1416 -1113 1806 -1113 
Q 2313 -1113 2548 -827 
Q 2784 -541 2784 72 
L 2784 519 
Q 2616 206 2355 57 
Q 2094 -91 1709 -91 
Q 1097 -91 708 395 
Q 319 881 319 1663 
Q 319 2444 706 2928 
Q 1094 3413 1709 3413 
Q 2094 3413 2355 3264 
Q 2616 3116 2784 2803 
L 2784 3322 
L 3909 3322 
L 3909 2988 
L 3359 2988 
z
M 2784 1825 
Q 2784 2422 2554 2737 
Q 2325 3053 1888 3053 
Q 1444 3053 1217 2703 
Q 991 2353 991 1663 
Q 991 975 1217 622 
Q 1444 269 1888 269 
Q 2325 269 2554 583 
Q 2784 897 2784 1497 
L 2784 1825 
z
" transform="scale(0.015625)"/>
      </defs>
      <use xlink:href="#DejaVuSerif-56"/>
      <use xlink:href="#DejaVuSerif-6f" transform="translate(63.091797 0)"/>
      <use xlink:href="#DejaVuSerif-6c" transform="translate(123.296875 0)"/>
      <use xlink:href="#DejaVuSerif-74" transform="translate(155.279297 0)"/>
      <use xlink:href="#DejaVuSerif-61" transform="translate(195.464844 0)"/>
      <use xlink:href="#DejaVuSerif-67" transform="translate(255.083984 0)"/>
      <use xlink:href="#DejaVuSerif-65" transform="translate(319.097656 0)"/>
      <use xlink:href="#DejaVuSerif-20" transform="translate(378.277344 0)"/>
      <use xlink:href="#DejaVuSerif-28" transform="translate(410.064453 0)"/>
      <use xlink:href="#DejaVuSerif-56" transform="translate(449.078125 0)"/>
      <use xlink:href="#DejaVuSerif-29" transform="translate(521.294922 0)"/>
     </g>
    </g>
   </g>
   <g id="line2d_27">
    <path d="M 59.285267 39.206607 
L 60.415842 41.096266 
L 61.369695 43.061411 
L 62.156283 45.092395 
L 63.192493 48.855596 
L 63.446578 50.099244 
L 64.26749 55.450614 
L 64.746595 59.641889 
L 65.480901 67.438294 
L 67.156625 89.805992 
L 71.174794 145.673012 
L 72.453399 160.429952 
L 73.577757 170.011442 
L 74.335548 174.3354 
L 74.597071 175.663941 
L 75.314745 177.83389 
L 76.182841 178.557327 
L 77.050936 177.175143 
L 77.509319 175.67209 
L 78.354354 171.416773 
L 79.396409 164.045552 
L 79.873229 159.838804 
L 81.133609 146.629814 
L 82.914698 124.491333 
L 84.700302 99.558529 
L 87.214262 63.554388 
L 88.120294 54.368757 
L 88.979198 48.783555 
L 89.915357 45.084997 
L 90.918677 42.332162 
L 92.21285 39.599808 
L 93.144227 38.067491 
L 94.04585 36.947025 
L 94.875742 36.188172 
L 96.446635 35.112055 
L 97.694157 34.495198 
L 99.24693 33.979496 
L 100.762883 33.65711 
L 102.740459 33.408901 
L 105.587565 33.281404 
L 107.948075 33.366359 
L 109.923526 33.681226 
L 111.941112 34.30518 
L 114.307997 35.446654 
L 115.93027 36.492549 
L 117.062173 37.537534 
L 118.010022 38.737283 
L 119.453128 41.096266 
L 120.559155 43.40362 
L 121.193516 45.092395 
L 122.229726 48.855596 
L 122.483811 50.099244 
L 123.304723 55.450614 
L 123.783828 59.641889 
L 124.457189 66.763397 
L 125.266785 76.93916 
L 127.240748 104.758187 
L 130.087642 144.135119 
L 131.490632 160.429952 
L 132.61499 170.011442 
L 133.372781 174.3354 
L 133.634304 175.663941 
L 134.351978 177.83389 
L 135.220073 178.557327 
L 136.088169 177.175143 
L 136.546552 175.67209 
L 137.391587 171.416802 
L 138.433642 164.045552 
L 138.910462 159.838804 
L 140.170842 146.629814 
L 141.951984 124.491372 
L 143.737535 99.558529 
L 146.251494 63.554388 
L 147.157527 54.368757 
L 148.01643 48.783555 
L 148.95259 45.084997 
L 149.95591 42.332162 
L 151.250083 39.599808 
L 152.181513 38.067494 
L 153.083083 36.947025 
L 153.912975 36.188172 
L 155.483868 35.112055 
L 156.73139 34.495201 
L 158.284163 33.979493 
L 159.800116 33.65711 
L 161.777692 33.408901 
L 164.624798 33.281404 
L 166.985361 33.366362 
L 168.960759 33.681226 
L 170.978345 34.30518 
L 173.34523 35.446654 
L 174.967503 36.492549 
L 176.09914 37.537528 
L 177.047042 38.737283 
L 178.490148 41.096266 
L 179.443895 43.061423 
L 180.230802 45.092395 
L 181.266906 48.855615 
L 181.520884 50.099244 
L 182.341797 55.450614 
L 182.821061 59.641889 
L 183.555366 67.438294 
L 185.231197 89.805992 
L 189.249154 145.673012 
L 190.528077 160.429952 
L 191.652383 170.011442 
L 192.410067 174.335425 
L 192.671483 175.663941 
L 193.389317 177.83389 
L 194.257519 178.557327 
L 195.125189 177.175143 
L 195.583731 175.67209 
L 196.428554 171.416802 
L 197.471034 164.045552 
L 197.947641 159.838804 
L 199.207968 146.629814 
L 200.989004 124.491372 
L 202.774821 99.55845 
L 205.288568 63.554439 
L 206.195026 54.368793 
L 207.053663 48.783555 
L 207.989876 45.084997 
L 208.993037 42.332162 
L 210.287369 39.599796 
L 211.2188 38.067494 
L 212.288377 36.770248 
L 213.576334 35.721248 
L 214.962056 34.868049 
L 216.486456 34.227266 
L 218.166538 33.782698 
L 220.320039 33.45575 
L 222.559086 33.302105 
L 225.560598 33.32987 
L 227.331538 33.54276 
L 229.045625 33.967508 
L 230.779372 34.635228 
L 232.38241 35.446657 
L 234.004576 36.492549 
L 235.136851 37.537528 
L 236.084753 38.737283 
L 237.527328 41.096266 
L 238.481606 43.061423 
L 239.267982 45.092381 
L 240.304086 48.855615 
L 240.558064 50.099244 
L 241.378977 55.450614 
L 241.858241 59.641889 
L 242.592546 67.438294 
L 244.268377 89.805992 
L 248.286334 145.673012 
L 249.565257 160.429952 
L 250.689562 170.011442 
L 251.447246 174.335408 
L 251.708663 175.663941 
L 252.426497 177.83389 
L 253.294699 178.557327 
L 254.1629 177.175143 
L 254.620911 175.67209 
L 255.466265 171.416802 
L 256.508214 164.045552 
L 256.984821 159.838804 
L 258.245148 146.629791 
L 260.026184 124.491372 
L 261.812001 99.55845 
L 264.325748 63.554439 
L 265.232205 54.368793 
L 266.090843 48.783557 
L 267.027056 45.084997 
L 268.030216 42.332162 
L 269.364399 39.526851 
L 270.255979 38.067494 
L 271.325557 36.770248 
L 272.613513 35.721248 
L 273.999235 34.868049 
L 275.523636 34.227266 
L 277.204249 33.782698 
L 279.357219 33.45575 
L 281.596265 33.302105 
L 284.598309 33.32987 
L 286.369249 33.54276 
L 288.082805 33.967508 
L 289.816551 34.635228 
L 291.41959 35.446657 
L 293.041756 36.492549 
L 294.174031 37.537528 
L 295.121933 38.737283 
L 295.434358 39.206607 
L 295.434358 39.206607 
" clip-path="url(#p968454b593)" style="fill: none; stroke: #6a408d; stroke-width: 2; stroke-linecap: square"/>
    <defs>
     <path id="mdadba7c746" d="M 0 2 
C 0.530406 2 1.03916 1.789267 1.414214 1.414214 
C 1.789267 1.03916 2 0.530406 2 0 
C 2 -0.530406 1.789267 -1.03916 1.414214 -1.414214 
C 1.03916 -1.789267 0.530406 -2 0 -2 
C -0.530406 -2 -1.03916 -1.789267 -1.414214 -1.414214 
C -1.789267 -1.03916 -2 -0.530406 -2 0 
C -2 0.530406 -1.789267 1.03916 -1.414214 1.414214 
C -1.03916 1.789267 -0.530406 2 0 2 
z
" style="stroke: #6a408d"/>
    </defs>
    <g clip-path="url(#p968454b593)">
     <use xlink:href="#mdadba7c746" x="59.285267" y="39.206607" style="fill: #6a408d; stroke: #6a408d"/>
     <use xlink:href="#mdadba7c746" x="71.088346" y="144.604673" style="fill: #6a408d; stroke: #6a408d"/>
     <use xlink:href="#mdadba7c746" x="86.367845" y="74.882228" style="fill: #6a408d; stroke: #6a408d"/>
     <use xlink:href="#mdadba7c746" x="95.749098" y="35.549917" style="fill: #6a408d; stroke: #6a408d"/>
     <use xlink:href="#mdadba7c746" x="106.855809" y="33.302796" style="fill: #6a408d; stroke: #6a408d"/>
     <use xlink:href="#mdadba7c746" x="118.010022" y="38.737283" style="fill: #6a408d; stroke: #6a408d"/>
     <use xlink:href="#mdadba7c746" x="130.087642" y="144.135119" style="fill: #6a408d; stroke: #6a408d"/>
     <use xlink:href="#mdadba7c746" x="145.401146" y="74.938345" style="fill: #6a408d; stroke: #6a408d"/>
     <use xlink:href="#mdadba7c746" x="154.783674" y="35.551736" style="fill: #6a408d; stroke: #6a408d"/>
     <use xlink:href="#mdadba7c746" x="165.889163" y="33.302629" style="fill: #6a408d; stroke: #6a408d"/>
     <use xlink:href="#mdadba7c746" x="177.037478" y="38.722255" style="fill: #6a408d; stroke: #6a408d"/>
     <use xlink:href="#mdadba7c746" x="188.810802" y="139.927268" style="fill: #6a408d; stroke: #6a408d"/>
     <use xlink:href="#mdadba7c746" x="204.180734" y="78.627643" style="fill: #6a408d; stroke: #6a408d"/>
     <use xlink:href="#mdadba7c746" x="213.753268" y="35.597612" style="fill: #6a408d; stroke: #6a408d"/>
     <use xlink:href="#mdadba7c746" x="224.719494" y="33.293746" style="fill: #6a408d; stroke: #6a408d"/>
     <use xlink:href="#mdadba7c746" x="236.056592" y="38.69753" style="fill: #6a408d; stroke: #6a408d"/>
     <use xlink:href="#mdadba7c746" x="247.758186" y="138.724232" style="fill: #6a408d; stroke: #6a408d"/>
     <use xlink:href="#mdadba7c746" x="263.159467" y="79.464825" style="fill: #6a408d; stroke: #6a408d"/>
     <use xlink:href="#mdadba7c746" x="272.613513" y="35.721248" style="fill: #6a408d; stroke: #6a408d"/>
     <use xlink:href="#mdadba7c746" x="283.48463" y="33.289198" style="fill: #6a408d; stroke: #6a408d"/>
     <use xlink:href="#mdadba7c746" x="294.859453" y="38.378076" style="fill: #6a408d; stroke: #6a408d"/>
    </g>
   </g>
   <g id="line2d_28">
    <path d="M 59.285267 38.25354 
L 60.247249 39.679555 
L 61.369695 41.770966 
L 62.156283 43.603264 
L 62.668756 45.04675 
L 63.588604 48.746425 
L 64.000441 51.057307 
L 64.746595 56.738796 
L 65.761446 68.428735 
L 67.156625 89.44082 
L 70.00405 137.255629 
L 72.219399 174.265722 
L 73.240997 187.545713 
L 73.879396 194.193601 
L 74.918422 201.952964 
L 75.314745 204.234769 
L 76.182841 207.227088 
L 77.050936 207.886056 
L 77.509319 207.399488 
L 78.235707 205.41357 
L 78.989087 201.839605 
L 79.804793 196.396641 
L 81.133609 183.908924 
L 83.001146 159.246572 
L 85.565529 118.679618 
L 89.258733 59.86135 
L 89.915357 52.896195 
L 90.742008 47.38618 
L 91.562018 44.200349 
L 92.713102 41.100964 
L 93.885068 38.701726 
L 94.755554 37.369538 
L 95.502027 36.53492 
L 96.568523 35.715343 
L 98.087557 34.865289 
L 99.743941 34.223296 
L 101.785118 33.723303 
L 104.0502 33.393643 
L 106.929612 33.226392 
L 109.052189 33.353702 
L 110.850653 33.70769 
L 112.704747 34.305849 
L 114.742895 35.254533 
L 116.198222 36.130828 
L 117.136666 36.871598 
L 117.981914 37.812165 
L 119.284482 39.679555 
L 120.406928 41.770966 
L 121.193516 43.603264 
L 121.705989 45.04675 
L 122.625836 48.746425 
L 123.037674 51.057307 
L 123.783828 56.738796 
L 124.798678 68.428735 
L 126.193858 89.44082 
L 129.041336 137.255629 
L 131.256632 174.265722 
L 132.27823 187.545713 
L 132.916629 194.193601 
L 133.955655 201.952964 
L 134.351978 204.234769 
L 135.220073 207.227088 
L 136.088169 207.886056 
L 136.546552 207.399488 
L 137.27294 205.41357 
L 138.02632 201.839605 
L 138.842079 196.396641 
L 140.170842 183.908924 
L 142.038379 159.246572 
L 144.602761 118.679618 
L 148.295966 59.86135 
L 148.95259 52.896195 
L 149.779241 47.38618 
L 150.599251 44.200332 
L 151.750335 41.100964 
L 152.922301 38.701726 
L 153.792787 37.369529 
L 154.53926 36.53492 
L 155.605756 35.715343 
L 157.124843 34.865289 
L 158.781174 34.223296 
L 160.822351 33.723303 
L 163.087433 33.393643 
L 165.966845 33.226392 
L 168.089422 33.353702 
L 169.887885 33.70769 
L 171.741979 34.305849 
L 173.780128 35.254536 
L 175.235455 36.130828 
L 176.174058 36.871598 
L 177.019413 37.812165 
L 178.321715 39.679555 
L 179.443895 41.770977 
L 180.230802 43.603264 
L 180.743009 45.046748 
L 181.663282 48.746416 
L 182.075067 51.057307 
L 182.821061 56.738796 
L 183.835911 68.428735 
L 185.231197 89.44082 
L 188.078622 137.255629 
L 190.293759 174.265722 
L 191.315516 187.545752 
L 191.95365 194.193598 
L 192.992941 201.952947 
L 193.389317 204.234769 
L 194.257519 207.227088 
L 195.125189 207.886056 
L 195.583731 207.399499 
L 196.310067 205.41357 
L 197.0635 201.839605 
L 197.879099 196.396641 
L 199.207968 183.908924 
L 201.075612 159.246572 
L 203.639835 118.679618 
L 207.333146 59.86135 
L 207.989876 52.896195 
L 208.816633 47.38618 
L 209.636483 44.200332 
L 210.787355 41.100964 
L 211.959481 38.701729 
L 212.829808 37.369529 
L 213.576334 36.53492 
L 214.643255 35.715343 
L 216.16181 34.865289 
L 217.818513 34.223296 
L 219.859372 33.723303 
L 222.124453 33.393643 
L 225.00429 33.226392 
L 227.126443 33.353702 
L 228.925012 33.70769 
L 230.779372 34.305852 
L 232.817573 35.254536 
L 234.416361 36.225214 
L 235.451933 37.107598 
L 236.084753 37.848595 
L 237.358895 39.679555 
L 238.481606 41.770977 
L 239.267982 43.603249 
L 239.780189 45.046748 
L 240.700462 48.746416 
L 241.112246 51.057307 
L 241.858241 56.738796 
L 242.873091 68.428735 
L 244.268377 89.44082 
L 247.115802 137.255629 
L 249.330938 174.265722 
L 250.352696 187.545752 
L 250.991361 194.193598 
L 252.030121 201.952947 
L 252.426497 204.234769 
L 253.294699 207.227088 
L 254.1629 207.886056 
L 254.620911 207.399499 
L 255.347246 205.41357 
L 256.10068 201.839574 
L 256.916279 196.396641 
L 258.245148 183.908924 
L 260.112791 159.246572 
L 262.677015 118.679618 
L 266.370325 59.861282 
L 267.027056 52.896195 
L 267.853813 47.38618 
L 268.673663 44.200334 
L 269.825066 41.100964 
L 270.99666 38.701729 
L 271.867519 37.369529 
L 272.613513 36.53492 
L 273.680434 35.71534 
L 275.199521 34.865292 
L 276.855693 34.223296 
L 278.897083 33.723303 
L 281.162165 33.393643 
L 284.04147 33.226392 
L 286.164154 33.353702 
L 287.962192 33.70769 
L 289.816551 34.305852 
L 291.854753 35.254533 
L 293.453541 36.225214 
L 294.489113 37.107604 
L 295.121933 37.848595 
L 295.434358 38.253534 
L 295.434358 38.253534 
" clip-path="url(#p968454b593)" style="fill: none; stroke-dasharray: 7.4,3.2; stroke-dashoffset: 0; stroke: #9671bd; stroke-width: 2"/>
    <defs>
     <path id="m5f06279706" d="M -2 2 
L 2 2 
L 2 -2 
L -2 -2 
z
" style="stroke: #9671bd; stroke-linejoin: miter"/>
    </defs>
    <g clip-path="url(#p968454b593)">
     <use xlink:href="#m5f06279706" x="59.285267" y="38.25354" style="fill: #9671bd; stroke: #9671bd; stroke-linejoin: miter"/>
     <use xlink:href="#m5f06279706" x="71.088346" y="156.00365" style="fill: #9671bd; stroke: #9671bd; stroke-linejoin: miter"/>
     <use xlink:href="#m5f06279706" x="86.367845" y="105.496906" style="fill: #9671bd; stroke: #9671bd; stroke-linejoin: miter"/>
     <use xlink:href="#m5f06279706" x="95.749098" y="36.316154" style="fill: #9671bd; stroke: #9671bd; stroke-linejoin: miter"/>
     <use xlink:href="#m5f06279706" x="106.855809" y="33.227358" style="fill: #9671bd; stroke: #9671bd; stroke-linejoin: miter"/>
     <use xlink:href="#m5f06279706" x="118.010022" y="37.848598" style="fill: #9671bd; stroke: #9671bd; stroke-linejoin: miter"/>
     <use xlink:href="#m5f06279706" x="130.087642" y="155.369554" style="fill: #9671bd; stroke: #9671bd; stroke-linejoin: miter"/>
     <use xlink:href="#m5f06279706" x="145.401146" y="105.562007" style="fill: #9671bd; stroke: #9671bd; stroke-linejoin: miter"/>
     <use xlink:href="#m5f06279706" x="154.783674" y="36.318438" style="fill: #9671bd; stroke: #9671bd; stroke-linejoin: miter"/>
     <use xlink:href="#m5f06279706" x="165.889163" y="33.227409" style="fill: #9671bd; stroke: #9671bd; stroke-linejoin: miter"/>
     <use xlink:href="#m5f06279706" x="177.037478" y="37.835632" style="fill: #9671bd; stroke: #9671bd; stroke-linejoin: miter"/>
     <use xlink:href="#m5f06279706" x="188.810802" y="150.126354" style="fill: #9671bd; stroke: #9671bd; stroke-linejoin: miter"/>
     <use xlink:href="#m5f06279706" x="204.180734" y="109.808997" style="fill: #9671bd; stroke: #9671bd; stroke-linejoin: miter"/>
     <use xlink:href="#m5f06279706" x="213.753268" y="36.375963" style="fill: #9671bd; stroke: #9671bd; stroke-linejoin: miter"/>
     <use xlink:href="#m5f06279706" x="224.719494" y="33.230112" style="fill: #9671bd; stroke: #9671bd; stroke-linejoin: miter"/>
     <use xlink:href="#m5f06279706" x="236.056592" y="37.812159" style="fill: #9671bd; stroke: #9671bd; stroke-linejoin: miter"/>
     <use xlink:href="#m5f06279706" x="247.758186" y="148.548541" style="fill: #9671bd; stroke: #9671bd; stroke-linejoin: miter"/>
     <use xlink:href="#m5f06279706" x="263.159467" y="110.772733" style="fill: #9671bd; stroke: #9671bd; stroke-linejoin: miter"/>
     <use xlink:href="#m5f06279706" x="272.613513" y="36.53492" style="fill: #9671bd; stroke: #9671bd; stroke-linejoin: miter"/>
     <use xlink:href="#m5f06279706" x="283.48463" y="33.233671" style="fill: #9671bd; stroke: #9671bd; stroke-linejoin: miter"/>
     <use xlink:href="#m5f06279706" x="294.859453" y="37.508947" style="fill: #9671bd; stroke: #9671bd; stroke-linejoin: miter"/>
    </g>
   </g>
   <g id="line2d_29">
    <path d="M 59.285267 37.798091 
L 60.145871 39.007939 
L 61.030331 40.475153 
L 62.132798 42.750761 
L 62.668756 44.148731 
L 63.588604 47.507375 
L 64.412226 52.474026 
L 64.927993 57.108268 
L 65.761446 66.372438 
L 66.482467 76.610679 
L 68.336349 107.396864 
L 70.271206 143.139045 
L 71.70342 169.100686 
L 72.904237 186.508015 
L 73.852086 196.505021 
L 74.597071 202.33022 
L 75.314745 206.106132 
L 76.015364 208.467999 
L 76.93112 208.778153 
L 77.509319 207.688824 
L 78.253082 204.889079 
L 78.989087 200.520154 
L 79.804793 193.879749 
L 81.133609 179.23764 
L 83.001146 151.035534 
L 86.106109 96.917282 
L 88.120294 63.456089 
L 88.979198 53.586213 
L 89.74889 47.957967 
L 90.504926 44.572746 
L 91.20071 42.457098 
L 92.2527 39.984856 
L 93.118511 38.359574 
L 93.885068 37.200096 
L 94.875742 36.087046 
L 95.870774 35.314458 
L 97.379766 34.450971 
L 98.831214 33.87752 
L 100.762883 33.360797 
L 102.740459 33.015605 
L 105.048101 32.853884 
L 107.845368 32.912923 
L 109.538945 33.149055 
L 111.689471 33.695716 
L 113.767895 34.464172 
L 115.701264 35.469543 
L 117.062173 36.430768 
L 118.010022 37.41425 
L 119.183103 39.007939 
L 120.067564 40.475153 
L 121.170031 42.750773 
L 121.705989 44.148731 
L 122.625836 47.507375 
L 123.449459 52.474026 
L 123.965226 57.108268 
L 124.798678 66.372438 
L 125.519753 76.610679 
L 127.373635 107.396864 
L 129.308439 143.138943 
L 130.740652 169.100686 
L 131.94147 186.508015 
L 132.889319 196.505021 
L 133.634304 202.33022 
L 134.351978 206.106126 
L 135.052597 208.467999 
L 135.968353 208.778153 
L 136.546552 207.688824 
L 137.290315 204.889047 
L 138.02632 200.520154 
L 138.842079 193.879689 
L 140.170842 179.23764 
L 142.038379 151.035534 
L 145.143342 96.917282 
L 147.157527 63.456089 
L 148.01643 53.586213 
L 148.786122 47.957967 
L 149.542159 44.572726 
L 150.237943 42.457104 
L 151.289933 39.984844 
L 152.155744 38.359565 
L 152.922301 37.200096 
L 153.912975 36.087046 
L 154.908007 35.314458 
L 156.416999 34.450971 
L 157.868447 33.87752 
L 159.800116 33.360797 
L 161.777692 33.015605 
L 164.085334 32.853884 
L 166.882654 32.912923 
L 168.576178 33.149055 
L 170.726704 33.695716 
L 172.805128 34.464172 
L 174.738497 35.469543 
L 176.09914 36.430768 
L 177.047042 37.41425 
L 178.22023 39.007939 
L 179.104903 40.475153 
L 180.207424 42.750773 
L 180.743009 44.148731 
L 181.663282 47.507375 
L 182.486851 52.474026 
L 183.002246 57.108268 
L 183.835911 66.372438 
L 184.556933 76.610679 
L 186.410761 107.396813 
L 188.345884 143.138943 
L 189.777832 169.100686 
L 190.97865 186.508015 
L 191.926552 196.505004 
L 192.671483 202.330198 
L 193.389317 206.106126 
L 194.089617 208.467999 
L 195.005639 208.778153 
L 195.583731 207.688824 
L 196.327601 204.889047 
L 197.0635 200.520154 
L 197.879099 193.879689 
L 199.207968 179.23764 
L 201.075612 151.035534 
L 204.122287 97.942546 
L 206.195026 63.456089 
L 207.053663 53.586252 
L 207.823568 47.957967 
L 208.579126 44.572726 
L 209.275176 42.457104 
L 210.327219 39.984844 
L 211.105625 38.51468 
L 211.959481 37.200096 
L 212.950421 36.087046 
L 213.94508 35.314458 
L 215.454072 34.450971 
L 216.90568 33.87752 
L 218.837614 33.360797 
L 220.814712 33.015605 
L 223.122832 32.853884 
L 225.91978 32.912923 
L 227.613677 33.149055 
L 229.76399 33.695716 
L 231.842573 34.464172 
L 233.917968 35.557516 
L 235.136851 36.430768 
L 236.084753 37.41425 
L 237.25741 39.007939 
L 238.142083 40.475153 
L 239.244603 42.750773 
L 239.780189 44.148714 
L 240.700462 47.507375 
L 241.524031 52.474026 
L 242.039426 57.108268 
L 242.873091 66.372438 
L 243.594113 76.610679 
L 245.447941 107.396813 
L 247.383064 143.138943 
L 248.815012 169.100686 
L 250.015829 186.508015 
L 250.963731 196.505004 
L 251.708663 202.330232 
L 252.426497 206.106126 
L 253.127328 208.467999 
L 254.042819 208.778153 
L 254.620911 207.688824 
L 255.36478 204.889079 
L 256.10068 200.520114 
L 256.916279 193.879746 
L 258.245148 179.237566 
L 260.112791 151.035534 
L 263.159467 97.942546 
L 265.232205 63.456089 
L 266.090843 53.586252 
L 266.860748 47.957967 
L 267.616838 44.572746 
L 268.312355 42.457104 
L 269.379808 39.951081 
L 270.65023 37.692663 
L 271.653922 36.413333 
L 272.613513 35.573545 
L 273.999235 34.702486 
L 275.523636 34.020938 
L 277.481606 33.447603 
L 279.852423 33.015605 
L 282.160012 32.853884 
L 284.95696 32.912923 
L 286.650857 33.149055 
L 288.80117 33.695716 
L 290.879753 34.464172 
L 292.81275 35.469543 
L 294.174031 36.430768 
L 295.121933 37.41425 
L 295.434358 37.798091 
L 295.434358 37.798091 
" clip-path="url(#p968454b593)" style="fill: none; stroke-dasharray: 12.8,3.2,2,3.2; stroke-dashoffset: 0; stroke: #378d94; stroke-width: 2"/>
    <defs>
     <path id="m00cef417ab" d="M -0 2.828427 
L 2.828427 0 
L 0 -2.828427 
L -2.828427 -0 
z
" style="stroke: #378d94; stroke-linejoin: miter"/>
    </defs>
    <g clip-path="url(#p968454b593)">
     <use xlink:href="#m00cef417ab" x="59.285267" y="37.798091" style="fill: #378d94; stroke: #378d94; stroke-linejoin: miter"/>
     <use xlink:href="#m00cef417ab" x="71.088346" y="158.193347" style="fill: #378d94; stroke: #378d94; stroke-linejoin: miter"/>
     <use xlink:href="#m00cef417ab" x="86.367845" y="92.328536" style="fill: #378d94; stroke: #378d94; stroke-linejoin: miter"/>
     <use xlink:href="#m00cef417ab" x="95.749098" y="35.397748" style="fill: #378d94; stroke: #378d94; stroke-linejoin: miter"/>
     <use xlink:href="#m00cef417ab" x="106.855809" y="32.857846" style="fill: #378d94; stroke: #378d94; stroke-linejoin: miter"/>
     <use xlink:href="#m00cef417ab" x="118.010022" y="37.41425" style="fill: #378d94; stroke: #378d94; stroke-linejoin: miter"/>
     <use xlink:href="#m00cef417ab" x="130.087642" y="157.503236" style="fill: #378d94; stroke: #378d94; stroke-linejoin: miter"/>
     <use xlink:href="#m00cef417ab" x="145.401146" y="92.397288" style="fill: #378d94; stroke: #378d94; stroke-linejoin: miter"/>
     <use xlink:href="#m00cef417ab" x="154.783674" y="35.399624" style="fill: #378d94; stroke: #378d94; stroke-linejoin: miter"/>
     <use xlink:href="#m00cef417ab" x="165.889163" y="32.857761" style="fill: #378d94; stroke: #378d94; stroke-linejoin: miter"/>
     <use xlink:href="#m00cef417ab" x="177.037478" y="37.401961" style="fill: #378d94; stroke: #378d94; stroke-linejoin: miter"/>
     <use xlink:href="#m00cef417ab" x="188.810802" y="151.796853" style="fill: #378d94; stroke: #378d94; stroke-linejoin: miter"/>
     <use xlink:href="#m00cef417ab" x="204.180734" y="96.917282" style="fill: #378d94; stroke: #378d94; stroke-linejoin: miter"/>
     <use xlink:href="#m00cef417ab" x="213.753268" y="35.446878" style="fill: #378d94; stroke: #378d94; stroke-linejoin: miter"/>
     <use xlink:href="#m00cef417ab" x="224.719494" y="32.853182" style="fill: #378d94; stroke: #378d94; stroke-linejoin: miter"/>
     <use xlink:href="#m00cef417ab" x="236.056592" y="37.379716" style="fill: #378d94; stroke: #378d94; stroke-linejoin: miter"/>
     <use xlink:href="#m00cef417ab" x="247.758186" y="150.16538" style="fill: #378d94; stroke: #378d94; stroke-linejoin: miter"/>
     <use xlink:href="#m00cef417ab" x="263.159467" y="97.942546" style="fill: #378d94; stroke: #378d94; stroke-linejoin: miter"/>
     <use xlink:href="#m00cef417ab" x="272.613513" y="35.573545" style="fill: #378d94; stroke: #378d94; stroke-linejoin: miter"/>
     <use xlink:href="#m00cef417ab" x="283.48463" y="32.847161" style="fill: #378d94; stroke: #378d94; stroke-linejoin: miter"/>
     <use xlink:href="#m00cef417ab" x="294.859453" y="37.116572" style="fill: #378d94; stroke: #378d94; stroke-linejoin: miter"/>
    </g>
   </g>
   <g id="line2d_30">
    <path d="M 59.285267 36.869978 
L 60.486244 38.347659 
L 61.747208 40.35224 
L 62.668756 42.225417 
L 63.446578 44.225901 
L 64.380824 48.035587 
L 65.173204 53.445925 
L 65.761446 59.471666 
L 66.482467 68.500419 
L 67.735993 88.839695 
L 69.271764 117.503783 
L 70.646594 146.409869 
L 72.453399 183.749477 
L 73.577757 202.201028 
L 74.597071 214.314033 
L 75.290941 220.263814 
L 75.735935 223.487656 
L 76.5535 226.800112 
L 77.260601 228.152514 
L 78.044798 227.788147 
L 78.354354 227.248692 
L 78.989087 225.423543 
L 79.774985 221.717156 
L 81.079785 211.297958 
L 81.904948 202.617347 
L 83.308417 182.290604 
L 84.571029 159.992559 
L 89.915357 60.587468 
L 90.838711 50.123918 
L 91.562018 45.66106 
L 92.502321 42.356635 
L 93.569774 39.76318 
L 94.382717 38.211403 
L 95.502027 36.629521 
L 96.40636 35.773744 
L 97.694157 34.969841 
L 99.24693 34.272774 
L 100.762883 33.78688 
L 103.237789 33.251165 
L 105.803712 32.911409 
L 108.151204 32.87235 
L 110.071821 33.11736 
L 112.704747 33.781697 
L 114.742895 34.552188 
L 116.5887 35.50151 
L 117.747967 36.322351 
L 118.759682 37.360505 
L 119.676023 38.570775 
L 120.784441 40.35224 
L 121.705989 42.225417 
L 122.483811 44.225901 
L 123.418057 48.035587 
L 124.210437 53.445925 
L 124.798678 59.471666 
L 125.519753 68.500419 
L 126.773279 88.839788 
L 128.308997 117.503783 
L 129.68388 146.409869 
L 131.490632 183.7494 
L 132.61499 202.201028 
L 133.634304 214.314033 
L 134.328174 220.263814 
L 134.773167 223.487656 
L 135.590733 226.800112 
L 136.297834 228.152514 
L 137.082031 227.78815 
L 137.391587 227.248692 
L 138.02632 225.423543 
L 138.812218 221.717156 
L 140.117018 211.297958 
L 140.942181 202.617347 
L 142.34565 182.290604 
L 143.608261 159.992559 
L 148.95259 60.587468 
L 149.875944 50.123918 
L 150.599251 45.66106 
L 151.539554 42.356635 
L 152.607007 39.76318 
L 153.420003 38.211403 
L 154.53926 36.629521 
L 155.443593 35.773744 
L 156.73139 34.969844 
L 158.284163 34.272774 
L 159.800116 33.78688 
L 162.275075 33.251165 
L 164.840945 32.911409 
L 167.188437 32.87235 
L 169.109054 33.11736 
L 171.741979 33.781697 
L 173.780128 34.552191 
L 175.625721 35.50151 
L 176.785094 36.322351 
L 177.796756 37.360502 
L 178.713309 38.570775 
L 179.821674 40.35224 
L 180.743009 42.225414 
L 181.520884 44.225901 
L 182.455503 48.035587 
L 183.247723 53.445925 
L 183.835911 59.47164 
L 184.556933 68.500419 
L 185.810353 88.839788 
L 187.346443 117.503783 
L 188.810802 148.335643 
L 190.528077 183.7494 
L 191.652383 202.201028 
L 192.671483 214.314008 
L 193.365407 220.263814 
L 193.810666 223.487656 
L 194.627859 226.800112 
L 195.335067 228.152514 
L 196.119317 227.78815 
L 196.428554 227.248692 
L 197.0635 225.423543 
L 197.849344 221.717156 
L 199.154304 211.297958 
L 199.979467 202.617347 
L 201.382723 182.290604 
L 202.645707 159.992627 
L 207.989876 60.587468 
L 208.913336 50.123918 
L 209.636483 45.66106 
L 210.576947 42.356635 
L 211.61305 39.833688 
L 212.303255 38.488171 
L 213.217151 37.071454 
L 214.20756 35.996222 
L 215.140053 35.327268 
L 216.486456 34.617454 
L 218.444426 33.897201 
L 220.814712 33.340326 
L 223.625475 32.926246 
L 226.225829 32.87235 
L 228.146075 33.11736 
L 230.779372 33.781697 
L 232.817573 34.552191 
L 234.663432 35.50151 
L 235.822274 36.322351 
L 236.833936 37.360502 
L 237.750489 38.570775 
L 238.858854 40.35224 
L 239.780189 42.225414 
L 240.558064 44.225901 
L 241.492682 48.035587 
L 242.284903 53.445925 
L 242.873091 59.47164 
L 243.594113 68.500419 
L 244.847532 88.839743 
L 246.383622 117.503766 
L 247.758186 146.409869 
L 249.565257 183.7494 
L 250.689562 202.201028 
L 251.708663 214.314061 
L 252.402587 220.263797 
L 252.847846 223.487656 
L 253.665039 226.800112 
L 254.372246 228.152514 
L 255.156497 227.78815 
L 255.466265 227.248692 
L 256.10068 225.423543 
L 256.886524 221.717156 
L 258.191483 211.297958 
L 259.016647 202.617347 
L 260.419903 182.290649 
L 261.682887 159.992627 
L 267.027056 60.58751 
L 267.950516 50.123918 
L 268.673663 45.66106 
L 269.614126 42.356635 
L 270.65023 39.833688 
L 271.340434 38.488171 
L 272.254862 37.071454 
L 273.208077 36.027565 
L 274.177233 35.327268 
L 275.523636 34.617454 
L 277.481606 33.897198 
L 279.852423 33.340326 
L 282.662655 32.926246 
L 285.263009 32.87235 
L 287.183786 33.11736 
L 289.816551 33.781697 
L 291.854753 34.552191 
L 293.700611 35.50151 
L 294.859453 36.322351 
L 295.434358 36.869978 
L 295.434358 36.869978 
" clip-path="url(#p968454b593)" style="fill: none; stroke-dasharray: 3,4.95; stroke-dashoffset: 0; stroke: #77b5b6; stroke-width: 3"/>
    <defs>
     <path id="m74b018bcca" d="M 0 -2 
L -2 2 
L 2 2 
z
" style="stroke: #77b5b6; stroke-linejoin: miter"/>
    </defs>
    <g clip-path="url(#p968454b593)">
     <use xlink:href="#m74b018bcca" x="59.285267" y="36.869978" style="fill: #77b5b6; stroke: #77b5b6; stroke-linejoin: miter"/>
     <use xlink:href="#m74b018bcca" x="71.088346" y="155.885565" style="fill: #77b5b6; stroke: #77b5b6; stroke-linejoin: miter"/>
     <use xlink:href="#m74b018bcca" x="86.367845" y="124.51449" style="fill: #77b5b6; stroke: #77b5b6; stroke-linejoin: miter"/>
     <use xlink:href="#m74b018bcca" x="95.749098" y="36.357894" style="fill: #77b5b6; stroke: #77b5b6; stroke-linejoin: miter"/>
     <use xlink:href="#m74b018bcca" x="106.855809" y="32.849892" style="fill: #77b5b6; stroke: #77b5b6; stroke-linejoin: miter"/>
     <use xlink:href="#m74b018bcca" x="118.010022" y="36.55718" style="fill: #77b5b6; stroke: #77b5b6; stroke-linejoin: miter"/>
     <use xlink:href="#m74b018bcca" x="130.087642" y="155.071011" style="fill: #77b5b6; stroke: #77b5b6; stroke-linejoin: miter"/>
     <use xlink:href="#m74b018bcca" x="145.401146" y="124.591844" style="fill: #77b5b6; stroke: #77b5b6; stroke-linejoin: miter"/>
     <use xlink:href="#m74b018bcca" x="154.783674" y="36.360611" style="fill: #77b5b6; stroke: #77b5b6; stroke-linejoin: miter"/>
     <use xlink:href="#m74b018bcca" x="165.889163" y="32.849926" style="fill: #77b5b6; stroke: #77b5b6; stroke-linejoin: miter"/>
     <use xlink:href="#m74b018bcca" x="177.037478" y="36.548215" style="fill: #77b5b6; stroke: #77b5b6; stroke-linejoin: miter"/>
     <use xlink:href="#m74b018bcca" x="188.810802" y="148.335643" style="fill: #77b5b6; stroke: #77b5b6; stroke-linejoin: miter"/>
     <use xlink:href="#m74b018bcca" x="204.180734" y="129.677384" style="fill: #77b5b6; stroke: #77b5b6; stroke-linejoin: miter"/>
     <use xlink:href="#m74b018bcca" x="213.753268" y="36.431833" style="fill: #77b5b6; stroke: #77b5b6; stroke-linejoin: miter"/>
     <use xlink:href="#m74b018bcca" x="224.719494" y="32.862059" style="fill: #77b5b6; stroke: #77b5b6; stroke-linejoin: miter"/>
     <use xlink:href="#m74b018bcca" x="236.056592" y="36.531991" style="fill: #77b5b6; stroke: #77b5b6; stroke-linejoin: miter"/>
     <use xlink:href="#m74b018bcca" x="247.758186" y="146.409869" style="fill: #77b5b6; stroke: #77b5b6; stroke-linejoin: miter"/>
     <use xlink:href="#m74b018bcca" x="263.159467" y="130.831401" style="fill: #77b5b6; stroke: #77b5b6; stroke-linejoin: miter"/>
     <use xlink:href="#m74b018bcca" x="272.613513" y="36.629521" style="fill: #77b5b6; stroke: #77b5b6; stroke-linejoin: miter"/>
     <use xlink:href="#m74b018bcca" x="283.48463" y="32.878026" style="fill: #77b5b6; stroke: #77b5b6; stroke-linejoin: miter"/>
     <use xlink:href="#m74b018bcca" x="294.859453" y="36.322351" style="fill: #77b5b6; stroke: #77b5b6; stroke-linejoin: miter"/>
    </g>
   </g>
   <g id="line2d_31">
    <path d="M 47.477812 116.396781 
L 307.241813 116.396781 
" clip-path="url(#p968454b593)" style="fill: none; stroke-dasharray: 4.44,1.92; stroke-dashoffset: 0; stroke: #000000; stroke-width: 1.2"/>
   </g>
   <g id="patch_3">
    <path d="M 47.477812 237.917969 
L 47.477812 23.077969 
" style="fill: none; stroke: #000000; stroke-linejoin: miter; stroke-linecap: square"/>
   </g>
   <g id="patch_4">
    <path d="M 307.241813 237.917969 
L 307.241813 23.077969 
" style="fill: none; stroke: #000000; stroke-linejoin: miter; stroke-linecap: square"/>
   </g>
   <g id="patch_5">
    <path d="M 47.477813 237.917969 
L 307.241812 237.917969 
" style="fill: none; stroke: #000000; stroke-linejoin: miter; stroke-linecap: square"/>
   </g>
   <g id="patch_6">
    <path d="M 47.477813 23.077969 
L 307.241812 23.077969 
" style="fill: none; stroke: #000000; stroke-linejoin: miter; stroke-linecap: square"/>
   </g>
   <g id="text_16">
    <!-- Corner Waveforms (Zoomed) -->
    <g transform="translate(82.074891 17.077969) scale(0.13 -0.13)">
     <defs>
      <path id="DejaVuSerif-43" d="M 4513 1234 
Q 4306 581 3820 245 
Q 3334 -91 2591 -91 
Q 2134 -91 1743 65 
Q 1353 222 1050 525 
Q 700 875 529 1320 
Q 359 1766 359 2328 
Q 359 3416 987 4083 
Q 1616 4750 2644 4750 
Q 3025 4750 3456 4650 
Q 3888 4550 4384 4347 
L 4384 3272 
L 4031 3272 
Q 3916 3859 3567 4137 
Q 3219 4416 2591 4416 
Q 1844 4416 1459 3886 
Q 1075 3356 1075 2328 
Q 1075 1303 1459 773 
Q 1844 244 2591 244 
Q 3113 244 3450 492 
Q 3788 741 3938 1234 
L 4513 1234 
z
" transform="scale(0.015625)"/>
      <path id="DejaVuSerif-72" d="M 3059 3328 
L 3059 2497 
L 2728 2497 
Q 2713 2744 2591 2866 
Q 2469 2988 2234 2988 
Q 1809 2988 1582 2694 
Q 1356 2400 1356 1850 
L 1356 331 
L 2022 331 
L 2022 0 
L 263 0 
L 263 331 
L 781 331 
L 781 2994 
L 231 2994 
L 231 3322 
L 1356 3322 
L 1356 2731 
Q 1525 3078 1790 3245 
Q 2056 3413 2438 3413 
Q 2578 3413 2733 3391 
Q 2888 3369 3059 3328 
z
" transform="scale(0.015625)"/>
      <path id="DejaVuSerif-57" d="M 4878 0 
L 4366 0 
L 3297 3794 
L 2228 0 
L 1716 0 
L 494 4331 
L 31 4331 
L 31 4666 
L 1734 4666 
L 1734 4331 
L 1153 4331 
L 2125 884 
L 3188 4666 
L 3694 4666 
L 4775 844 
L 5753 4331 
L 5216 4331 
L 5216 4666 
L 6559 4666 
L 6559 4331 
L 6100 4331 
L 4878 0 
z
" transform="scale(0.015625)"/>
      <path id="DejaVuSerif-76" d="M 1581 0 
L 359 2988 
L -19 2988 
L -19 3322 
L 1509 3322 
L 1509 2988 
L 978 2988 
L 1913 703 
L 2847 2988 
L 2350 2988 
L 2350 3322 
L 3597 3322 
L 3597 2988 
L 3225 2988 
L 2003 0 
L 1581 0 
z
" transform="scale(0.015625)"/>
      <path id="DejaVuSerif-66" d="M 2753 4078 
L 2450 4078 
Q 2447 4313 2317 4434 
Q 2188 4556 1941 4556 
Q 1619 4556 1487 4379 
Q 1356 4203 1356 3750 
L 1356 3322 
L 2284 3322 
L 2284 2988 
L 1356 2988 
L 1356 331 
L 2094 331 
L 2094 0 
L 231 0 
L 231 331 
L 781 331 
L 781 2988 
L 231 2988 
L 231 3322 
L 781 3322 
L 781 3738 
Q 781 4294 1070 4578 
Q 1359 4863 1919 4863 
Q 2128 4863 2337 4825 
Q 2547 4788 2753 4709 
L 2753 4078 
z
" transform="scale(0.015625)"/>
      <path id="DejaVuSerif-5a" d="M 288 0 
L 288 225 
L 3194 4281 
L 781 4281 
L 781 3584 
L 397 3584 
L 397 4666 
L 4084 4666 
L 4084 4441 
L 1178 384 
L 3816 384 
L 3816 1038 
L 4197 1038 
L 4197 0 
L 288 0 
z
" transform="scale(0.015625)"/>
      <path id="DejaVuSerif-64" d="M 3359 331 
L 3909 331 
L 3909 0 
L 2784 0 
L 2784 519 
Q 2616 206 2355 57 
Q 2094 -91 1709 -91 
Q 1097 -91 708 395 
Q 319 881 319 1663 
Q 319 2444 706 2928 
Q 1094 3413 1709 3413 
Q 2094 3413 2355 3264 
Q 2616 3116 2784 2803 
L 2784 4531 
L 2241 4531 
L 2241 4863 
L 3359 4863 
L 3359 331 
z
M 2784 1497 
L 2784 1825 
Q 2784 2422 2554 2737 
Q 2325 3053 1888 3053 
Q 1444 3053 1217 2703 
Q 991 2353 991 1663 
Q 991 975 1217 622 
Q 1444 269 1888 269 
Q 2325 269 2554 583 
Q 2784 897 2784 1497 
z
" transform="scale(0.015625)"/>
     </defs>
     <use xlink:href="#DejaVuSerif-43"/>
     <use xlink:href="#DejaVuSerif-6f" transform="translate(76.513672 0)"/>
     <use xlink:href="#DejaVuSerif-72" transform="translate(136.71875 0)"/>
     <use xlink:href="#DejaVuSerif-6e" transform="translate(184.521484 0)"/>
     <use xlink:href="#DejaVuSerif-65" transform="translate(248.925781 0)"/>
     <use xlink:href="#DejaVuSerif-72" transform="translate(308.105469 0)"/>
     <use xlink:href="#DejaVuSerif-20" transform="translate(355.908203 0)"/>
     <use xlink:href="#DejaVuSerif-57" transform="translate(387.695312 0)"/>
     <use xlink:href="#DejaVuSerif-61" transform="translate(481.728516 0)"/>
     <use xlink:href="#DejaVuSerif-76" transform="translate(541.347656 0)"/>
     <use xlink:href="#DejaVuSerif-65" transform="translate(597.841797 0)"/>
     <use xlink:href="#DejaVuSerif-66" transform="translate(657.021484 0)"/>
     <use xlink:href="#DejaVuSerif-6f" transform="translate(694.033203 0)"/>
     <use xlink:href="#DejaVuSerif-72" transform="translate(754.238281 0)"/>
     <use xlink:href="#DejaVuSerif-6d" transform="translate(802.041016 0)"/>
     <use xlink:href="#DejaVuSerif-73" transform="translate(896.865234 0)"/>
     <use xlink:href="#DejaVuSerif-20" transform="translate(948.183594 0)"/>
     <use xlink:href="#DejaVuSerif-28" transform="translate(979.970703 0)"/>
     <use xlink:href="#DejaVuSerif-5a" transform="translate(1018.984375 0)"/>
     <use xlink:href="#DejaVuSerif-6f" transform="translate(1088.466797 0)"/>
     <use xlink:href="#DejaVuSerif-6f" transform="translate(1148.671875 0)"/>
     <use xlink:href="#DejaVuSerif-6d" transform="translate(1208.876953 0)"/>
     <use xlink:href="#DejaVuSerif-65" transform="translate(1303.701172 0)"/>
     <use xlink:href="#DejaVuSerif-64" transform="translate(1362.880859 0)"/>
     <use xlink:href="#DejaVuSerif-29" transform="translate(1426.894531 0)"/>
    </g>
   </g>
   <g id="legend_1">
    <g id="line2d_32">
     <path d="M 322.337093 97.391406 
L 333.337093 97.391406 
L 344.337093 97.391406 
" style="fill: none; stroke: #6a408d; stroke-width: 2; stroke-linecap: square"/>
     <g>
      <use xlink:href="#mdadba7c746" x="333.337093" y="97.391406" style="fill: #6a408d; stroke: #6a408d"/>
     </g>
    </g>
    <g id="text_17">
     <!-- FF -->
     <g transform="translate(353.137093 101.241406) scale(0.11 -0.11)">
      <defs>
       <path id="DejaVuSerif-46" d="M 353 0 
L 353 331 
L 947 331 
L 947 4331 
L 353 4331 
L 353 4666 
L 4172 4666 
L 4172 3628 
L 3788 3628 
L 3788 4281 
L 1581 4281 
L 1581 2719 
L 3175 2719 
L 3175 3303 
L 3559 3303 
L 3559 1753 
L 3175 1753 
L 3175 2338 
L 1581 2338 
L 1581 331 
L 2328 331 
L 2328 0 
L 353 0 
z
" transform="scale(0.015625)"/>
      </defs>
      <use xlink:href="#DejaVuSerif-46"/>
      <use xlink:href="#DejaVuSerif-46" transform="translate(69.384766 0)"/>
     </g>
    </g>
    <g id="line2d_33">
     <path d="M 322.337093 113.537344 
L 333.337093 113.537344 
L 344.337093 113.537344 
" style="fill: none; stroke-dasharray: 7.4,3.2; stroke-dashoffset: 0; stroke: #9671bd; stroke-width: 2"/>
     <g>
      <use xlink:href="#m5f06279706" x="333.337093" y="113.537344" style="fill: #9671bd; stroke: #9671bd; stroke-linejoin: miter"/>
     </g>
    </g>
    <g id="text_18">
     <!-- FS -->
     <g transform="translate(353.137093 117.387344) scale(0.11 -0.11)">
      <defs>
       <path id="DejaVuSerif-53" d="M 594 225 
L 594 1288 
L 953 1284 
Q 969 753 1261 498 
Q 1553 244 2150 244 
Q 2706 244 2998 464 
Q 3291 684 3291 1106 
Q 3291 1444 3114 1625 
Q 2938 1806 2369 1978 
L 1753 2163 
Q 1084 2366 811 2669 
Q 538 2972 538 3500 
Q 538 4094 959 4422 
Q 1381 4750 2144 4750 
Q 2469 4750 2856 4679 
Q 3244 4609 3681 4475 
L 3681 3481 
L 3328 3481 
Q 3275 3975 2998 4195 
Q 2722 4416 2156 4416 
Q 1663 4416 1405 4214 
Q 1147 4013 1147 3628 
Q 1147 3294 1340 3103 
Q 1534 2913 2163 2725 
L 2741 2553 
Q 3375 2363 3645 2067 
Q 3916 1772 3916 1275 
Q 3916 597 3481 253 
Q 3047 -91 2188 -91 
Q 1803 -91 1404 -12 
Q 1006 66 594 225 
z
" transform="scale(0.015625)"/>
      </defs>
      <use xlink:href="#DejaVuSerif-46"/>
      <use xlink:href="#DejaVuSerif-53" transform="translate(69.384766 0)"/>
     </g>
    </g>
    <g id="line2d_34">
     <path d="M 322.337093 129.683281 
L 333.337093 129.683281 
L 344.337093 129.683281 
" style="fill: none; stroke-dasharray: 12.8,3.2,2,3.2; stroke-dashoffset: 0; stroke: #378d94; stroke-width: 2"/>
     <g>
      <use xlink:href="#m00cef417ab" x="333.337093" y="129.683281" style="fill: #378d94; stroke: #378d94; stroke-linejoin: miter"/>
     </g>
    </g>
    <g id="text_19">
     <!-- SF -->
     <g transform="translate(353.137093 133.533281) scale(0.11 -0.11)">
      <use xlink:href="#DejaVuSerif-53"/>
      <use xlink:href="#DejaVuSerif-46" transform="translate(68.505859 0)"/>
     </g>
    </g>
    <g id="line2d_35">
     <path d="M 322.337093 145.829219 
L 333.337093 145.829219 
L 344.337093 145.829219 
" style="fill: none; stroke-dasharray: 3,4.95; stroke-dashoffset: 0; stroke: #77b5b6; stroke-width: 3"/>
     <g>
      <use xlink:href="#m74b018bcca" x="333.337093" y="145.829219" style="fill: #77b5b6; stroke: #77b5b6; stroke-linejoin: miter"/>
     </g>
    </g>
    <g id="text_20">
     <!-- SS -->
     <g transform="translate(353.137093 149.679219) scale(0.11 -0.11)">
      <use xlink:href="#DejaVuSerif-53"/>
      <use xlink:href="#DejaVuSerif-53" transform="translate(66.755859 0)"/>
     </g>
    </g>
    <g id="line2d_36">
     <path d="M 322.337093 161.975156 
L 333.337093 161.975156 
L 344.337093 161.975156 
" style="fill: none; stroke-dasharray: 4.44,1.92; stroke-dashoffset: 0; stroke: #000000; stroke-width: 1.2"/>
    </g>
    <g id="text_21">
     <!-- Threshold -->
     <g transform="translate(353.137093 165.825156) scale(0.11 -0.11)">
      <defs>
       <path id="DejaVuSerif-68" d="M 263 0 
L 263 331 
L 781 331 
L 781 4531 
L 231 4531 
L 231 4863 
L 1356 4863 
L 1356 2731 
Q 1516 3069 1770 3241 
Q 2025 3413 2363 3413 
Q 2913 3413 3172 3097 
Q 3431 2781 3431 2113 
L 3431 331 
L 3944 331 
L 3944 0 
L 2356 0 
L 2356 331 
L 2853 331 
L 2853 1931 
Q 2853 2541 2704 2764 
Q 2556 2988 2175 2988 
Q 1775 2988 1565 2697 
Q 1356 2406 1356 1850 
L 1356 331 
L 1856 331 
L 1856 0 
L 263 0 
z
" transform="scale(0.015625)"/>
      </defs>
      <use xlink:href="#DejaVuSerif-54"/>
      <use xlink:href="#DejaVuSerif-68" transform="translate(66.699219 0)"/>
      <use xlink:href="#DejaVuSerif-72" transform="translate(131.103516 0)"/>
      <use xlink:href="#DejaVuSerif-65" transform="translate(178.90625 0)"/>
      <use xlink:href="#DejaVuSerif-73" transform="translate(238.085938 0)"/>
      <use xlink:href="#DejaVuSerif-68" transform="translate(289.404297 0)"/>
      <use xlink:href="#DejaVuSerif-6f" transform="translate(353.808594 0)"/>
      <use xlink:href="#DejaVuSerif-6c" transform="translate(414.013672 0)"/>
      <use xlink:href="#DejaVuSerif-64" transform="translate(445.996094 0)"/>
     </g>
    </g>
   </g>
  </g>
 </g>
 <defs>
  <clipPath id="p968454b593">
   <rect x="47.477812" y="23.077969" width="259.764" height="214.84"/>
  </clipPath>
 </defs>
</svg>
