<?xml version="1.0" encoding="utf-8" standalone="no"?>
<!DOCTYPE svg PUBLIC "-//W3C//DTD SVG 1.1//EN"
  "http://www.w3.org/Graphics/SVG/1.1/DTD/svg11.dtd">
<svg xmlns:xlink="http://www.w3.org/1999/xlink" width="419.859036pt" height="278.548281pt" viewBox="0 0 419.859036 278.548281" xmlns="http://www.w3.org/2000/svg" version="1.1">
 <metadata>
  <rdf:RDF xmlns:dc="http://purl.org/dc/elements/1.1/" xmlns:cc="http://creativecommons.org/ns#" xmlns:rdf="http://www.w3.org/1999/02/22-rdf-syntax-ns#">
   <cc:Work>
    <dc:type rdf:resource="http://purl.org/dc/dcmitype/StillImage"/>
    <dc:date>2026-06-16T15:06:24.588513</dc:date>
    <dc:format>image/svg+xml</dc:format>
    <dc:creator>
     <cc:Agent>
      <dc:title>Matplotlib v3.10.0, https://matplotlib.org/</dc:title>
     </cc:Agent>
    </dc:creator>
   </cc:Work>
  </rdf:RDF>
 </metadata>
 <defs>
  <style type="text/css">*{stroke-linejoin: round; stroke-linecap: butt}</style>
 </defs>
 <g id="figure_1">
  <g id="patch_1">
   <path d="M 0 278.548281 
L 419.859036 278.548281 
L 419.859036 0 
L 0 0 
z
" style="fill: #ffffff"/>
  </g>
  <g id="axes_1">
   <g id="patch_2">
    <path d="M 53.028906 237.917969 
L 299.522906 237.917969 
L 299.522906 23.077969 
L 53.028906 23.077969 
z
" style="fill: #ffffff"/>
   </g>
   <g id="matplotlib.axis_1">
    <g id="xtick_1">
     <g id="line2d_1">
      <path d="M 64.233179 237.917969 
L 64.233179 23.077969 
" clip-path="url(#pa1af999c22)" style="fill: none; stroke-dasharray: 0.8,1.32; stroke-dashoffset: 0; stroke: #b0b0b0; stroke-width: 0.8"/>
     </g>
     <g id="line2d_2">
      <defs>
       <path id="m1c749edcfe" d="M 0 0 
L 0 3.5 
" style="stroke: #000000; stroke-width: 0.8"/>
      </defs>
      <g>
       <use xlink:href="#m1c749edcfe" x="64.233179" y="237.917969" style="stroke: #000000; stroke-width: 0.8"/>
      </g>
     </g>
     <g id="text_1">
      <!-- 0 -->
      <g transform="translate(60.733804 253.27625) scale(0.11 -0.11)">
       <defs>
        <path id="DejaVuSerif-30" d="M 2034 219 
Q 2513 219 2750 744 
Q 2988 1269 2988 2328 
Q 2988 3391 2750 3916 
Q 2513 4441 2034 4441 
Q 1556 4441 1318 3916 
Q 1081 3391 1081 2328 
Q 1081 1269 1318 744 
Q 1556 219 2034 219 
z
M 2034 -91 
Q 1275 -91 848 546 
Q 422 1184 422 2328 
Q 422 3475 848 4112 
Q 1275 4750 2034 4750 
Q 2797 4750 3222 4112 
Q 3647 3475 3647 2328 
Q 3647 1184 3222 546 
Q 2797 -91 2034 -91 
z
" transform="scale(0.015625)"/>
       </defs>
       <use xlink:href="#DejaVuSerif-30"/>
      </g>
     </g>
    </g>
    <g id="xtick_2">
     <g id="line2d_3">
      <path d="M 114.032713 237.917969 
L 114.032713 23.077969 
" clip-path="url(#pa1af999c22)" style="fill: none; stroke-dasharray: 0.8,1.32; stroke-dashoffset: 0; stroke: #b0b0b0; stroke-width: 0.8"/>
     </g>
     <g id="line2d_4">
      <g>
       <use xlink:href="#m1c749edcfe" x="114.032713" y="237.917969" style="stroke: #000000; stroke-width: 0.8"/>
      </g>
     </g>
     <g id="text_2">
      <!-- 100 -->
      <g transform="translate(103.534588 253.27625) scale(0.11 -0.11)">
       <defs>
        <path id="DejaVuSerif-31" d="M 909 0 
L 909 331 
L 1722 331 
L 1722 4213 
L 781 3603 
L 781 4013 
L 1919 4750 
L 2350 4750 
L 2350 331 
L 3163 331 
L 3163 0 
L 909 0 
z
" transform="scale(0.015625)"/>
       </defs>
       <use xlink:href="#DejaVuSerif-31"/>
       <use xlink:href="#DejaVuSerif-30" transform="translate(63.623047 0)"/>
       <use xlink:href="#DejaVuSerif-30" transform="translate(127.246094 0)"/>
      </g>
     </g>
    </g>
    <g id="xtick_3">
     <g id="line2d_5">
      <path d="M 163.832247 237.917969 
L 163.832247 23.077969 
" clip-path="url(#pa1af999c22)" style="fill: none; stroke-dasharray: 0.8,1.32; stroke-dashoffset: 0; stroke: #b0b0b0; stroke-width: 0.8"/>
     </g>
     <g id="line2d_6">
      <g>
       <use xlink:href="#m1c749edcfe" x="163.832247" y="237.917969" style="stroke: #000000; stroke-width: 0.8"/>
      </g>
     </g>
     <g id="text_3">
      <!-- 200 -->
      <g transform="translate(153.334122 253.27625) scale(0.11 -0.11)">
       <defs>
        <path id="DejaVuSerif-32" d="M 819 3553 
L 469 3553 
L 469 4384 
Q 803 4563 1142 4656 
Q 1481 4750 1806 4750 
Q 2534 4750 2956 4397 
Q 3378 4044 3378 3438 
Q 3378 2753 2422 1800 
Q 2347 1728 2309 1691 
L 1131 513 
L 3078 513 
L 3078 1088 
L 3444 1088 
L 3444 0 
L 434 0 
L 434 341 
L 1850 1753 
Q 2319 2222 2519 2614 
Q 2719 3006 2719 3438 
Q 2719 3909 2473 4175 
Q 2228 4441 1797 4441 
Q 1350 4441 1106 4219 
Q 863 3997 819 3553 
z
" transform="scale(0.015625)"/>
       </defs>
       <use xlink:href="#DejaVuSerif-32"/>
       <use xlink:href="#DejaVuSerif-30" transform="translate(63.623047 0)"/>
       <use xlink:href="#DejaVuSerif-30" transform="translate(127.246094 0)"/>
      </g>
     </g>
    </g>
    <g id="xtick_4">
     <g id="line2d_7">
      <path d="M 213.631781 237.917969 
L 213.631781 23.077969 
" clip-path="url(#pa1af999c22)" style="fill: none; stroke-dasharray: 0.8,1.32; stroke-dashoffset: 0; stroke: #b0b0b0; stroke-width: 0.8"/>
     </g>
     <g id="line2d_8">
      <g>
       <use xlink:href="#m1c749edcfe" x="213.631781" y="237.917969" style="stroke: #000000; stroke-width: 0.8"/>
      </g>
     </g>
     <g id="text_4">
      <!-- 300 -->
      <g transform="translate(203.133656 253.27625) scale(0.11 -0.11)">
       <defs>
        <path id="DejaVuSerif-33" d="M 622 4469 
Q 988 4606 1323 4678 
Q 1659 4750 1953 4750 
Q 2638 4750 3022 4454 
Q 3406 4159 3406 3634 
Q 3406 3213 3140 2930 
Q 2875 2647 2388 2547 
Q 2963 2466 3280 2130 
Q 3597 1794 3597 1259 
Q 3597 606 3158 257 
Q 2719 -91 1894 -91 
Q 1528 -91 1179 -12 
Q 831 66 488 225 
L 488 1131 
L 838 1131 
Q 869 681 1141 450 
Q 1413 219 1906 219 
Q 2384 219 2661 495 
Q 2938 772 2938 1253 
Q 2938 1803 2653 2086 
Q 2369 2369 1819 2369 
L 1522 2369 
L 1522 2688 
L 1678 2688 
Q 2225 2688 2498 2914 
Q 2772 3141 2772 3597 
Q 2772 4006 2547 4223 
Q 2322 4441 1900 4441 
Q 1478 4441 1245 4241 
Q 1013 4041 972 3647 
L 622 3647 
L 622 4469 
z
" transform="scale(0.015625)"/>
       </defs>
       <use xlink:href="#DejaVuSerif-33"/>
       <use xlink:href="#DejaVuSerif-30" transform="translate(63.623047 0)"/>
       <use xlink:href="#DejaVuSerif-30" transform="translate(127.246094 0)"/>
      </g>
     </g>
    </g>
    <g id="xtick_5">
     <g id="line2d_9">
      <path d="M 263.431316 237.917969 
L 263.431316 23.077969 
" clip-path="url(#pa1af999c22)" style="fill: none; stroke-dasharray: 0.8,1.32; stroke-dashoffset: 0; stroke: #b0b0b0; stroke-width: 0.8"/>
     </g>
     <g id="line2d_10">
      <g>
       <use xlink:href="#m1c749edcfe" x="263.431316" y="237.917969" style="stroke: #000000; stroke-width: 0.8"/>
      </g>
     </g>
     <g id="text_5">
      <!-- 400 -->
      <g transform="translate(252.933191 253.27625) scale(0.11 -0.11)">
       <defs>
        <path id="DejaVuSerif-34" d="M 2234 1581 
L 2234 4063 
L 641 1581 
L 2234 1581 
z
M 3609 0 
L 1484 0 
L 1484 331 
L 2234 331 
L 2234 1247 
L 197 1247 
L 197 1588 
L 2241 4750 
L 2859 4750 
L 2859 1581 
L 3750 1581 
L 3750 1247 
L 2859 1247 
L 2859 331 
L 3609 331 
L 3609 0 
z
" transform="scale(0.015625)"/>
       </defs>
       <use xlink:href="#DejaVuSerif-34"/>
       <use xlink:href="#DejaVuSerif-30" transform="translate(63.623047 0)"/>
       <use xlink:href="#DejaVuSerif-30" transform="translate(127.246094 0)"/>
      </g>
     </g>
    </g>
    <g id="text_6">
     <!-- Frequency (MHz) -->
     <g transform="translate(122.696844 268.682031) scale(0.12 -0.12)">
      <defs>
       <path id="DejaVuSerif-46" d="M 353 0 
L 353 331 
L 947 331 
L 947 4331 
L 353 4331 
L 353 4666 
L 4172 4666 
L 4172 3628 
L 3788 3628 
L 3788 4281 
L 1581 4281 
L 1581 2719 
L 3175 2719 
L 3175 3303 
L 3559 3303 
L 3559 1753 
L 3175 1753 
L 3175 2338 
L 1581 2338 
L 1581 331 
L 2328 331 
L 2328 0 
L 353 0 
z
" transform="scale(0.015625)"/>
       <path id="DejaVuSerif-72" d="M 3059 3328 
L 3059 2497 
L 2728 2497 
Q 2713 2744 2591 2866 
Q 2469 2988 2234 2988 
Q 1809 2988 1582 2694 
Q 1356 2400 1356 1850 
L 1356 331 
L 2022 331 
L 2022 0 
L 263 0 
L 263 331 
L 781 331 
L 781 2994 
L 231 2994 
L 231 3322 
L 1356 3322 
L 1356 2731 
Q 1525 3078 1790 3245 
Q 2056 3413 2438 3413 
Q 2578 3413 2733 3391 
Q 2888 3369 3059 3328 
z
" transform="scale(0.015625)"/>
       <path id="DejaVuSerif-65" d="M 3469 1600 
L 991 1600 
L 991 1575 
Q 991 903 1244 561 
Q 1497 219 1991 219 
Q 2369 219 2611 417 
Q 2853 616 2950 1006 
L 3413 1006 
Q 3275 459 2904 184 
Q 2534 -91 1931 -91 
Q 1203 -91 761 389 
Q 319 869 319 1663 
Q 319 2450 753 2931 
Q 1188 3413 1894 3413 
Q 2647 3413 3050 2948 
Q 3453 2484 3469 1600 
z
M 2791 1931 
Q 2772 2513 2545 2808 
Q 2319 3103 1894 3103 
Q 1497 3103 1269 2806 
Q 1041 2509 991 1931 
L 2791 1931 
z
" transform="scale(0.015625)"/>
       <path id="DejaVuSerif-71" d="M 3359 2988 
L 3359 -997 
L 3909 -997 
L 3909 -1331 
L 2241 -1331 
L 2241 -997 
L 2784 -997 
L 2784 519 
Q 2616 206 2355 57 
Q 2094 -91 1709 -91 
Q 1097 -91 708 395 
Q 319 881 319 1663 
Q 319 2444 706 2928 
Q 1094 3413 1709 3413 
Q 2094 3413 2355 3264 
Q 2616 3116 2784 2803 
L 2784 3322 
L 3909 3322 
L 3909 2988 
L 3359 2988 
z
M 2784 1825 
Q 2784 2422 2554 2737 
Q 2325 3053 1888 3053 
Q 1444 3053 1217 2703 
Q 991 2353 991 1663 
Q 991 975 1217 622 
Q 1444 269 1888 269 
Q 2325 269 2554 583 
Q 2784 897 2784 1497 
L 2784 1825 
z
" transform="scale(0.015625)"/>
       <path id="DejaVuSerif-75" d="M 2266 3322 
L 3341 3322 
L 3341 331 
L 3884 331 
L 3884 0 
L 2766 0 
L 2766 588 
Q 2606 256 2353 82 
Q 2100 -91 1766 -91 
Q 1213 -91 952 223 
Q 691 538 691 1209 
L 691 2988 
L 172 2988 
L 172 3322 
L 1269 3322 
L 1269 1388 
Q 1269 781 1417 556 
Q 1566 331 1947 331 
Q 2347 331 2556 625 
Q 2766 919 2766 1478 
L 2766 2988 
L 2266 2988 
L 2266 3322 
z
" transform="scale(0.015625)"/>
       <path id="DejaVuSerif-6e" d="M 263 0 
L 263 331 
L 781 331 
L 781 2988 
L 231 2988 
L 231 3322 
L 1356 3322 
L 1356 2731 
Q 1516 3069 1770 3241 
Q 2025 3413 2363 3413 
Q 2913 3413 3172 3097 
Q 3431 2781 3431 2113 
L 3431 331 
L 3944 331 
L 3944 0 
L 2356 0 
L 2356 331 
L 2853 331 
L 2853 1931 
Q 2853 2541 2703 2767 
Q 2553 2994 2175 2994 
Q 1775 2994 1565 2701 
Q 1356 2409 1356 1850 
L 1356 331 
L 1856 331 
L 1856 0 
L 263 0 
z
" transform="scale(0.015625)"/>
       <path id="DejaVuSerif-63" d="M 3291 997 
Q 3169 466 2822 187 
Q 2475 -91 1925 -91 
Q 1200 -91 759 389 
Q 319 869 319 1663 
Q 319 2459 759 2936 
Q 1200 3413 1925 3413 
Q 2241 3413 2553 3339 
Q 2866 3266 3181 3116 
L 3181 2266 
L 2847 2266 
Q 2781 2703 2561 2903 
Q 2341 3103 1931 3103 
Q 1466 3103 1228 2742 
Q 991 2381 991 1663 
Q 991 944 1227 581 
Q 1463 219 1931 219 
Q 2303 219 2525 412 
Q 2747 606 2828 997 
L 3291 997 
z
" transform="scale(0.015625)"/>
       <path id="DejaVuSerif-79" d="M 1381 -609 
L 1600 -56 
L 359 2988 
L -19 2988 
L -19 3322 
L 1509 3322 
L 1509 2988 
L 978 2988 
L 1913 703 
L 2847 2988 
L 2350 2988 
L 2350 3322 
L 3597 3322 
L 3597 2988 
L 3225 2988 
L 1703 -750 
Q 1547 -1138 1356 -1280 
Q 1166 -1422 819 -1422 
Q 672 -1422 517 -1397 
Q 363 -1372 206 -1325 
L 206 -691 
L 500 -691 
Q 519 -903 608 -995 
Q 697 -1088 884 -1088 
Q 1056 -1088 1161 -992 
Q 1266 -897 1381 -609 
z
" transform="scale(0.015625)"/>
       <path id="DejaVuSerif-20" transform="scale(0.015625)"/>
       <path id="DejaVuSerif-28" d="M 2041 -997 
Q 1281 -656 893 83 
Q 506 822 506 1931 
Q 506 3044 893 3783 
Q 1281 4522 2041 4863 
L 2041 4556 
Q 1559 4225 1350 3623 
Q 1141 3022 1141 1931 
Q 1141 844 1350 242 
Q 1559 -359 2041 -691 
L 2041 -997 
z
" transform="scale(0.015625)"/>
       <path id="DejaVuSerif-4d" d="M 353 0 
L 353 331 
L 947 331 
L 947 4331 
L 319 4331 
L 319 4666 
L 1678 4666 
L 3316 1344 
L 4953 4666 
L 6228 4666 
L 6228 4331 
L 5606 4331 
L 5606 331 
L 6203 331 
L 6203 0 
L 4378 0 
L 4378 331 
L 4972 331 
L 4972 3938 
L 3372 684 
L 2931 684 
L 1331 3938 
L 1331 331 
L 1925 331 
L 1925 0 
L 353 0 
z
" transform="scale(0.015625)"/>
       <path id="DejaVuSerif-48" d="M 353 0 
L 353 331 
L 947 331 
L 947 4331 
L 353 4331 
L 353 4666 
L 2175 4666 
L 2175 4331 
L 1581 4331 
L 1581 2719 
L 4000 2719 
L 4000 4331 
L 3406 4331 
L 3406 4666 
L 5228 4666 
L 5228 4331 
L 4634 4331 
L 4634 331 
L 5228 331 
L 5228 0 
L 3406 0 
L 3406 331 
L 4000 331 
L 4000 2338 
L 1581 2338 
L 1581 331 
L 2175 331 
L 2175 0 
L 353 0 
z
" transform="scale(0.015625)"/>
       <path id="DejaVuSerif-7a" d="M 256 0 
L 256 269 
L 2338 2988 
L 691 2988 
L 691 2413 
L 359 2413 
L 359 3322 
L 3078 3322 
L 3078 3053 
L 997 331 
L 2803 331 
L 2803 934 
L 3138 934 
L 3138 0 
L 256 0 
z
" transform="scale(0.015625)"/>
       <path id="DejaVuSerif-29" d="M 453 -997 
L 453 -691 
Q 934 -359 1145 242 
Q 1356 844 1356 1931 
Q 1356 3022 1145 3623 
Q 934 4225 453 4556 
L 453 4863 
Q 1216 4522 1603 3783 
Q 1991 3044 1991 1931 
Q 1991 822 1603 83 
Q 1216 -656 453 -997 
z
" transform="scale(0.015625)"/>
      </defs>
      <use xlink:href="#DejaVuSerif-46"/>
      <use xlink:href="#DejaVuSerif-72" transform="translate(69.384766 0)"/>
      <use xlink:href="#DejaVuSerif-65" transform="translate(117.1875 0)"/>
      <use xlink:href="#DejaVuSerif-71" transform="translate(176.367188 0)"/>
      <use xlink:href="#DejaVuSerif-75" transform="translate(240.380859 0)"/>
      <use xlink:href="#DejaVuSerif-65" transform="translate(304.785156 0)"/>
      <use xlink:href="#DejaVuSerif-6e" transform="translate(363.964844 0)"/>
      <use xlink:href="#DejaVuSerif-63" transform="translate(428.369141 0)"/>
      <use xlink:href="#DejaVuSerif-79" transform="translate(484.375 0)"/>
      <use xlink:href="#DejaVuSerif-20" transform="translate(540.869141 0)"/>
      <use xlink:href="#DejaVuSerif-28" transform="translate(572.65625 0)"/>
      <use xlink:href="#DejaVuSerif-4d" transform="translate(611.669922 0)"/>
      <use xlink:href="#DejaVuSerif-48" transform="translate(714.0625 0)"/>
      <use xlink:href="#DejaVuSerif-7a" transform="translate(801.269531 0)"/>
      <use xlink:href="#DejaVuSerif-29" transform="translate(853.955078 0)"/>
     </g>
    </g>
   </g>
   <g id="matplotlib.axis_2">
    <g id="ytick_1">
     <g id="line2d_11">
      <path d="M 53.028906 210.223033 
L 299.522906 210.223033 
" clip-path="url(#pa1af999c22)" style="fill: none; stroke-dasharray: 0.8,1.32; stroke-dashoffset: 0; stroke: #b0b0b0; stroke-width: 0.8"/>
     </g>
     <g id="line2d_12">
      <defs>
       <path id="m1317e9a304" d="M 0 0 
L -3.5 0 
" style="stroke: #000000; stroke-width: 0.8"/>
      </defs>
      <g>
       <use xlink:href="#m1317e9a304" x="53.028906" y="210.223033" style="stroke: #000000; stroke-width: 0.8"/>
      </g>
     </g>
     <g id="text_7">
      <!-- −80 -->
      <g transform="translate(22.81375 214.402173) scale(0.11 -0.11)">
       <defs>
        <path id="DejaVuSerif-2212" d="M 678 2259 
L 4684 2259 
L 4684 1753 
L 678 1753 
L 678 2259 
z
" transform="scale(0.015625)"/>
        <path id="DejaVuSerif-38" d="M 2981 1275 
Q 2981 1775 2732 2051 
Q 2484 2328 2034 2328 
Q 1584 2328 1336 2051 
Q 1088 1775 1088 1275 
Q 1088 772 1336 495 
Q 1584 219 2034 219 
Q 2484 219 2732 495 
Q 2981 772 2981 1275 
z
M 2853 3541 
Q 2853 3966 2637 4203 
Q 2422 4441 2034 4441 
Q 1650 4441 1433 4203 
Q 1216 3966 1216 3541 
Q 1216 3113 1433 2875 
Q 1650 2638 2034 2638 
Q 2422 2638 2637 2875 
Q 2853 3113 2853 3541 
z
M 2516 2484 
Q 3047 2413 3344 2092 
Q 3641 1772 3641 1275 
Q 3641 619 3225 264 
Q 2809 -91 2034 -91 
Q 1263 -91 845 264 
Q 428 619 428 1275 
Q 428 1772 725 2092 
Q 1022 2413 1556 2484 
Q 1084 2569 832 2842 
Q 581 3116 581 3541 
Q 581 4103 968 4426 
Q 1356 4750 2034 4750 
Q 2713 4750 3100 4426 
Q 3488 4103 3488 3541 
Q 3488 3116 3236 2842 
Q 2984 2569 2516 2484 
z
" transform="scale(0.015625)"/>
       </defs>
       <use xlink:href="#DejaVuSerif-2212"/>
       <use xlink:href="#DejaVuSerif-38" transform="translate(83.789062 0)"/>
       <use xlink:href="#DejaVuSerif-30" transform="translate(147.412109 0)"/>
      </g>
     </g>
    </g>
    <g id="ytick_2">
     <g id="line2d_13">
      <path d="M 53.028906 175.848633 
L 299.522906 175.848633 
" clip-path="url(#pa1af999c22)" style="fill: none; stroke-dasharray: 0.8,1.32; stroke-dashoffset: 0; stroke: #b0b0b0; stroke-width: 0.8"/>
     </g>
     <g id="line2d_14">
      <g>
       <use xlink:href="#m1317e9a304" x="53.028906" y="175.848633" style="stroke: #000000; stroke-width: 0.8"/>
      </g>
     </g>
     <g id="text_8">
      <!-- −60 -->
      <g transform="translate(22.81375 180.027773) scale(0.11 -0.11)">
       <defs>
        <path id="DejaVuSerif-36" d="M 2094 219 
Q 2534 219 2771 542 
Q 3009 866 3009 1472 
Q 3009 2078 2771 2401 
Q 2534 2725 2094 2725 
Q 1647 2725 1412 2412 
Q 1178 2100 1178 1509 
Q 1178 888 1415 553 
Q 1653 219 2094 219 
z
M 1075 2569 
Q 1288 2803 1556 2918 
Q 1825 3034 2163 3034 
Q 2859 3034 3264 2615 
Q 3669 2197 3669 1472 
Q 3669 763 3233 336 
Q 2797 -91 2069 -91 
Q 1278 -91 853 498 
Q 428 1088 428 2181 
Q 428 3406 931 4078 
Q 1434 4750 2350 4750 
Q 2597 4750 2869 4703 
Q 3141 4656 3425 4563 
L 3425 3794 
L 3072 3794 
Q 3034 4109 2831 4275 
Q 2628 4441 2284 4441 
Q 1678 4441 1381 3981 
Q 1084 3522 1075 2569 
z
" transform="scale(0.015625)"/>
       </defs>
       <use xlink:href="#DejaVuSerif-2212"/>
       <use xlink:href="#DejaVuSerif-36" transform="translate(83.789062 0)"/>
       <use xlink:href="#DejaVuSerif-30" transform="translate(147.412109 0)"/>
      </g>
     </g>
    </g>
    <g id="ytick_3">
     <g id="line2d_15">
      <path d="M 53.028906 141.474233 
L 299.522906 141.474233 
" clip-path="url(#pa1af999c22)" style="fill: none; stroke-dasharray: 0.8,1.32; stroke-dashoffset: 0; stroke: #b0b0b0; stroke-width: 0.8"/>
     </g>
     <g id="line2d_16">
      <g>
       <use xlink:href="#m1317e9a304" x="53.028906" y="141.474233" style="stroke: #000000; stroke-width: 0.8"/>
      </g>
     </g>
     <g id="text_9">
      <!-- −40 -->
      <g transform="translate(22.81375 145.653373) scale(0.11 -0.11)">
       <use xlink:href="#DejaVuSerif-2212"/>
       <use xlink:href="#DejaVuSerif-34" transform="translate(83.789062 0)"/>
       <use xlink:href="#DejaVuSerif-30" transform="translate(147.412109 0)"/>
      </g>
     </g>
    </g>
    <g id="ytick_4">
     <g id="line2d_17">
      <path d="M 53.028906 107.099833 
L 299.522906 107.099833 
" clip-path="url(#pa1af999c22)" style="fill: none; stroke-dasharray: 0.8,1.32; stroke-dashoffset: 0; stroke: #b0b0b0; stroke-width: 0.8"/>
     </g>
     <g id="line2d_18">
      <g>
       <use xlink:href="#m1317e9a304" x="53.028906" y="107.099833" style="stroke: #000000; stroke-width: 0.8"/>
      </g>
     </g>
     <g id="text_10">
      <!-- −20 -->
      <g transform="translate(22.81375 111.278973) scale(0.11 -0.11)">
       <use xlink:href="#DejaVuSerif-2212"/>
       <use xlink:href="#DejaVuSerif-32" transform="translate(83.789062 0)"/>
       <use xlink:href="#DejaVuSerif-30" transform="translate(147.412109 0)"/>
      </g>
     </g>
    </g>
    <g id="ytick_5">
     <g id="line2d_19">
      <path d="M 53.028906 72.725433 
L 299.522906 72.725433 
" clip-path="url(#pa1af999c22)" style="fill: none; stroke-dasharray: 0.8,1.32; stroke-dashoffset: 0; stroke: #b0b0b0; stroke-width: 0.8"/>
     </g>
     <g id="line2d_20">
      <g>
       <use xlink:href="#m1317e9a304" x="53.028906" y="72.725433" style="stroke: #000000; stroke-width: 0.8"/>
      </g>
     </g>
     <g id="text_11">
      <!-- 0 -->
      <g transform="translate(39.030156 76.904573) scale(0.11 -0.11)">
       <use xlink:href="#DejaVuSerif-30"/>
      </g>
     </g>
    </g>
    <g id="ytick_6">
     <g id="line2d_21">
      <path d="M 53.028906 38.351033 
L 299.522906 38.351033 
" clip-path="url(#pa1af999c22)" style="fill: none; stroke-dasharray: 0.8,1.32; stroke-dashoffset: 0; stroke: #b0b0b0; stroke-width: 0.8"/>
     </g>
     <g id="line2d_22">
      <g>
       <use xlink:href="#m1317e9a304" x="53.028906" y="38.351033" style="stroke: #000000; stroke-width: 0.8"/>
      </g>
     </g>
     <g id="text_12">
      <!-- 20 -->
      <g transform="translate(32.031406 42.530173) scale(0.11 -0.11)">
       <use xlink:href="#DejaVuSerif-32"/>
       <use xlink:href="#DejaVuSerif-30" transform="translate(63.623047 0)"/>
      </g>
     </g>
    </g>
    <g id="text_13">
     <!-- Power (dB) -->
     <g transform="translate(16.318125 164.300469) rotate(-90) scale(0.12 -0.12)">
      <defs>
       <path id="DejaVuSerif-50" d="M 1581 2375 
L 2406 2375 
Q 2872 2375 3115 2626 
Q 3359 2878 3359 3353 
Q 3359 3831 3115 4081 
Q 2872 4331 2406 4331 
L 1581 4331 
L 1581 2375 
z
M 353 0 
L 353 331 
L 947 331 
L 947 4331 
L 353 4331 
L 353 4666 
L 2559 4666 
Q 3259 4666 3668 4311 
Q 4078 3956 4078 3353 
Q 4078 2753 3668 2397 
Q 3259 2041 2559 2041 
L 1581 2041 
L 1581 331 
L 2303 331 
L 2303 0 
L 353 0 
z
" transform="scale(0.015625)"/>
       <path id="DejaVuSerif-6f" d="M 1925 219 
Q 2388 219 2623 584 
Q 2859 950 2859 1663 
Q 2859 2375 2623 2739 
Q 2388 3103 1925 3103 
Q 1463 3103 1227 2739 
Q 991 2375 991 1663 
Q 991 950 1228 584 
Q 1466 219 1925 219 
z
M 1925 -91 
Q 1200 -91 759 389 
Q 319 869 319 1663 
Q 319 2456 758 2934 
Q 1197 3413 1925 3413 
Q 2653 3413 3092 2934 
Q 3531 2456 3531 1663 
Q 3531 869 3092 389 
Q 2653 -91 1925 -91 
z
" transform="scale(0.015625)"/>
       <path id="DejaVuSerif-77" d="M 3072 3322 
L 3922 728 
L 4672 2988 
L 4191 2988 
L 4191 3322 
L 5394 3322 
L 5394 2988 
L 5025 2988 
L 4038 0 
L 3559 0 
L 2741 2484 
L 1919 0 
L 1459 0 
L 475 2988 
L 103 2988 
L 103 3322 
L 1606 3322 
L 1606 2988 
L 1069 2988 
L 1813 728 
L 2669 3322 
L 3072 3322 
z
" transform="scale(0.015625)"/>
       <path id="DejaVuSerif-64" d="M 3359 331 
L 3909 331 
L 3909 0 
L 2784 0 
L 2784 519 
Q 2616 206 2355 57 
Q 2094 -91 1709 -91 
Q 1097 -91 708 395 
Q 319 881 319 1663 
Q 319 2444 706 2928 
Q 1094 3413 1709 3413 
Q 2094 3413 2355 3264 
Q 2616 3116 2784 2803 
L 2784 4531 
L 2241 4531 
L 2241 4863 
L 3359 4863 
L 3359 331 
z
M 2784 1497 
L 2784 1825 
Q 2784 2422 2554 2737 
Q 2325 3053 1888 3053 
Q 1444 3053 1217 2703 
Q 991 2353 991 1663 
Q 991 975 1217 622 
Q 1444 269 1888 269 
Q 2325 269 2554 583 
Q 2784 897 2784 1497 
z
" transform="scale(0.015625)"/>
       <path id="DejaVuSerif-42" d="M 1581 331 
L 2516 331 
Q 3078 331 3337 575 
Q 3597 819 3597 1350 
Q 3597 1878 3339 2120 
Q 3081 2363 2516 2363 
L 1581 2363 
L 1581 331 
z
M 1581 2694 
L 2375 2694 
Q 2888 2694 3123 2891 
Q 3359 3088 3359 3513 
Q 3359 3941 3123 4136 
Q 2888 4331 2375 4331 
L 1581 4331 
L 1581 2694 
z
M 353 0 
L 353 331 
L 947 331 
L 947 4331 
L 353 4331 
L 353 4666 
L 2656 4666 
Q 3363 4666 3720 4377 
Q 4078 4088 4078 3513 
Q 4078 3097 3829 2850 
Q 3581 2603 3103 2547 
Q 3697 2472 4005 2167 
Q 4313 1863 4313 1350 
Q 4313 656 3875 328 
Q 3438 0 2509 0 
L 353 0 
z
" transform="scale(0.015625)"/>
      </defs>
      <use xlink:href="#DejaVuSerif-50"/>
      <use xlink:href="#DejaVuSerif-6f" transform="translate(63.285156 0)"/>
      <use xlink:href="#DejaVuSerif-77" transform="translate(123.490234 0)"/>
      <use xlink:href="#DejaVuSerif-65" transform="translate(209.085938 0)"/>
      <use xlink:href="#DejaVuSerif-72" transform="translate(268.265625 0)"/>
      <use xlink:href="#DejaVuSerif-20" transform="translate(316.068359 0)"/>
      <use xlink:href="#DejaVuSerif-28" transform="translate(347.855469 0)"/>
      <use xlink:href="#DejaVuSerif-64" transform="translate(386.869141 0)"/>
      <use xlink:href="#DejaVuSerif-42" transform="translate(450.882812 0)"/>
      <use xlink:href="#DejaVuSerif-29" transform="translate(524.369141 0)"/>
     </g>
    </g>
   </g>
   <g id="line2d_23">
    <path d="M 64.233179 208.253542 
L 64.258077 218.600024 
L 64.268077 279.548281 
M 67.491402 279.548281 
L 67.943038 257.021897 
L 68.291616 228.761518 
L 68.515701 194.049456 
L 68.640193 148.27616 
L 68.714888 31.671569 
L 68.764685 126.72851 
L 68.963872 202.541636 
L 69.287551 239.006532 
L 69.710823 262.62667 
L 70.210126 279.548281 
M 72.799165 279.548281 
L 73.022308 242.808076 
L 73.1468 182.973792 
L 73.196597 97.194978 
L 73.246394 181.714999 
L 73.445581 258.195195 
L 73.595767 279.548281 
M 77.213895 279.548281 
L 77.454221 246.496468 
L 77.603611 195.875642 
L 77.678306 95.506457 
L 77.728103 173.72871 
L 77.92729 250.418296 
L 78.157111 279.548281 
M 81.80117 279.548281 
L 82.010625 240.029071 
L 82.110219 187.647971 
L 82.160015 111.704334 
L 82.209812 185.375304 
L 82.408999 262.378457 
L 82.525004 279.548281 
M 86.127995 279.548281 
L 86.392741 246.936438 
L 86.542131 205.341482 
L 86.641724 98.814109 
L 86.691521 168.892357 
L 86.890708 246.154791 
L 87.165924 279.548281 
M 90.576255 279.548281 
L 90.849551 248.418025 
L 91.02384 202.626304 
L 91.123434 98.700275 
L 91.17323 165.793329 
L 91.372417 243.318166 
L 91.681391 279.548281 
M 95.186376 279.548281 
L 95.405956 246.182005 
L 95.530447 201.393345 
L 95.605143 113.02688 
L 95.654939 177.554459 
L 95.854126 255.334591 
L 96.031454 279.548281 
M 99.733518 279.548281 
L 99.937461 240.944993 
L 100.037055 189.351078 
L 100.086852 122.655685 
L 100.136648 184.925396 
L 100.335836 262.966375 
L 100.446442 279.548281 
M 104.027878 279.548281 
L 104.294679 249.08888 
L 104.468967 203.55311 
L 104.568561 105.287586 
L 104.618358 165.534528 
L 104.817545 243.829927 
L 105.118596 279.548281 
M 108.651191 279.548281 
L 108.851083 248.51515 
L 108.975575 204.054455 
L 109.05027 120.47768 
L 109.100067 178.887588 
L 109.299254 257.4514 
L 109.45588 279.548281 
M 112.984098 279.548281 
L 113.233198 252.43093 
L 113.407487 213.256738 
L 113.482182 170.406243 
L 113.531979 107.617327 
L 113.581776 164.340436 
L 113.780963 243.152055 
L 114.089252 279.548281 
M 117.547915 279.548281 
L 117.789603 246.846706 
L 117.938993 197.324749 
L 118.013688 116.096943 
L 118.063485 171.257521 
L 118.262672 250.320655 
L 118.489069 279.548281 
M 121.993487 279.548281 
L 122.246413 248.303631 
L 122.395804 207.331367 
L 122.495397 113.980292 
L 122.545194 167.682848 
L 122.744381 247.015645 
L 123.006139 279.548281 
M 126.606455 279.548281 
L 126.827716 239.081573 
L 126.927309 188.576728 
L 126.977106 128.525435 
L 127.026903 180.858908 
L 127.22609 260.449961 
L 127.35635 279.548281 
M 130.772262 279.548281 
L 131.08534 252.378679 
L 131.309425 211.620372 
L 131.409019 161.291053 
L 131.458815 101.978924 
L 131.508612 153.020122 
L 131.707799 232.878596 
L 132.031478 270.61965 
L 132.157362 279.548281 
M 135.592179 279.548281 
L 135.791134 242.003453 
L 135.890728 191.852213 
L 135.940524 133.211206 
L 135.990321 183.027108 
L 136.16461 258.332937 
L 136.297162 279.548281 
M 139.876973 279.548281 
L 140.148351 248.936791 
L 140.32264 204.016717 
L 140.422234 114.044196 
L 140.47203 162.69348 
L 140.646319 238.253507 
L 140.9451 276.828973 
L 140.977607 279.548281 
M 144.213635 279.548281 
L 144.530467 252.157763 
L 144.754552 211.537053 
L 144.854146 161.722456 
L 144.903943 104.249357 
L 144.953739 151.784211 
L 145.128028 227.607487 
L 145.426809 266.168562 
L 145.608012 279.548281 
M 148.800029 279.548281 
L 149.086871 249.702585 
L 149.26116 210.977826 
L 149.360753 127.280648 
L 149.385652 112.43419 
L 149.41055 118.694121 
L 149.584839 229.551691 
L 149.883619 271.440024 
L 149.98116 279.548281 
M 153.223189 279.548281 
L 153.518783 252.199514 
L 153.71797 214.730961 
L 153.817564 165.251811 
L 153.867361 108.754075 
L 153.917158 154.194923 
L 154.091446 230.558659 
L 154.390227 269.179655 
L 154.525709 279.548281 
M 157.710724 279.548281 
L 158.000493 252.689819 
L 158.19968 215.272923 
L 158.299273 165.959931 
L 158.34907 109.888973 
L 158.398867 154.341424 
L 158.573155 230.980677 
L 158.871936 269.63968 
L 159.00056 279.548281 
M 162.168204 279.548281 
L 162.482202 251.076692 
L 162.681389 213.709258 
L 162.780982 164.561112 
L 162.830779 108.881075 
L 162.880576 152.37935 
L 163.054864 229.298691 
L 163.353645 268.032993 
L 163.504859 279.548281 
M 166.437331 279.548281 
L 166.789622 256.577341 
L 167.063504 223.728701 
L 167.237793 170.714966 
L 167.312488 96.950016 
L 167.362285 139.525272 
L 167.536574 216.722413 
L 167.835354 255.452222 
L 168.205275 279.548281 
M 171.092391 279.548281 
L 171.395823 254.472575 
L 171.619908 218.046344 
L 171.7444 162.461971 
L 171.794197 107.467539 
L 171.843994 149.148335 
L 172.018283 226.630582 
L 172.317063 265.410655 
L 172.508918 279.548281 
M 175.687207 279.548281 
L 175.977126 249.600873 
L 176.151414 211.194233 
L 176.251008 132.210228 
L 176.275906 115.81159 
L 176.300805 120.834066 
L 176.475093 228.908291 
L 176.773874 271.047427 
L 176.875927 279.548281 
M 180.045706 279.548281 
L 180.359241 253.814175 
L 180.583327 217.458386 
L 180.707819 162.214238 
L 180.757615 107.792725 
L 180.807412 147.76116 
L 180.981701 225.821807 
L 181.280481 264.709524 
L 181.481361 279.548281 
M 184.27466 279.548281 
L 184.666662 256.233455 
L 184.940544 227.450395 
L 185.114833 189.133284 
L 185.214426 111.493033 
L 185.239324 94.55886 
L 185.289121 133.7055 
L 185.46341 212.054926 
L 185.76219 250.904995 
L 186.185463 277.604357 
L 186.227722 279.548281 
M 189.054413 279.548281 
L 189.347558 254.161696 
L 189.571643 214.04559 
L 189.671237 165.856663 
L 189.721034 111.910292 
L 189.77083 150.255899 
L 189.945119 228.91029 
L 190.2439 267.897902 
L 190.395487 279.548281 
M 193.46977 279.548281 
L 193.804368 252.514086 
L 194.028454 216.255941 
L 194.152946 161.510603 
L 194.202743 107.768682 
L 194.252539 145.332421 
L 194.426828 224.279689 
L 194.725609 263.216346 
L 194.952179 279.548281 
M 198.138626 279.548281 
L 198.410569 249.132779 
L 198.584858 205.135188 
L 198.684452 121.25281 
L 198.734248 158.052655 
L 198.908537 237.305812 
L 199.207318 276.324999 
L 199.245662 279.548281 
M 202.360708 279.548281 
L 202.693092 255.86997 
L 202.942075 223.023799 
L 203.091466 175.439732 
L 203.166161 104.266324 
L 203.215958 140.318995 
L 203.390246 219.873972 
L 203.689027 258.826585 
L 203.995305 279.548281 
M 206.787925 279.548281 
L 207.149902 255.488708 
L 207.398886 225.04884 
L 207.573175 172.96866 
L 207.64787 102.021263 
L 207.697667 137.342469 
L 207.871955 217.212589 
L 208.170736 256.254256 
L 208.52089 279.548281 
M 211.507389 279.548281 
L 211.8059 250.727027 
L 212.005087 209.211159 
L 212.104681 135.129751 
L 212.129579 116.526017 
L 212.179376 151.130435 
L 212.353664 231.315419 
L 212.652445 270.401447 
L 212.768631 279.548281 
M 215.884022 279.548281 
L 216.212914 252.94178 
L 216.436999 216.863083 
L 216.561491 162.926169 
L 216.611288 109.922309 
L 216.661085 143.82374 
L 216.835374 224.326535 
L 217.134154 263.426262 
L 217.356444 279.548281 
M 220.304986 279.548281 
L 220.644826 254.54074 
L 220.89381 219.082108 
L 221.0432 159.524608 
L 221.092997 106.617474 
L 221.142794 139.828907 
L 221.317083 220.652904 
L 221.615863 259.75739 
L 221.902538 279.548281 
M 224.854909 279.548281 
L 225.176332 253.495059 
L 225.400418 217.495199 
L 225.524909 163.873842 
L 225.574706 111.048168 
L 225.624503 143.581859 
L 225.798792 224.735 
L 226.097572 263.896998 
L 226.312247 279.548281 
M 229.766062 279.548281 
L 229.931923 243.061962 
L 230.031517 171.047911 
L 230.056415 151.271344 
L 230.106212 183.138909 
L 230.280501 264.644933 
L 230.36467 279.548281 
M 233.862299 279.548281 
L 234.164649 253.469199 
L 234.388734 213.75444 
L 234.488328 167.060547 
L 234.538124 114.353921 
L 234.587921 145.566144 
L 234.76221 227.388693 
L 235.06099 266.653073 
L 235.230895 279.548281 
M 238.129496 279.548281 
L 238.496967 255.985493 
L 238.77085 223.528972 
L 238.945138 172.141737 
L 239.019834 102.304208 
L 239.06963 132.87148 
L 239.243919 215.032288 
L 239.5427 254.293822 
L 239.92918 279.548281 
M 242.750704 279.548281 
L 243.07827 254.124408 
L 243.302356 221.314869 
L 243.451746 162.567486 
L 243.501543 109.924405 
L 243.551339 139.856515 
L 243.725628 222.360249 
L 244.024409 261.626394 
L 244.276937 279.548281 
M 247.342938 279.548281 
L 247.634674 252.74447 
L 247.833861 216.145065 
L 247.933455 169.876145 
L 247.983252 117.245021 
L 248.033048 146.551255 
L 248.207337 229.402118 
L 248.506118 268.646896 
L 248.648651 279.548281 
M 251.531467 279.548281 
L 251.892298 257.975274 
L 252.16618 229.492724 
L 252.365367 182.528477 
L 252.464961 100.906484 
L 252.514758 129.595681 
L 252.689046 212.805927 
L 252.987827 252.14302 
L 253.411099 279.064895 
L 253.421398 279.548281 
M 256.319439 279.548281 
L 256.598093 253.994773 
L 256.79728 217.530496 
L 256.896873 171.546098 
L 256.94667 118.901096 
L 256.996467 146.981645 
L 257.170755 230.559635 
L 257.469536 270.028833 
L 257.589457 279.548281 
M 260.635382 279.548281 
L 260.980208 254.380736 
L 261.229192 219.200218 
L 261.378582 161.083815 
L 261.428379 108.413048 
L 261.478176 135.89287 
L 261.652464 219.828983 
L 261.951245 259.231308 
L 262.245185 279.548281 
M 265.045466 279.548281 
L 265.41212 255.274691 
L 265.686003 220.574516 
L 265.835393 174.303016 
L 265.910088 104.853957 
L 265.959885 131.740669 
L 266.134174 216.049433 
L 266.432954 255.504036 
L 266.794726 279.548281 
M 269.64155 279.548281 
L 269.968525 254.368402 
L 270.19261 221.754142 
L 270.342 163.947042 
L 270.391797 111.188951 
L 270.441594 137.489778 
L 270.615883 222.175744 
L 270.914663 261.673606 
L 271.163653 279.548281 
M 273.771522 279.548281 
L 274.176352 259.248418 
L 274.50003 231.875266 
L 274.724116 192.532717 
L 274.823709 147.092975 
L 274.873506 94.27342 
L 274.923303 119.995251 
L 275.097592 205.062814 
L 275.396372 244.568191 
L 275.819645 271.627733 
L 275.999772 279.548281 
M 278.817038 279.548281 
L 279.081333 250.041539 
L 279.255622 207.239554 
L 279.355215 125.975286 
L 279.405012 151.124702 
L 279.579301 236.582859 
L 279.878081 276.188081 
L 279.917642 279.548281 
M 282.803706 279.548281 
L 283.214465 257.072271 
L 283.513245 228.486661 
L 283.712433 187.796638 
L 283.812026 120.954284 
L 283.836924 97.286525 
L 283.886721 121.869799 
L 284.06101 207.720153 
L 284.35979 247.265823 
L 284.783063 274.158399 
L 284.905123 279.548281 
M 287.381502 279.548281 
L 287.745971 258.096905 
L 288.019853 229.790795 
L 288.21904 183.377835 
L 288.318634 102.13243 
L 288.318634 102.13243 
" clip-path="url(#pa1af999c22)" style="fill: none; stroke: #6a0dad; stroke-width: 2; stroke-linecap: square"/>
   </g>
   <g id="line2d_24">
    <path d="M 68.714888 237.917969 
L 68.714888 23.077969 
" clip-path="url(#pa1af999c22)" style="fill: none; stroke-dasharray: 5.55,2.4; stroke-dashoffset: 0; stroke: #008080; stroke-width: 1.5"/>
   </g>
   <g id="patch_3">
    <path d="M 53.028906 237.917969 
L 53.028906 23.077969 
" style="fill: none; stroke: #000000; stroke-linejoin: miter; stroke-linecap: square"/>
   </g>
   <g id="patch_4">
    <path d="M 299.522906 237.917969 
L 299.522906 23.077969 
" style="fill: none; stroke: #000000; stroke-linejoin: miter; stroke-linecap: square"/>
   </g>
   <g id="patch_5">
    <path d="M 53.028906 237.917969 
L 299.522906 237.917969 
" style="fill: none; stroke: #000000; stroke-linejoin: miter; stroke-linecap: square"/>
   </g>
   <g id="patch_6">
    <path d="M 53.028906 23.077969 
L 299.522906 23.077969 
" style="fill: none; stroke: #000000; stroke-linejoin: miter; stroke-linecap: square"/>
   </g>
   <g id="text_14">
    <!-- FFT Spectrum -->
    <g transform="translate(128.683719 17.077969) scale(0.13 -0.13)">
     <defs>
      <path id="DejaVuSerif-54" d="M 1222 0 
L 1222 331 
L 1819 331 
L 1819 4294 
L 447 4294 
L 447 3566 
L 63 3566 
L 63 4666 
L 4206 4666 
L 4206 3566 
L 3822 3566 
L 3822 4294 
L 2450 4294 
L 2450 331 
L 3047 331 
L 3047 0 
L 1222 0 
z
" transform="scale(0.015625)"/>
      <path id="DejaVuSerif-53" d="M 594 225 
L 594 1288 
L 953 1284 
Q 969 753 1261 498 
Q 1553 244 2150 244 
Q 2706 244 2998 464 
Q 3291 684 3291 1106 
Q 3291 1444 3114 1625 
Q 2938 1806 2369 1978 
L 1753 2163 
Q 1084 2366 811 2669 
Q 538 2972 538 3500 
Q 538 4094 959 4422 
Q 1381 4750 2144 4750 
Q 2469 4750 2856 4679 
Q 3244 4609 3681 4475 
L 3681 3481 
L 3328 3481 
Q 3275 3975 2998 4195 
Q 2722 4416 2156 4416 
Q 1663 4416 1405 4214 
Q 1147 4013 1147 3628 
Q 1147 3294 1340 3103 
Q 1534 2913 2163 2725 
L 2741 2553 
Q 3375 2363 3645 2067 
Q 3916 1772 3916 1275 
Q 3916 597 3481 253 
Q 3047 -91 2188 -91 
Q 1803 -91 1404 -12 
Q 1006 66 594 225 
z
" transform="scale(0.015625)"/>
      <path id="DejaVuSerif-70" d="M 1313 1825 
L 1313 1497 
Q 1313 897 1542 583 
Q 1772 269 2209 269 
Q 2650 269 2876 622 
Q 3103 975 3103 1663 
Q 3103 2353 2876 2703 
Q 2650 3053 2209 3053 
Q 1772 3053 1542 2737 
Q 1313 2422 1313 1825 
z
M 738 2988 
L 184 2988 
L 184 3322 
L 1313 3322 
L 1313 2803 
Q 1481 3116 1742 3264 
Q 2003 3413 2388 3413 
Q 3000 3413 3387 2928 
Q 3775 2444 3775 1663 
Q 3775 881 3387 395 
Q 3000 -91 2388 -91 
Q 2003 -91 1742 57 
Q 1481 206 1313 519 
L 1313 -997 
L 1856 -997 
L 1856 -1331 
L 184 -1331 
L 184 -997 
L 738 -997 
L 738 2988 
z
" transform="scale(0.015625)"/>
      <path id="DejaVuSerif-74" d="M 691 2988 
L 184 2988 
L 184 3322 
L 691 3322 
L 691 4353 
L 1269 4353 
L 1269 3322 
L 2350 3322 
L 2350 2988 
L 1269 2988 
L 1269 878 
Q 1269 456 1350 337 
Q 1431 219 1650 219 
Q 1875 219 1978 351 
Q 2081 484 2088 781 
L 2522 781 
Q 2497 328 2275 118 
Q 2053 -91 1600 -91 
Q 1103 -91 897 129 
Q 691 350 691 878 
L 691 2988 
z
" transform="scale(0.015625)"/>
      <path id="DejaVuSerif-6d" d="M 3316 2675 
Q 3481 3041 3739 3227 
Q 3997 3413 4341 3413 
Q 4863 3413 5119 3089 
Q 5375 2766 5375 2113 
L 5375 331 
L 5894 331 
L 5894 0 
L 4300 0 
L 4300 331 
L 4800 331 
L 4800 2047 
Q 4800 2556 4650 2772 
Q 4500 2988 4153 2988 
Q 3769 2988 3567 2697 
Q 3366 2406 3366 1850 
L 3366 331 
L 3866 331 
L 3866 0 
L 2291 0 
L 2291 331 
L 2791 331 
L 2791 2069 
Q 2791 2566 2641 2777 
Q 2491 2988 2144 2988 
Q 1759 2988 1557 2697 
Q 1356 2406 1356 1850 
L 1356 331 
L 1856 331 
L 1856 0 
L 263 0 
L 263 331 
L 781 331 
L 781 2994 
L 231 2994 
L 231 3322 
L 1356 3322 
L 1356 2731 
Q 1516 3063 1762 3238 
Q 2009 3413 2322 3413 
Q 2709 3413 2968 3220 
Q 3228 3028 3316 2675 
z
" transform="scale(0.015625)"/>
     </defs>
     <use xlink:href="#DejaVuSerif-46"/>
     <use xlink:href="#DejaVuSerif-46" transform="translate(69.384766 0)"/>
     <use xlink:href="#DejaVuSerif-54" transform="translate(138.769531 0)"/>
     <use xlink:href="#DejaVuSerif-20" transform="translate(205.46875 0)"/>
     <use xlink:href="#DejaVuSerif-53" transform="translate(237.255859 0)"/>
     <use xlink:href="#DejaVuSerif-70" transform="translate(305.761719 0)"/>
     <use xlink:href="#DejaVuSerif-65" transform="translate(369.775391 0)"/>
     <use xlink:href="#DejaVuSerif-63" transform="translate(428.955078 0)"/>
     <use xlink:href="#DejaVuSerif-74" transform="translate(484.960938 0)"/>
     <use xlink:href="#DejaVuSerif-72" transform="translate(525.146484 0)"/>
     <use xlink:href="#DejaVuSerif-75" transform="translate(572.949219 0)"/>
     <use xlink:href="#DejaVuSerif-6d" transform="translate(637.353516 0)"/>
    </g>
   </g>
   <g id="legend_1">
    <g id="line2d_25">
     <path d="M 313.452786 129.757344 
L 323.452786 129.757344 
L 333.452786 129.757344 
" style="fill: none; stroke-dasharray: 5.55,2.4; stroke-dashoffset: 0; stroke: #008080; stroke-width: 1.5"/>
    </g>
    <g id="text_15">
     <!-- Fundamental -->
     <g transform="translate(341.452786 133.257344) scale(0.1 -0.1)">
      <defs>
       <path id="DejaVuSerif-61" d="M 2547 1044 
L 2547 1747 
L 1806 1747 
Q 1378 1747 1168 1562 
Q 959 1378 959 997 
Q 959 650 1171 447 
Q 1384 244 1747 244 
Q 2106 244 2326 466 
Q 2547 688 2547 1044 
z
M 3122 2075 
L 3122 331 
L 3634 331 
L 3634 0 
L 2547 0 
L 2547 359 
Q 2356 128 2106 18 
Q 1856 -91 1522 -91 
Q 969 -91 644 203 
Q 319 497 319 997 
Q 319 1513 691 1797 
Q 1063 2081 1741 2081 
L 2547 2081 
L 2547 2309 
Q 2547 2688 2317 2895 
Q 2088 3103 1672 3103 
Q 1328 3103 1125 2947 
Q 922 2791 872 2484 
L 575 2484 
L 575 3156 
Q 875 3284 1158 3348 
Q 1441 3413 1709 3413 
Q 2400 3413 2761 3070 
Q 3122 2728 3122 2075 
z
" transform="scale(0.015625)"/>
       <path id="DejaVuSerif-6c" d="M 1313 331 
L 1856 331 
L 1856 0 
L 184 0 
L 184 331 
L 738 331 
L 738 4531 
L 184 4531 
L 184 4863 
L 1313 4863 
L 1313 331 
z
" transform="scale(0.015625)"/>
      </defs>
      <use xlink:href="#DejaVuSerif-46"/>
      <use xlink:href="#DejaVuSerif-75" transform="translate(69.384766 0)"/>
      <use xlink:href="#DejaVuSerif-6e" transform="translate(133.789062 0)"/>
      <use xlink:href="#DejaVuSerif-64" transform="translate(198.193359 0)"/>
      <use xlink:href="#DejaVuSerif-61" transform="translate(262.207031 0)"/>
      <use xlink:href="#DejaVuSerif-6d" transform="translate(321.826172 0)"/>
      <use xlink:href="#DejaVuSerif-65" transform="translate(416.650391 0)"/>
      <use xlink:href="#DejaVuSerif-6e" transform="translate(475.830078 0)"/>
      <use xlink:href="#DejaVuSerif-74" transform="translate(540.234375 0)"/>
      <use xlink:href="#DejaVuSerif-61" transform="translate(580.419922 0)"/>
      <use xlink:href="#DejaVuSerif-6c" transform="translate(640.039062 0)"/>
     </g>
    </g>
   </g>
  </g>
 </g>
 <defs>
  <clipPath id="pa1af999c22">
   <rect x="53.028906" y="23.077969" width="246.494" height="214.84"/>
  </clipPath>
 </defs>
</svg>
