<svg
    xmlns="http://www.w3.org/2000/svg"
    version="1.1"
    xmlns:xlink="http://www.w3.org/1999/xlink"
    style="font-size: 10pt; overflow: visible;"
    viewBox="-2 -435.97918701171875 749.7900390625 438.97918701171875"
>
    <defs>
        <symbol id="node_op-amp">
            <defs>
                <path
                    id="node_op-amp_a"
                    d="M7.4919-2.19178c.14946 0 .44833 0 .44833-.29888-.00001-.30884-.28892-.30884-.44832-.30884h-6.08718c-.14943 0-.44832 0-.44832.29888 0 .30884.28892.30884.44832.30884z"
                />
                <path
                    id="node_op-amp_b"
                    d="M4.75218-2.19178h3.07846c.1295 0 .42838 0 .42838-.29888.00001-.30884-.28892-.30884-.42839-.30884h-3.07844v-3.08842c-.00001-.11955-.00001-.41843-.29889-.41843-.30884 0-.30884.28892-.30884.41843v3.08842h-3.07846c-.13947 0-.4284 0-.4284.30884 0 .29888.2989.29888.4284.29888h3.07846v3.08842c0 .11955 0 .41843.29888.41843.30884 0 .30884-.28892.30884-.41843z"
                />
            </defs>
            <g stroke="currentStroke" stroke-miterlimit="10" stroke-width=".4">
                <path
                    fill="none"
                    stroke-width="1.06267"
                    d="m76.7249 37.5704-62.96623-37.03903v74.07805Z"
                />
                <g stroke-linecap="square">
                    <path
                        fill="none"
                        stroke-width=".53134"
                        d="M.26569 19.05088h13.49298m-13.49298 37.03904h13.49298m76.4592-18.51952h-13.49301"
                    />
                    <g stroke="none">
                        <use
                            xlink:href="#node_op-amp_a"
                            x="-34.75112"
                            y="-43.82222"
                            transform="translate(64.5169 80.80137)scale(1.33333)"
                            fill="currentColor"
                        />
                        <use
                            xlink:href="#node_op-amp_b"
                            x="-34.75112"
                            y="-43.82222"
                            transform="translate(64.5169 117.84041)scale(1.33333)"
                            fill="currentColor"
                        />
                    </g>
                </g>
            </g>
        </symbol>
        <symbol id="path_american-resistor">
            <g
                fill="none"
                stroke="currentStroke"
                stroke-miterlimit="10"
                stroke-width=".4"
            >
                <path
                    stroke-linejoin="bevel"
                    stroke-width="1.06267"
                    d="m.53136 8.46838 4.05887-7.93703 7.05509 15.87407 7.05508-15.87407 7.05508 15.87407 7.05509-15.87407 7.05509 15.87407 4.05887-7.93704"
                />
            </g>
        </symbol>
        <symbol id="node_vcc">
            <g
                fill="none"
                stroke="currentStroke"
                stroke-miterlimit="10"
                stroke-width=".4"
            >
                <g stroke-width=".79999">
                    <path
                        stroke-width="1.06267"
                        d="m.53137 12.96463 5.29122-7.4077 5.29121 7.40769"
                    />
                    <path
                        stroke-width=".53134"
                        d="M5.82259 21.43062v-15.8737"
                    />
                </g>
            </g>
        </symbol>
        <symbol id="node_ground">
            <g
                fill="none"
                stroke="currentStroke"
                stroke-miterlimit="10"
                stroke-width=".4"
            >
                <path stroke-width=".53134" d="M8.46839.30374v15.8739" />
                <path
                    stroke-width="1.06267"
                    d="M.53135 16.17763h15.87407m-13.22826 2.64563h10.58245m-8.59829 2.6458h6.61413"
                />
            </g>
        </symbol>
        <symbol id="node_circ">
            <g
                stroke="currentStroke"
                stroke-miterlimit="10"
                stroke-width=".53134"
            >
                <path
                    d="M4.49803 2.38186c0-1.16874-.94744-2.11617-2.11617-2.11617s-2.11617.94743-2.11617 2.11617.94743 2.11617 2.11617 2.11617 2.11617-.94744 2.11617-2.11617Zm-2.11617 0"
                    fill="currentColor"
                />
            </g>
        </symbol>
        <symbol id="stealth">
            <path stroke="none" d="M0 0 1 .5 0 1 .3.5" stroke-linecap="round" />
        </symbol>
    </defs>
    <g class="">
        <use
            xlink:href="#node_op-amp"
            fill="#fff"
            stroke="#000"
            transform="matrix(1,0,0,-1,330.44322999999997,-311.6576)"
            style="color: #000;"
        />
    </g>
    <g class="" style="">
        <use
            xlink:href="#path_american-resistor"
            fill="#fff"
            stroke="#000"
            transform="matrix(6.123233995736766e-17,1,-1,6.123233995736766e-17,197.44438,-381.2835)"
            style="color: #000;"
        />
        <line
            x1="188.976"
            y1="-387.402"
            x2="188.976"
            y2="-380.2208"
            fill="none"
            stroke-width="0.5"
            stroke="#000"
        />
        <line
            x1="188.976"
            y1="-330.709"
            x2="188.976"
            y2="-337.89018"
            fill="none"
            stroke-width="0.5"
            stroke="#000"
        />
    </g>
    <g class="">
        <use
            xlink:href="#node_vcc"
            fill="#fff"
            stroke="#000"
            transform="matrix(1,0,0,1,183.15341,-408.83261999999996)"
            style="color: #000;"
        />
    </g>
    <g class="">
        <use
            xlink:href="#node_ground"
            fill="#fff"
            stroke="#000"
            transform="matrix(1,0,0,1,180.54603795275588,-47.50979448818897)"
            style="color: #000;"
            class=""
        />
    </g>
    <g class="" style="">
        <use
            xlink:href="#path_american-resistor"
            fill="#fff"
            stroke="#000"
            transform="matrix(6.123233995736766e-17,1,-1,6.123233995736766e-17,197.44438,-296.24350000000004)"
            style="color: #000;"
        />
        <line
            x1="188.976"
            y1="-302.362"
            x2="188.976"
            y2="-295.18080000000003"
            fill="none"
            stroke-width="0.5"
            stroke="#000"
        />
        <line
            x1="188.976"
            y1="-245.669"
            x2="188.976"
            y2="-252.85018000000002"
            fill="none"
            stroke-width="0.5"
            stroke="#000"
        />
    </g>
    <g class="" style="">
        <use
            xlink:href="#path_american-resistor"
            fill="#fff"
            stroke="#000"
            transform="matrix(6.123233995736766e-17,1,-1,6.123233995736766e-17,197.44475795275588,-135.6137834645669)"
            style="color: #000;"
        />
        <line
            x1="188.97637795275588"
            y1="-141.7322834645669"
            x2="188.97637795275588"
            y2="-134.5510834645669"
            fill="none"
            stroke-width="0.5"
            stroke="#000"
        />
        <line
            x1="188.97637795275588"
            y1="-85.03928346456688"
            x2="188.97637795275588"
            y2="-92.22046346456689"
            fill="none"
            stroke-width="0.5"
            stroke="#000"
        />
    </g>
    <g class="">
        <use
            xlink:href="#node_op-amp"
            fill="#fff"
            stroke="#000"
            transform="matrix(1,0,0,-1,330.44322999999997,-226.61860000000001)"
            style="color: #000;"
            class=""
        />
    </g>
    <g class="">
        <polyline
            points="330.709,-330.709 188.976,-330.709"
            fill="none"
            stroke-dasharray="0.4pt 0pt"
            stroke-opacity="1"
            stroke-width="0.5333333333333333"
            stroke="#000"
        />
    </g>
    <g class="">
        <polyline
            points="330.709,-367.748 245.669,-367.748 245.669,-368.504"
            fill="none"
            stroke-dasharray="0.4pt 0pt"
            stroke-opacity="1"
            stroke-width="0.5333333333333333"
            stroke="#000"
        />
    </g>
    <g class="">
        <rect
            width="45.910666666666664"
            height="17.564666666666668"
            x="0.6666666666666679"
            y="0.6666666666666661"
            transform="matrix(1,0,0,1,222.04729133858268,-434.64585039370075)"
            style=""
            stroke-dasharray="1pt 0pt"
            stroke-opacity="0"
            stroke-width="0"
            stroke="#000"
            fill-opacity="1"
            fill="none"
        />
        <g
            transform="matrix(1,0,0,1,0,0)"
            style="pointer-events: none;"
            class=""
        >
            <g
                fill="#000"
                transform="matrix(1,0,0,1,230.04729133858265,-426.64585039370075)"
            />
            <g
                fill="#000"
                transform="matrix(1,0,0,1,230.04729133858265,-426.64585039370075)"
            >
                <path
                    d="M-4.49 10L-4.49 10L-4.49 9.59Q-3.30 9.56-3.00 8.69L-3.00 8.69L-0.24 0.72Q-0.19 0.56-0.13 0.51Q-0.07 0.46 0.08 0.46L0.08 0.46Q0.16 0.46 0.21 0.47Q0.26 0.48 0.29 0.53Q0.32 0.57 0.33 0.60Q0.35 0.63 0.39 0.72L0.39 0.72L3.26 9.06Q3.37 9.39 3.58 9.49Q3.80 9.59 4.40 9.59L4.40 9.59L4.64 9.59L4.64 10Q3.80 9.96 2.89 9.96L2.89 9.96Q1.45 9.96 0.97 10L0.97 10L0.97 9.59Q2.08 9.59 2.08 9.19L2.08 9.19Q2.08 9.16 2.04 9.00L2.04 9.00L1.34 6.96L-1.96 6.96L-2.58 8.70Q-2.60 8.76-2.60 8.91L-2.60 8.91Q-2.60 9.19-2.34 9.39Q-2.08 9.59-1.60 9.59L-1.60 9.59L-1.60 10Q-2.88 9.96-3.14 9.96L-3.14 9.96Q-3.57 9.96-4.49 10ZM-0.32 2.21L-1.81 6.55L1.19 6.55L-0.32 2.21ZM5.51 10L5.51 10L5.51 9.59Q6.22 9.59 6.38 9.50Q6.55 9.41 6.55 8.98L6.55 8.98L6.55 5.41Q6.55 4.92 6.37 4.79Q6.20 4.67 5.51 4.67L5.51 4.67L5.51 4.25L7.39 4.11L7.39 5.51Q8.01 4.11 9.36 4.11L9.36 4.11Q10.36 4.11 10.76 4.60L10.76 4.60Q11.05 4.93 11.11 5.31Q11.17 5.68 11.17 6.64L11.17 6.64L11.17 9.19Q11.19 9.47 11.40 9.53Q11.62 9.59 12.22 9.59L12.22 9.59L12.22 10Q10.86 9.96 10.72 9.96L10.72 9.96Q10.61 9.96 9.21 10L9.21 10L9.21 9.59Q9.92 9.59 10.09 9.50Q10.26 9.41 10.26 8.98L10.26 8.98L10.26 5.88Q10.26 5.20 10.05 4.80Q9.84 4.40 9.27 4.40L9.27 4.40Q8.58 4.40 8.02 4.98Q7.47 5.56 7.47 6.54L7.47 6.54L7.47 8.98Q7.47 9.41 7.64 9.50Q7.80 9.59 8.50 9.59L8.50 9.59L8.50 10Q7.14 9.96 7.01 9.96L7.01 9.96Q6.91 9.96 5.51 10ZM13.04 8.73L13.04 8.73Q13.04 7.60 14.37 7.00L14.37 7.00Q15.17 6.61 16.83 6.52L16.83 6.52L16.83 6.03Q16.83 5.20 16.39 4.76Q15.96 4.32 15.41 4.32L15.41 4.32Q14.44 4.32 13.97 4.93L13.97 4.93Q14.36 4.95 14.51 5.15Q14.65 5.35 14.65 5.55L14.65 5.55Q14.65 5.81 14.48 5.99Q14.32 6.16 14.04 6.16L14.04 6.16Q13.77 6.16 13.60 5.99Q13.42 5.83 13.42 5.53L13.42 5.53Q13.42 4.88 14.01 4.45Q14.60 4.02 15.44 4.02L15.44 4.02Q16.53 4.02 17.26 4.76L17.26 4.76Q17.49 4.99 17.60 5.28Q17.72 5.57 17.73 5.76Q17.74 5.96 17.74 6.33L17.74 6.33L17.74 9.00Q17.74 9.08 17.77 9.21Q17.80 9.34 17.92 9.50Q18.04 9.67 18.24 9.67L18.24 9.67Q18.72 9.67 18.71 8.82L18.71 8.82L18.71 8.07L19.05 8.07L19.05 8.82Q19.05 9.52 18.68 9.80Q18.30 10.08 17.96 10.08L17.96 10.08Q17.52 10.08 17.24 9.75Q16.96 9.43 16.92 8.98L16.92 8.98Q16.71 9.49 16.26 9.82Q15.80 10.15 15.17 10.15L15.17 10.15Q14.69 10.15 14.24 10.03Q13.78 9.91 13.41 9.57Q13.04 9.24 13.04 8.73ZM14.06 8.72L14.06 8.72Q14.06 9.21 14.42 9.53Q14.77 9.85 15.26 9.85L15.26 9.85Q15.82 9.85 16.32 9.42Q16.83 8.98 16.83 8.13L16.83 8.13L16.83 6.80Q15.35 6.85 14.71 7.44Q14.06 8.03 14.06 8.72ZM19.59 10L19.59 10L19.59 9.59Q20.30 9.59 20.46 9.50Q20.62 9.41 20.62 8.98L20.62 8.98L20.62 2.05Q20.62 1.56 20.45 1.43Q20.28 1.31 19.59 1.31L19.59 1.31L19.59 0.89L21.50 0.75L21.50 8.98Q21.50 9.41 21.67 9.50Q21.84 9.59 22.54 9.59L22.54 9.59L22.54 10Q22.38 10 22.04 9.99Q21.70 9.97 21.45 9.97Q21.21 9.96 21.06 9.96L21.06 9.96Q20.91 9.96 19.59 10ZM24.09 9.28Q23.21 8.41 23.21 7.15Q23.21 5.88 24.07 4.95Q24.93 4.02 26.17 4.02L26.17 4.02Q27.38 4.02 28.25 4.94Q29.12 5.87 29.12 7.15L29.12 7.15Q29.12 8.40 28.24 9.28Q27.37 10.15 26.15 10.15L26.15 10.15Q24.97 10.15 24.09 9.28ZM24.31 7.04L24.31 7.04Q24.31 8.33 24.65 8.92L24.65 8.92Q25.17 9.81 26.17 9.81L26.17 9.81Q26.66 9.81 27.08 9.54Q27.49 9.28 27.72 8.83L27.72 8.83Q28.01 8.24 28.01 7.04L28.01 7.04Q28.01 5.76 27.66 5.19L27.66 5.19Q27.14 4.32 26.15 4.32L26.15 4.32Q25.73 4.32 25.31 4.55Q24.89 4.77 24.63 5.21L24.63 5.21Q24.31 5.80 24.31 7.04ZM29.87 11.05L29.87 11.05Q29.87 10.63 30.20 10.25Q30.53 9.88 31.10 9.72L31.10 9.72Q30.52 9.35 30.52 8.54L30.52 8.54Q30.52 7.91 30.93 7.43L30.93 7.43Q30.30 6.91 30.30 6.05L30.30 6.05Q30.30 5.27 30.93 4.69Q31.55 4.11 32.46 4.11L32.46 4.11Q33.26 4.11 33.88 4.59L33.88 4.59Q34.51 3.96 35.29 3.96L35.29 3.96Q35.63 3.96 35.80 4.17Q35.97 4.39 35.97 4.62L35.97 4.62Q35.97 4.82 35.84 4.92Q35.71 5.01 35.58 5.01L35.58 5.01Q35.42 5.01 35.31 4.91Q35.19 4.80 35.19 4.63L35.19 4.63Q35.19 4.35 35.41 4.26L35.41 4.26Q35.37 4.25 35.28 4.25L35.28 4.25Q34.62 4.25 34.07 4.77L34.07 4.77Q34.62 5.28 34.62 6.07Q34.62 6.86 33.99 7.43Q33.37 8.01 32.46 8.01L32.46 8.01Q31.71 8.01 31.14 7.60L31.14 7.60Q30.91 7.86 30.91 8.23L30.91 8.23Q30.91 8.56 31.12 8.82Q31.32 9.08 31.62 9.12L31.62 9.12Q31.71 9.13 32.62 9.13L32.62 9.13Q33.15 9.13 33.45 9.15Q33.74 9.16 34.16 9.25Q34.58 9.34 34.91 9.51L34.91 9.51Q35.78 9.99 35.78 11.03L35.78 11.03Q35.78 11.79 34.91 12.27Q34.03 12.75 32.82 12.75L32.82 12.75Q31.60 12.75 30.73 12.26Q29.87 11.78 29.87 11.05ZM30.57 11.05L30.57 11.05Q30.57 11.60 31.21 12.02Q31.86 12.44 32.83 12.44L32.83 12.44Q33.79 12.44 34.44 12.03Q35.09 11.61 35.09 11.05L35.09 11.05Q35.09 10.66 34.86 10.40Q34.63 10.15 34.17 10.05Q33.70 9.95 33.37 9.93Q33.05 9.91 32.45 9.91L32.45 9.91L31.66 9.91Q31.21 9.93 30.89 10.27Q30.57 10.60 30.57 11.05ZM31.30 6.07L31.30 6.07Q31.30 7.71 32.46 7.71L32.46 7.71Q33.05 7.71 33.41 7.17L33.41 7.17Q33.62 6.82 33.62 6.05L33.62 6.05Q33.62 4.41 32.46 4.41L32.46 4.41Q31.88 4.41 31.51 4.95L31.51 4.95Q31.30 5.31 31.30 6.07Z"
                />
                <path
                    d="M0.54 27.52L0.54 27.52L0.54 27.11Q1.24 27.11 1.41 27.02Q1.57 26.93 1.57 26.50L1.57 26.50L1.57 22.92Q1.57 22.42 1.40 22.31Q1.24 22.19 0.59 22.19L0.59 22.19L0.59 21.77L2.45 21.63L2.45 26.52Q2.45 26.91 2.59 27.01Q2.74 27.11 3.39 27.11L3.39 27.11L3.39 27.52Q2.03 27.48 2.00 27.48L2.00 27.48Q1.82 27.48 0.54 27.52ZM1.10 19.30L1.10 19.30Q1.10 19.04 1.30 18.82Q1.51 18.60 1.80 18.60Q2.09 18.60 2.30 18.80Q2.51 19.00 2.51 19.31Q2.51 19.62 2.30 19.81Q2.09 20.01 1.80 20.01L1.80 20.01Q1.49 20.01 1.29 19.80Q1.10 19.58 1.10 19.30ZM4.21 27.52L4.21 27.52L4.21 27.11Q4.92 27.11 5.09 27.02Q5.25 26.93 5.25 26.50L5.25 26.50L5.25 22.93Q5.25 22.44 5.08 22.31Q4.90 22.19 4.21 22.19L4.21 22.19L4.21 21.77L6.09 21.63L6.09 23.03Q6.71 21.63 8.06 21.63L8.06 21.63Q9.06 21.63 9.46 22.12L9.46 22.12Q9.75 22.45 9.82 22.83Q9.88 23.20 9.88 24.16L9.88 24.16L9.88 26.71Q9.89 26.99 10.11 27.05Q10.32 27.11 10.92 27.11L10.92 27.11L10.92 27.52Q9.56 27.48 9.42 27.48L9.42 27.48Q9.32 27.48 7.92 27.52L7.92 27.52L7.92 27.11Q8.63 27.11 8.79 27.02Q8.96 26.93 8.96 26.50L8.96 26.50L8.96 23.40Q8.96 22.72 8.75 22.32Q8.54 21.92 7.97 21.92L7.97 21.92Q7.28 21.92 6.73 22.50Q6.17 23.08 6.17 24.06L6.17 24.06L6.17 26.50Q6.17 26.93 6.34 27.02Q6.51 27.11 7.21 27.11L7.21 27.11L7.21 27.52Q5.85 27.48 5.72 27.48L5.72 27.48Q5.61 27.48 4.21 27.52ZM11.55 30.10L11.55 29.69Q12.26 29.69 12.43 29.61Q12.59 29.52 12.59 29.10L12.59 29.10L12.59 22.85Q12.59 22.41 12.43 22.30Q12.26 22.19 11.55 22.19L11.55 22.19L11.55 21.77L13.47 21.63L13.47 22.51Q14.27 21.63 15.34 21.63L15.34 21.63Q16.47 21.63 17.30 22.51Q18.13 23.39 18.13 24.64L18.13 24.64Q18.13 25.91 17.25 26.79Q16.37 27.67 15.15 27.67L15.15 27.67Q14.49 27.67 14.04 27.33Q13.60 26.99 13.51 26.73L13.51 26.73L13.51 26.86L13.51 29.10Q13.51 29.53 13.68 29.61Q13.85 29.69 14.55 29.69L14.55 29.69L14.55 30.10Q13.15 30.07 13.05 30.07L13.05 30.07Q12.92 30.07 11.55 30.10L11.55 30.10ZM13.51 23.03L13.51 26.00Q13.51 26.20 13.54 26.28Q13.57 26.35 13.70 26.56L13.70 26.56Q14.23 27.37 15.09 27.37L15.09 27.37Q15.09 27.37 15.10 27.37L15.10 27.37Q15.86 27.37 16.44 26.59Q17.02 25.81 17.02 24.64L17.02 24.64Q17.02 23.52 16.49 22.74Q15.96 21.96 15.24 21.96L15.24 21.96Q14.71 21.96 14.26 22.24Q13.80 22.52 13.51 23.03L13.51 23.03ZM19.01 22.19L19.01 22.19L19.01 21.77L20.96 21.63L20.96 26.06Q20.96 26.37 20.99 26.56Q21.02 26.75 21.12 26.96Q21.23 27.17 21.48 27.27Q21.73 27.37 22.14 27.37L22.14 27.37Q22.86 27.37 23.31 26.78Q23.75 26.19 23.75 25.31L23.75 25.31L23.75 22.93Q23.75 22.44 23.58 22.31Q23.40 22.19 22.71 22.19L22.71 22.19L22.71 21.77L24.67 21.63L24.67 26.36Q24.67 26.86 24.84 26.98Q25.01 27.11 25.71 27.11L25.71 27.11L25.71 27.52L23.79 27.67L23.79 26.47Q23.23 27.66 22.07 27.67L22.07 27.67Q21.49 27.67 21.09 27.52Q20.69 27.37 20.48 27.18Q20.28 27.00 20.17 26.64Q20.07 26.28 20.05 26.06Q20.04 25.84 20.04 25.41L20.04 25.41L20.04 23.41Q20.04 22.51 19.91 22.35Q19.78 22.19 19.01 22.19ZM27.36 22.19L26.23 22.19L26.23 21.89Q26.84 21.87 27.24 21.44Q27.65 21.00 27.79 20.47Q27.93 19.94 27.94 19.32L27.94 19.32L28.28 19.32L28.28 21.77L30.18 21.77L30.18 22.19L28.28 22.19L28.28 25.89Q28.28 27.33 29.17 27.33L29.17 27.33Q29.56 27.33 29.81 26.94Q30.07 26.54 30.07 25.84L30.07 25.84L30.07 25.10L30.40 25.10L30.40 25.87Q30.40 26.59 30.07 27.13Q29.73 27.67 29.08 27.67L29.08 27.67Q28.84 27.67 28.60 27.61Q28.36 27.55 28.05 27.39Q27.74 27.23 27.55 26.83Q27.36 26.44 27.36 25.87L27.36 25.87L27.36 22.19Z"
                />
            </g>
        </g>
    </g>
    <g class="">
        <polyline
            points="330.709,-245.669 188.976,-245.669"
            fill="none"
            stroke-dasharray="0.4pt 0pt"
            stroke-opacity="1"
            stroke-width="0.5333333333333333"
            stroke="#000"
        />
    </g>
    <g class="">
        <polyline
            points="330.709,-282.708 245.669,-282.708 245.669,-283.465"
            fill="none"
            stroke-dasharray="0.4pt 0pt"
            stroke-opacity="1"
            stroke-width="0.5333333333333333"
            stroke="#000"
        />
    </g>
    <g class="">
        <polyline
            points="188.976,-330.709 188.976,-302.362"
            fill="none"
            stroke-dasharray="0.4pt 0pt"
            stroke-opacity="1"
            stroke-width="0.5333333333333333"
            stroke="#000"
        />
    </g>
    <g class="">
        <use
            xlink:href="#node_circ"
            fill="#fff"
            stroke="#000"
            transform="matrix(1,0,0,1,186.59414,-229.15385999999998)"
            style="color: #000;"
        />
    </g>
    <g class="">
        <use
            xlink:href="#node_circ"
            fill="#fff"
            stroke="#000"
            transform="matrix(1,0,0,1,186.59414,-219.70486)"
            style="color: #000;"
        />
    </g>
    <g class="">
        <use
            xlink:href="#node_circ"
            fill="#fff"
            stroke="#000"
            transform="matrix(1,0,0,1,186.59414,-210.25585999999998)"
            style="color: #000;"
        />
    </g>
    <g class="">
        <use
            xlink:href="#node_circ"
            fill="#fff"
            stroke="#000"
            transform="matrix(1,0,0,1,366.12207700787394,-219.70469464566926)"
            style="color: #000;"
            class=""
        />
    </g>
    <g class="">
        <use
            xlink:href="#node_circ"
            fill="#fff"
            stroke="#000"
            transform="matrix(1,0,0,1,366.12207700787394,-191.35823795275587)"
            style="color: #000;"
            class=""
        />
    </g>
    <g class="">
        <use
            xlink:href="#node_circ"
            fill="#fff"
            stroke="#000"
            transform="matrix(1,0,0,1,366.12207700787394,-163.0117812598425)"
            style="color: #000;"
            class=""
        />
    </g>
    <g class="">
        <use
            xlink:href="#node_op-amp"
            fill="#fff"
            stroke="#000"
            transform="matrix(1,0,0,-1,330.44296141732275,-56.53967118110236)"
            style="color: #000;"
            class=""
        />
    </g>
    <g class="">
        <polyline
            points="330.7086614173228,-75.59055118110236 188.97637795275588,-75.59055118110236"
            fill="none"
            stroke-dasharray="0.4pt 0pt"
            stroke-opacity="1"
            stroke-width="0.5333333333333333"
            stroke="#000"
        />
    </g>
    <g class="">
        <polyline
            points="330.70866141732284,-112.62959118110234 245.66929133858267,-112.62959118110234 245.66929133858267,-113.38582677165354"
            fill="none"
            stroke-dasharray="0.4pt 0pt"
            stroke-opacity="1"
            stroke-width="0.5333333333333333"
            stroke="#000"
        />
    </g>
    <g class="">
        <polyline
            points="188.97637795275588,-141.7322834645669 188.97637795275588,-188.97637795275588"
            fill="none"
            stroke-dasharray="0.4pt 0pt"
            stroke-opacity="1"
            stroke-width="0.5333333333333333"
            stroke="#000"
        />
    </g>
    <g class="">
        <polyline
            points="245.66929133858267,-178.7713234645669 245.66929133858267,-387.4015748031496"
            fill="none"
            stroke-dasharray="0.4pt 0pt"
            stroke-opacity="1"
            stroke-width="0.5333333333333333"
            stroke="#000"
        />
    </g>
    <g class="">
        <polyline
            points="188.97637795275588,-85.03937007874015 188.97637795275588,-47.24409448818897"
            fill="none"
            stroke-dasharray="0.4pt 0pt"
            stroke-opacity="1"
            stroke-width="0.5333333333333333"
            stroke="#000"
        />
    </g>
    <g class="">
        <polyline
            points="245.66929133858267,-113.38582677165354 245.66929133858267,-178.7713234645669"
            fill="none"
            stroke-dasharray="0.4pt 0pt"
            stroke-opacity="1"
            stroke-width="0.5333333333333333"
            stroke="#000"
        />
    </g>
    <g class="">
        <rect
            width="102.60367454068243"
            height="376.61942257217845"
            style=""
            stroke-dasharray="1pt 0pt"
            stroke-opacity="1"
            stroke-width="1.3333333333333333"
            stroke="#000"
            fill-opacity="1"
            fill="none"
            x="0.6666666666666643"
            y="0.6666666666666572"
            transform="matrix(1,0,0,1,453.54330708661416,-415.74803149606294)"
        />
    </g>
    <g class="">
        <rect
            width="64.80839895013126"
            height="282.13123359580055"
            style=""
            stroke-dasharray="1pt 0pt"
            stroke-opacity="0"
            stroke-width="0"
            stroke="#000"
            fill-opacity="1"
            fill="none"
            x="0.6666666666666643"
            y="0.6666666666666572"
            transform="matrix(1,0,0,1,472.4409448818898,-359.0551181102362)"
        />
        <g
            transform="matrix(1,0,0,1,0,0)"
            style="pointer-events: none;"
            class=""
        >
            <g
                fill="#000"
                transform="matrix(1,0,0,1,480.4409448818898,-292.1948346456693)"
            />
            <g
                fill="#000"
                transform="matrix(1,0,0,1,480.4409448818898,-292.1948346456693)"
            >
                <path
                    d="M-23.73 4.77L-24.13 4.77L-23.82 1.17L-14.05 1.17L-13.74 4.77L-14.14 4.77Q-14.21 4.05-14.26 3.63Q-14.32 3.22-14.46 2.82Q-14.60 2.43-14.76 2.24Q-14.93 2.05-15.25 1.89Q-15.57 1.74-15.99 1.70Q-16.40 1.66-17.03 1.66L-17.03 1.66Q-17.76 1.66-17.94 1.70L-17.94 1.70Q-18.13 1.74-18.18 1.88Q-18.23 2.02-18.23 2.30L-18.23 2.30L-18.23 10.73Q-18.23 11.05-18.16 11.18Q-18.10 11.31-17.73 11.41Q-17.36 11.51-16.55 11.51L-16.55 11.51L-15.91 11.51L-15.91 12Q-16.56 11.95-18.95 11.95L-18.95 11.95Q-21.31 11.95-21.97 12L-21.97 12L-21.97 11.51L-21.33 11.51Q-20.52 11.51-20.15 11.41Q-19.78 11.31-19.71 11.18Q-19.65 11.05-19.65 10.73L-19.65 10.73L-19.65 2.30Q-19.65 2.08-19.67 1.98Q-19.68 1.89-19.75 1.81Q-19.82 1.73-19.98 1.70Q-20.14 1.66-20.85 1.66L-20.85 1.66Q-21.47 1.66-21.89 1.70Q-22.31 1.74-22.63 1.89Q-22.95 2.05-23.12 2.24Q-23.28 2.43-23.42 2.82Q-23.56 3.22-23.61 3.63Q-23.67 4.05-23.73 4.77L-23.73 4.77ZM-12.64 12L-12.64 12L-12.64 11.51Q-11.79 11.51-11.60 11.40Q-11.40 11.30-11.40 10.78L-11.40 10.78L-11.40 2.46Q-11.40 1.87-11.61 1.72Q-11.81 1.57-12.64 1.57L-12.64 1.57L-12.64 1.07L-10.35 0.90L-10.35 6.46L-10.33 6.46Q-10.07 5.88-9.49 5.41Q-8.92 4.93-8.03 4.93L-8.03 4.93Q-6.82 4.93-6.35 5.52L-6.35 5.52Q-5.99 5.92-5.92 6.37Q-5.85 6.81-5.85 7.97L-5.85 7.97L-5.85 11.02Q-5.83 11.36-5.57 11.43Q-5.31 11.51-4.60 11.51L-4.60 11.51L-4.60 12Q-6.23 11.95-6.39 11.95L-6.39 11.95Q-6.52 11.95-8.20 12L-8.20 12L-8.20 11.51Q-7.35 11.51-7.15 11.40Q-6.95 11.30-6.95 10.78L-6.95 10.78L-6.95 7.05Q-6.95 6.24-7.20 5.76Q-7.45 5.28-8.13 5.28L-8.13 5.28Q-8.96 5.28-9.63 5.98Q-10.29 6.67-10.29 7.84L-10.29 7.84L-10.29 10.78Q-10.29 11.30-10.09 11.40Q-9.89 11.51-9.05 11.51L-9.05 11.51L-9.05 12Q-10.68 11.95-10.84 11.95L-10.84 11.95Q-10.96 11.95-12.64 12ZM-3.84 8.48L-3.84 8.48Q-3.84 6.97-2.87 5.90Q-1.90 4.83-0.51 4.83L-0.51 4.83Q0.90 4.83 1.63 5.74Q2.36 6.66 2.36 7.97L2.36 7.97Q2.36 8.21 2.29 8.26Q2.23 8.30 1.96 8.30L1.96 8.30L-2.51 8.30Q-2.51 9.94-2.03 10.70L-2.03 10.70Q-1.35 11.77-0.22 11.77L-0.22 11.77Q-0.06 11.77 0.12 11.74Q0.31 11.71 0.69 11.57Q1.08 11.44 1.41 11.07Q1.75 10.70 1.94 10.13L1.94 10.13Q1.99 9.90 2.15 9.91L2.15 9.91Q2.36 9.91 2.36 10.09L2.36 10.09Q2.36 10.23 2.21 10.55Q2.05 10.87 1.76 11.24Q1.47 11.62 0.92 11.90Q0.36 12.18-0.31 12.18L-0.31 12.18Q-1.72 12.18-2.78 11.11Q-3.84 10.05-3.84 8.48ZM-2.49 7.97L-2.49 7.97L1.30 7.97Q1.30 7.63 1.24 7.26Q1.19 6.88 1.02 6.36Q0.85 5.84 0.46 5.52Q0.07 5.19-0.51 5.19L-0.51 5.19Q-0.77 5.19-1.04 5.30Q-1.32 5.41-1.66 5.67Q-1.99 5.94-2.23 6.54Q-2.46 7.14-2.49 7.97ZM3.26 12L3.26 12L3.26 11.51Q4.12 11.51 4.31 11.40Q4.51 11.30 4.51 10.78L4.51 10.78L4.51 6.49Q4.51 5.90 4.31 5.75Q4.10 5.60 3.26 5.60L3.26 5.60L3.26 5.10L5.49 4.93L5.49 6.69Q5.72 6 6.20 5.46Q6.68 4.93 7.46 4.93L7.46 4.93Q7.97 4.93 8.31 5.22Q8.64 5.51 8.64 5.91L8.64 5.91Q8.64 6.26 8.42 6.43Q8.21 6.61 7.95 6.61L7.95 6.61Q7.66 6.61 7.46 6.43Q7.26 6.24 7.26 5.92L7.26 5.92Q7.26 5.73 7.35 5.57Q7.44 5.42 7.51 5.37Q7.58 5.31 7.63 5.30L7.63 5.30Q7.60 5.28 7.46 5.28L7.46 5.28Q6.58 5.28 6.07 6.16Q5.57 7.04 5.57 8.29L5.57 8.29L5.57 10.75Q5.57 11.21 5.76 11.36Q5.95 11.51 6.79 11.51L6.79 11.51L7.12 11.51L7.12 12Q6.48 11.95 5.09 11.95L5.09 11.95Q4.90 11.95 4.59 11.96Q4.29 11.97 3.89 11.98Q3.49 12 3.26 12ZM9.58 12L9.58 12L9.58 11.51Q10.44 11.51 10.63 11.40Q10.83 11.30 10.83 10.78L10.83 10.78L10.83 6.49Q10.83 5.90 10.62 5.75Q10.41 5.60 9.58 5.60L9.58 5.60L9.58 5.10L11.83 4.93L11.83 6.61Q12.58 4.93 14.20 4.93L14.20 4.93Q16.08 4.93 16.33 6.49L16.33 6.49Q16.61 5.88 17.18 5.41Q17.76 4.93 18.65 4.93L18.65 4.93Q19.86 4.93 20.33 5.52L20.33 5.52Q20.69 5.92 20.76 6.37Q20.83 6.81 20.83 7.97L20.83 7.97L20.83 11.02Q20.84 11.36 21.10 11.43Q21.36 11.51 22.08 11.51L22.08 11.51L22.08 12Q20.44 11.95 20.29 11.95L20.29 11.95Q20.16 11.95 18.47 12L18.47 12L18.47 11.51Q19.33 11.51 19.53 11.40Q19.72 11.30 19.72 10.78L19.72 10.78L19.72 7.05Q19.72 6.24 19.47 5.76Q19.22 5.28 18.54 5.28L18.54 5.28Q17.71 5.28 17.04 5.98Q16.38 6.67 16.38 7.84L16.38 7.84L16.38 10.78Q16.38 11.30 16.58 11.40Q16.78 11.51 17.63 11.51L17.63 11.51L17.63 12Q16.00 11.95 15.83 11.95L15.83 11.95Q15.71 11.95 14.03 12L14.03 12L14.03 11.51Q14.88 11.51 15.08 11.40Q15.28 11.30 15.28 10.78L15.28 10.78L15.28 7.05Q15.28 6.24 15.03 5.76Q14.78 5.28 14.09 5.28L14.09 5.28Q13.26 5.28 12.60 5.98Q11.94 6.67 11.94 7.84L11.94 7.84L11.94 10.78Q11.94 11.30 12.13 11.40Q12.33 11.51 13.18 11.51L13.18 11.51L13.18 12Q11.54 11.95 11.39 11.95L11.39 11.95Q11.26 11.95 9.58 12ZM23.89 11.14Q22.83 10.09 22.83 8.57Q22.83 7.05 23.87 5.94Q24.90 4.83 26.39 4.83L26.39 4.83Q27.84 4.83 28.88 5.93Q29.93 7.04 29.93 8.58L29.93 8.58Q29.93 10.09 28.88 11.13Q27.83 12.18 26.37 12.18L26.37 12.18Q24.95 12.18 23.89 11.14ZM24.16 8.45L24.16 8.45Q24.16 10 24.57 10.70L24.57 10.70Q25.19 11.77 26.39 11.77L26.39 11.77Q26.98 11.77 27.48 11.45Q27.97 11.13 28.25 10.59L28.25 10.59Q28.60 9.89 28.60 8.45L28.60 8.45Q28.60 6.91 28.18 6.23L28.18 6.23Q27.55 5.19 26.37 5.19L26.37 5.19Q25.86 5.19 25.35 5.46Q24.85 5.73 24.54 6.26L24.54 6.26Q24.16 6.96 24.16 8.45ZM30.90 12L30.90 12L30.90 11.51Q31.76 11.51 31.95 11.40Q32.15 11.30 32.15 10.78L32.15 10.78L32.15 6.49Q32.15 5.90 31.94 5.75Q31.73 5.60 30.90 5.60L30.90 5.60L30.90 5.10L33.15 4.93L33.15 6.61Q33.90 4.93 35.52 4.93L35.52 4.93Q37.40 4.93 37.65 6.49L37.65 6.49Q37.93 5.88 38.50 5.41Q39.08 4.93 39.97 4.93L39.97 4.93Q41.18 4.93 41.65 5.52L41.65 5.52Q42.01 5.92 42.08 6.37Q42.15 6.81 42.15 7.97L42.15 7.97L42.15 11.02Q42.16 11.36 42.42 11.43Q42.68 11.51 43.40 11.51L43.40 11.51L43.40 12Q41.76 11.95 41.61 11.95L41.61 11.95Q41.48 11.95 39.79 12L39.79 12L39.79 11.51Q40.65 11.51 40.85 11.40Q41.04 11.30 41.04 10.78L41.04 10.78L41.04 7.05Q41.04 6.24 40.79 5.76Q40.54 5.28 39.86 5.28L39.86 5.28Q39.03 5.28 38.37 5.98Q37.70 6.67 37.70 7.84L37.70 7.84L37.70 10.78Q37.70 11.30 37.90 11.40Q38.10 11.51 38.95 11.51L38.95 11.51L38.95 12Q37.32 11.95 37.15 11.95L37.15 11.95Q37.03 11.95 35.35 12L35.35 12L35.35 11.51Q36.20 11.51 36.40 11.40Q36.60 11.30 36.60 10.78L36.60 10.78L36.60 7.05Q36.60 6.24 36.35 5.76Q36.10 5.28 35.41 5.28L35.41 5.28Q34.58 5.28 33.92 5.98Q33.26 6.67 33.26 7.84L33.26 7.84L33.26 10.78Q33.26 11.30 33.46 11.40Q33.65 11.51 34.50 11.51L34.50 11.51L34.50 12Q32.87 11.95 32.71 11.95L32.71 11.95Q32.58 11.95 30.90 12ZM44.15 8.48L44.15 8.48Q44.15 6.97 45.12 5.90Q46.09 4.83 47.48 4.83L47.48 4.83Q48.89 4.83 49.62 5.74Q50.35 6.66 50.35 7.97L50.35 7.97Q50.35 8.21 50.29 8.26Q50.22 8.30 49.95 8.30L49.95 8.30L45.48 8.30Q45.48 9.94 45.97 10.70L45.97 10.70Q46.64 11.77 47.77 11.77L47.77 11.77Q47.93 11.77 48.12 11.74Q48.30 11.71 48.69 11.57Q49.07 11.44 49.40 11.07Q49.74 10.70 49.94 10.13L49.94 10.13Q49.98 9.90 50.14 9.91L50.14 9.91Q50.35 9.91 50.35 10.09L50.35 10.09Q50.35 10.23 50.20 10.55Q50.04 10.87 49.76 11.24Q49.47 11.62 48.91 11.90Q48.35 12.18 47.68 12.18L47.68 12.18Q46.27 12.18 45.21 11.11Q44.15 10.05 44.15 8.48ZM45.50 7.97L45.50 7.97L49.29 7.97Q49.29 7.63 49.24 7.26Q49.18 6.88 49.01 6.36Q48.84 5.84 48.45 5.52Q48.06 5.19 47.48 5.19L47.48 5.19Q47.22 5.19 46.95 5.30Q46.67 5.41 46.33 5.67Q46.00 5.94 45.76 6.54Q45.53 7.14 45.50 7.97ZM52.47 5.60L51.12 5.60L51.12 5.25Q51.85 5.22 52.34 4.70Q52.83 4.18 52.99 3.54Q53.16 2.90 53.18 2.16L53.18 2.16L53.58 2.16L53.58 5.10L55.87 5.10L55.87 5.60L53.58 5.60L53.58 10.05Q53.58 11.77 54.65 11.77L54.65 11.77Q55.12 11.77 55.42 11.30Q55.72 10.83 55.72 9.98L55.72 9.98L55.72 9.10L56.12 9.10L56.12 10.02Q56.12 10.88 55.72 11.53Q55.33 12.18 54.54 12.18L54.54 12.18Q54.25 12.18 53.96 12.11Q53.68 12.03 53.31 11.84Q52.94 11.65 52.71 11.18Q52.47 10.70 52.47 10.02L52.47 10.02L52.47 5.60ZM57.46 8.48L57.46 8.48Q57.46 6.97 58.43 5.90Q59.40 4.83 60.79 4.83L60.79 4.83Q62.19 4.83 62.92 5.74Q63.65 6.66 63.65 7.97L63.65 7.97Q63.65 8.21 63.59 8.26Q63.53 8.30 63.26 8.30L63.26 8.30L58.79 8.30Q58.79 9.94 59.27 10.70L59.27 10.70Q59.94 11.77 61.08 11.77L61.08 11.77Q61.23 11.77 61.42 11.74Q61.61 11.71 61.99 11.57Q62.37 11.44 62.71 11.07Q63.04 10.70 63.24 10.13L63.24 10.13Q63.29 9.90 63.44 9.91L63.44 9.91Q63.65 9.91 63.65 10.09L63.65 10.09Q63.65 10.23 63.50 10.55Q63.35 10.87 63.06 11.24Q62.77 11.62 62.21 11.90Q61.65 12.18 60.98 12.18L60.98 12.18Q59.58 12.18 58.52 11.11Q57.46 10.05 57.46 8.48ZM58.80 7.97L58.80 7.97L62.60 7.97Q62.60 7.63 62.54 7.26Q62.48 6.88 62.31 6.36Q62.15 5.84 61.76 5.52Q61.37 5.19 60.79 5.19L60.79 5.19Q60.53 5.19 60.25 5.30Q59.97 5.41 59.64 5.67Q59.30 5.94 59.07 6.54Q58.83 7.14 58.80 7.97ZM64.56 12L64.56 12L64.56 11.51Q65.41 11.51 65.61 11.40Q65.81 11.30 65.81 10.78L65.81 10.78L65.81 6.49Q65.81 5.90 65.60 5.75Q65.40 5.60 64.56 5.60L64.56 5.60L64.56 5.10L66.79 4.93L66.79 6.69Q67.01 6 67.49 5.46Q67.97 4.93 68.76 4.93L68.76 4.93Q69.27 4.93 69.60 5.22Q69.94 5.51 69.94 5.91L69.94 5.91Q69.94 6.26 69.72 6.43Q69.51 6.61 69.25 6.61L69.25 6.61Q68.96 6.61 68.76 6.43Q68.56 6.24 68.56 5.92L68.56 5.92Q68.56 5.73 68.65 5.57Q68.74 5.42 68.81 5.37Q68.88 5.31 68.93 5.30L68.93 5.30Q68.90 5.28 68.76 5.28L68.76 5.28Q67.87 5.28 67.37 6.16Q66.87 7.04 66.87 8.29L66.87 8.29L66.87 10.75Q66.87 11.21 67.06 11.36Q67.25 11.51 68.08 11.51L68.08 11.51L68.42 11.51L68.42 12Q67.78 11.95 66.39 11.95L66.39 11.95Q66.19 11.95 65.89 11.96Q65.58 11.97 65.19 11.98Q64.79 12 64.56 12ZM71.99 11.75Q71.74 11.51 71.74 11.16Q71.74 10.80 71.99 10.55Q72.24 10.30 72.59 10.30Q72.94 10.30 73.19 10.55Q73.44 10.80 73.44 11.16Q73.44 11.51 73.19 11.75Q72.94 12 72.59 12Q72.24 12 71.99 11.75ZM71.99 6.55Q71.74 6.30 71.74 5.95Q71.74 5.60 71.99 5.35Q72.24 5.10 72.59 5.10Q72.94 5.10 73.19 5.35Q73.44 5.60 73.44 5.95Q73.44 6.30 73.19 6.55Q72.94 6.80 72.59 6.80Q72.24 6.80 71.99 6.55Z"
                />
                <path
                    d="M10.87 33.75Q9.85 32.69 9.85 31.17Q9.85 29.65 10.85 28.55Q11.85 27.45 13.32 27.45L13.32 27.45Q14.30 27.45 15.03 27.92Q15.76 28.38 15.76 29.17L15.76 29.17Q15.76 29.52 15.56 29.72Q15.35 29.92 15.03 29.92L15.03 29.92Q14.69 29.92 14.49 29.71Q14.30 29.51 14.30 29.19L14.30 29.19Q14.30 29.05 14.34 28.91Q14.39 28.76 14.56 28.62Q14.74 28.47 15.05 28.44L15.05 28.44Q14.47 27.86 13.37 27.86L13.37 27.86Q13.35 27.86 13.33 27.86L13.33 27.86Q12.52 27.86 11.85 28.62Q11.18 29.39 11.18 31.14L11.18 31.14Q11.18 32.05 11.40 32.72Q11.62 33.39 11.99 33.73Q12.36 34.08 12.72 34.24Q13.08 34.40 13.43 34.40L13.43 34.40Q15.00 34.40 15.53 32.72L15.53 32.72Q15.58 32.56 15.73 32.56L15.73 32.56Q15.94 32.56 15.94 32.72L15.94 32.72Q15.94 32.80 15.88 33.00Q15.82 33.20 15.62 33.52Q15.43 33.84 15.15 34.12Q14.87 34.40 14.38 34.60Q13.90 34.80 13.29 34.80L13.29 34.80Q11.88 34.80 10.87 33.75ZM17.91 33.76Q16.85 32.72 16.85 31.20Q16.85 29.68 17.88 28.57Q18.92 27.45 20.40 27.45L20.40 27.45Q21.86 27.45 22.90 28.56Q23.94 29.66 23.94 31.20L23.94 31.20Q23.94 32.71 22.89 33.76Q21.84 34.80 20.39 34.80L20.39 34.80Q18.97 34.80 17.91 33.76ZM18.18 31.07L18.18 31.07Q18.18 32.62 18.58 33.33L18.58 33.33Q19.21 34.40 20.40 34.40L20.40 34.40Q21.00 34.40 21.49 34.08Q21.99 33.76 22.26 33.22L22.26 33.22Q22.62 32.51 22.62 31.07L22.62 31.07Q22.62 29.53 22.19 28.85L22.19 28.85Q21.57 27.81 20.39 27.81L20.39 27.81Q19.87 27.81 19.37 28.08Q18.87 28.35 18.56 28.88L18.56 28.88Q18.18 29.58 18.18 31.07ZM24.95 31.19L24.95 31.19Q24.95 29.66 26.01 28.61Q27.08 27.55 28.51 27.55L28.51 27.55Q29.73 27.55 30.53 28.55L30.53 28.55L30.53 25.08Q30.53 24.49 30.32 24.34Q30.12 24.19 29.29 24.19L29.29 24.19L29.29 23.69L31.59 23.52L31.59 33.23Q31.59 33.83 31.80 33.98Q32.01 34.13 32.83 34.13L32.83 34.13L32.83 34.62L30.48 34.80L30.48 33.74Q29.65 34.80 28.34 34.80L28.34 34.80Q26.97 34.80 25.96 33.75Q24.95 32.69 24.95 31.19ZM26.28 31.20L26.28 31.20Q26.28 32.69 26.74 33.42L26.74 33.42Q27.38 34.44 28.42 34.44L28.42 34.44Q29.61 34.44 30.31 33.33L30.31 33.33Q30.49 33.05 30.48 32.73L30.48 32.73L30.48 29.45Q30.48 29.13 30.31 28.87L30.31 28.87Q29.65 27.91 28.58 27.91L28.58 27.91Q27.47 27.91 26.77 28.93L26.77 28.93Q26.28 29.69 26.28 31.20ZM33.72 31.10L33.72 31.10Q33.72 29.59 34.69 28.52Q35.66 27.45 37.05 27.45L37.05 27.45Q38.46 27.45 39.19 28.37Q39.92 29.28 39.92 30.59L39.92 30.59Q39.92 30.83 39.86 30.88Q39.80 30.93 39.52 30.93L39.52 30.93L35.05 30.93Q35.05 32.56 35.54 33.33L35.54 33.33Q36.21 34.40 37.34 34.40L37.34 34.40Q37.50 34.40 37.69 34.37Q37.87 34.33 38.26 34.20Q38.64 34.06 38.97 33.69Q39.31 33.33 39.51 32.75L39.51 32.75Q39.55 32.52 39.71 32.53L39.71 32.53Q39.92 32.53 39.92 32.72L39.92 32.72Q39.92 32.86 39.77 33.17Q39.62 33.49 39.33 33.87Q39.04 34.24 38.48 34.52Q37.92 34.80 37.25 34.80L37.25 34.80Q35.84 34.80 34.78 33.74Q33.72 32.67 33.72 31.10ZM35.07 30.59L35.07 30.59L38.87 30.59Q38.87 30.26 38.81 29.88Q38.75 29.51 38.58 28.99Q38.41 28.47 38.02 28.14Q37.63 27.81 37.05 27.81L37.05 27.81Q36.80 27.81 36.52 27.92Q36.24 28.03 35.90 28.30Q35.57 28.56 35.33 29.16Q35.10 29.76 35.07 30.59Z"
                />
                <path
                    d="M19.63 49.85L18.27 49.85L18.27 49.50Q19.01 49.47 19.49 48.95Q19.98 48.43 20.15 47.79Q20.32 47.15 20.33 46.40L20.33 46.40L20.73 46.40L20.73 49.35L23.02 49.35L23.02 49.85L20.73 49.85L20.73 54.29Q20.73 56.02 21.81 56.02L21.81 56.02Q22.27 56.02 22.58 55.55Q22.88 55.08 22.88 54.23L22.88 54.23L22.88 53.35L23.28 53.35L23.28 54.26Q23.28 55.13 22.88 55.78Q22.48 56.43 21.69 56.43L21.69 56.43Q21.40 56.43 21.12 56.35Q20.83 56.28 20.46 56.09Q20.09 55.90 19.86 55.42Q19.63 54.95 19.63 54.26L19.63 54.26L19.63 49.85ZM25.67 55.38Q24.62 54.34 24.62 52.82Q24.62 51.30 25.65 50.19Q26.69 49.08 28.17 49.08L28.17 49.08Q29.62 49.08 30.67 50.18Q31.71 51.29 31.71 52.83L31.71 52.83Q31.71 54.33 30.66 55.38Q29.61 56.43 28.15 56.43L28.15 56.43Q26.73 56.43 25.67 55.38ZM25.94 52.69L25.94 52.69Q25.94 54.25 26.35 54.95L26.35 54.95Q26.97 56.02 28.17 56.02L28.17 56.02Q28.76 56.02 29.26 55.70Q29.76 55.38 30.03 54.84L30.03 54.84Q30.38 54.14 30.38 52.69L30.38 52.69Q30.38 51.15 29.96 50.47L29.96 50.47Q29.33 49.44 28.15 49.44L28.15 49.44Q27.64 49.44 27.13 49.71Q26.63 49.97 26.33 50.51L26.33 50.51Q25.94 51.21 25.94 52.69Z"
                />
                <path
                    d="M3.08 68.44L3.08 68.44L3.08 67.94L5.38 67.77L5.38 72.84Q6.31 71.80 7.58 71.80L7.58 71.80Q8.95 71.80 9.96 72.86Q10.97 73.91 10.97 75.42L10.97 75.42Q10.97 76.94 9.91 78.00Q8.86 79.05 7.40 79.05L7.40 79.05Q6.07 79.05 5.30 77.88L5.30 77.88Q4.74 78.86 4.72 78.87L4.72 78.87L4.33 78.87L4.33 69.33Q4.33 68.74 4.12 68.59Q3.90 68.44 3.08 68.44ZM5.43 73.75L5.43 77.05Q5.43 77.39 5.65 77.72L5.65 77.72Q6.29 78.69 7.32 78.69L7.32 78.69Q7.33 78.69 7.33 78.69L7.33 78.69Q8.45 78.69 9.15 77.67L9.15 77.67Q9.64 76.90 9.64 75.40L9.64 75.40Q9.64 73.92 9.18 73.18L9.18 73.18Q8.54 72.15 7.50 72.15L7.50 72.15Q6.33 72.15 5.61 73.18L5.61 73.18Q5.43 73.43 5.43 73.75L5.43 73.75ZM12.04 78.87L12.04 78.87L12.04 78.38Q12.89 78.38 13.08 78.27Q13.28 78.17 13.28 77.65L13.28 77.65L13.28 73.35Q13.28 72.75 13.08 72.61Q12.88 72.47 12.10 72.47L12.10 72.47L12.10 71.97L14.33 71.80L14.33 77.67Q14.33 78.15 14.51 78.26Q14.68 78.38 15.46 78.38L15.46 78.38L15.46 78.87Q13.83 78.83 13.79 78.83L13.79 78.83Q13.58 78.83 12.04 78.87ZM12.71 69.01L12.71 69.01Q12.71 68.69 12.96 68.43Q13.20 68.17 13.55 68.17Q13.90 68.17 14.15 68.41Q14.40 68.65 14.40 69.02Q14.40 69.39 14.15 69.63Q13.90 69.86 13.55 69.86L13.55 69.86Q13.19 69.86 12.95 69.61Q12.71 69.35 12.71 69.01ZM16.45 78.87L16.45 78.87L16.45 78.38Q17.30 78.38 17.50 78.27Q17.69 78.17 17.69 77.65L17.69 77.65L17.69 73.36Q17.69 72.77 17.49 72.62Q17.28 72.47 16.45 72.47L16.45 72.47L16.45 71.97L18.70 71.80L18.70 73.48Q19.45 71.80 21.07 71.80L21.07 71.80Q22.27 71.80 22.75 72.40L22.75 72.40Q23.10 72.79 23.17 73.24Q23.25 73.68 23.25 74.84L23.25 74.84L23.25 77.90Q23.26 78.23 23.52 78.31Q23.78 78.38 24.50 78.38L24.50 78.38L24.50 78.87Q22.87 78.83 22.70 78.83L22.70 78.83Q22.58 78.83 20.90 78.87L20.90 78.87L20.90 78.38Q21.75 78.38 21.95 78.27Q22.15 78.17 22.15 77.65L22.15 77.65L22.15 73.93Q22.15 73.11 21.90 72.63Q21.65 72.15 20.96 72.15L20.96 72.15Q20.13 72.15 19.47 72.85Q18.80 73.54 18.80 74.72L18.80 74.72L18.80 77.65Q18.80 78.17 19.00 78.27Q19.20 78.38 20.04 78.38L20.04 78.38L20.04 78.87Q18.41 78.83 18.26 78.83L18.26 78.83Q18.13 78.83 16.45 78.87ZM25.48 77.35L25.48 77.35Q25.48 75.99 27.08 75.27L27.08 75.27Q28.04 74.81 30.03 74.69L30.03 74.69L30.03 74.11Q30.03 73.11 29.51 72.59Q28.99 72.06 28.33 72.06L28.33 72.06Q27.16 72.06 26.60 72.79L26.60 72.79Q27.08 72.81 27.25 73.05Q27.42 73.29 27.42 73.53L27.42 73.53Q27.42 73.85 27.22 74.06Q27.02 74.26 26.69 74.26L26.69 74.26Q26.37 74.26 26.15 74.06Q25.94 73.86 25.94 73.51L25.94 73.51Q25.94 72.73 26.65 72.22Q27.36 71.70 28.37 71.70L28.37 71.70Q29.68 71.70 30.55 72.58L30.55 72.58Q30.83 72.86 30.96 73.21Q31.10 73.56 31.12 73.79Q31.13 74.02 31.13 74.47L31.13 74.47L31.13 77.67Q31.13 77.76 31.16 77.92Q31.19 78.08 31.34 78.27Q31.48 78.47 31.72 78.47L31.72 78.47Q32.30 78.47 32.29 77.45L32.29 77.45L32.29 76.55L32.70 76.55L32.70 77.45Q32.70 78.30 32.25 78.63Q31.80 78.97 31.39 78.97L31.39 78.97Q30.86 78.97 30.52 78.58Q30.19 78.18 30.14 77.65L30.14 77.65Q29.90 78.26 29.35 78.66Q28.79 79.05 28.04 79.05L28.04 79.05Q27.47 79.05 26.92 78.91Q26.38 78.76 25.93 78.36Q25.48 77.96 25.48 77.35ZM26.72 77.33L26.72 77.33Q26.72 77.93 27.14 78.31Q27.56 78.69 28.15 78.69L28.15 78.69Q28.83 78.69 29.43 78.17Q30.03 77.65 30.03 76.63L30.03 76.63L30.03 75.03Q28.26 75.09 27.49 75.80Q26.72 76.50 26.72 77.33ZM33.26 78.87L33.26 78.87L33.26 78.38Q34.11 78.38 34.31 78.27Q34.51 78.17 34.51 77.65L34.51 77.65L34.51 73.36Q34.51 72.77 34.30 72.62Q34.09 72.47 33.26 72.47L33.26 72.47L33.26 71.97L35.48 71.80L35.48 73.56Q35.71 72.87 36.19 72.34Q36.67 71.80 37.45 71.80L37.45 71.80Q37.97 71.80 38.30 72.09Q38.63 72.38 38.63 72.78L38.63 72.78Q38.63 73.13 38.42 73.31Q38.20 73.48 37.94 73.48L37.94 73.48Q37.65 73.48 37.46 73.30Q37.26 73.11 37.26 72.79L37.26 72.79Q37.26 72.60 37.35 72.45Q37.44 72.29 37.51 72.24Q37.58 72.18 37.62 72.17L37.62 72.17Q37.59 72.15 37.45 72.15L37.45 72.15Q36.57 72.15 36.06 73.03Q35.56 73.91 35.56 75.16L35.56 75.16L35.56 77.62Q35.56 78.08 35.75 78.23Q35.94 78.38 36.78 78.38L36.78 78.38L37.12 78.38L37.12 78.87Q36.47 78.83 35.08 78.83L35.08 78.83Q34.89 78.83 34.58 78.83Q34.28 78.84 33.88 78.86Q33.48 78.87 33.26 78.87ZM39.37 80.86L39.37 80.86Q39.37 80.52 39.56 80.34Q39.76 80.17 40.04 80.17L40.04 80.17Q40.33 80.17 40.52 80.35Q40.71 80.54 40.71 80.84L40.71 80.84Q40.71 81.43 40.08 81.51L40.08 81.51Q40.39 81.80 40.83 81.80L40.83 81.80Q41.31 81.80 41.70 81.45Q42.08 81.10 42.25 80.76Q42.42 80.43 42.66 79.82L42.66 79.82Q42.89 79.34 43.06 78.87L43.06 78.87L40.66 73.03Q40.51 72.65 40.26 72.56Q40.02 72.47 39.37 72.47L39.37 72.47L39.37 71.97Q40.08 72.02 40.92 72.02L40.92 72.02Q41.41 72.02 42.66 71.97L42.66 71.97L42.66 72.47Q41.76 72.47 41.76 72.89L41.76 72.89Q41.76 72.93 41.86 73.18L41.86 73.18L43.64 77.48L45.26 73.54Q45.35 73.32 45.35 73.16L45.35 73.16Q45.35 72.50 44.60 72.47L44.60 72.47L44.60 71.97Q45.65 72.02 45.99 72.02L45.99 72.02Q46.65 72.02 47.19 71.97L47.19 71.97L47.19 72.47Q46.12 72.47 45.70 73.50L45.70 73.50L42.88 80.33Q42.12 82.15 40.83 82.15L40.83 82.15Q40.22 82.15 39.79 81.78Q39.37 81.40 39.37 80.86Z"
                />
                <path
                    d="M10.87 100.62Q9.85 99.56 9.85 98.04Q9.85 96.52 10.85 95.42Q11.85 94.32 13.32 94.32L13.32 94.32Q14.30 94.32 15.03 94.79Q15.76 95.25 15.76 96.04L15.76 96.04Q15.76 96.39 15.56 96.59Q15.35 96.79 15.03 96.79L15.03 96.79Q14.69 96.79 14.49 96.59Q14.30 96.38 14.30 96.06L14.30 96.06Q14.30 95.92 14.34 95.78Q14.39 95.64 14.56 95.49Q14.74 95.34 15.05 95.32L15.05 95.32Q14.47 94.73 13.37 94.73L13.37 94.73Q13.35 94.73 13.33 94.73L13.33 94.73Q12.52 94.73 11.85 95.50Q11.18 96.26 11.18 98.01L11.18 98.01Q11.18 98.93 11.40 99.59Q11.62 100.26 11.99 100.61Q12.36 100.95 12.72 101.11Q13.08 101.27 13.43 101.27L13.43 101.27Q15.00 101.27 15.53 99.59L15.53 99.59Q15.58 99.43 15.73 99.43L15.73 99.43Q15.94 99.43 15.94 99.59L15.94 99.59Q15.94 99.67 15.88 99.87Q15.82 100.07 15.62 100.39Q15.43 100.71 15.15 100.99Q14.87 101.27 14.38 101.47Q13.90 101.68 13.29 101.68L13.29 101.68Q11.88 101.68 10.87 100.62ZM17.91 100.63Q16.85 99.59 16.85 98.07Q16.85 96.55 17.88 95.44Q18.92 94.32 20.40 94.32L20.40 94.32Q21.86 94.32 22.90 95.43Q23.94 96.54 23.94 98.07L23.94 98.07Q23.94 99.58 22.89 100.63Q21.84 101.68 20.39 101.68L20.39 101.68Q18.97 101.68 17.91 100.63ZM18.18 97.94L18.18 97.94Q18.18 99.50 18.58 100.20L18.58 100.20Q19.21 101.27 20.40 101.27L20.40 101.27Q21.00 101.27 21.49 100.95Q21.99 100.63 22.26 100.09L22.26 100.09Q22.62 99.39 22.62 97.94L22.62 97.94Q22.62 96.40 22.19 95.72L22.19 95.72Q21.57 94.68 20.39 94.68L20.39 94.68Q19.87 94.68 19.37 94.95Q18.87 95.22 18.56 95.75L18.56 95.75Q18.18 96.46 18.18 97.94ZM24.95 98.06L24.95 98.06Q24.95 96.54 26.01 95.48Q27.08 94.43 28.51 94.43L28.51 94.43Q29.73 94.43 30.53 95.42L30.53 95.42L30.53 91.96Q30.53 91.36 30.32 91.21Q30.12 91.07 29.29 91.07L29.29 91.07L29.29 90.57L31.59 90.39L31.59 100.11Q31.59 100.70 31.80 100.85Q32.01 101.00 32.83 101.00L32.83 101.00L32.83 101.50L30.48 101.68L30.48 100.61Q29.65 101.67 28.34 101.68L28.34 101.68Q26.97 101.68 25.96 100.62Q24.95 99.57 24.95 98.06ZM26.28 98.07L26.28 98.07Q26.28 99.56 26.74 100.29L26.74 100.29Q27.38 101.32 28.42 101.32L28.42 101.32Q29.61 101.32 30.31 100.20L30.31 100.20Q30.49 99.93 30.48 99.61L30.48 99.61L30.48 96.32Q30.48 96.00 30.31 95.74L30.31 95.74Q29.65 94.78 28.58 94.78L28.58 94.78Q27.47 94.78 26.77 95.80L26.77 95.80Q26.28 96.57 26.28 98.07ZM33.72 97.97L33.72 97.97Q33.72 96.46 34.69 95.39Q35.66 94.32 37.05 94.32L37.05 94.32Q38.46 94.32 39.19 95.24Q39.92 96.15 39.92 97.46L39.92 97.46Q39.92 97.71 39.86 97.75Q39.80 97.80 39.52 97.80L39.52 97.80L35.05 97.80Q35.05 99.43 35.54 100.20L35.54 100.20Q36.21 101.27 37.34 101.27L37.34 101.27Q37.50 101.27 37.69 101.24Q37.87 101.21 38.26 101.07Q38.64 100.93 38.97 100.57Q39.31 100.20 39.51 99.62L39.51 99.62Q39.55 99.39 39.71 99.40L39.71 99.40Q39.92 99.40 39.92 99.59L39.92 99.59Q39.92 99.73 39.77 100.05Q39.62 100.36 39.33 100.74Q39.04 101.11 38.48 101.39Q37.92 101.68 37.25 101.68L37.25 101.68Q35.84 101.68 34.78 100.61Q33.72 99.54 33.72 97.97ZM35.07 97.46L35.07 97.46L38.87 97.46Q38.87 97.13 38.81 96.75Q38.75 96.38 38.58 95.86Q38.41 95.34 38.02 95.01Q37.63 94.68 37.05 94.68L37.05 94.68Q36.80 94.68 36.52 94.79Q36.24 94.90 35.90 95.17Q35.57 95.43 35.33 96.04Q35.10 96.64 35.07 97.46Z"
                />
                <path
                    d="M-9.61 122.24Q-10.63 121.18-10.63 119.66Q-10.63 118.14-9.63 117.05Q-8.63 115.95-7.16 115.95L-7.16 115.95Q-6.18 115.95-5.45 116.41Q-4.72 116.88-4.72 117.67L-4.72 117.67Q-4.72 118.02-4.92 118.22Q-5.13 118.42-5.45 118.42L-5.45 118.42Q-5.79 118.42-5.99 118.21Q-6.18 118.00-6.18 117.68L-6.18 117.68Q-6.18 117.54-6.14 117.40Q-6.09 117.26-5.92 117.11Q-5.74 116.96-5.43 116.94L-5.43 116.94Q-6.01 116.35-7.11 116.35L-7.11 116.35Q-7.13 116.35-7.15 116.35L-7.15 116.35Q-7.96 116.35-8.63 117.12Q-9.30 117.89-9.30 119.64L-9.30 119.64Q-9.30 120.55-9.08 121.22Q-8.86 121.89-8.49 122.23Q-8.12 122.57-7.76 122.73Q-7.40 122.89-7.05 122.89L-7.05 122.89Q-5.48 122.89-4.95 121.21L-4.95 121.21Q-4.90 121.06-4.75 121.06L-4.75 121.06Q-4.54 121.06-4.54 121.21L-4.54 121.21Q-4.54 121.29-4.60 121.49Q-4.66 121.70-4.86 122.02Q-5.05 122.34-5.33 122.62Q-5.61 122.89-6.10 123.10Q-6.58 123.30-7.19 123.30L-7.19 123.30Q-8.60 123.30-9.61 122.24ZM-2.57 122.26Q-3.63 121.21-3.63 119.69Q-3.63 118.17-2.60 117.06Q-1.56 115.95-0.08 115.95L-0.08 115.95Q1.38 115.95 2.42 117.05Q3.46 118.16 3.46 119.70L3.46 119.70Q3.46 121.21 2.41 122.25Q1.36 123.30-0.09 123.30L-0.09 123.30Q-1.51 123.30-2.57 122.26ZM-2.30 119.57L-2.30 119.57Q-2.30 121.12-1.90 121.82L-1.90 121.82Q-1.27 122.89-0.08 122.89L-0.08 122.89Q0.52 122.89 1.01 122.57Q1.51 122.25 1.78 121.71L1.78 121.71Q2.14 121.01 2.14 119.57L2.14 119.57Q2.14 118.03 1.71 117.35L1.71 117.35Q1.09 116.31-0.09 116.31L-0.09 116.31Q-0.61 116.31-1.11 116.58Q-1.61 116.85-1.92 117.38L-1.92 117.38Q-2.30 118.08-2.30 119.57ZM4.44 123.12L4.44 123.12L4.44 122.63Q5.29 122.63 5.49 122.52Q5.68 122.42 5.68 121.90L5.68 121.90L5.68 117.61Q5.68 117.02 5.48 116.87Q5.27 116.72 4.44 116.72L4.44 116.72L4.44 116.22L6.69 116.05L6.69 117.73Q7.44 116.05 9.06 116.05L9.06 116.05Q10.26 116.05 10.74 116.64L10.74 116.64Q11.09 117.04 11.16 117.49Q11.24 117.93 11.24 119.09L11.24 119.09L11.24 122.14Q11.25 122.48 11.51 122.55Q11.77 122.63 12.49 122.63L12.49 122.63L12.49 123.12Q10.85 123.07 10.69 123.07L10.69 123.07Q10.57 123.07 8.89 123.12L8.89 123.12L8.89 122.63Q9.74 122.63 9.94 122.52Q10.14 122.42 10.14 121.90L10.14 121.90L10.14 118.17Q10.14 117.36 9.89 116.88Q9.64 116.40 8.95 116.40L8.95 116.40Q8.12 116.40 7.46 117.10Q6.79 117.79 6.79 118.96L6.79 118.96L6.79 121.90Q6.79 122.42 6.99 122.52Q7.19 122.63 8.03 122.63L8.03 122.63L8.03 123.12Q6.40 123.07 6.24 123.07L6.24 123.07Q6.12 123.07 4.44 123.12ZM13.10 116.72L13.10 116.72L13.10 116.22Q13.82 116.27 14.66 116.27L14.66 116.27Q14.96 116.27 16.40 116.22L16.40 116.22L16.40 116.72Q15.49 116.72 15.49 117.14L15.49 117.14Q15.49 117.20 15.58 117.41L15.58 117.41L17.38 121.87L19.01 117.79Q19.10 117.52 19.10 117.41L19.10 117.41Q19.10 117.14 18.92 116.94Q18.74 116.74 18.34 116.72L18.34 116.72L18.34 116.22Q19.15 116.27 19.73 116.27L19.73 116.27Q20.39 116.27 20.92 116.22L20.92 116.22L20.92 116.72Q20.45 116.72 20.11 116.94Q19.78 117.15 19.67 117.33Q19.57 117.52 19.46 117.79L19.46 117.79L17.36 122.99Q17.24 123.30 17.03 123.30L17.03 123.30Q16.89 123.30 16.83 123.24Q16.77 123.18 16.69 122.99L16.69 122.99L14.39 117.32Q14.23 116.92 14.03 116.82Q13.82 116.72 13.10 116.72ZM21.67 119.60L21.67 119.60Q21.67 118.09 22.64 117.02Q23.61 115.95 25.00 115.95L25.00 115.95Q26.41 115.95 27.14 116.86Q27.87 117.78 27.87 119.09L27.87 119.09Q27.87 119.33 27.81 119.38Q27.74 119.42 27.47 119.42L27.47 119.42L23.00 119.42Q23.00 121.06 23.49 121.82L23.49 121.82Q24.16 122.89 25.29 122.89L25.29 122.89Q25.45 122.89 25.64 122.86Q25.82 122.83 26.21 122.69Q26.59 122.56 26.92 122.19Q27.26 121.82 27.46 121.24L27.46 121.24Q27.50 121.02 27.66 121.03L27.66 121.03Q27.87 121.03 27.87 121.21L27.87 121.21Q27.87 121.35 27.72 121.67Q27.57 121.99 27.28 122.36Q26.99 122.74 26.43 123.02Q25.87 123.30 25.20 123.30L25.20 123.30Q23.79 123.30 22.73 122.23Q21.67 121.17 21.67 119.60ZM23.02 119.09L23.02 119.09L26.82 119.09Q26.82 118.75 26.76 118.38Q26.70 118.00 26.53 117.48Q26.36 116.96 25.97 116.64Q25.58 116.31 25.00 116.31L25.00 116.31Q24.74 116.31 24.47 116.42Q24.19 116.53 23.85 116.79Q23.52 117.06 23.28 117.66Q23.05 118.26 23.02 119.09ZM28.78 123.12L28.78 123.12L28.78 122.63Q29.63 122.63 29.83 122.52Q30.03 122.42 30.03 121.90L30.03 121.90L30.03 117.61Q30.03 117.02 29.82 116.87Q29.61 116.72 28.78 116.72L28.78 116.72L28.78 116.22L31.00 116.05L31.00 117.81Q31.23 117.12 31.71 116.58Q32.19 116.05 32.97 116.05L32.97 116.05Q33.49 116.05 33.82 116.34Q34.15 116.63 34.15 117.03L34.15 117.03Q34.15 117.38 33.94 117.55Q33.72 117.73 33.46 117.73L33.46 117.73Q33.17 117.73 32.98 117.55Q32.78 117.36 32.78 117.04L32.78 117.04Q32.78 116.85 32.87 116.69Q32.96 116.54 33.03 116.49Q33.10 116.43 33.14 116.42L33.14 116.42Q33.11 116.40 32.97 116.40L32.97 116.40Q32.09 116.40 31.58 117.28Q31.08 118.16 31.08 119.41L31.08 119.41L31.08 121.87Q31.08 122.33 31.27 122.48Q31.46 122.63 32.30 122.63L32.30 122.63L32.64 122.63L32.64 123.12Q31.99 123.07 30.60 123.07L30.60 123.07Q30.41 123.07 30.10 123.08Q29.80 123.09 29.40 123.10Q29.00 123.12 28.78 123.12ZM35.11 122.91L35.11 122.91L35.11 120.80Q35.11 120.62 35.12 120.56Q35.13 120.49 35.17 120.45Q35.22 120.40 35.32 120.40L35.32 120.40Q35.42 120.40 35.47 120.45Q35.51 120.49 35.54 120.67L35.54 120.67Q35.78 121.78 36.30 122.36Q36.82 122.94 37.77 122.94L37.77 122.94Q38.67 122.94 39.12 122.54Q39.57 122.14 39.57 121.49L39.57 121.49Q39.57 120.32 37.91 120.02L37.91 120.02Q36.95 119.82 36.55 119.69Q36.15 119.57 35.80 119.28L35.80 119.28Q35.11 118.71 35.11 117.92Q35.11 117.12 35.72 116.53Q36.32 115.95 37.67 115.95L37.67 115.95Q38.57 115.95 39.17 116.40L39.17 116.40Q39.35 116.26 39.45 116.14L39.45 116.14Q39.66 115.95 39.77 115.95L39.77 115.95Q39.89 115.95 39.92 116.03Q39.94 116.11 39.94 116.34L39.94 116.34L39.94 117.95Q39.94 118.13 39.93 118.19Q39.92 118.25 39.88 118.30Q39.83 118.34 39.73 118.34L39.73 118.34Q39.55 118.34 39.54 118.19L39.54 118.19Q39.42 116.25 37.67 116.25L37.67 116.25Q36.72 116.25 36.30 116.62Q35.88 116.98 35.88 117.47L35.88 117.47Q35.88 117.74 36.01 117.95Q36.14 118.16 36.30 118.28Q36.47 118.40 36.78 118.51Q37.10 118.63 37.29 118.67Q37.48 118.71 37.85 118.78L37.85 118.78Q39.13 119.03 39.67 119.55L39.67 119.55Q40.34 120.22 40.34 121.07L40.34 121.07Q40.34 122.02 39.70 122.66Q39.06 123.30 37.77 123.30L37.77 123.30Q36.73 123.30 36.00 122.60L36.00 122.60Q35.91 122.70 35.84 122.78Q35.77 122.86 35.74 122.89Q35.71 122.92 35.71 122.94Q35.70 122.96 35.68 122.98L35.68 122.98Q35.36 123.30 35.28 123.30L35.28 123.30Q35.16 123.30 35.14 123.22Q35.11 123.14 35.11 122.91ZM41.41 123.12L41.41 123.12L41.41 122.63Q42.26 122.63 42.46 122.52Q42.65 122.42 42.65 121.90L42.65 121.90L42.65 117.60Q42.65 117.00 42.45 116.86Q42.25 116.72 41.47 116.72L41.47 116.72L41.47 116.22L43.71 116.05L43.71 121.92Q43.71 122.39 43.88 122.51Q44.05 122.63 44.83 122.63L44.83 122.63L44.83 123.12Q43.20 123.07 43.17 123.07L43.17 123.07Q42.95 123.07 41.41 123.12ZM42.08 113.26L42.08 113.26Q42.08 112.94 42.33 112.68Q42.57 112.42 42.92 112.42Q43.28 112.42 43.53 112.66Q43.78 112.89 43.78 113.26Q43.78 113.64 43.53 113.87Q43.28 114.11 42.92 114.11L42.92 114.11Q42.56 114.11 42.32 113.85Q42.08 113.60 42.08 113.26ZM46.81 122.26Q45.75 121.21 45.75 119.69Q45.75 118.17 46.79 117.06Q47.82 115.95 49.31 115.95L49.31 115.95Q50.76 115.95 51.80 117.05Q52.85 118.16 52.85 119.70L52.85 119.70Q52.85 121.21 51.80 122.25Q50.74 123.30 49.29 123.30L49.29 123.30Q47.87 123.30 46.81 122.26ZM47.08 119.57L47.08 119.57Q47.08 121.12 47.49 121.82L47.49 121.82Q48.11 122.89 49.31 122.89L49.31 122.89Q49.90 122.89 50.40 122.57Q50.89 122.25 51.17 121.71L51.17 121.71Q51.52 121.01 51.52 119.57L51.52 119.57Q51.52 118.03 51.10 117.35L51.10 117.35Q50.47 116.31 49.29 116.31L49.29 116.31Q48.78 116.31 48.27 116.58Q47.77 116.85 47.46 117.38L47.46 117.38Q47.08 118.08 47.08 119.57ZM53.82 123.12L53.82 123.12L53.82 122.63Q54.67 122.63 54.87 122.52Q55.07 122.42 55.07 121.90L55.07 121.90L55.07 117.61Q55.07 117.02 54.86 116.87Q54.65 116.72 53.82 116.72L53.82 116.72L53.82 116.22L56.07 116.05L56.07 117.73Q56.82 116.05 58.44 116.05L58.44 116.05Q59.64 116.05 60.12 116.64L60.12 116.64Q60.47 117.04 60.55 117.49Q60.62 117.93 60.62 119.09L60.62 119.09L60.62 122.14Q60.64 122.48 60.89 122.55Q61.15 122.63 61.87 122.63L61.87 122.63L61.87 123.12Q60.24 123.07 60.07 123.07L60.07 123.07Q59.95 123.07 58.27 123.12L58.27 123.12L58.27 122.63Q59.12 122.63 59.32 122.52Q59.52 122.42 59.52 121.90L59.52 121.90L59.52 118.17Q59.52 117.36 59.27 116.88Q59.02 116.40 58.33 116.40L58.33 116.40Q57.50 116.40 56.84 117.10Q56.17 117.79 56.17 118.96L56.17 118.96L56.17 121.90Q56.17 122.42 56.37 122.52Q56.57 122.63 57.42 122.63L57.42 122.63L57.42 123.12Q55.78 123.07 55.63 123.07L55.63 123.07Q55.50 123.07 53.82 123.12Z"
                />
                <path
                    d="M9.62 145.74L9.62 145.74L9.62 145.25Q10.47 145.25 10.67 145.15Q10.86 145.04 10.86 144.53L10.86 144.53L10.86 136.20Q10.86 135.61 10.65 135.46Q10.45 135.31 9.62 135.31L9.62 135.31L9.62 134.81L11.92 134.64L11.92 144.53Q11.92 145.04 12.12 145.15Q12.32 145.25 13.17 145.25L13.17 145.25L13.17 145.74Q12.97 145.74 12.56 145.73Q12.16 145.71 11.86 145.70Q11.56 145.70 11.39 145.70L11.39 145.70Q11.20 145.70 9.62 145.74ZM15.02 144.88Q13.96 143.84 13.96 142.32Q13.96 140.80 15.00 139.69Q16.03 138.57 17.52 138.57L17.52 138.57Q18.97 138.57 20.01 139.68Q21.06 140.78 21.06 142.32L21.06 142.32Q21.06 143.83 20.00 144.88Q18.95 145.92 17.50 145.92L17.50 145.92Q16.08 145.92 15.02 144.88ZM15.29 142.19L15.29 142.19Q15.29 143.74 15.70 144.45L15.70 144.45Q16.32 145.52 17.52 145.52L17.52 145.52Q18.11 145.52 18.61 145.20Q19.10 144.88 19.38 144.34L19.38 144.34Q19.73 143.63 19.73 142.19L19.73 142.19Q19.73 140.65 19.31 139.97L19.31 139.97Q18.68 138.93 17.50 138.93L17.50 138.93Q16.99 138.93 16.48 139.20Q15.98 139.47 15.67 140.00L15.67 140.00Q15.29 140.70 15.29 142.19ZM21.96 147.01L21.96 147.01Q21.96 146.49 22.36 146.05Q22.75 145.60 23.44 145.41L23.44 145.41Q22.74 144.96 22.74 143.99L22.74 143.99Q22.74 143.24 23.23 142.66L23.23 142.66Q22.48 142.03 22.48 141.01L22.48 141.01Q22.48 140.06 23.23 139.37Q23.98 138.67 25.07 138.67L25.07 138.67Q26.03 138.67 26.77 139.25L26.77 139.25Q27.53 138.50 28.46 138.49L28.46 138.49Q28.88 138.49 29.08 138.75Q29.27 139.01 29.27 139.28L29.27 139.28Q29.27 139.53 29.12 139.64Q28.97 139.76 28.81 139.76L28.81 139.76Q28.62 139.76 28.48 139.63Q28.34 139.50 28.34 139.30L28.34 139.30Q28.34 138.96 28.60 138.86L28.60 138.86Q28.56 138.85 28.45 138.85L28.45 138.85Q27.67 138.85 27.00 139.47L27.00 139.47Q27.66 140.08 27.66 141.03Q27.66 141.97 26.91 142.67Q26.16 143.36 25.07 143.36L25.07 143.36Q24.17 143.36 23.49 142.86L23.49 142.86Q23.21 143.18 23.21 143.62L23.21 143.62Q23.21 144.02 23.45 144.33Q23.70 144.64 24.06 144.69L24.06 144.69Q24.17 144.70 25.26 144.70L25.26 144.70Q25.90 144.70 26.25 144.72Q26.60 144.74 27.11 144.84Q27.61 144.95 28.01 145.15L28.01 145.15Q29.05 145.73 29.06 146.98L29.06 146.98Q29.06 147.89 28.00 148.47Q26.95 149.04 25.50 149.04L25.50 149.04Q24.03 149.04 23.00 148.46Q21.96 147.88 21.96 147.01ZM22.80 147.01L22.80 147.01Q22.80 147.67 23.57 148.17Q24.34 148.67 25.52 148.67L25.52 148.67Q26.67 148.67 27.44 148.18Q28.22 147.68 28.22 147.01L28.22 147.01Q28.22 146.53 27.95 146.23Q27.67 145.92 27.11 145.80Q26.56 145.68 26.17 145.66Q25.77 145.63 25.06 145.63L25.06 145.63L24.11 145.63Q23.56 145.67 23.18 146.06Q22.80 146.46 22.80 147.01ZM23.67 141.03L23.67 141.03Q23.67 142.99 25.07 142.99L25.07 142.99Q25.77 142.99 26.20 142.35L26.20 142.35Q26.46 141.92 26.46 141.01L26.46 141.01Q26.46 139.04 25.07 139.04L25.07 139.04Q24.37 139.04 23.93 139.68L23.93 139.68Q23.67 140.11 23.67 141.03ZM30.05 145.74L30.05 145.74L30.05 145.25Q30.90 145.25 31.09 145.15Q31.29 145.04 31.29 144.53L31.29 144.53L31.29 140.22Q31.29 139.63 31.09 139.49Q30.89 139.35 30.11 139.35L30.11 139.35L30.11 138.85L32.34 138.67L32.34 144.54Q32.34 145.02 32.52 145.13Q32.69 145.25 33.47 145.25L33.47 145.25L33.47 145.74Q31.84 145.70 31.81 145.70L31.81 145.70Q31.59 145.70 30.05 145.74ZM30.72 135.88L30.72 135.88Q30.72 135.56 30.97 135.30Q31.21 135.04 31.56 135.04Q31.92 135.04 32.17 135.28Q32.42 135.52 32.42 135.89Q32.42 136.26 32.17 136.50Q31.92 136.74 31.56 136.74L31.56 136.74Q31.20 136.74 30.96 136.48Q30.72 136.22 30.72 135.88ZM35.51 144.87Q34.49 143.81 34.49 142.29Q34.49 140.77 35.49 139.67Q36.49 138.57 37.96 138.57L37.96 138.57Q38.94 138.57 39.67 139.04Q40.41 139.50 40.41 140.29L40.41 140.29Q40.41 140.64 40.20 140.84Q39.99 141.04 39.67 141.04L39.67 141.04Q39.34 141.04 39.14 140.83Q38.94 140.63 38.94 140.31L38.94 140.31Q38.94 140.17 38.99 140.03Q39.03 139.88 39.21 139.74Q39.38 139.59 39.69 139.56L39.69 139.56Q39.12 138.98 38.01 138.98L38.01 138.98Q37.99 138.98 37.98 138.98L37.98 138.98Q37.17 138.98 36.49 139.74Q35.82 140.51 35.82 142.26L35.82 142.26Q35.82 143.17 36.04 143.84Q36.27 144.51 36.63 144.85Q37.00 145.20 37.36 145.36Q37.72 145.52 38.07 145.52L38.07 145.52Q39.64 145.52 40.17 143.84L40.17 143.84Q40.22 143.68 40.38 143.68L40.38 143.68Q40.59 143.68 40.59 143.84L40.59 143.84Q40.59 143.92 40.52 144.12Q40.46 144.32 40.27 144.64Q40.07 144.96 39.79 145.24Q39.52 145.52 39.03 145.72Q38.54 145.92 37.93 145.92L37.93 145.92Q36.52 145.92 35.51 144.87Z"
                />
            </g>
        </g>
    </g>
    <g class="">
        <polyline
            points="420.6611,-349.228 453.54330708661416,-349.228 453.54330708661416,-349.6062992125984"
            fill="none"
            stroke-dasharray="0.4pt 0pt"
            stroke-opacity="1"
            stroke-width="0.5333333333333333"
            stroke="#000"
        />
    </g>
    <g class="">
        <polyline
            points="420.6611,-264.189 453.54330708661416,-264.189 453.54330708661416,-264.56692913385825"
            fill="none"
            stroke-dasharray="0.4pt 0pt"
            stroke-opacity="1"
            stroke-width="0.5333333333333333"
            stroke="#000"
        />
    </g>
    <g class="">
        <polyline
            points="420.66083141732275,-94.11007118110236 453.54330708661416,-94.11007118110236 453.54330708661416,-94.48818897637794"
            fill="none"
            stroke-dasharray="0.4pt 0pt"
            stroke-opacity="1"
            stroke-width="0.5333333333333333"
            stroke="#000"
        />
    </g>
    <g class="">
        <polyline
            points="557.4803149606299,-321.25984251968504 610.5232283464567,-321.25984251968504"
            fill="none"
            stroke-dasharray="1pt 0pt"
            stroke-opacity="1"
            stroke-width="1.3333333333333333"
            stroke="#000"
        />
        <g stroke-opacity="1" stroke="#000" fill-opacity="1" fill="#000">
            <path stroke="none" d="M0 0 1 .5 0 1 .3.5" stroke-linecap="round" />
        </g>
    </g>
    <g class="">
        <polyline
            points="557.4803149606299,-264.56692913385825 610.5232283464567,-264.56692913385825"
            fill="none"
            stroke-dasharray="1pt 0pt"
            stroke-opacity="1"
            stroke-width="1.3333333333333333"
            stroke="#000"
        />
        <g stroke-opacity="1" stroke="#000" fill-opacity="1" fill="#000">
            <path stroke="none" d="M0 0 1 .5 0 1 .3.5" stroke-linecap="round" />
        </g>
    </g>
    <g class="">
        <polyline
            points="557.4803149606299,-207.87401574803147 610.5233149606299,-207.87401574803147"
            fill="none"
            stroke-dasharray="1pt 0pt"
            stroke-opacity="1"
            stroke-width="1.3333333333333333"
            stroke="#000"
        />
        <g stroke-opacity="1" stroke="#000" fill-opacity="1" fill="#000">
            <path stroke="none" d="M0 0 1 .5 0 1 .3.5" stroke-linecap="round" />
        </g>
    </g>
    <g class="">
        <polyline
            points="557.4803149606299,-151.18101574803148 610.5233149606299,-151.18101574803148"
            fill="none"
            stroke-dasharray="1pt 0pt"
            stroke-opacity="1"
            stroke-width="1.3333333333333333"
            stroke="#000"
        />
        <g stroke-opacity="1" stroke="#000" fill-opacity="1" fill="#000">
            <path stroke="none" d="M0 0 1 .5 0 1 .3.5" stroke-linecap="round" />
        </g>
    </g>
    <g class="">
        <use
            xlink:href="#node_circ"
            fill="#fff"
            stroke="#000"
            transform="matrix(1,0,0,1,573.9960927559055,-191.35823795275587)"
            style="color: #000;"
            class=""
        />
    </g>
    <g class="">
        <use
            xlink:href="#node_circ"
            fill="#fff"
            stroke="#000"
            transform="matrix(1,0,0,1,573.9960927559055,-181.9094190551181)"
            style="color: #000;"
            class=""
        />
    </g>
    <g class="">
        <use
            xlink:href="#node_circ"
            fill="#fff"
            stroke="#000"
            transform="matrix(1,0,0,1,573.9960927559055,-172.4606001574803)"
            style="color: #000;"
            class=""
        />
    </g>
    <g class="">
        <rect
            width="112.05249343832013"
            height="27.01312335958006"
            style=""
            stroke-dasharray="1pt 0pt"
            stroke-opacity="0"
            stroke-width="0"
            stroke="#000"
            fill-opacity="1"
            fill="none"
            x="0.6666666666666643"
            y="0.6666666666666661"
            transform="matrix(1,0,0,1,633.0708661417323,-226.77165354330708)"
        />
        <g
            transform="matrix(1,0,0,1,0,0)"
            style="pointer-events: none;"
            class=""
        >
            <g
                fill="#000"
                transform="matrix(1,0,0,1,641.0708661417323,-218.77165354330708)"
            />
            <g
                fill="#000"
                transform="matrix(1,0,0,1,641.0708661417323,-218.77165354330708)"
            >
                <path
                    d="M0.43 9L0.43 9L0.43 8.59Q1.14 8.59 1.30 8.50Q1.46 8.41 1.46 7.98L1.46 7.98L1.46 4.41Q1.46 3.92 1.29 3.79Q1.12 3.67 0.43 3.67L0.43 3.67L0.43 3.25L2.30 3.11L2.30 4.51Q2.93 3.11 4.28 3.11L4.28 3.11Q5.28 3.11 5.68 3.60L5.68 3.60Q5.97 3.93 6.03 4.31Q6.09 4.68 6.09 5.64L6.09 5.64L6.09 8.19Q6.11 8.47 6.32 8.53Q6.54 8.59 7.14 8.59L7.14 8.59L7.14 9Q5.77 8.96 5.64 8.96L5.64 8.96Q5.53 8.96 4.13 9L4.13 9L4.13 8.59Q4.84 8.59 5.01 8.50Q5.18 8.41 5.18 7.98L5.18 7.98L5.18 4.88Q5.18 4.20 4.97 3.80Q4.76 3.40 4.19 3.40L4.19 3.40Q3.50 3.40 2.94 3.98Q2.39 4.56 2.39 5.54L2.39 5.54L2.39 7.98Q2.39 8.41 2.56 8.50Q2.72 8.59 3.42 8.59L3.42 8.59L3.42 9Q2.06 8.96 1.93 8.96L1.93 8.96Q1.83 8.96 0.43 9ZM11.07 6.52L7.53 6.52L7.53 5.73L11.07 5.73L11.07 6.52ZM12.20 0.31L12.20 0.31L12.20-0.11L14.12-0.25L14.12 3.97Q14.90 3.11 15.95 3.11L15.95 3.11Q17.10 3.11 17.94 3.99Q18.78 4.87 18.78 6.12L18.78 6.12Q18.78 7.39 17.90 8.27Q17.02 9.15 15.80 9.15L15.80 9.15Q14.69 9.15 14.06 8.17L14.06 8.17Q13.59 8.99 13.57 9L13.57 9L13.24 9L13.24 1.05Q13.24 0.56 13.07 0.43Q12.89 0.31 12.20 0.31ZM14.16 4.74L14.16 7.48Q14.16 7.76 14.35 8.04L14.35 8.04Q14.88 8.85 15.74 8.85L15.74 8.85Q15.74 8.85 15.75 8.85L15.75 8.85Q16.68 8.85 17.26 8.00L17.26 8.00Q17.67 7.36 17.67 6.11L17.67 6.11Q17.67 4.87 17.29 4.25L17.29 4.25Q16.75 3.40 15.89 3.40L15.89 3.40Q14.91 3.40 14.31 4.25L14.31 4.25Q14.16 4.47 14.16 4.74L14.16 4.74ZM19.67 9L19.67 9L19.67 8.59Q20.38 8.59 20.54 8.50Q20.70 8.41 20.70 7.98L20.70 7.98L20.70 4.40Q20.70 3.90 20.54 3.79Q20.37 3.67 19.72 3.67L19.72 3.67L19.72 3.25L21.58 3.11L21.58 8.00Q21.58 8.39 21.73 8.49Q21.87 8.59 22.52 8.59L22.52 8.59L22.52 9Q21.16 8.96 21.13 8.96L21.13 8.96Q20.95 8.96 19.67 9ZM20.23 0.78L20.23 0.78Q20.23 0.52 20.43 0.30Q20.64 0.08 20.93 0.08Q21.22 0.08 21.43 0.28Q21.64 0.48 21.64 0.79Q21.64 1.10 21.43 1.29Q21.22 1.49 20.93 1.49L20.93 1.49Q20.62 1.49 20.43 1.28Q20.23 1.06 20.23 0.78ZM24.30 3.67L23.17 3.67L23.17 3.38Q23.78 3.35 24.19 2.92Q24.60 2.48 24.74 1.95Q24.88 1.42 24.89 0.80L24.89 0.80L25.22 0.80L25.22 3.25L27.13 3.25L27.13 3.67L25.22 3.67L25.22 7.37Q25.22 8.81 26.12 8.81L26.12 8.81Q26.50 8.81 26.76 8.42Q27.01 8.02 27.01 7.32L27.01 7.32L27.01 6.58L27.34 6.58L27.34 7.35Q27.34 8.07 27.01 8.61Q26.68 9.15 26.02 9.15L26.02 9.15Q25.78 9.15 25.54 9.09Q25.31 9.03 25.00 8.87Q24.69 8.71 24.50 8.31Q24.30 7.92 24.30 7.35L24.30 7.35L24.30 3.67Z"
                />
                <path
                    d="M32.91 0.31L32.91 0.31L32.91-0.11L34.83-0.25L34.83 3.97Q35.60 3.11 36.66 3.11L36.66 3.11Q37.81 3.11 38.65 3.99Q39.49 4.87 39.49 6.12L39.49 6.12Q39.49 7.39 38.61 8.27Q37.73 9.15 36.51 9.15L36.51 9.15Q35.40 9.15 34.77 8.17L34.77 8.17Q34.30 8.99 34.28 9L34.28 9L33.95 9L33.95 1.05Q33.95 0.56 33.78 0.43Q33.60 0.31 32.91 0.31ZM34.87 4.74L34.87 7.48Q34.87 7.76 35.06 8.04L35.06 8.04Q35.59 8.85 36.44 8.85L36.44 8.85Q36.45 8.85 36.46 8.85L36.46 8.85Q37.39 8.85 37.97 8.00L37.97 8.00Q38.38 7.36 38.38 6.11L38.38 6.11Q38.38 4.87 37.99 4.25L37.99 4.25Q37.46 3.40 36.59 3.40L36.59 3.40Q35.62 3.40 35.02 4.25L35.02 4.25Q34.87 4.47 34.87 4.74L34.87 4.74ZM40.38 9L40.38 9L40.38 8.59Q41.09 8.59 41.25 8.50Q41.41 8.41 41.41 7.98L41.41 7.98L41.41 4.40Q41.41 3.90 41.25 3.79Q41.08 3.67 40.43 3.67L40.43 3.67L40.43 3.25L42.29 3.11L42.29 8.00Q42.29 8.39 42.43 8.49Q42.58 8.59 43.23 8.59L43.23 8.59L43.23 9Q41.87 8.96 41.84 8.96L41.84 8.96Q41.66 8.96 40.38 9ZM40.94 0.78L40.94 0.78Q40.94 0.52 41.14 0.30Q41.35 0.08 41.64 0.08Q41.93 0.08 42.14 0.28Q42.35 0.48 42.35 0.79Q42.35 1.10 42.14 1.29Q41.93 1.49 41.64 1.49L41.64 1.49Q41.33 1.49 41.14 1.28Q40.94 1.06 40.94 0.78ZM44.06 9L44.06 9L44.06 8.59Q44.77 8.59 44.93 8.50Q45.09 8.41 45.09 7.98L45.09 7.98L45.09 4.41Q45.09 3.92 44.92 3.79Q44.75 3.67 44.06 3.67L44.06 3.67L44.06 3.25L45.93 3.11L45.93 4.51Q46.56 3.11 47.90 3.11L47.90 3.11Q48.91 3.11 49.30 3.60L49.30 3.60Q49.60 3.93 49.66 4.31Q49.72 4.68 49.72 5.64L49.72 5.64L49.72 8.19Q49.73 8.47 49.95 8.53Q50.16 8.59 50.76 8.59L50.76 8.59L50.76 9Q49.40 8.96 49.26 8.96L49.26 8.96Q49.16 8.96 47.76 9L47.76 9L47.76 8.59Q48.47 8.59 48.64 8.50Q48.80 8.41 48.80 7.98L48.80 7.98L48.80 4.88Q48.80 4.20 48.59 3.80Q48.38 3.40 47.81 3.40L47.81 3.40Q47.12 3.40 46.57 3.98Q46.02 4.56 46.02 5.54L46.02 5.54L46.02 7.98Q46.02 8.41 46.18 8.50Q46.35 8.59 47.05 8.59L47.05 8.59L47.05 9Q45.69 8.96 45.56 8.96L45.56 8.96Q45.46 8.96 44.06 9ZM51.58 7.73L51.58 7.73Q51.58 6.60 52.92 6.00L52.92 6.00Q53.72 5.61 55.37 5.52L55.37 5.52L55.37 5.03Q55.37 4.20 54.94 3.76Q54.50 3.32 53.96 3.32L53.96 3.32Q52.98 3.32 52.51 3.93L52.51 3.93Q52.91 3.95 53.05 4.15Q53.20 4.35 53.20 4.55L53.20 4.55Q53.20 4.81 53.03 4.99Q52.86 5.16 52.58 5.16L52.58 5.16Q52.32 5.16 52.14 4.99Q51.97 4.83 51.97 4.53L51.97 4.53Q51.97 3.88 52.55 3.45Q53.14 3.02 53.98 3.02L53.98 3.02Q55.08 3.02 55.81 3.76L55.81 3.76Q56.03 3.99 56.15 4.28Q56.26 4.57 56.28 4.76Q56.29 4.96 56.29 5.33L56.29 5.33L56.29 8.00Q56.29 8.08 56.31 8.21Q56.34 8.34 56.46 8.50Q56.58 8.67 56.78 8.67L56.78 8.67Q57.27 8.67 57.26 7.82L57.26 7.82L57.26 7.07L57.60 7.07L57.60 7.82Q57.60 8.52 57.22 8.80Q56.85 9.08 56.50 9.08L56.50 9.08Q56.06 9.08 55.78 8.75Q55.50 8.43 55.46 7.98L55.46 7.98Q55.26 8.49 54.80 8.82Q54.34 9.15 53.72 9.15L53.72 9.15Q53.24 9.15 52.78 9.03Q52.33 8.91 51.96 8.57Q51.58 8.24 51.58 7.73ZM52.61 7.72L52.61 7.72Q52.61 8.21 52.96 8.53Q53.31 8.85 53.81 8.85L53.81 8.85Q54.37 8.85 54.87 8.42Q55.37 7.98 55.37 7.13L55.37 7.13L55.37 5.80Q53.89 5.85 53.25 6.44Q52.61 7.03 52.61 7.72ZM58.06 9L58.06 9L58.06 8.59Q58.77 8.59 58.93 8.50Q59.10 8.41 59.10 7.98L59.10 7.98L59.10 4.41Q59.10 3.92 58.93 3.79Q58.76 3.67 58.06 3.67L58.06 3.67L58.06 3.25L59.91 3.11L59.91 4.57Q60.10 4 60.50 3.55Q60.90 3.11 61.56 3.11L61.56 3.11Q61.99 3.11 62.26 3.35Q62.54 3.59 62.54 3.92L62.54 3.92Q62.54 4.21 62.36 4.36Q62.18 4.51 61.97 4.51L61.97 4.51Q61.72 4.51 61.56 4.35Q61.39 4.20 61.39 3.93L61.39 3.93Q61.39 3.77 61.47 3.65Q61.54 3.52 61.60 3.47Q61.66 3.43 61.70 3.41L61.70 3.41Q61.67 3.40 61.56 3.40L61.56 3.40Q60.82 3.40 60.40 4.13Q59.98 4.87 59.98 5.91L59.98 5.91L59.98 7.96Q59.98 8.34 60.14 8.47Q60.30 8.59 61.00 8.59L61.00 8.59L61.28 8.59L61.28 9Q60.74 8.96 59.58 8.96L59.58 8.96Q59.42 8.96 59.17 8.97Q58.91 8.97 58.58 8.99Q58.25 9 58.06 9ZM63.15 10.65L63.15 10.65Q63.15 10.37 63.32 10.23Q63.48 10.08 63.71 10.08L63.71 10.08Q63.95 10.08 64.11 10.23Q64.27 10.39 64.27 10.64L64.27 10.64Q64.27 11.14 63.75 11.20L63.75 11.20Q64.00 11.44 64.37 11.44L64.37 11.44Q64.77 11.44 65.09 11.15Q65.42 10.86 65.56 10.58Q65.70 10.30 65.90 9.79L65.90 9.79Q66.09 9.39 66.23 9L66.23 9L64.23 4.13Q64.10 3.81 63.90 3.74Q63.70 3.67 63.15 3.67L63.15 3.67L63.15 3.25Q63.75 3.29 64.45 3.29L64.45 3.29Q64.86 3.29 65.90 3.25L65.90 3.25L65.90 3.67Q65.15 3.67 65.15 4.01L65.15 4.01Q65.15 4.05 65.23 4.25L65.23 4.25L66.71 7.84L68.06 4.56Q68.14 4.37 68.14 4.24L68.14 4.24Q68.14 3.69 67.51 3.67L67.51 3.67L67.51 3.25Q68.39 3.29 68.67 3.29L68.67 3.29Q69.22 3.29 69.67 3.25L69.67 3.25L69.67 3.67Q68.78 3.67 68.43 4.52L68.43 4.52L66.08 10.21Q65.44 11.73 64.37 11.73L64.37 11.73Q63.87 11.73 63.51 11.42Q63.15 11.11 63.15 10.65Z"
                />
                <path
                    d="M1.25 25.80Q0.37 24.93 0.37 23.67Q0.37 22.40 1.23 21.47Q2.10 20.54 3.33 20.54L3.33 20.54Q4.54 20.54 5.41 21.46Q6.28 22.39 6.28 23.67L6.28 23.67Q6.28 24.92 5.41 25.80Q4.53 26.67 3.32 26.67L3.32 26.67Q2.14 26.67 1.25 25.80ZM1.48 23.56L1.48 23.56Q1.48 24.85 1.82 25.44L1.82 25.44Q2.34 26.33 3.33 26.33L3.33 26.33Q3.83 26.33 4.24 26.06Q4.65 25.80 4.88 25.35L4.88 25.35Q5.18 24.76 5.18 23.56L5.18 23.56Q5.18 22.28 4.82 21.71L4.82 21.71Q4.30 20.84 3.32 20.84L3.32 20.84Q2.89 20.84 2.47 21.07Q2.05 21.29 1.80 21.73L1.80 21.73Q1.48 22.32 1.48 23.56ZM7.10 21.19L7.10 21.19L7.10 20.77L9.06 20.63L9.06 25.06Q9.06 25.37 9.08 25.56Q9.11 25.75 9.22 25.96Q9.32 26.17 9.57 26.27Q9.82 26.37 10.23 26.37L10.23 26.37Q10.95 26.37 11.40 25.78Q11.84 25.19 11.84 24.31L11.84 24.31L11.84 21.93Q11.84 21.44 11.67 21.31Q11.49 21.19 10.80 21.19L10.80 21.19L10.80 20.77L12.76 20.63L12.76 25.36Q12.76 25.86 12.93 25.98Q13.11 26.11 13.80 26.11L13.80 26.11L13.80 26.52L11.88 26.67L11.88 25.47Q11.32 26.66 10.16 26.67L10.16 26.67Q9.58 26.67 9.18 26.52Q8.78 26.37 8.57 26.18Q8.37 26.00 8.26 25.64Q8.16 25.28 8.14 25.06Q8.13 24.84 8.13 24.41L8.13 24.41L8.13 22.41Q8.13 21.51 8.00 21.35Q7.87 21.19 7.10 21.19ZM15.45 21.19L14.32 21.19L14.32 20.89Q14.93 20.87 15.34 20.44Q15.74 20.00 15.88 19.47Q16.02 18.94 16.04 18.32L16.04 18.32L16.37 18.32L16.37 20.77L18.27 20.77L18.27 21.19L16.37 21.19L16.37 24.89Q16.37 26.33 17.27 26.33L17.27 26.33Q17.65 26.33 17.90 25.94Q18.16 25.54 18.16 24.84L18.16 24.84L18.16 24.10L18.49 24.10L18.49 24.87Q18.49 25.59 18.16 26.13Q17.83 26.67 17.17 26.67L17.17 26.67Q16.93 26.67 16.69 26.61Q16.45 26.55 16.14 26.39Q15.83 26.23 15.64 25.83Q15.45 25.44 15.45 24.87L15.45 24.87L15.45 21.19ZM19.60 29.10L19.60 28.69Q20.31 28.69 20.48 28.61Q20.64 28.52 20.64 28.10L20.64 28.10L20.64 21.85Q20.64 21.41 20.48 21.30Q20.31 21.19 19.60 21.19L19.60 21.19L19.60 20.77L21.52 20.63L21.52 21.51Q22.32 20.63 23.39 20.63L23.39 20.63Q24.52 20.63 25.35 21.51Q26.18 22.39 26.18 23.64L26.18 23.64Q26.18 24.91 25.30 25.79Q24.42 26.67 23.20 26.67L23.20 26.67Q22.54 26.67 22.09 26.33Q21.65 25.99 21.56 25.73L21.56 25.73L21.56 25.86L21.56 28.10Q21.56 28.53 21.73 28.61Q21.90 28.69 22.60 28.69L22.60 28.69L22.60 29.10Q21.20 29.07 21.10 29.07L21.10 29.07Q20.97 29.07 19.60 29.10L19.60 29.10ZM21.56 22.03L21.56 25.00Q21.56 25.20 21.59 25.28Q21.62 25.35 21.75 25.56L21.75 25.56Q22.28 26.37 23.14 26.37L23.14 26.37Q23.14 26.37 23.15 26.37L23.15 26.37Q23.91 26.37 24.49 25.59Q25.07 24.81 25.07 23.64L25.07 23.64Q25.07 22.52 24.54 21.74Q24.02 20.96 23.29 20.96L23.29 20.96Q22.77 20.96 22.31 21.24Q21.86 21.52 21.56 22.03L21.56 22.03ZM27.06 21.19L27.06 21.19L27.06 20.77L29.02 20.63L29.02 25.06Q29.02 25.37 29.04 25.56Q29.07 25.75 29.18 25.96Q29.28 26.17 29.53 26.27Q29.79 26.37 30.19 26.37L30.19 26.37Q30.91 26.37 31.36 25.78Q31.80 25.19 31.80 24.31L31.80 24.31L31.80 21.93Q31.80 21.44 31.63 21.31Q31.45 21.19 30.76 21.19L30.76 21.19L30.76 20.77L32.72 20.63L32.72 25.36Q32.72 25.86 32.89 25.98Q33.07 26.11 33.76 26.11L33.76 26.11L33.76 26.52L31.84 26.67L31.84 25.47Q31.28 26.66 30.12 26.67L30.12 26.67Q29.54 26.67 29.14 26.52Q28.74 26.37 28.54 26.18Q28.33 26.00 28.23 25.64Q28.12 25.28 28.11 25.06Q28.09 24.84 28.09 24.41L28.09 24.41L28.09 22.41Q28.09 21.51 27.96 21.35Q27.83 21.19 27.06 21.19ZM35.41 21.19L34.28 21.19L34.28 20.89Q34.89 20.87 35.30 20.44Q35.70 20.00 35.84 19.47Q35.98 18.94 36.00 18.32L36.00 18.32L36.33 18.32L36.33 20.77L38.24 20.77L38.24 21.19L36.33 21.19L36.33 24.89Q36.33 26.33 37.23 26.33L37.23 26.33Q37.61 26.33 37.86 25.94Q38.12 25.54 38.12 24.84L38.12 24.84L38.12 24.10L38.45 24.10L38.45 24.87Q38.45 25.59 38.12 26.13Q37.79 26.67 37.13 26.67L37.13 26.67Q36.89 26.67 36.65 26.61Q36.41 26.55 36.10 26.39Q35.79 26.23 35.60 25.83Q35.41 25.44 35.41 24.87L35.41 24.87L35.41 21.19Z"
                />
            </g>
        </g>
    </g>
</svg>
