<?xml version="1.0" encoding="utf-8" standalone="no"?>
<!DOCTYPE svg PUBLIC "-//W3C//DTD SVG 1.1//EN"
  "http://www.w3.org/Graphics/SVG/1.1/DTD/svg11.dtd">
<svg xmlns:xlink="http://www.w3.org/1999/xlink" width="566.870669pt" height="334.225844pt" viewBox="0 0 566.870669 334.225844" xmlns="http://www.w3.org/2000/svg" version="1.1">
 <metadata>
  <rdf:RDF xmlns:dc="http://purl.org/dc/elements/1.1/" xmlns:cc="http://creativecommons.org/ns#" xmlns:rdf="http://www.w3.org/1999/02/22-rdf-syntax-ns#">
   <cc:Work>
    <dc:type rdf:resource="http://purl.org/dc/dcmitype/StillImage"/>
    <dc:date>2026-06-17T10:34:41.787627</dc:date>
    <dc:format>image/svg+xml</dc:format>
    <dc:creator>
     <cc:Agent>
      <dc:title>Matplotlib v3.10.0, https://matplotlib.org/</dc:title>
     </cc:Agent>
    </dc:creator>
   </cc:Work>
  </rdf:RDF>
 </metadata>
 <defs>
  <style type="text/css">*{stroke-linejoin: round; stroke-linecap: butt}</style>
 </defs>
 <g id="figure_1">
  <g id="patch_1">
   <path d="M 0 334.225844 
L 566.870669 334.225844 
L 566.870669 0 
L 0 0 
z
" style="fill: #ffffff"/>
  </g>
  <g id="axes_1">
   <g id="patch_2">
    <path d="M 45.8875 160.157565 
L 447.6475 160.157565 
L 447.6475 23.077969 
L 45.8875 23.077969 
z
" style="fill: #ffffff"/>
   </g>
   <g id="matplotlib.axis_1">
    <g id="xtick_1">
     <g id="line2d_1">
      <path d="M 45.8875 160.157565 
L 45.8875 23.077969 
" clip-path="url(#p25f4af170c)" style="fill: none; stroke-dasharray: 0.6,0.99; stroke-dashoffset: 0; stroke: #b0b0b0; stroke-width: 0.6"/>
     </g>
     <g id="line2d_2">
      <defs>
       <path id="m23acb45758" d="M 0 0 
L 0 3.5 
" style="stroke: #000000; stroke-width: 0.8"/>
      </defs>
      <g>
       <use xlink:href="#m23acb45758" x="45.8875" y="160.157565" style="stroke: #000000; stroke-width: 0.8"/>
      </g>
     </g>
    </g>
    <g id="xtick_2">
     <g id="line2d_3">
      <path d="M 110.1691 160.157565 
L 110.1691 23.077969 
" clip-path="url(#p25f4af170c)" style="fill: none; stroke-dasharray: 0.6,0.99; stroke-dashoffset: 0; stroke: #b0b0b0; stroke-width: 0.6"/>
     </g>
     <g id="line2d_4">
      <g>
       <use xlink:href="#m23acb45758" x="110.1691" y="160.157565" style="stroke: #000000; stroke-width: 0.8"/>
      </g>
     </g>
    </g>
    <g id="xtick_3">
     <g id="line2d_5">
      <path d="M 174.4507 160.157565 
L 174.4507 23.077969 
" clip-path="url(#p25f4af170c)" style="fill: none; stroke-dasharray: 0.6,0.99; stroke-dashoffset: 0; stroke: #b0b0b0; stroke-width: 0.6"/>
     </g>
     <g id="line2d_6">
      <g>
       <use xlink:href="#m23acb45758" x="174.4507" y="160.157565" style="stroke: #000000; stroke-width: 0.8"/>
      </g>
     </g>
    </g>
    <g id="xtick_4">
     <g id="line2d_7">
      <path d="M 238.7323 160.157565 
L 238.7323 23.077969 
" clip-path="url(#p25f4af170c)" style="fill: none; stroke-dasharray: 0.6,0.99; stroke-dashoffset: 0; stroke: #b0b0b0; stroke-width: 0.6"/>
     </g>
     <g id="line2d_8">
      <g>
       <use xlink:href="#m23acb45758" x="238.7323" y="160.157565" style="stroke: #000000; stroke-width: 0.8"/>
      </g>
     </g>
    </g>
    <g id="xtick_5">
     <g id="line2d_9">
      <path d="M 303.0139 160.157565 
L 303.0139 23.077969 
" clip-path="url(#p25f4af170c)" style="fill: none; stroke-dasharray: 0.6,0.99; stroke-dashoffset: 0; stroke: #b0b0b0; stroke-width: 0.6"/>
     </g>
     <g id="line2d_10">
      <g>
       <use xlink:href="#m23acb45758" x="303.0139" y="160.157565" style="stroke: #000000; stroke-width: 0.8"/>
      </g>
     </g>
    </g>
    <g id="xtick_6">
     <g id="line2d_11">
      <path d="M 367.2955 160.157565 
L 367.2955 23.077969 
" clip-path="url(#p25f4af170c)" style="fill: none; stroke-dasharray: 0.6,0.99; stroke-dashoffset: 0; stroke: #b0b0b0; stroke-width: 0.6"/>
     </g>
     <g id="line2d_12">
      <g>
       <use xlink:href="#m23acb45758" x="367.2955" y="160.157565" style="stroke: #000000; stroke-width: 0.8"/>
      </g>
     </g>
    </g>
    <g id="xtick_7">
     <g id="line2d_13">
      <path d="M 431.5771 160.157565 
L 431.5771 23.077969 
" clip-path="url(#p25f4af170c)" style="fill: none; stroke-dasharray: 0.6,0.99; stroke-dashoffset: 0; stroke: #b0b0b0; stroke-width: 0.6"/>
     </g>
     <g id="line2d_14">
      <g>
       <use xlink:href="#m23acb45758" x="431.5771" y="160.157565" style="stroke: #000000; stroke-width: 0.8"/>
      </g>
     </g>
    </g>
   </g>
   <g id="matplotlib.axis_2">
    <g id="ytick_1">
     <g id="line2d_15">
      <path d="M 45.8875 154.065139 
L 447.6475 154.065139 
" clip-path="url(#p25f4af170c)" style="fill: none; stroke-dasharray: 0.6,0.99; stroke-dashoffset: 0; stroke: #b0b0b0; stroke-width: 0.6"/>
     </g>
     <g id="line2d_16">
      <defs>
       <path id="m8288237dc3" d="M 0 0 
L -3.5 0 
" style="stroke: #000000; stroke-width: 0.8"/>
      </defs>
      <g>
       <use xlink:href="#m8288237dc3" x="45.8875" y="154.065139" style="stroke: #000000; stroke-width: 0.8"/>
      </g>
     </g>
     <g id="text_1">
      <!-- 0.0 -->
      <g transform="translate(22.984375 157.864357) scale(0.1 -0.1)">
       <defs>
        <path id="DejaVuSerif-30" d="M 2034 219 
Q 2513 219 2750 744 
Q 2988 1269 2988 2328 
Q 2988 3391 2750 3916 
Q 2513 4441 2034 4441 
Q 1556 4441 1318 3916 
Q 1081 3391 1081 2328 
Q 1081 1269 1318 744 
Q 1556 219 2034 219 
z
M 2034 -91 
Q 1275 -91 848 546 
Q 422 1184 422 2328 
Q 422 3475 848 4112 
Q 1275 4750 2034 4750 
Q 2797 4750 3222 4112 
Q 3647 3475 3647 2328 
Q 3647 1184 3222 546 
Q 2797 -91 2034 -91 
z
" transform="scale(0.015625)"/>
        <path id="DejaVuSerif-2e" d="M 603 325 
Q 603 500 722 622 
Q 841 744 1019 744 
Q 1191 744 1312 622 
Q 1434 500 1434 325 
Q 1434 153 1312 31 
Q 1191 -91 1019 -91 
Q 841 -91 722 29 
Q 603 150 603 325 
z
" transform="scale(0.015625)"/>
       </defs>
       <use xlink:href="#DejaVuSerif-30"/>
       <use xlink:href="#DejaVuSerif-2e" transform="translate(63.623047 0)"/>
       <use xlink:href="#DejaVuSerif-30" transform="translate(95.410156 0)"/>
      </g>
     </g>
    </g>
    <g id="ytick_2">
     <g id="line2d_17">
      <path d="M 45.8875 123.603006 
L 447.6475 123.603006 
" clip-path="url(#p25f4af170c)" style="fill: none; stroke-dasharray: 0.6,0.99; stroke-dashoffset: 0; stroke: #b0b0b0; stroke-width: 0.6"/>
     </g>
     <g id="line2d_18">
      <g>
       <use xlink:href="#m8288237dc3" x="45.8875" y="123.603006" style="stroke: #000000; stroke-width: 0.8"/>
      </g>
     </g>
     <g id="text_2">
      <!-- 0.2 -->
      <g transform="translate(22.984375 127.402225) scale(0.1 -0.1)">
       <defs>
        <path id="DejaVuSerif-32" d="M 819 3553 
L 469 3553 
L 469 4384 
Q 803 4563 1142 4656 
Q 1481 4750 1806 4750 
Q 2534 4750 2956 4397 
Q 3378 4044 3378 3438 
Q 3378 2753 2422 1800 
Q 2347 1728 2309 1691 
L 1131 513 
L 3078 513 
L 3078 1088 
L 3444 1088 
L 3444 0 
L 434 0 
L 434 341 
L 1850 1753 
Q 2319 2222 2519 2614 
Q 2719 3006 2719 3438 
Q 2719 3909 2473 4175 
Q 2228 4441 1797 4441 
Q 1350 4441 1106 4219 
Q 863 3997 819 3553 
z
" transform="scale(0.015625)"/>
       </defs>
       <use xlink:href="#DejaVuSerif-30"/>
       <use xlink:href="#DejaVuSerif-2e" transform="translate(63.623047 0)"/>
       <use xlink:href="#DejaVuSerif-32" transform="translate(95.410156 0)"/>
      </g>
     </g>
    </g>
    <g id="ytick_3">
     <g id="line2d_19">
      <path d="M 45.8875 93.140874 
L 447.6475 93.140874 
" clip-path="url(#p25f4af170c)" style="fill: none; stroke-dasharray: 0.6,0.99; stroke-dashoffset: 0; stroke: #b0b0b0; stroke-width: 0.6"/>
     </g>
     <g id="line2d_20">
      <g>
       <use xlink:href="#m8288237dc3" x="45.8875" y="93.140874" style="stroke: #000000; stroke-width: 0.8"/>
      </g>
     </g>
     <g id="text_3">
      <!-- 0.4 -->
      <g transform="translate(22.984375 96.940092) scale(0.1 -0.1)">
       <defs>
        <path id="DejaVuSerif-34" d="M 2234 1581 
L 2234 4063 
L 641 1581 
L 2234 1581 
z
M 3609 0 
L 1484 0 
L 1484 331 
L 2234 331 
L 2234 1247 
L 197 1247 
L 197 1588 
L 2241 4750 
L 2859 4750 
L 2859 1581 
L 3750 1581 
L 3750 1247 
L 2859 1247 
L 2859 331 
L 3609 331 
L 3609 0 
z
" transform="scale(0.015625)"/>
       </defs>
       <use xlink:href="#DejaVuSerif-30"/>
       <use xlink:href="#DejaVuSerif-2e" transform="translate(63.623047 0)"/>
       <use xlink:href="#DejaVuSerif-34" transform="translate(95.410156 0)"/>
      </g>
     </g>
    </g>
    <g id="ytick_4">
     <g id="line2d_21">
      <path d="M 45.8875 62.678741 
L 447.6475 62.678741 
" clip-path="url(#p25f4af170c)" style="fill: none; stroke-dasharray: 0.6,0.99; stroke-dashoffset: 0; stroke: #b0b0b0; stroke-width: 0.6"/>
     </g>
     <g id="line2d_22">
      <g>
       <use xlink:href="#m8288237dc3" x="45.8875" y="62.678741" style="stroke: #000000; stroke-width: 0.8"/>
      </g>
     </g>
     <g id="text_4">
      <!-- 0.6 -->
      <g transform="translate(22.984375 66.47796) scale(0.1 -0.1)">
       <defs>
        <path id="DejaVuSerif-36" d="M 2094 219 
Q 2534 219 2771 542 
Q 3009 866 3009 1472 
Q 3009 2078 2771 2401 
Q 2534 2725 2094 2725 
Q 1647 2725 1412 2412 
Q 1178 2100 1178 1509 
Q 1178 888 1415 553 
Q 1653 219 2094 219 
z
M 1075 2569 
Q 1288 2803 1556 2918 
Q 1825 3034 2163 3034 
Q 2859 3034 3264 2615 
Q 3669 2197 3669 1472 
Q 3669 763 3233 336 
Q 2797 -91 2069 -91 
Q 1278 -91 853 498 
Q 428 1088 428 2181 
Q 428 3406 931 4078 
Q 1434 4750 2350 4750 
Q 2597 4750 2869 4703 
Q 3141 4656 3425 4563 
L 3425 3794 
L 3072 3794 
Q 3034 4109 2831 4275 
Q 2628 4441 2284 4441 
Q 1678 4441 1381 3981 
Q 1084 3522 1075 2569 
z
" transform="scale(0.015625)"/>
       </defs>
       <use xlink:href="#DejaVuSerif-30"/>
       <use xlink:href="#DejaVuSerif-2e" transform="translate(63.623047 0)"/>
       <use xlink:href="#DejaVuSerif-36" transform="translate(95.410156 0)"/>
      </g>
     </g>
    </g>
    <g id="ytick_5">
     <g id="line2d_23">
      <path d="M 45.8875 32.216609 
L 447.6475 32.216609 
" clip-path="url(#p25f4af170c)" style="fill: none; stroke-dasharray: 0.6,0.99; stroke-dashoffset: 0; stroke: #b0b0b0; stroke-width: 0.6"/>
     </g>
     <g id="line2d_24">
      <g>
       <use xlink:href="#m8288237dc3" x="45.8875" y="32.216609" style="stroke: #000000; stroke-width: 0.8"/>
      </g>
     </g>
     <g id="text_5">
      <!-- 0.8 -->
      <g transform="translate(22.984375 36.015827) scale(0.1 -0.1)">
       <defs>
        <path id="DejaVuSerif-38" d="M 2981 1275 
Q 2981 1775 2732 2051 
Q 2484 2328 2034 2328 
Q 1584 2328 1336 2051 
Q 1088 1775 1088 1275 
Q 1088 772 1336 495 
Q 1584 219 2034 219 
Q 2484 219 2732 495 
Q 2981 772 2981 1275 
z
M 2853 3541 
Q 2853 3966 2637 4203 
Q 2422 4441 2034 4441 
Q 1650 4441 1433 4203 
Q 1216 3966 1216 3541 
Q 1216 3113 1433 2875 
Q 1650 2638 2034 2638 
Q 2422 2638 2637 2875 
Q 2853 3113 2853 3541 
z
M 2516 2484 
Q 3047 2413 3344 2092 
Q 3641 1772 3641 1275 
Q 3641 619 3225 264 
Q 2809 -91 2034 -91 
Q 1263 -91 845 264 
Q 428 619 428 1275 
Q 428 1772 725 2092 
Q 1022 2413 1556 2484 
Q 1084 2569 832 2842 
Q 581 3116 581 3541 
Q 581 4103 968 4426 
Q 1356 4750 2034 4750 
Q 2713 4750 3100 4426 
Q 3488 4103 3488 3541 
Q 3488 3116 3236 2842 
Q 2984 2569 2516 2484 
z
" transform="scale(0.015625)"/>
       </defs>
       <use xlink:href="#DejaVuSerif-30"/>
       <use xlink:href="#DejaVuSerif-2e" transform="translate(63.623047 0)"/>
       <use xlink:href="#DejaVuSerif-38" transform="translate(95.410156 0)"/>
      </g>
     </g>
    </g>
    <g id="text_6">
     <!-- Voltage (V) -->
     <g transform="translate(16.318125 125.237454) rotate(-90) scale(0.12 -0.12)">
      <defs>
       <path id="DejaVuSerif-56" d="M 1119 4331 
L 2497 750 
L 3872 4331 
L 3347 4331 
L 3347 4666 
L 4716 4666 
L 4716 4331 
L 4263 4331 
L 2597 0 
L 2059 0 
L 403 4331 
L -63 4331 
L -63 4666 
L 1638 4666 
L 1638 4331 
L 1119 4331 
z
" transform="scale(0.015625)"/>
       <path id="DejaVuSerif-6f" d="M 1925 219 
Q 2388 219 2623 584 
Q 2859 950 2859 1663 
Q 2859 2375 2623 2739 
Q 2388 3103 1925 3103 
Q 1463 3103 1227 2739 
Q 991 2375 991 1663 
Q 991 950 1228 584 
Q 1466 219 1925 219 
z
M 1925 -91 
Q 1200 -91 759 389 
Q 319 869 319 1663 
Q 319 2456 758 2934 
Q 1197 3413 1925 3413 
Q 2653 3413 3092 2934 
Q 3531 2456 3531 1663 
Q 3531 869 3092 389 
Q 2653 -91 1925 -91 
z
" transform="scale(0.015625)"/>
       <path id="DejaVuSerif-6c" d="M 1313 331 
L 1856 331 
L 1856 0 
L 184 0 
L 184 331 
L 738 331 
L 738 4531 
L 184 4531 
L 184 4863 
L 1313 4863 
L 1313 331 
z
" transform="scale(0.015625)"/>
       <path id="DejaVuSerif-74" d="M 691 2988 
L 184 2988 
L 184 3322 
L 691 3322 
L 691 4353 
L 1269 4353 
L 1269 3322 
L 2350 3322 
L 2350 2988 
L 1269 2988 
L 1269 878 
Q 1269 456 1350 337 
Q 1431 219 1650 219 
Q 1875 219 1978 351 
Q 2081 484 2088 781 
L 2522 781 
Q 2497 328 2275 118 
Q 2053 -91 1600 -91 
Q 1103 -91 897 129 
Q 691 350 691 878 
L 691 2988 
z
" transform="scale(0.015625)"/>
       <path id="DejaVuSerif-61" d="M 2547 1044 
L 2547 1747 
L 1806 1747 
Q 1378 1747 1168 1562 
Q 959 1378 959 997 
Q 959 650 1171 447 
Q 1384 244 1747 244 
Q 2106 244 2326 466 
Q 2547 688 2547 1044 
z
M 3122 2075 
L 3122 331 
L 3634 331 
L 3634 0 
L 2547 0 
L 2547 359 
Q 2356 128 2106 18 
Q 1856 -91 1522 -91 
Q 969 -91 644 203 
Q 319 497 319 997 
Q 319 1513 691 1797 
Q 1063 2081 1741 2081 
L 2547 2081 
L 2547 2309 
Q 2547 2688 2317 2895 
Q 2088 3103 1672 3103 
Q 1328 3103 1125 2947 
Q 922 2791 872 2484 
L 575 2484 
L 575 3156 
Q 875 3284 1158 3348 
Q 1441 3413 1709 3413 
Q 2400 3413 2761 3070 
Q 3122 2728 3122 2075 
z
" transform="scale(0.015625)"/>
       <path id="DejaVuSerif-67" d="M 3359 2988 
L 3359 72 
Q 3359 -644 2965 -1033 
Q 2572 -1422 1844 -1422 
Q 1516 -1422 1216 -1362 
Q 916 -1303 641 -1184 
L 641 -488 
L 941 -488 
Q 997 -813 1206 -963 
Q 1416 -1113 1806 -1113 
Q 2313 -1113 2548 -827 
Q 2784 -541 2784 72 
L 2784 519 
Q 2616 206 2355 57 
Q 2094 -91 1709 -91 
Q 1097 -91 708 395 
Q 319 881 319 1663 
Q 319 2444 706 2928 
Q 1094 3413 1709 3413 
Q 2094 3413 2355 3264 
Q 2616 3116 2784 2803 
L 2784 3322 
L 3909 3322 
L 3909 2988 
L 3359 2988 
z
M 2784 1825 
Q 2784 2422 2554 2737 
Q 2325 3053 1888 3053 
Q 1444 3053 1217 2703 
Q 991 2353 991 1663 
Q 991 975 1217 622 
Q 1444 269 1888 269 
Q 2325 269 2554 583 
Q 2784 897 2784 1497 
L 2784 1825 
z
" transform="scale(0.015625)"/>
       <path id="DejaVuSerif-65" d="M 3469 1600 
L 991 1600 
L 991 1575 
Q 991 903 1244 561 
Q 1497 219 1991 219 
Q 2369 219 2611 417 
Q 2853 616 2950 1006 
L 3413 1006 
Q 3275 459 2904 184 
Q 2534 -91 1931 -91 
Q 1203 -91 761 389 
Q 319 869 319 1663 
Q 319 2450 753 2931 
Q 1188 3413 1894 3413 
Q 2647 3413 3050 2948 
Q 3453 2484 3469 1600 
z
M 2791 1931 
Q 2772 2513 2545 2808 
Q 2319 3103 1894 3103 
Q 1497 3103 1269 2806 
Q 1041 2509 991 1931 
L 2791 1931 
z
" transform="scale(0.015625)"/>
       <path id="DejaVuSerif-20" transform="scale(0.015625)"/>
       <path id="DejaVuSerif-28" d="M 2041 -997 
Q 1281 -656 893 83 
Q 506 822 506 1931 
Q 506 3044 893 3783 
Q 1281 4522 2041 4863 
L 2041 4556 
Q 1559 4225 1350 3623 
Q 1141 3022 1141 1931 
Q 1141 844 1350 242 
Q 1559 -359 2041 -691 
L 2041 -997 
z
" transform="scale(0.015625)"/>
       <path id="DejaVuSerif-29" d="M 453 -997 
L 453 -691 
Q 934 -359 1145 242 
Q 1356 844 1356 1931 
Q 1356 3022 1145 3623 
Q 934 4225 453 4556 
L 453 4863 
Q 1216 4522 1603 3783 
Q 1991 3044 1991 1931 
Q 1991 822 1603 83 
Q 1216 -656 453 -997 
z
" transform="scale(0.015625)"/>
      </defs>
      <use xlink:href="#DejaVuSerif-56"/>
      <use xlink:href="#DejaVuSerif-6f" transform="translate(63.091797 0)"/>
      <use xlink:href="#DejaVuSerif-6c" transform="translate(123.296875 0)"/>
      <use xlink:href="#DejaVuSerif-74" transform="translate(155.279297 0)"/>
      <use xlink:href="#DejaVuSerif-61" transform="translate(195.464844 0)"/>
      <use xlink:href="#DejaVuSerif-67" transform="translate(255.083984 0)"/>
      <use xlink:href="#DejaVuSerif-65" transform="translate(319.097656 0)"/>
      <use xlink:href="#DejaVuSerif-20" transform="translate(378.277344 0)"/>
      <use xlink:href="#DejaVuSerif-28" transform="translate(410.064453 0)"/>
      <use xlink:href="#DejaVuSerif-56" transform="translate(449.078125 0)"/>
      <use xlink:href="#DejaVuSerif-29" transform="translate(521.294922 0)"/>
     </g>
    </g>
   </g>
   <g id="line2d_25">
    <path d="M 45.8875 154.065139 
L 133.694012 153.971619 
L 133.894942 153.800413 
L 134.095872 153.317688 
L 134.296802 151.969795 
L 134.497733 148.306089 
L 134.698663 139.035311 
L 135.000058 105.016531 
L 135.401919 50.740184 
L 135.703314 36.069592 
L 136.004709 32.451584 
L 136.306105 31.665207 
L 136.6075 31.499148 
L 137.411221 31.455738 
L 177.898663 31.455055 
L 389.980523 31.532511 
L 390.181453 31.674363 
L 390.382384 32.074688 
L 390.583314 33.195377 
L 390.784244 36.263094 
L 390.985174 44.169537 
L 391.186105 61.735524 
L 391.88936 145.034529 
L 392.190756 152.055985 
L 392.492151 153.638637 
L 392.793547 153.975528 
L 393.295872 154.05851 
L 397.615872 154.065139 
L 447.6475 154.065139 
L 447.6475 154.065139 
" clip-path="url(#p25f4af170c)" style="fill: none; stroke: #6a408d; stroke-width: 2; stroke-linecap: square"/>
    <defs>
     <path id="m03347c2931" d="M 0 1.6 
C 0.424325 1.6 0.831328 1.431414 1.131371 1.131371 
C 1.431414 0.831328 1.6 0.424325 1.6 0 
C 1.6 -0.424325 1.431414 -0.831328 1.131371 -1.131371 
C 0.831328 -1.431414 0.424325 -1.6 0 -1.6 
C -0.424325 -1.6 -0.831328 -1.431414 -1.131371 -1.131371 
C -1.431414 -0.831328 -1.6 -0.424325 -1.6 0 
C -1.6 0.424325 -1.431414 0.831328 -1.131371 1.131371 
C -0.831328 1.431414 -0.424325 1.6 0 1.6 
z
" style="stroke: #6a408d"/>
    </defs>
    <g clip-path="url(#p25f4af170c)">
     <use xlink:href="#m03347c2931" x="45.8875" y="154.065139" style="fill: #6a408d; stroke: #6a408d"/>
     <use xlink:href="#m03347c2931" x="71.003779" y="154.065139" style="fill: #6a408d; stroke: #6a408d"/>
     <use xlink:href="#m03347c2931" x="96.120058" y="154.065139" style="fill: #6a408d; stroke: #6a408d"/>
     <use xlink:href="#m03347c2931" x="121.236337" y="154.065139" style="fill: #6a408d; stroke: #6a408d"/>
     <use xlink:href="#m03347c2931" x="146.352616" y="31.455055" style="fill: #6a408d; stroke: #6a408d"/>
     <use xlink:href="#m03347c2931" x="171.468895" y="31.455055" style="fill: #6a408d; stroke: #6a408d"/>
     <use xlink:href="#m03347c2931" x="196.585174" y="31.455055" style="fill: #6a408d; stroke: #6a408d"/>
     <use xlink:href="#m03347c2931" x="221.701453" y="31.455055" style="fill: #6a408d; stroke: #6a408d"/>
     <use xlink:href="#m03347c2931" x="246.817733" y="31.455055" style="fill: #6a408d; stroke: #6a408d"/>
     <use xlink:href="#m03347c2931" x="271.934012" y="31.455055" style="fill: #6a408d; stroke: #6a408d"/>
     <use xlink:href="#m03347c2931" x="297.050291" y="31.455055" style="fill: #6a408d; stroke: #6a408d"/>
     <use xlink:href="#m03347c2931" x="322.16657" y="31.455055" style="fill: #6a408d; stroke: #6a408d"/>
     <use xlink:href="#m03347c2931" x="347.282849" y="31.455055" style="fill: #6a408d; stroke: #6a408d"/>
     <use xlink:href="#m03347c2931" x="372.399128" y="31.455055" style="fill: #6a408d; stroke: #6a408d"/>
     <use xlink:href="#m03347c2931" x="397.515407" y="154.065139" style="fill: #6a408d; stroke: #6a408d"/>
     <use xlink:href="#m03347c2931" x="422.631686" y="154.065139" style="fill: #6a408d; stroke: #6a408d"/>
    </g>
   </g>
   <g id="line2d_26">
    <path d="M 45.8875 154.065139 
L 134.296802 153.990081 
L 134.497733 153.852616 
L 134.698663 153.464641 
L 134.899593 152.378271 
L 135.100523 149.402587 
L 135.301453 141.720421 
L 135.502384 124.585802 
L 136.20564 42.054526 
L 136.507035 34.999708 
L 136.80843 33.4074 
L 137.109826 33.068353 
L 137.612151 32.984833 
L 141.932151 32.978162 
L 393.898663 33.083224 
L 394.099593 33.275505 
L 394.300523 33.817253 
L 394.501453 35.326852 
L 394.702384 39.407147 
L 394.903314 49.584608 
L 395.204709 85.209808 
L 395.60657 136.99959 
L 395.907965 150.041101 
L 396.20936 153.199237 
L 396.510756 153.882675 
L 396.912616 154.042401 
L 398.319128 154.065123 
L 447.6475 154.065139 
L 447.6475 154.065139 
" clip-path="url(#p25f4af170c)" style="fill: none; stroke-dasharray: 7.4,3.2; stroke-dashoffset: 0; stroke: #9671bd; stroke-width: 2"/>
    <defs>
     <path id="me5ca9ba762" d="M -1.6 1.6 
L 1.6 1.6 
L 1.6 -1.6 
L -1.6 -1.6 
z
" style="stroke: #9671bd; stroke-linejoin: miter"/>
    </defs>
    <g clip-path="url(#p25f4af170c)">
     <use xlink:href="#me5ca9ba762" x="45.8875" y="154.065139" style="fill: #9671bd; stroke: #9671bd; stroke-linejoin: miter"/>
     <use xlink:href="#me5ca9ba762" x="71.003779" y="154.065139" style="fill: #9671bd; stroke: #9671bd; stroke-linejoin: miter"/>
     <use xlink:href="#me5ca9ba762" x="96.120058" y="154.065139" style="fill: #9671bd; stroke: #9671bd; stroke-linejoin: miter"/>
     <use xlink:href="#me5ca9ba762" x="121.236337" y="154.065139" style="fill: #9671bd; stroke: #9671bd; stroke-linejoin: miter"/>
     <use xlink:href="#me5ca9ba762" x="146.352616" y="32.978162" style="fill: #9671bd; stroke: #9671bd; stroke-linejoin: miter"/>
     <use xlink:href="#me5ca9ba762" x="171.468895" y="32.978162" style="fill: #9671bd; stroke: #9671bd; stroke-linejoin: miter"/>
     <use xlink:href="#me5ca9ba762" x="196.585174" y="32.978162" style="fill: #9671bd; stroke: #9671bd; stroke-linejoin: miter"/>
     <use xlink:href="#me5ca9ba762" x="221.701453" y="32.978162" style="fill: #9671bd; stroke: #9671bd; stroke-linejoin: miter"/>
     <use xlink:href="#me5ca9ba762" x="246.817733" y="32.978162" style="fill: #9671bd; stroke: #9671bd; stroke-linejoin: miter"/>
     <use xlink:href="#me5ca9ba762" x="271.934012" y="32.978162" style="fill: #9671bd; stroke: #9671bd; stroke-linejoin: miter"/>
     <use xlink:href="#me5ca9ba762" x="297.050291" y="32.978162" style="fill: #9671bd; stroke: #9671bd; stroke-linejoin: miter"/>
     <use xlink:href="#me5ca9ba762" x="322.16657" y="32.978162" style="fill: #9671bd; stroke: #9671bd; stroke-linejoin: miter"/>
     <use xlink:href="#me5ca9ba762" x="347.282849" y="32.978162" style="fill: #9671bd; stroke: #9671bd; stroke-linejoin: miter"/>
     <use xlink:href="#me5ca9ba762" x="372.399128" y="32.978162" style="fill: #9671bd; stroke: #9671bd; stroke-linejoin: miter"/>
     <use xlink:href="#me5ca9ba762" x="397.515407" y="154.06414" style="fill: #9671bd; stroke: #9671bd; stroke-linejoin: miter"/>
     <use xlink:href="#me5ca9ba762" x="422.631686" y="154.065139" style="fill: #9671bd; stroke: #9671bd; stroke-linejoin: miter"/>
    </g>
   </g>
   <g id="line2d_27">
    <path d="M 45.8875 154.065139 
L 135.000058 153.960282 
L 135.200988 153.768365 
L 135.401919 153.227568 
L 135.602849 151.720037 
L 135.803779 147.641023 
L 136.004709 137.439281 
L 136.306105 101.417148 
L 136.707965 48.168595 
L 137.00936 34.591876 
L 137.310756 31.293842 
L 137.612151 30.5796 
L 137.913547 30.428891 
L 138.817733 30.389249 
L 213.664244 30.388881 
L 397.716337 30.476455 
L 397.917267 30.636802 
L 398.118198 31.089083 
L 398.319128 32.353322 
L 398.520058 35.799751 
L 398.720988 44.587269 
L 398.921919 63.634337 
L 399.524709 140.871396 
L 399.826105 151.046071 
L 400.1275 153.420108 
L 400.428895 153.929426 
L 400.830756 154.048233 
L 402.639128 154.065137 
L 447.6475 154.065139 
L 447.6475 154.065139 
" clip-path="url(#p25f4af170c)" style="fill: none; stroke-dasharray: 12.8,3.2,2,3.2; stroke-dashoffset: 0; stroke: #378d94; stroke-width: 2"/>
    <defs>
     <path id="m1216a82099" d="M -0 2.262742 
L 2.262742 0 
L 0 -2.262742 
L -2.262742 -0 
z
" style="stroke: #378d94; stroke-linejoin: miter"/>
    </defs>
    <g clip-path="url(#p25f4af170c)">
     <use xlink:href="#m1216a82099" x="45.8875" y="154.065139" style="fill: #378d94; stroke: #378d94; stroke-linejoin: miter"/>
     <use xlink:href="#m1216a82099" x="71.003779" y="154.065139" style="fill: #378d94; stroke: #378d94; stroke-linejoin: miter"/>
     <use xlink:href="#m1216a82099" x="96.120058" y="154.065139" style="fill: #378d94; stroke: #378d94; stroke-linejoin: miter"/>
     <use xlink:href="#m1216a82099" x="121.236337" y="154.065139" style="fill: #378d94; stroke: #378d94; stroke-linejoin: miter"/>
     <use xlink:href="#m1216a82099" x="146.352616" y="30.388881" style="fill: #378d94; stroke: #378d94; stroke-linejoin: miter"/>
     <use xlink:href="#m1216a82099" x="171.468895" y="30.388881" style="fill: #378d94; stroke: #378d94; stroke-linejoin: miter"/>
     <use xlink:href="#m1216a82099" x="196.585174" y="30.388881" style="fill: #378d94; stroke: #378d94; stroke-linejoin: miter"/>
     <use xlink:href="#m1216a82099" x="221.701453" y="30.388881" style="fill: #378d94; stroke: #378d94; stroke-linejoin: miter"/>
     <use xlink:href="#m1216a82099" x="246.817733" y="30.388881" style="fill: #378d94; stroke: #378d94; stroke-linejoin: miter"/>
     <use xlink:href="#m1216a82099" x="271.934012" y="30.388881" style="fill: #378d94; stroke: #378d94; stroke-linejoin: miter"/>
     <use xlink:href="#m1216a82099" x="297.050291" y="30.388881" style="fill: #378d94; stroke: #378d94; stroke-linejoin: miter"/>
     <use xlink:href="#m1216a82099" x="322.16657" y="30.388881" style="fill: #378d94; stroke: #378d94; stroke-linejoin: miter"/>
     <use xlink:href="#m1216a82099" x="347.282849" y="30.388881" style="fill: #378d94; stroke: #378d94; stroke-linejoin: miter"/>
     <use xlink:href="#m1216a82099" x="372.399128" y="30.388881" style="fill: #378d94; stroke: #378d94; stroke-linejoin: miter"/>
     <use xlink:href="#m1216a82099" x="397.515407" y="30.419789" style="fill: #378d94; stroke: #378d94; stroke-linejoin: miter"/>
     <use xlink:href="#m1216a82099" x="422.631686" y="154.065139" style="fill: #378d94; stroke: #378d94; stroke-linejoin: miter"/>
    </g>
   </g>
   <g id="line2d_28">
    <path d="M 45.8875 154.065139 
L 135.602849 153.98244 
L 135.803779 153.831011 
L 136.004709 153.40383 
L 136.20564 152.209303 
L 136.40657 148.949572 
L 136.6075 140.615879 
L 136.80843 122.442207 
L 137.511686 42.198493 
L 137.813081 35.849836 
L 138.114477 34.427194 
L 138.415872 34.124759 
L 138.918198 34.050285 
L 143.740523 34.044336 
L 401.534012 34.113691 
L 401.835407 34.374617 
L 402.036337 34.97587 
L 402.237267 36.647859 
L 402.438198 41.142 
L 402.639128 52.194648 
L 402.940523 89.200806 
L 403.342384 138.742236 
L 403.643779 150.494161 
L 403.945174 153.298892 
L 404.24657 153.903773 
L 404.64843 154.045033 
L 406.255872 154.065134 
L 447.6475 154.065139 
L 447.6475 154.065139 
" clip-path="url(#p25f4af170c)" style="fill: none; stroke-dasharray: 2,3.3; stroke-dashoffset: 0; stroke: #77b5b6; stroke-width: 2"/>
    <defs>
     <path id="m488302b3a0" d="M 0 -1.6 
L -1.6 1.6 
L 1.6 1.6 
z
" style="stroke: #77b5b6; stroke-linejoin: miter"/>
    </defs>
    <g clip-path="url(#p25f4af170c)">
     <use xlink:href="#m488302b3a0" x="45.8875" y="154.065139" style="fill: #77b5b6; stroke: #77b5b6; stroke-linejoin: miter"/>
     <use xlink:href="#m488302b3a0" x="71.003779" y="154.065139" style="fill: #77b5b6; stroke: #77b5b6; stroke-linejoin: miter"/>
     <use xlink:href="#m488302b3a0" x="96.120058" y="154.065139" style="fill: #77b5b6; stroke: #77b5b6; stroke-linejoin: miter"/>
     <use xlink:href="#m488302b3a0" x="121.236337" y="154.065139" style="fill: #77b5b6; stroke: #77b5b6; stroke-linejoin: miter"/>
     <use xlink:href="#m488302b3a0" x="146.352616" y="34.044336" style="fill: #77b5b6; stroke: #77b5b6; stroke-linejoin: miter"/>
     <use xlink:href="#m488302b3a0" x="171.468895" y="34.044336" style="fill: #77b5b6; stroke: #77b5b6; stroke-linejoin: miter"/>
     <use xlink:href="#m488302b3a0" x="196.585174" y="34.044336" style="fill: #77b5b6; stroke: #77b5b6; stroke-linejoin: miter"/>
     <use xlink:href="#m488302b3a0" x="221.701453" y="34.044336" style="fill: #77b5b6; stroke: #77b5b6; stroke-linejoin: miter"/>
     <use xlink:href="#m488302b3a0" x="246.817733" y="34.044336" style="fill: #77b5b6; stroke: #77b5b6; stroke-linejoin: miter"/>
     <use xlink:href="#m488302b3a0" x="271.934012" y="34.044336" style="fill: #77b5b6; stroke: #77b5b6; stroke-linejoin: miter"/>
     <use xlink:href="#m488302b3a0" x="297.050291" y="34.044336" style="fill: #77b5b6; stroke: #77b5b6; stroke-linejoin: miter"/>
     <use xlink:href="#m488302b3a0" x="322.16657" y="34.044336" style="fill: #77b5b6; stroke: #77b5b6; stroke-linejoin: miter"/>
     <use xlink:href="#m488302b3a0" x="347.282849" y="34.044336" style="fill: #77b5b6; stroke: #77b5b6; stroke-linejoin: miter"/>
     <use xlink:href="#m488302b3a0" x="372.399128" y="34.044336" style="fill: #77b5b6; stroke: #77b5b6; stroke-linejoin: miter"/>
     <use xlink:href="#m488302b3a0" x="397.515407" y="34.044336" style="fill: #77b5b6; stroke: #77b5b6; stroke-linejoin: miter"/>
     <use xlink:href="#m488302b3a0" x="422.631686" y="154.065139" style="fill: #77b5b6; stroke: #77b5b6; stroke-linejoin: miter"/>
    </g>
   </g>
   <g id="line2d_29">
    <path d="M 45.8875 154.065139 
L 136.20564 153.996737 
L 136.507035 153.739375 
L 136.707965 153.146202 
L 136.908895 151.495715 
L 137.109826 147.052293 
L 137.310756 136.080329 
L 137.612151 98.882077 
L 138.014012 47.940233 
L 138.315407 35.659024 
L 138.616802 32.716612 
L 138.918198 32.081462 
L 139.320058 31.933104 
L 140.827035 31.911996 
L 405.452151 32.008938 
L 405.653081 32.186411 
L 405.854012 32.686697 
L 406.054942 34.082778 
L 406.255872 37.871179 
L 406.456802 47.416632 
L 406.758198 81.949202 
L 407.160058 135.487562 
L 407.461453 149.640689 
L 407.762849 153.110761 
L 408.064244 153.863926 
L 408.36564 154.022924 
L 409.269826 154.06475 
L 447.6475 154.065139 
L 447.6475 154.065139 
" clip-path="url(#p25f4af170c)" style="fill: none; stroke: #e69f00; stroke-width: 2; stroke-linecap: square"/>
    <defs>
     <path id="m520e825f8d" d="M -0 1.6 
L 1.6 -1.6 
L -1.6 -1.6 
z
" style="stroke: #e69f00; stroke-linejoin: miter"/>
    </defs>
    <g clip-path="url(#p25f4af170c)">
     <use xlink:href="#m520e825f8d" x="45.8875" y="154.065139" style="fill: #e69f00; stroke: #e69f00; stroke-linejoin: miter"/>
     <use xlink:href="#m520e825f8d" x="71.003779" y="154.065139" style="fill: #e69f00; stroke: #e69f00; stroke-linejoin: miter"/>
     <use xlink:href="#m520e825f8d" x="96.120058" y="154.065139" style="fill: #e69f00; stroke: #e69f00; stroke-linejoin: miter"/>
     <use xlink:href="#m520e825f8d" x="121.236337" y="154.065139" style="fill: #e69f00; stroke: #e69f00; stroke-linejoin: miter"/>
     <use xlink:href="#m520e825f8d" x="146.352616" y="31.911987" style="fill: #e69f00; stroke: #e69f00; stroke-linejoin: miter"/>
     <use xlink:href="#m520e825f8d" x="171.468895" y="31.911987" style="fill: #e69f00; stroke: #e69f00; stroke-linejoin: miter"/>
     <use xlink:href="#m520e825f8d" x="196.585174" y="31.911987" style="fill: #e69f00; stroke: #e69f00; stroke-linejoin: miter"/>
     <use xlink:href="#m520e825f8d" x="221.701453" y="31.911987" style="fill: #e69f00; stroke: #e69f00; stroke-linejoin: miter"/>
     <use xlink:href="#m520e825f8d" x="246.817733" y="31.911987" style="fill: #e69f00; stroke: #e69f00; stroke-linejoin: miter"/>
     <use xlink:href="#m520e825f8d" x="271.934012" y="31.911987" style="fill: #e69f00; stroke: #e69f00; stroke-linejoin: miter"/>
     <use xlink:href="#m520e825f8d" x="297.050291" y="31.911987" style="fill: #e69f00; stroke: #e69f00; stroke-linejoin: miter"/>
     <use xlink:href="#m520e825f8d" x="322.16657" y="31.911987" style="fill: #e69f00; stroke: #e69f00; stroke-linejoin: miter"/>
     <use xlink:href="#m520e825f8d" x="347.282849" y="31.911987" style="fill: #e69f00; stroke: #e69f00; stroke-linejoin: miter"/>
     <use xlink:href="#m520e825f8d" x="372.399128" y="31.911987" style="fill: #e69f00; stroke: #e69f00; stroke-linejoin: miter"/>
     <use xlink:href="#m520e825f8d" x="397.515407" y="31.911987" style="fill: #e69f00; stroke: #e69f00; stroke-linejoin: miter"/>
     <use xlink:href="#m520e825f8d" x="422.631686" y="154.065139" style="fill: #e69f00; stroke: #e69f00; stroke-linejoin: miter"/>
    </g>
   </g>
   <g id="line2d_30">
    <path d="M 134.2747 160.157565 
L 134.2747 23.077969 
" clip-path="url(#p25f4af170c)" style="fill: none; stroke-dasharray: 3.7,1.6; stroke-dashoffset: 0; stroke: #6f6f6f"/>
   </g>
   <g id="line2d_31">
    <path d="M 343.1899 160.157565 
L 343.1899 23.077969 
" clip-path="url(#p25f4af170c)" style="fill: none; stroke-dasharray: 3.7,1.6; stroke-dashoffset: 0; stroke: #6f6f6f"/>
   </g>
   <g id="patch_3">
    <path d="M 45.8875 160.157565 
L 45.8875 23.077969 
" style="fill: none; stroke: #000000; stroke-linejoin: miter; stroke-linecap: square"/>
   </g>
   <g id="patch_4">
    <path d="M 45.8875 160.157565 
L 447.6475 160.157565 
" style="fill: none; stroke: #000000; stroke-linejoin: miter; stroke-linecap: square"/>
   </g>
   <g id="text_7">
    <!-- ADC Response -->
    <g transform="translate(198.302891 17.077969) scale(0.13 -0.13)">
     <defs>
      <path id="DejaVuSerif-41" d="M 1281 1691 
L 2994 1691 
L 2138 3909 
L 1281 1691 
z
M -38 0 
L -38 331 
L 372 331 
L 2034 4666 
L 2559 4666 
L 4225 331 
L 4684 331 
L 4684 0 
L 2988 0 
L 2988 331 
L 3506 331 
L 3116 1356 
L 1153 1356 
L 763 331 
L 1275 331 
L 1275 0 
L -38 0 
z
" transform="scale(0.015625)"/>
      <path id="DejaVuSerif-44" d="M 1581 331 
L 2163 331 
Q 3072 331 3558 850 
Q 4044 1369 4044 2338 
Q 4044 3306 3559 3818 
Q 3075 4331 2163 4331 
L 1581 4331 
L 1581 331 
z
M 353 0 
L 353 331 
L 947 331 
L 947 4331 
L 353 4331 
L 353 4666 
L 2209 4666 
Q 3416 4666 4089 4050 
Q 4763 3434 4763 2338 
Q 4763 1238 4088 619 
Q 3413 0 2209 0 
L 353 0 
z
" transform="scale(0.015625)"/>
      <path id="DejaVuSerif-43" d="M 4513 1234 
Q 4306 581 3820 245 
Q 3334 -91 2591 -91 
Q 2134 -91 1743 65 
Q 1353 222 1050 525 
Q 700 875 529 1320 
Q 359 1766 359 2328 
Q 359 3416 987 4083 
Q 1616 4750 2644 4750 
Q 3025 4750 3456 4650 
Q 3888 4550 4384 4347 
L 4384 3272 
L 4031 3272 
Q 3916 3859 3567 4137 
Q 3219 4416 2591 4416 
Q 1844 4416 1459 3886 
Q 1075 3356 1075 2328 
Q 1075 1303 1459 773 
Q 1844 244 2591 244 
Q 3113 244 3450 492 
Q 3788 741 3938 1234 
L 4513 1234 
z
" transform="scale(0.015625)"/>
      <path id="DejaVuSerif-52" d="M 3066 2316 
Q 3284 2256 3442 2114 
Q 3600 1972 3725 1716 
L 4403 331 
L 4972 331 
L 4972 0 
L 3872 0 
L 3144 1484 
Q 2934 1916 2759 2042 
Q 2584 2169 2278 2169 
L 1581 2169 
L 1581 331 
L 2241 331 
L 2241 0 
L 353 0 
L 353 331 
L 947 331 
L 947 4331 
L 353 4331 
L 353 4666 
L 2719 4666 
Q 3400 4666 3770 4341 
Q 4141 4016 4141 3419 
Q 4141 2938 3870 2661 
Q 3600 2384 3066 2316 
z
M 1581 2503 
L 2503 2503 
Q 2975 2503 3200 2726 
Q 3425 2950 3425 3419 
Q 3425 3888 3200 4109 
Q 2975 4331 2503 4331 
L 1581 4331 
L 1581 2503 
z
" transform="scale(0.015625)"/>
      <path id="DejaVuSerif-73" d="M 359 184 
L 359 959 
L 691 959 
Q 703 588 923 403 
Q 1144 219 1575 219 
Q 1963 219 2166 364 
Q 2369 509 2369 788 
Q 2369 1006 2220 1140 
Q 2072 1275 1594 1428 
L 1178 1569 
Q 750 1706 558 1912 
Q 366 2119 366 2438 
Q 366 2894 700 3153 
Q 1034 3413 1625 3413 
Q 1888 3413 2178 3344 
Q 2469 3275 2778 3144 
L 2778 2419 
L 2447 2419 
Q 2434 2741 2221 2922 
Q 2009 3103 1644 3103 
Q 1281 3103 1095 2975 
Q 909 2847 909 2591 
Q 909 2381 1050 2254 
Q 1191 2128 1613 1997 
L 2069 1856 
Q 2541 1709 2748 1489 
Q 2956 1269 2956 922 
Q 2956 450 2595 179 
Q 2234 -91 1600 -91 
Q 1278 -91 972 -22 
Q 666 47 359 184 
z
" transform="scale(0.015625)"/>
      <path id="DejaVuSerif-70" d="M 1313 1825 
L 1313 1497 
Q 1313 897 1542 583 
Q 1772 269 2209 269 
Q 2650 269 2876 622 
Q 3103 975 3103 1663 
Q 3103 2353 2876 2703 
Q 2650 3053 2209 3053 
Q 1772 3053 1542 2737 
Q 1313 2422 1313 1825 
z
M 738 2988 
L 184 2988 
L 184 3322 
L 1313 3322 
L 1313 2803 
Q 1481 3116 1742 3264 
Q 2003 3413 2388 3413 
Q 3000 3413 3387 2928 
Q 3775 2444 3775 1663 
Q 3775 881 3387 395 
Q 3000 -91 2388 -91 
Q 2003 -91 1742 57 
Q 1481 206 1313 519 
L 1313 -997 
L 1856 -997 
L 1856 -1331 
L 184 -1331 
L 184 -997 
L 738 -997 
L 738 2988 
z
" transform="scale(0.015625)"/>
      <path id="DejaVuSerif-6e" d="M 263 0 
L 263 331 
L 781 331 
L 781 2988 
L 231 2988 
L 231 3322 
L 1356 3322 
L 1356 2731 
Q 1516 3069 1770 3241 
Q 2025 3413 2363 3413 
Q 2913 3413 3172 3097 
Q 3431 2781 3431 2113 
L 3431 331 
L 3944 331 
L 3944 0 
L 2356 0 
L 2356 331 
L 2853 331 
L 2853 1931 
Q 2853 2541 2703 2767 
Q 2553 2994 2175 2994 
Q 1775 2994 1565 2701 
Q 1356 2409 1356 1850 
L 1356 331 
L 1856 331 
L 1856 0 
L 263 0 
z
" transform="scale(0.015625)"/>
     </defs>
     <use xlink:href="#DejaVuSerif-41"/>
     <use xlink:href="#DejaVuSerif-44" transform="translate(72.216797 0)"/>
     <use xlink:href="#DejaVuSerif-43" transform="translate(152.392578 0)"/>
     <use xlink:href="#DejaVuSerif-20" transform="translate(228.90625 0)"/>
     <use xlink:href="#DejaVuSerif-52" transform="translate(260.693359 0)"/>
     <use xlink:href="#DejaVuSerif-65" transform="translate(335.986328 0)"/>
     <use xlink:href="#DejaVuSerif-73" transform="translate(395.166016 0)"/>
     <use xlink:href="#DejaVuSerif-70" transform="translate(446.484375 0)"/>
     <use xlink:href="#DejaVuSerif-6f" transform="translate(510.498047 0)"/>
     <use xlink:href="#DejaVuSerif-6e" transform="translate(570.703125 0)"/>
     <use xlink:href="#DejaVuSerif-73" transform="translate(635.107422 0)"/>
     <use xlink:href="#DejaVuSerif-65" transform="translate(686.425781 0)"/>
    </g>
   </g>
   <g id="legend_1">
    <g id="line2d_32">
     <path d="M 463.7827 63.904798 
L 472.7827 63.904798 
L 481.7827 63.904798 
" style="fill: none; stroke: #6a408d; stroke-width: 2; stroke-linecap: square"/>
     <g>
      <use xlink:href="#m03347c2931" x="472.7827" y="63.904798" style="fill: #6a408d; stroke: #6a408d"/>
     </g>
    </g>
    <g id="text_8">
     <!-- v(C_0) -->
     <g transform="translate(488.9827 67.054798) scale(0.09 -0.09)">
      <defs>
       <path id="DejaVuSerif-76" d="M 1581 0 
L 359 2988 
L -19 2988 
L -19 3322 
L 1509 3322 
L 1509 2988 
L 978 2988 
L 1913 703 
L 2847 2988 
L 2350 2988 
L 2350 3322 
L 3597 3322 
L 3597 2988 
L 3225 2988 
L 2003 0 
L 1581 0 
z
" transform="scale(0.015625)"/>
       <path id="DejaVuSerif-5f" d="M 3200 -1259 
L 3200 -1509 
L 0 -1509 
L 0 -1259 
L 3200 -1259 
z
" transform="scale(0.015625)"/>
      </defs>
      <use xlink:href="#DejaVuSerif-76"/>
      <use xlink:href="#DejaVuSerif-28" transform="translate(56.494141 0)"/>
      <use xlink:href="#DejaVuSerif-43" transform="translate(95.507812 0)"/>
      <use xlink:href="#DejaVuSerif-5f" transform="translate(172.021484 0)"/>
      <use xlink:href="#DejaVuSerif-30" transform="translate(222.021484 0)"/>
      <use xlink:href="#DejaVuSerif-29" transform="translate(285.644531 0)"/>
     </g>
    </g>
    <g id="line2d_33">
     <path d="M 463.7827 77.365423 
L 472.7827 77.365423 
L 481.7827 77.365423 
" style="fill: none; stroke-dasharray: 7.4,3.2; stroke-dashoffset: 0; stroke: #9671bd; stroke-width: 2"/>
     <g>
      <use xlink:href="#me5ca9ba762" x="472.7827" y="77.365423" style="fill: #9671bd; stroke: #9671bd; stroke-linejoin: miter"/>
     </g>
    </g>
    <g id="text_9">
     <!-- v(C_1) -->
     <g transform="translate(488.9827 80.515423) scale(0.09 -0.09)">
      <defs>
       <path id="DejaVuSerif-31" d="M 909 0 
L 909 331 
L 1722 331 
L 1722 4213 
L 781 3603 
L 781 4013 
L 1919 4750 
L 2350 4750 
L 2350 331 
L 3163 331 
L 3163 0 
L 909 0 
z
" transform="scale(0.015625)"/>
      </defs>
      <use xlink:href="#DejaVuSerif-76"/>
      <use xlink:href="#DejaVuSerif-28" transform="translate(56.494141 0)"/>
      <use xlink:href="#DejaVuSerif-43" transform="translate(95.507812 0)"/>
      <use xlink:href="#DejaVuSerif-5f" transform="translate(172.021484 0)"/>
      <use xlink:href="#DejaVuSerif-31" transform="translate(222.021484 0)"/>
      <use xlink:href="#DejaVuSerif-29" transform="translate(285.644531 0)"/>
     </g>
    </g>
    <g id="line2d_34">
     <path d="M 463.7827 90.826048 
L 472.7827 90.826048 
L 481.7827 90.826048 
" style="fill: none; stroke-dasharray: 12.8,3.2,2,3.2; stroke-dashoffset: 0; stroke: #378d94; stroke-width: 2"/>
     <g>
      <use xlink:href="#m1216a82099" x="472.7827" y="90.826048" style="fill: #378d94; stroke: #378d94; stroke-linejoin: miter"/>
     </g>
    </g>
    <g id="text_10">
     <!-- v(C_2) -->
     <g transform="translate(488.9827 93.976048) scale(0.09 -0.09)">
      <use xlink:href="#DejaVuSerif-76"/>
      <use xlink:href="#DejaVuSerif-28" transform="translate(56.494141 0)"/>
      <use xlink:href="#DejaVuSerif-43" transform="translate(95.507812 0)"/>
      <use xlink:href="#DejaVuSerif-5f" transform="translate(172.021484 0)"/>
      <use xlink:href="#DejaVuSerif-32" transform="translate(222.021484 0)"/>
      <use xlink:href="#DejaVuSerif-29" transform="translate(285.644531 0)"/>
     </g>
    </g>
    <g id="line2d_35">
     <path d="M 463.7827 104.286673 
L 472.7827 104.286673 
L 481.7827 104.286673 
" style="fill: none; stroke-dasharray: 2,3.3; stroke-dashoffset: 0; stroke: #77b5b6; stroke-width: 2"/>
     <g>
      <use xlink:href="#m488302b3a0" x="472.7827" y="104.286673" style="fill: #77b5b6; stroke: #77b5b6; stroke-linejoin: miter"/>
     </g>
    </g>
    <g id="text_11">
     <!-- v(C_3) -->
     <g transform="translate(488.9827 107.436673) scale(0.09 -0.09)">
      <defs>
       <path id="DejaVuSerif-33" d="M 622 4469 
Q 988 4606 1323 4678 
Q 1659 4750 1953 4750 
Q 2638 4750 3022 4454 
Q 3406 4159 3406 3634 
Q 3406 3213 3140 2930 
Q 2875 2647 2388 2547 
Q 2963 2466 3280 2130 
Q 3597 1794 3597 1259 
Q 3597 606 3158 257 
Q 2719 -91 1894 -91 
Q 1528 -91 1179 -12 
Q 831 66 488 225 
L 488 1131 
L 838 1131 
Q 869 681 1141 450 
Q 1413 219 1906 219 
Q 2384 219 2661 495 
Q 2938 772 2938 1253 
Q 2938 1803 2653 2086 
Q 2369 2369 1819 2369 
L 1522 2369 
L 1522 2688 
L 1678 2688 
Q 2225 2688 2498 2914 
Q 2772 3141 2772 3597 
Q 2772 4006 2547 4223 
Q 2322 4441 1900 4441 
Q 1478 4441 1245 4241 
Q 1013 4041 972 3647 
L 622 3647 
L 622 4469 
z
" transform="scale(0.015625)"/>
      </defs>
      <use xlink:href="#DejaVuSerif-76"/>
      <use xlink:href="#DejaVuSerif-28" transform="translate(56.494141 0)"/>
      <use xlink:href="#DejaVuSerif-43" transform="translate(95.507812 0)"/>
      <use xlink:href="#DejaVuSerif-5f" transform="translate(172.021484 0)"/>
      <use xlink:href="#DejaVuSerif-33" transform="translate(222.021484 0)"/>
      <use xlink:href="#DejaVuSerif-29" transform="translate(285.644531 0)"/>
     </g>
    </g>
    <g id="line2d_36">
     <path d="M 463.7827 117.747298 
L 472.7827 117.747298 
L 481.7827 117.747298 
" style="fill: none; stroke: #e69f00; stroke-width: 2; stroke-linecap: square"/>
     <g>
      <use xlink:href="#m520e825f8d" x="472.7827" y="117.747298" style="fill: #e69f00; stroke: #e69f00; stroke-linejoin: miter"/>
     </g>
    </g>
    <g id="text_12">
     <!-- v(C_4) -->
     <g transform="translate(488.9827 120.897298) scale(0.09 -0.09)">
      <use xlink:href="#DejaVuSerif-76"/>
      <use xlink:href="#DejaVuSerif-28" transform="translate(56.494141 0)"/>
      <use xlink:href="#DejaVuSerif-43" transform="translate(95.507812 0)"/>
      <use xlink:href="#DejaVuSerif-5f" transform="translate(172.021484 0)"/>
      <use xlink:href="#DejaVuSerif-34" transform="translate(222.021484 0)"/>
      <use xlink:href="#DejaVuSerif-29" transform="translate(285.644531 0)"/>
     </g>
    </g>
   </g>
  </g>
  <g id="axes_2">
   <g id="patch_5">
    <path d="M 45.8875 294.733969 
L 447.6475 294.733969 
L 447.6475 175.53432 
L 45.8875 175.53432 
z
" style="fill: #ffffff"/>
   </g>
   <g id="matplotlib.axis_3">
    <g id="xtick_8">
     <g id="line2d_37">
      <path d="M 45.8875 294.733969 
L 45.8875 175.53432 
" clip-path="url(#p0f17eb2d67)" style="fill: none; stroke-dasharray: 0.6,0.99; stroke-dashoffset: 0; stroke: #b0b0b0; stroke-width: 0.6"/>
     </g>
     <g id="line2d_38">
      <g>
       <use xlink:href="#m23acb45758" x="45.8875" y="294.733969" style="stroke: #000000; stroke-width: 0.8"/>
      </g>
     </g>
     <g id="text_13">
      <!-- 0 -->
      <g transform="translate(42.70625 309.332406) scale(0.1 -0.1)">
       <use xlink:href="#DejaVuSerif-30"/>
      </g>
     </g>
    </g>
    <g id="xtick_9">
     <g id="line2d_39">
      <path d="M 110.1691 294.733969 
L 110.1691 175.53432 
" clip-path="url(#p0f17eb2d67)" style="fill: none; stroke-dasharray: 0.6,0.99; stroke-dashoffset: 0; stroke: #b0b0b0; stroke-width: 0.6"/>
     </g>
     <g id="line2d_40">
      <g>
       <use xlink:href="#m23acb45758" x="110.1691" y="294.733969" style="stroke: #000000; stroke-width: 0.8"/>
      </g>
     </g>
     <g id="text_14">
      <!-- 20 -->
      <g transform="translate(103.8066 309.332406) scale(0.1 -0.1)">
       <use xlink:href="#DejaVuSerif-32"/>
       <use xlink:href="#DejaVuSerif-30" transform="translate(63.623047 0)"/>
      </g>
     </g>
    </g>
    <g id="xtick_10">
     <g id="line2d_41">
      <path d="M 174.4507 294.733969 
L 174.4507 175.53432 
" clip-path="url(#p0f17eb2d67)" style="fill: none; stroke-dasharray: 0.6,0.99; stroke-dashoffset: 0; stroke: #b0b0b0; stroke-width: 0.6"/>
     </g>
     <g id="line2d_42">
      <g>
       <use xlink:href="#m23acb45758" x="174.4507" y="294.733969" style="stroke: #000000; stroke-width: 0.8"/>
      </g>
     </g>
     <g id="text_15">
      <!-- 40 -->
      <g transform="translate(168.0882 309.332406) scale(0.1 -0.1)">
       <use xlink:href="#DejaVuSerif-34"/>
       <use xlink:href="#DejaVuSerif-30" transform="translate(63.623047 0)"/>
      </g>
     </g>
    </g>
    <g id="xtick_11">
     <g id="line2d_43">
      <path d="M 238.7323 294.733969 
L 238.7323 175.53432 
" clip-path="url(#p0f17eb2d67)" style="fill: none; stroke-dasharray: 0.6,0.99; stroke-dashoffset: 0; stroke: #b0b0b0; stroke-width: 0.6"/>
     </g>
     <g id="line2d_44">
      <g>
       <use xlink:href="#m23acb45758" x="238.7323" y="294.733969" style="stroke: #000000; stroke-width: 0.8"/>
      </g>
     </g>
     <g id="text_16">
      <!-- 60 -->
      <g transform="translate(232.3698 309.332406) scale(0.1 -0.1)">
       <use xlink:href="#DejaVuSerif-36"/>
       <use xlink:href="#DejaVuSerif-30" transform="translate(63.623047 0)"/>
      </g>
     </g>
    </g>
    <g id="xtick_12">
     <g id="line2d_45">
      <path d="M 303.0139 294.733969 
L 303.0139 175.53432 
" clip-path="url(#p0f17eb2d67)" style="fill: none; stroke-dasharray: 0.6,0.99; stroke-dashoffset: 0; stroke: #b0b0b0; stroke-width: 0.6"/>
     </g>
     <g id="line2d_46">
      <g>
       <use xlink:href="#m23acb45758" x="303.0139" y="294.733969" style="stroke: #000000; stroke-width: 0.8"/>
      </g>
     </g>
     <g id="text_17">
      <!-- 80 -->
      <g transform="translate(296.6514 309.332406) scale(0.1 -0.1)">
       <use xlink:href="#DejaVuSerif-38"/>
       <use xlink:href="#DejaVuSerif-30" transform="translate(63.623047 0)"/>
      </g>
     </g>
    </g>
    <g id="xtick_13">
     <g id="line2d_47">
      <path d="M 367.2955 294.733969 
L 367.2955 175.53432 
" clip-path="url(#p0f17eb2d67)" style="fill: none; stroke-dasharray: 0.6,0.99; stroke-dashoffset: 0; stroke: #b0b0b0; stroke-width: 0.6"/>
     </g>
     <g id="line2d_48">
      <g>
       <use xlink:href="#m23acb45758" x="367.2955" y="294.733969" style="stroke: #000000; stroke-width: 0.8"/>
      </g>
     </g>
     <g id="text_18">
      <!-- 100 -->
      <g transform="translate(357.75175 309.332406) scale(0.1 -0.1)">
       <use xlink:href="#DejaVuSerif-31"/>
       <use xlink:href="#DejaVuSerif-30" transform="translate(63.623047 0)"/>
       <use xlink:href="#DejaVuSerif-30" transform="translate(127.246094 0)"/>
      </g>
     </g>
    </g>
    <g id="xtick_14">
     <g id="line2d_49">
      <path d="M 431.5771 294.733969 
L 431.5771 175.53432 
" clip-path="url(#p0f17eb2d67)" style="fill: none; stroke-dasharray: 0.6,0.99; stroke-dashoffset: 0; stroke: #b0b0b0; stroke-width: 0.6"/>
     </g>
     <g id="line2d_50">
      <g>
       <use xlink:href="#m23acb45758" x="431.5771" y="294.733969" style="stroke: #000000; stroke-width: 0.8"/>
      </g>
     </g>
     <g id="text_19">
      <!-- 120 -->
      <g transform="translate(422.03335 309.332406) scale(0.1 -0.1)">
       <use xlink:href="#DejaVuSerif-31"/>
       <use xlink:href="#DejaVuSerif-32" transform="translate(63.623047 0)"/>
       <use xlink:href="#DejaVuSerif-30" transform="translate(127.246094 0)"/>
      </g>
     </g>
    </g>
    <g id="text_20">
     <!-- Time (ns) -->
     <g transform="translate(218.073438 324.530219) scale(0.12 -0.12)">
      <defs>
       <path id="DejaVuSerif-54" d="M 1222 0 
L 1222 331 
L 1819 331 
L 1819 4294 
L 447 4294 
L 447 3566 
L 63 3566 
L 63 4666 
L 4206 4666 
L 4206 3566 
L 3822 3566 
L 3822 4294 
L 2450 4294 
L 2450 331 
L 3047 331 
L 3047 0 
L 1222 0 
z
" transform="scale(0.015625)"/>
       <path id="DejaVuSerif-69" d="M 622 4353 
Q 622 4497 726 4603 
Q 831 4709 978 4709 
Q 1122 4709 1226 4603 
Q 1331 4497 1331 4353 
Q 1331 4206 1228 4103 
Q 1125 4000 978 4000 
Q 831 4000 726 4103 
Q 622 4206 622 4353 
z
M 1356 331 
L 1900 331 
L 1900 0 
L 231 0 
L 231 331 
L 781 331 
L 781 2988 
L 231 2988 
L 231 3322 
L 1356 3322 
L 1356 331 
z
" transform="scale(0.015625)"/>
       <path id="DejaVuSerif-6d" d="M 3316 2675 
Q 3481 3041 3739 3227 
Q 3997 3413 4341 3413 
Q 4863 3413 5119 3089 
Q 5375 2766 5375 2113 
L 5375 331 
L 5894 331 
L 5894 0 
L 4300 0 
L 4300 331 
L 4800 331 
L 4800 2047 
Q 4800 2556 4650 2772 
Q 4500 2988 4153 2988 
Q 3769 2988 3567 2697 
Q 3366 2406 3366 1850 
L 3366 331 
L 3866 331 
L 3866 0 
L 2291 0 
L 2291 331 
L 2791 331 
L 2791 2069 
Q 2791 2566 2641 2777 
Q 2491 2988 2144 2988 
Q 1759 2988 1557 2697 
Q 1356 2406 1356 1850 
L 1356 331 
L 1856 331 
L 1856 0 
L 263 0 
L 263 331 
L 781 331 
L 781 2994 
L 231 2994 
L 231 3322 
L 1356 3322 
L 1356 2731 
Q 1516 3063 1762 3238 
Q 2009 3413 2322 3413 
Q 2709 3413 2968 3220 
Q 3228 3028 3316 2675 
z
" transform="scale(0.015625)"/>
      </defs>
      <use xlink:href="#DejaVuSerif-54"/>
      <use xlink:href="#DejaVuSerif-69" transform="translate(66.699219 0)"/>
      <use xlink:href="#DejaVuSerif-6d" transform="translate(98.681641 0)"/>
      <use xlink:href="#DejaVuSerif-65" transform="translate(193.505859 0)"/>
      <use xlink:href="#DejaVuSerif-20" transform="translate(252.685547 0)"/>
      <use xlink:href="#DejaVuSerif-28" transform="translate(284.472656 0)"/>
      <use xlink:href="#DejaVuSerif-6e" transform="translate(323.486328 0)"/>
      <use xlink:href="#DejaVuSerif-73" transform="translate(387.890625 0)"/>
      <use xlink:href="#DejaVuSerif-29" transform="translate(439.208984 0)"/>
     </g>
    </g>
   </g>
   <g id="matplotlib.axis_4">
    <g id="ytick_6">
     <g id="line2d_51">
      <path d="M 45.8875 289.436207 
L 447.6475 289.436207 
" clip-path="url(#p0f17eb2d67)" style="fill: none; stroke-dasharray: 0.6,0.99; stroke-dashoffset: 0; stroke: #b0b0b0; stroke-width: 0.6"/>
     </g>
     <g id="line2d_52">
      <g>
       <use xlink:href="#m8288237dc3" x="45.8875" y="289.436207" style="stroke: #000000; stroke-width: 0.8"/>
      </g>
     </g>
     <g id="text_21">
      <!-- 0.0 -->
      <g transform="translate(22.984375 293.235425) scale(0.1 -0.1)">
       <use xlink:href="#DejaVuSerif-30"/>
       <use xlink:href="#DejaVuSerif-2e" transform="translate(63.623047 0)"/>
       <use xlink:href="#DejaVuSerif-30" transform="translate(95.410156 0)"/>
      </g>
     </g>
    </g>
    <g id="ytick_7">
     <g id="line2d_53">
      <path d="M 45.8875 262.947396 
L 447.6475 262.947396 
" clip-path="url(#p0f17eb2d67)" style="fill: none; stroke-dasharray: 0.6,0.99; stroke-dashoffset: 0; stroke: #b0b0b0; stroke-width: 0.6"/>
     </g>
     <g id="line2d_54">
      <g>
       <use xlink:href="#m8288237dc3" x="45.8875" y="262.947396" style="stroke: #000000; stroke-width: 0.8"/>
      </g>
     </g>
     <g id="text_22">
      <!-- 0.2 -->
      <g transform="translate(22.984375 266.746614) scale(0.1 -0.1)">
       <use xlink:href="#DejaVuSerif-30"/>
       <use xlink:href="#DejaVuSerif-2e" transform="translate(63.623047 0)"/>
       <use xlink:href="#DejaVuSerif-32" transform="translate(95.410156 0)"/>
      </g>
     </g>
    </g>
    <g id="ytick_8">
     <g id="line2d_55">
      <path d="M 45.8875 236.458585 
L 447.6475 236.458585 
" clip-path="url(#p0f17eb2d67)" style="fill: none; stroke-dasharray: 0.6,0.99; stroke-dashoffset: 0; stroke: #b0b0b0; stroke-width: 0.6"/>
     </g>
     <g id="line2d_56">
      <g>
       <use xlink:href="#m8288237dc3" x="45.8875" y="236.458585" style="stroke: #000000; stroke-width: 0.8"/>
      </g>
     </g>
     <g id="text_23">
      <!-- 0.4 -->
      <g transform="translate(22.984375 240.257804) scale(0.1 -0.1)">
       <use xlink:href="#DejaVuSerif-30"/>
       <use xlink:href="#DejaVuSerif-2e" transform="translate(63.623047 0)"/>
       <use xlink:href="#DejaVuSerif-34" transform="translate(95.410156 0)"/>
      </g>
     </g>
    </g>
    <g id="ytick_9">
     <g id="line2d_57">
      <path d="M 45.8875 209.969774 
L 447.6475 209.969774 
" clip-path="url(#p0f17eb2d67)" style="fill: none; stroke-dasharray: 0.6,0.99; stroke-dashoffset: 0; stroke: #b0b0b0; stroke-width: 0.6"/>
     </g>
     <g id="line2d_58">
      <g>
       <use xlink:href="#m8288237dc3" x="45.8875" y="209.969774" style="stroke: #000000; stroke-width: 0.8"/>
      </g>
     </g>
     <g id="text_24">
      <!-- 0.6 -->
      <g transform="translate(22.984375 213.768993) scale(0.1 -0.1)">
       <use xlink:href="#DejaVuSerif-30"/>
       <use xlink:href="#DejaVuSerif-2e" transform="translate(63.623047 0)"/>
       <use xlink:href="#DejaVuSerif-36" transform="translate(95.410156 0)"/>
      </g>
     </g>
    </g>
    <g id="ytick_10">
     <g id="line2d_59">
      <path d="M 45.8875 183.480963 
L 447.6475 183.480963 
" clip-path="url(#p0f17eb2d67)" style="fill: none; stroke-dasharray: 0.6,0.99; stroke-dashoffset: 0; stroke: #b0b0b0; stroke-width: 0.6"/>
     </g>
     <g id="line2d_60">
      <g>
       <use xlink:href="#m8288237dc3" x="45.8875" y="183.480963" style="stroke: #000000; stroke-width: 0.8"/>
      </g>
     </g>
     <g id="text_25">
      <!-- 0.8 -->
      <g transform="translate(22.984375 187.280182) scale(0.1 -0.1)">
       <use xlink:href="#DejaVuSerif-30"/>
       <use xlink:href="#DejaVuSerif-2e" transform="translate(63.623047 0)"/>
       <use xlink:href="#DejaVuSerif-38" transform="translate(95.410156 0)"/>
      </g>
     </g>
    </g>
    <g id="text_26">
     <!-- Voltage (V) -->
     <g transform="translate(16.318125 268.753832) rotate(-90) scale(0.12 -0.12)">
      <use xlink:href="#DejaVuSerif-56"/>
      <use xlink:href="#DejaVuSerif-6f" transform="translate(63.091797 0)"/>
      <use xlink:href="#DejaVuSerif-6c" transform="translate(123.296875 0)"/>
      <use xlink:href="#DejaVuSerif-74" transform="translate(155.279297 0)"/>
      <use xlink:href="#DejaVuSerif-61" transform="translate(195.464844 0)"/>
      <use xlink:href="#DejaVuSerif-67" transform="translate(255.083984 0)"/>
      <use xlink:href="#DejaVuSerif-65" transform="translate(319.097656 0)"/>
      <use xlink:href="#DejaVuSerif-20" transform="translate(378.277344 0)"/>
      <use xlink:href="#DejaVuSerif-28" transform="translate(410.064453 0)"/>
      <use xlink:href="#DejaVuSerif-56" transform="translate(449.078125 0)"/>
      <use xlink:href="#DejaVuSerif-29" transform="translate(521.294922 0)"/>
     </g>
    </g>
   </g>
   <g id="line2d_61">
    <path d="M 45.8875 289.436207 
L 78.136802 289.33401 
L 190.657733 183.480963 
L 287.003779 183.537739 
L 399.524709 289.436207 
L 447.6475 289.436207 
L 447.6475 289.436207 
" clip-path="url(#p0f17eb2d67)" style="fill: none; stroke: #378d94; stroke-width: 2.3; stroke-linecap: square"/>
   </g>
   <g id="line2d_62">
    <path d="M 45.8875 236.458585 
L 447.6475 236.458585 
L 447.6475 236.458585 
" clip-path="url(#p0f17eb2d67)" style="fill: none; stroke-dasharray: 7.4,3.2; stroke-dashoffset: 0; stroke: #6a408d; stroke-width: 2"/>
   </g>
   <g id="line2d_63">
    <path d="M 134.2747 294.733969 
L 134.2747 175.53432 
" clip-path="url(#p0f17eb2d67)" style="fill: none; stroke-dasharray: 3.7,1.6; stroke-dashoffset: 0; stroke: #6f6f6f"/>
   </g>
   <g id="line2d_64">
    <path d="M 343.1899 294.733969 
L 343.1899 175.53432 
" clip-path="url(#p0f17eb2d67)" style="fill: none; stroke-dasharray: 3.7,1.6; stroke-dashoffset: 0; stroke: #6f6f6f"/>
   </g>
   <g id="patch_6">
    <path d="M 45.8875 294.733969 
L 45.8875 175.53432 
" style="fill: none; stroke: #000000; stroke-linejoin: miter; stroke-linecap: square"/>
   </g>
   <g id="patch_7">
    <path d="M 45.8875 294.733969 
L 447.6475 294.733969 
" style="fill: none; stroke: #000000; stroke-linejoin: miter; stroke-linecap: square"/>
   </g>
   <g id="text_27">
    <!-- rising crossing -->
    <g style="fill: #6f6f6f" transform="translate(132.4972 232.485263) rotate(-90) scale(0.08 -0.08)">
     <defs>
      <path id="DejaVuSerif-72" d="M 3059 3328 
L 3059 2497 
L 2728 2497 
Q 2713 2744 2591 2866 
Q 2469 2988 2234 2988 
Q 1809 2988 1582 2694 
Q 1356 2400 1356 1850 
L 1356 331 
L 2022 331 
L 2022 0 
L 263 0 
L 263 331 
L 781 331 
L 781 2994 
L 231 2994 
L 231 3322 
L 1356 3322 
L 1356 2731 
Q 1525 3078 1790 3245 
Q 2056 3413 2438 3413 
Q 2578 3413 2733 3391 
Q 2888 3369 3059 3328 
z
" transform="scale(0.015625)"/>
      <path id="DejaVuSerif-63" d="M 3291 997 
Q 3169 466 2822 187 
Q 2475 -91 1925 -91 
Q 1200 -91 759 389 
Q 319 869 319 1663 
Q 319 2459 759 2936 
Q 1200 3413 1925 3413 
Q 2241 3413 2553 3339 
Q 2866 3266 3181 3116 
L 3181 2266 
L 2847 2266 
Q 2781 2703 2561 2903 
Q 2341 3103 1931 3103 
Q 1466 3103 1228 2742 
Q 991 2381 991 1663 
Q 991 944 1227 581 
Q 1463 219 1931 219 
Q 2303 219 2525 412 
Q 2747 606 2828 997 
L 3291 997 
z
" transform="scale(0.015625)"/>
     </defs>
     <use xlink:href="#DejaVuSerif-72"/>
     <use xlink:href="#DejaVuSerif-69" transform="translate(47.802734 0)"/>
     <use xlink:href="#DejaVuSerif-73" transform="translate(79.785156 0)"/>
     <use xlink:href="#DejaVuSerif-69" transform="translate(131.103516 0)"/>
     <use xlink:href="#DejaVuSerif-6e" transform="translate(163.085938 0)"/>
     <use xlink:href="#DejaVuSerif-67" transform="translate(227.490234 0)"/>
     <use xlink:href="#DejaVuSerif-20" transform="translate(291.503906 0)"/>
     <use xlink:href="#DejaVuSerif-63" transform="translate(323.291016 0)"/>
     <use xlink:href="#DejaVuSerif-72" transform="translate(379.296875 0)"/>
     <use xlink:href="#DejaVuSerif-6f" transform="translate(427.099609 0)"/>
     <use xlink:href="#DejaVuSerif-73" transform="translate(487.304688 0)"/>
     <use xlink:href="#DejaVuSerif-73" transform="translate(538.623047 0)"/>
     <use xlink:href="#DejaVuSerif-69" transform="translate(589.941406 0)"/>
     <use xlink:href="#DejaVuSerif-6e" transform="translate(621.923828 0)"/>
     <use xlink:href="#DejaVuSerif-67" transform="translate(686.328125 0)"/>
    </g>
   </g>
   <g id="text_28">
    <!-- falling crossing -->
    <g style="fill: #6f6f6f" transform="translate(341.4124 232.485263) rotate(-90) scale(0.08 -0.08)">
     <defs>
      <path id="DejaVuSerif-66" d="M 2753 4078 
L 2450 4078 
Q 2447 4313 2317 4434 
Q 2188 4556 1941 4556 
Q 1619 4556 1487 4379 
Q 1356 4203 1356 3750 
L 1356 3322 
L 2284 3322 
L 2284 2988 
L 1356 2988 
L 1356 331 
L 2094 331 
L 2094 0 
L 231 0 
L 231 331 
L 781 331 
L 781 2988 
L 231 2988 
L 231 3322 
L 781 3322 
L 781 3738 
Q 781 4294 1070 4578 
Q 1359 4863 1919 4863 
Q 2128 4863 2337 4825 
Q 2547 4788 2753 4709 
L 2753 4078 
z
" transform="scale(0.015625)"/>
     </defs>
     <use xlink:href="#DejaVuSerif-66"/>
     <use xlink:href="#DejaVuSerif-61" transform="translate(37.011719 0)"/>
     <use xlink:href="#DejaVuSerif-6c" transform="translate(96.630859 0)"/>
     <use xlink:href="#DejaVuSerif-6c" transform="translate(128.613281 0)"/>
     <use xlink:href="#DejaVuSerif-69" transform="translate(160.595703 0)"/>
     <use xlink:href="#DejaVuSerif-6e" transform="translate(192.578125 0)"/>
     <use xlink:href="#DejaVuSerif-67" transform="translate(256.982422 0)"/>
     <use xlink:href="#DejaVuSerif-20" transform="translate(320.996094 0)"/>
     <use xlink:href="#DejaVuSerif-63" transform="translate(352.783203 0)"/>
     <use xlink:href="#DejaVuSerif-72" transform="translate(408.789062 0)"/>
     <use xlink:href="#DejaVuSerif-6f" transform="translate(456.591797 0)"/>
     <use xlink:href="#DejaVuSerif-73" transform="translate(516.796875 0)"/>
     <use xlink:href="#DejaVuSerif-73" transform="translate(568.115234 0)"/>
     <use xlink:href="#DejaVuSerif-69" transform="translate(619.433594 0)"/>
     <use xlink:href="#DejaVuSerif-6e" transform="translate(651.416016 0)"/>
     <use xlink:href="#DejaVuSerif-67" transform="translate(715.820312 0)"/>
    </g>
   </g>
   <g id="legend_2">
    <g id="line2d_65">
     <path d="M 463.7827 227.862426 
L 472.7827 227.862426 
L 481.7827 227.862426 
" style="fill: none; stroke: #378d94; stroke-width: 2.3; stroke-linecap: square"/>
    </g>
    <g id="text_29">
     <!-- v(vin) -->
     <g transform="translate(488.9827 231.012426) scale(0.09 -0.09)">
      <use xlink:href="#DejaVuSerif-76"/>
      <use xlink:href="#DejaVuSerif-28" transform="translate(56.494141 0)"/>
      <use xlink:href="#DejaVuSerif-76" transform="translate(95.507812 0)"/>
      <use xlink:href="#DejaVuSerif-69" transform="translate(152.001953 0)"/>
      <use xlink:href="#DejaVuSerif-6e" transform="translate(183.984375 0)"/>
      <use xlink:href="#DejaVuSerif-29" transform="translate(248.388672 0)"/>
     </g>
    </g>
    <g id="line2d_66">
     <path d="M 463.7827 241.072738 
L 472.7827 241.072738 
L 481.7827 241.072738 
" style="fill: none; stroke-dasharray: 7.4,3.2; stroke-dashoffset: 0; stroke: #6a408d; stroke-width: 2"/>
    </g>
    <g id="text_30">
     <!-- v(vref) = 0.4 V -->
     <g transform="translate(488.9827 244.222738) scale(0.09 -0.09)">
      <defs>
       <path id="DejaVuSerif-3d" d="M 678 2894 
L 4684 2894 
L 4684 2394 
L 678 2394 
L 678 2894 
z
M 678 1619 
L 4684 1619 
L 4684 1119 
L 678 1119 
L 678 1619 
z
" transform="scale(0.015625)"/>
      </defs>
      <use xlink:href="#DejaVuSerif-76"/>
      <use xlink:href="#DejaVuSerif-28" transform="translate(56.494141 0)"/>
      <use xlink:href="#DejaVuSerif-76" transform="translate(95.507812 0)"/>
      <use xlink:href="#DejaVuSerif-72" transform="translate(152.001953 0)"/>
      <use xlink:href="#DejaVuSerif-65" transform="translate(199.804688 0)"/>
      <use xlink:href="#DejaVuSerif-66" transform="translate(258.984375 0)"/>
      <use xlink:href="#DejaVuSerif-29" transform="translate(295.996094 0)"/>
      <use xlink:href="#DejaVuSerif-20" transform="translate(335.009766 0)"/>
      <use xlink:href="#DejaVuSerif-3d" transform="translate(366.796875 0)"/>
      <use xlink:href="#DejaVuSerif-20" transform="translate(450.585938 0)"/>
      <use xlink:href="#DejaVuSerif-30" transform="translate(482.373047 0)"/>
      <use xlink:href="#DejaVuSerif-2e" transform="translate(545.996094 0)"/>
      <use xlink:href="#DejaVuSerif-34" transform="translate(577.783203 0)"/>
      <use xlink:href="#DejaVuSerif-20" transform="translate(641.40625 0)"/>
      <use xlink:href="#DejaVuSerif-56" transform="translate(673.193359 0)"/>
     </g>
    </g>
   </g>
  </g>
 </g>
 <defs>
  <clipPath id="p25f4af170c">
   <rect x="45.8875" y="23.077969" width="401.76" height="137.079596"/>
  </clipPath>
  <clipPath id="p0f17eb2d67">
   <rect x="45.8875" y="175.53432" width="401.76" height="119.199649"/>
  </clipPath>
 </defs>
</svg>
