<?xml version="1.0" encoding="utf-8" standalone="no"?>
<!DOCTYPE svg PUBLIC "-//W3C//DTD SVG 1.1//EN"
  "http://www.w3.org/Graphics/SVG/1.1/DTD/svg11.dtd">
<svg xmlns:xlink="http://www.w3.org/1999/xlink" width="588.867625pt" height="406.297844pt" viewBox="0 0 588.867625 406.297844" xmlns="http://www.w3.org/2000/svg" version="1.1">
 <metadata>
  <rdf:RDF xmlns:dc="http://purl.org/dc/elements/1.1/" xmlns:cc="http://creativecommons.org/ns#" xmlns:rdf="http://www.w3.org/1999/02/22-rdf-syntax-ns#">
   <cc:Work>
    <dc:type rdf:resource="http://purl.org/dc/dcmitype/StillImage"/>
    <dc:date>2026-06-17T10:23:31.491417</dc:date>
    <dc:format>image/svg+xml</dc:format>
    <dc:creator>
     <cc:Agent>
      <dc:title>Matplotlib v3.10.0, https://matplotlib.org/</dc:title>
     </cc:Agent>
    </dc:creator>
   </cc:Work>
  </rdf:RDF>
 </metadata>
 <defs>
  <style type="text/css">*{stroke-linejoin: round; stroke-linecap: butt}</style>
 </defs>
 <g id="figure_1">
  <g id="patch_1">
   <path d="M 0 406.297844 
L 588.867625 406.297844 
L 588.867625 0 
L 0 0 
z
" style="fill: #ffffff"/>
  </g>
  <g id="axes_1">
   <g id="patch_2">
    <path d="M 45.8875 149.448557 
L 436.4875 149.448557 
L 436.4875 23.077969 
L 45.8875 23.077969 
z
" style="fill: #ffffff"/>
   </g>
   <g id="matplotlib.axis_1">
    <g id="xtick_1">
     <g id="line2d_1">
      <path d="M 45.8875 149.448557 
L 45.8875 23.077969 
" clip-path="url(#padb07fe77b)" style="fill: none; stroke-dasharray: 0.6,0.99; stroke-dashoffset: 0; stroke: #b0b0b0; stroke-width: 0.6"/>
     </g>
     <g id="line2d_2">
      <defs>
       <path id="mf30deb6c57" d="M 0 0 
L 0 3.5 
" style="stroke: #000000; stroke-width: 0.8"/>
      </defs>
      <g>
       <use xlink:href="#mf30deb6c57" x="45.8875" y="149.448557" style="stroke: #000000; stroke-width: 0.8"/>
      </g>
     </g>
    </g>
    <g id="xtick_2">
     <g id="line2d_3">
      <path d="M 94.7125 149.448557 
L 94.7125 23.077969 
" clip-path="url(#padb07fe77b)" style="fill: none; stroke-dasharray: 0.6,0.99; stroke-dashoffset: 0; stroke: #b0b0b0; stroke-width: 0.6"/>
     </g>
     <g id="line2d_4">
      <g>
       <use xlink:href="#mf30deb6c57" x="94.7125" y="149.448557" style="stroke: #000000; stroke-width: 0.8"/>
      </g>
     </g>
    </g>
    <g id="xtick_3">
     <g id="line2d_5">
      <path d="M 143.5375 149.448557 
L 143.5375 23.077969 
" clip-path="url(#padb07fe77b)" style="fill: none; stroke-dasharray: 0.6,0.99; stroke-dashoffset: 0; stroke: #b0b0b0; stroke-width: 0.6"/>
     </g>
     <g id="line2d_6">
      <g>
       <use xlink:href="#mf30deb6c57" x="143.5375" y="149.448557" style="stroke: #000000; stroke-width: 0.8"/>
      </g>
     </g>
    </g>
    <g id="xtick_4">
     <g id="line2d_7">
      <path d="M 192.3625 149.448557 
L 192.3625 23.077969 
" clip-path="url(#padb07fe77b)" style="fill: none; stroke-dasharray: 0.6,0.99; stroke-dashoffset: 0; stroke: #b0b0b0; stroke-width: 0.6"/>
     </g>
     <g id="line2d_8">
      <g>
       <use xlink:href="#mf30deb6c57" x="192.3625" y="149.448557" style="stroke: #000000; stroke-width: 0.8"/>
      </g>
     </g>
    </g>
    <g id="xtick_5">
     <g id="line2d_9">
      <path d="M 241.1875 149.448557 
L 241.1875 23.077969 
" clip-path="url(#padb07fe77b)" style="fill: none; stroke-dasharray: 0.6,0.99; stroke-dashoffset: 0; stroke: #b0b0b0; stroke-width: 0.6"/>
     </g>
     <g id="line2d_10">
      <g>
       <use xlink:href="#mf30deb6c57" x="241.1875" y="149.448557" style="stroke: #000000; stroke-width: 0.8"/>
      </g>
     </g>
    </g>
    <g id="xtick_6">
     <g id="line2d_11">
      <path d="M 290.0125 149.448557 
L 290.0125 23.077969 
" clip-path="url(#padb07fe77b)" style="fill: none; stroke-dasharray: 0.6,0.99; stroke-dashoffset: 0; stroke: #b0b0b0; stroke-width: 0.6"/>
     </g>
     <g id="line2d_12">
      <g>
       <use xlink:href="#mf30deb6c57" x="290.0125" y="149.448557" style="stroke: #000000; stroke-width: 0.8"/>
      </g>
     </g>
    </g>
    <g id="xtick_7">
     <g id="line2d_13">
      <path d="M 338.8375 149.448557 
L 338.8375 23.077969 
" clip-path="url(#padb07fe77b)" style="fill: none; stroke-dasharray: 0.6,0.99; stroke-dashoffset: 0; stroke: #b0b0b0; stroke-width: 0.6"/>
     </g>
     <g id="line2d_14">
      <g>
       <use xlink:href="#mf30deb6c57" x="338.8375" y="149.448557" style="stroke: #000000; stroke-width: 0.8"/>
      </g>
     </g>
    </g>
    <g id="xtick_8">
     <g id="line2d_15">
      <path d="M 387.6625 149.448557 
L 387.6625 23.077969 
" clip-path="url(#padb07fe77b)" style="fill: none; stroke-dasharray: 0.6,0.99; stroke-dashoffset: 0; stroke: #b0b0b0; stroke-width: 0.6"/>
     </g>
     <g id="line2d_16">
      <g>
       <use xlink:href="#mf30deb6c57" x="387.6625" y="149.448557" style="stroke: #000000; stroke-width: 0.8"/>
      </g>
     </g>
    </g>
    <g id="xtick_9">
     <g id="line2d_17">
      <path d="M 436.4875 149.448557 
L 436.4875 23.077969 
" clip-path="url(#padb07fe77b)" style="fill: none; stroke-dasharray: 0.6,0.99; stroke-dashoffset: 0; stroke: #b0b0b0; stroke-width: 0.6"/>
     </g>
     <g id="line2d_18">
      <g>
       <use xlink:href="#mf30deb6c57" x="436.4875" y="149.448557" style="stroke: #000000; stroke-width: 0.8"/>
      </g>
     </g>
    </g>
   </g>
   <g id="matplotlib.axis_2">
    <g id="ytick_1">
     <g id="line2d_19">
      <path d="M 45.8875 117.193127 
L 436.4875 117.193127 
" clip-path="url(#padb07fe77b)" style="fill: none; stroke-dasharray: 0.6,0.99; stroke-dashoffset: 0; stroke: #b0b0b0; stroke-width: 0.6"/>
     </g>
     <g id="line2d_20">
      <defs>
       <path id="m1fdf0f7298" d="M 0 0 
L -3.5 0 
" style="stroke: #000000; stroke-width: 0.8"/>
      </defs>
      <g>
       <use xlink:href="#m1fdf0f7298" x="45.8875" y="117.193127" style="stroke: #000000; stroke-width: 0.8"/>
      </g>
     </g>
     <g id="text_1">
      <!-- 0.2 -->
      <g transform="translate(22.984375 120.992346) scale(0.1 -0.1)">
       <defs>
        <path id="DejaVuSerif-30" d="M 2034 219 
Q 2513 219 2750 744 
Q 2988 1269 2988 2328 
Q 2988 3391 2750 3916 
Q 2513 4441 2034 4441 
Q 1556 4441 1318 3916 
Q 1081 3391 1081 2328 
Q 1081 1269 1318 744 
Q 1556 219 2034 219 
z
M 2034 -91 
Q 1275 -91 848 546 
Q 422 1184 422 2328 
Q 422 3475 848 4112 
Q 1275 4750 2034 4750 
Q 2797 4750 3222 4112 
Q 3647 3475 3647 2328 
Q 3647 1184 3222 546 
Q 2797 -91 2034 -91 
z
" transform="scale(0.015625)"/>
        <path id="DejaVuSerif-2e" d="M 603 325 
Q 603 500 722 622 
Q 841 744 1019 744 
Q 1191 744 1312 622 
Q 1434 500 1434 325 
Q 1434 153 1312 31 
Q 1191 -91 1019 -91 
Q 841 -91 722 29 
Q 603 150 603 325 
z
" transform="scale(0.015625)"/>
        <path id="DejaVuSerif-32" d="M 819 3553 
L 469 3553 
L 469 4384 
Q 803 4563 1142 4656 
Q 1481 4750 1806 4750 
Q 2534 4750 2956 4397 
Q 3378 4044 3378 3438 
Q 3378 2753 2422 1800 
Q 2347 1728 2309 1691 
L 1131 513 
L 3078 513 
L 3078 1088 
L 3444 1088 
L 3444 0 
L 434 0 
L 434 341 
L 1850 1753 
Q 2319 2222 2519 2614 
Q 2719 3006 2719 3438 
Q 2719 3909 2473 4175 
Q 2228 4441 1797 4441 
Q 1350 4441 1106 4219 
Q 863 3997 819 3553 
z
" transform="scale(0.015625)"/>
       </defs>
       <use xlink:href="#DejaVuSerif-30"/>
       <use xlink:href="#DejaVuSerif-2e" transform="translate(63.623047 0)"/>
       <use xlink:href="#DejaVuSerif-32" transform="translate(95.410156 0)"/>
      </g>
     </g>
    </g>
    <g id="ytick_2">
     <g id="line2d_21">
      <path d="M 45.8875 81.844711 
L 436.4875 81.844711 
" clip-path="url(#padb07fe77b)" style="fill: none; stroke-dasharray: 0.6,0.99; stroke-dashoffset: 0; stroke: #b0b0b0; stroke-width: 0.6"/>
     </g>
     <g id="line2d_22">
      <g>
       <use xlink:href="#m1fdf0f7298" x="45.8875" y="81.844711" style="stroke: #000000; stroke-width: 0.8"/>
      </g>
     </g>
     <g id="text_2">
      <!-- 0.4 -->
      <g transform="translate(22.984375 85.64393) scale(0.1 -0.1)">
       <defs>
        <path id="DejaVuSerif-34" d="M 2234 1581 
L 2234 4063 
L 641 1581 
L 2234 1581 
z
M 3609 0 
L 1484 0 
L 1484 331 
L 2234 331 
L 2234 1247 
L 197 1247 
L 197 1588 
L 2241 4750 
L 2859 4750 
L 2859 1581 
L 3750 1581 
L 3750 1247 
L 2859 1247 
L 2859 331 
L 3609 331 
L 3609 0 
z
" transform="scale(0.015625)"/>
       </defs>
       <use xlink:href="#DejaVuSerif-30"/>
       <use xlink:href="#DejaVuSerif-2e" transform="translate(63.623047 0)"/>
       <use xlink:href="#DejaVuSerif-34" transform="translate(95.410156 0)"/>
      </g>
     </g>
    </g>
    <g id="ytick_3">
     <g id="line2d_23">
      <path d="M 45.8875 46.496295 
L 436.4875 46.496295 
" clip-path="url(#padb07fe77b)" style="fill: none; stroke-dasharray: 0.6,0.99; stroke-dashoffset: 0; stroke: #b0b0b0; stroke-width: 0.6"/>
     </g>
     <g id="line2d_24">
      <g>
       <use xlink:href="#m1fdf0f7298" x="45.8875" y="46.496295" style="stroke: #000000; stroke-width: 0.8"/>
      </g>
     </g>
     <g id="text_3">
      <!-- 0.6 -->
      <g transform="translate(22.984375 50.295513) scale(0.1 -0.1)">
       <defs>
        <path id="DejaVuSerif-36" d="M 2094 219 
Q 2534 219 2771 542 
Q 3009 866 3009 1472 
Q 3009 2078 2771 2401 
Q 2534 2725 2094 2725 
Q 1647 2725 1412 2412 
Q 1178 2100 1178 1509 
Q 1178 888 1415 553 
Q 1653 219 2094 219 
z
M 1075 2569 
Q 1288 2803 1556 2918 
Q 1825 3034 2163 3034 
Q 2859 3034 3264 2615 
Q 3669 2197 3669 1472 
Q 3669 763 3233 336 
Q 2797 -91 2069 -91 
Q 1278 -91 853 498 
Q 428 1088 428 2181 
Q 428 3406 931 4078 
Q 1434 4750 2350 4750 
Q 2597 4750 2869 4703 
Q 3141 4656 3425 4563 
L 3425 3794 
L 3072 3794 
Q 3034 4109 2831 4275 
Q 2628 4441 2284 4441 
Q 1678 4441 1381 3981 
Q 1084 3522 1075 2569 
z
" transform="scale(0.015625)"/>
       </defs>
       <use xlink:href="#DejaVuSerif-30"/>
       <use xlink:href="#DejaVuSerif-2e" transform="translate(63.623047 0)"/>
       <use xlink:href="#DejaVuSerif-36" transform="translate(95.410156 0)"/>
      </g>
     </g>
    </g>
    <g id="text_4">
     <!-- Voltage (V) -->
     <g transform="translate(16.318125 119.88295) rotate(-90) scale(0.12 -0.12)">
      <defs>
       <path id="DejaVuSerif-56" d="M 1119 4331 
L 2497 750 
L 3872 4331 
L 3347 4331 
L 3347 4666 
L 4716 4666 
L 4716 4331 
L 4263 4331 
L 2597 0 
L 2059 0 
L 403 4331 
L -63 4331 
L -63 4666 
L 1638 4666 
L 1638 4331 
L 1119 4331 
z
" transform="scale(0.015625)"/>
       <path id="DejaVuSerif-6f" d="M 1925 219 
Q 2388 219 2623 584 
Q 2859 950 2859 1663 
Q 2859 2375 2623 2739 
Q 2388 3103 1925 3103 
Q 1463 3103 1227 2739 
Q 991 2375 991 1663 
Q 991 950 1228 584 
Q 1466 219 1925 219 
z
M 1925 -91 
Q 1200 -91 759 389 
Q 319 869 319 1663 
Q 319 2456 758 2934 
Q 1197 3413 1925 3413 
Q 2653 3413 3092 2934 
Q 3531 2456 3531 1663 
Q 3531 869 3092 389 
Q 2653 -91 1925 -91 
z
" transform="scale(0.015625)"/>
       <path id="DejaVuSerif-6c" d="M 1313 331 
L 1856 331 
L 1856 0 
L 184 0 
L 184 331 
L 738 331 
L 738 4531 
L 184 4531 
L 184 4863 
L 1313 4863 
L 1313 331 
z
" transform="scale(0.015625)"/>
       <path id="DejaVuSerif-74" d="M 691 2988 
L 184 2988 
L 184 3322 
L 691 3322 
L 691 4353 
L 1269 4353 
L 1269 3322 
L 2350 3322 
L 2350 2988 
L 1269 2988 
L 1269 878 
Q 1269 456 1350 337 
Q 1431 219 1650 219 
Q 1875 219 1978 351 
Q 2081 484 2088 781 
L 2522 781 
Q 2497 328 2275 118 
Q 2053 -91 1600 -91 
Q 1103 -91 897 129 
Q 691 350 691 878 
L 691 2988 
z
" transform="scale(0.015625)"/>
       <path id="DejaVuSerif-61" d="M 2547 1044 
L 2547 1747 
L 1806 1747 
Q 1378 1747 1168 1562 
Q 959 1378 959 997 
Q 959 650 1171 447 
Q 1384 244 1747 244 
Q 2106 244 2326 466 
Q 2547 688 2547 1044 
z
M 3122 2075 
L 3122 331 
L 3634 331 
L 3634 0 
L 2547 0 
L 2547 359 
Q 2356 128 2106 18 
Q 1856 -91 1522 -91 
Q 969 -91 644 203 
Q 319 497 319 997 
Q 319 1513 691 1797 
Q 1063 2081 1741 2081 
L 2547 2081 
L 2547 2309 
Q 2547 2688 2317 2895 
Q 2088 3103 1672 3103 
Q 1328 3103 1125 2947 
Q 922 2791 872 2484 
L 575 2484 
L 575 3156 
Q 875 3284 1158 3348 
Q 1441 3413 1709 3413 
Q 2400 3413 2761 3070 
Q 3122 2728 3122 2075 
z
" transform="scale(0.015625)"/>
       <path id="DejaVuSerif-67" d="M 3359 2988 
L 3359 72 
Q 3359 -644 2965 -1033 
Q 2572 -1422 1844 -1422 
Q 1516 -1422 1216 -1362 
Q 916 -1303 641 -1184 
L 641 -488 
L 941 -488 
Q 997 -813 1206 -963 
Q 1416 -1113 1806 -1113 
Q 2313 -1113 2548 -827 
Q 2784 -541 2784 72 
L 2784 519 
Q 2616 206 2355 57 
Q 2094 -91 1709 -91 
Q 1097 -91 708 395 
Q 319 881 319 1663 
Q 319 2444 706 2928 
Q 1094 3413 1709 3413 
Q 2094 3413 2355 3264 
Q 2616 3116 2784 2803 
L 2784 3322 
L 3909 3322 
L 3909 2988 
L 3359 2988 
z
M 2784 1825 
Q 2784 2422 2554 2737 
Q 2325 3053 1888 3053 
Q 1444 3053 1217 2703 
Q 991 2353 991 1663 
Q 991 975 1217 622 
Q 1444 269 1888 269 
Q 2325 269 2554 583 
Q 2784 897 2784 1497 
L 2784 1825 
z
" transform="scale(0.015625)"/>
       <path id="DejaVuSerif-65" d="M 3469 1600 
L 991 1600 
L 991 1575 
Q 991 903 1244 561 
Q 1497 219 1991 219 
Q 2369 219 2611 417 
Q 2853 616 2950 1006 
L 3413 1006 
Q 3275 459 2904 184 
Q 2534 -91 1931 -91 
Q 1203 -91 761 389 
Q 319 869 319 1663 
Q 319 2450 753 2931 
Q 1188 3413 1894 3413 
Q 2647 3413 3050 2948 
Q 3453 2484 3469 1600 
z
M 2791 1931 
Q 2772 2513 2545 2808 
Q 2319 3103 1894 3103 
Q 1497 3103 1269 2806 
Q 1041 2509 991 1931 
L 2791 1931 
z
" transform="scale(0.015625)"/>
       <path id="DejaVuSerif-20" transform="scale(0.015625)"/>
       <path id="DejaVuSerif-28" d="M 2041 -997 
Q 1281 -656 893 83 
Q 506 822 506 1931 
Q 506 3044 893 3783 
Q 1281 4522 2041 4863 
L 2041 4556 
Q 1559 4225 1350 3623 
Q 1141 3022 1141 1931 
Q 1141 844 1350 242 
Q 1559 -359 2041 -691 
L 2041 -997 
z
" transform="scale(0.015625)"/>
       <path id="DejaVuSerif-29" d="M 453 -997 
L 453 -691 
Q 934 -359 1145 242 
Q 1356 844 1356 1931 
Q 1356 3022 1145 3623 
Q 934 4225 453 4556 
L 453 4863 
Q 1216 4522 1603 3783 
Q 1991 3044 1991 1931 
Q 1991 822 1603 83 
Q 1216 -656 453 -997 
z
" transform="scale(0.015625)"/>
      </defs>
      <use xlink:href="#DejaVuSerif-56"/>
      <use xlink:href="#DejaVuSerif-6f" transform="translate(63.091797 0)"/>
      <use xlink:href="#DejaVuSerif-6c" transform="translate(123.296875 0)"/>
      <use xlink:href="#DejaVuSerif-74" transform="translate(155.279297 0)"/>
      <use xlink:href="#DejaVuSerif-61" transform="translate(195.464844 0)"/>
      <use xlink:href="#DejaVuSerif-67" transform="translate(255.083984 0)"/>
      <use xlink:href="#DejaVuSerif-65" transform="translate(319.097656 0)"/>
      <use xlink:href="#DejaVuSerif-20" transform="translate(378.277344 0)"/>
      <use xlink:href="#DejaVuSerif-28" transform="translate(410.064453 0)"/>
      <use xlink:href="#DejaVuSerif-56" transform="translate(449.078125 0)"/>
      <use xlink:href="#DejaVuSerif-29" transform="translate(521.294922 0)"/>
     </g>
    </g>
   </g>
   <g id="line2d_25">
    <path d="M 45.8875 28.822086 
L 94.7125 32.356928 
L 143.5375 35.89177 
L 192.3625 41.194032 
L 241.1875 46.496295 
L 290.0125 51.798557 
L 338.8375 60.635661 
L 363.25 67.705344 
L 387.6625 81.844711 
L 407.1925 108.356023 
L 436.4875 131.332494 
" clip-path="url(#padb07fe77b)" style="fill: none; stroke: #6a408d; stroke-width: 2; stroke-linecap: square"/>
    <defs>
     <path id="m926171afd7" d="M 0 1.9 
C 0.503886 1.9 0.987202 1.699804 1.343503 1.343503 
C 1.699804 0.987202 1.9 0.503886 1.9 0 
C 1.9 -0.503886 1.699804 -0.987202 1.343503 -1.343503 
C 0.987202 -1.699804 0.503886 -1.9 0 -1.9 
C -0.503886 -1.9 -0.987202 -1.699804 -1.343503 -1.343503 
C -1.699804 -0.987202 -1.9 -0.503886 -1.9 0 
C -1.9 0.503886 -1.699804 0.987202 -1.343503 1.343503 
C -0.987202 1.699804 -0.503886 1.9 0 1.9 
z
" style="stroke: #6a408d"/>
    </defs>
    <g clip-path="url(#padb07fe77b)">
     <use xlink:href="#m926171afd7" x="45.8875" y="28.822086" style="fill: #6a408d; stroke: #6a408d"/>
     <use xlink:href="#m926171afd7" x="143.5375" y="35.89177" style="fill: #6a408d; stroke: #6a408d"/>
     <use xlink:href="#m926171afd7" x="241.1875" y="46.496295" style="fill: #6a408d; stroke: #6a408d"/>
     <use xlink:href="#m926171afd7" x="338.8375" y="60.635661" style="fill: #6a408d; stroke: #6a408d"/>
     <use xlink:href="#m926171afd7" x="387.6625" y="81.844711" style="fill: #6a408d; stroke: #6a408d"/>
     <use xlink:href="#m926171afd7" x="436.4875" y="131.332494" style="fill: #6a408d; stroke: #6a408d"/>
    </g>
   </g>
   <g id="line2d_26">
    <path d="M 45.8875 35.89177 
L 94.7125 41.194032 
L 143.5375 46.496295 
L 192.3625 53.565978 
L 241.1875 60.635661 
L 290.0125 69.472765 
L 338.8375 88.914394 
L 363.25 99.518919 
L 387.6625 113.658285 
L 407.1925 126.030231 
L 436.4875 134.867335 
" clip-path="url(#padb07fe77b)" style="fill: none; stroke-dasharray: 7.4,3.2; stroke-dashoffset: 0; stroke: #9671bd; stroke-width: 2"/>
    <defs>
     <path id="md2ec42ed38" d="M -1.9 1.9 
L 1.9 1.9 
L 1.9 -1.9 
L -1.9 -1.9 
z
" style="stroke: #9671bd; stroke-linejoin: miter"/>
    </defs>
    <g clip-path="url(#padb07fe77b)">
     <use xlink:href="#md2ec42ed38" x="45.8875" y="35.89177" style="fill: #9671bd; stroke: #9671bd; stroke-linejoin: miter"/>
     <use xlink:href="#md2ec42ed38" x="143.5375" y="46.496295" style="fill: #9671bd; stroke: #9671bd; stroke-linejoin: miter"/>
     <use xlink:href="#md2ec42ed38" x="241.1875" y="60.635661" style="fill: #9671bd; stroke: #9671bd; stroke-linejoin: miter"/>
     <use xlink:href="#md2ec42ed38" x="338.8375" y="88.914394" style="fill: #9671bd; stroke: #9671bd; stroke-linejoin: miter"/>
     <use xlink:href="#md2ec42ed38" x="387.6625" y="113.658285" style="fill: #9671bd; stroke: #9671bd; stroke-linejoin: miter"/>
     <use xlink:href="#md2ec42ed38" x="436.4875" y="134.867335" style="fill: #9671bd; stroke: #9671bd; stroke-linejoin: miter"/>
    </g>
   </g>
   <g id="line2d_27">
    <path d="M 45.8875 50.031136 
L 94.7125 58.86824 
L 143.5375 69.472765 
L 192.3625 80.07729 
L 241.1875 92.449236 
L 290.0125 101.28634 
L 338.8375 113.658285 
L 363.25 120.727969 
L 387.6625 127.797652 
L 407.1925 134.867335 
L 436.4875 140.169598 
" clip-path="url(#padb07fe77b)" style="fill: none; stroke-dasharray: 12.8,3.2,2,3.2; stroke-dashoffset: 0; stroke: #378d94; stroke-width: 2"/>
    <defs>
     <path id="m54261d0ca6" d="M -0 2.687006 
L 2.687006 0 
L 0 -2.687006 
L -2.687006 -0 
z
" style="stroke: #378d94; stroke-linejoin: miter"/>
    </defs>
    <g clip-path="url(#padb07fe77b)">
     <use xlink:href="#m54261d0ca6" x="45.8875" y="50.031136" style="fill: #378d94; stroke: #378d94; stroke-linejoin: miter"/>
     <use xlink:href="#m54261d0ca6" x="143.5375" y="69.472765" style="fill: #378d94; stroke: #378d94; stroke-linejoin: miter"/>
     <use xlink:href="#m54261d0ca6" x="241.1875" y="92.449236" style="fill: #378d94; stroke: #378d94; stroke-linejoin: miter"/>
     <use xlink:href="#m54261d0ca6" x="338.8375" y="113.658285" style="fill: #378d94; stroke: #378d94; stroke-linejoin: miter"/>
     <use xlink:href="#m54261d0ca6" x="387.6625" y="127.797652" style="fill: #378d94; stroke: #378d94; stroke-linejoin: miter"/>
     <use xlink:href="#m54261d0ca6" x="436.4875" y="140.169598" style="fill: #378d94; stroke: #378d94; stroke-linejoin: miter"/>
    </g>
   </g>
   <g id="line2d_28">
    <path d="M 45.8875 55.333399 
L 94.7125 71.240186 
L 143.5375 85.379552 
L 192.3625 97.751498 
L 241.1875 108.356023 
L 290.0125 117.193127 
L 338.8375 126.030231 
L 363.25 131.332494 
L 387.6625 134.867335 
L 407.1925 138.402177 
L 436.4875 141.937019 
" clip-path="url(#padb07fe77b)" style="fill: none; stroke-dasharray: 2,3.3; stroke-dashoffset: 0; stroke: #77b5b6; stroke-width: 2"/>
    <defs>
     <path id="mc400be8e06" d="M 0 -1.9 
L -1.9 1.9 
L 1.9 1.9 
z
" style="stroke: #77b5b6; stroke-linejoin: miter"/>
    </defs>
    <g clip-path="url(#padb07fe77b)">
     <use xlink:href="#mc400be8e06" x="45.8875" y="55.333399" style="fill: #77b5b6; stroke: #77b5b6; stroke-linejoin: miter"/>
     <use xlink:href="#mc400be8e06" x="143.5375" y="85.379552" style="fill: #77b5b6; stroke: #77b5b6; stroke-linejoin: miter"/>
     <use xlink:href="#mc400be8e06" x="241.1875" y="108.356023" style="fill: #77b5b6; stroke: #77b5b6; stroke-linejoin: miter"/>
     <use xlink:href="#mc400be8e06" x="338.8375" y="126.030231" style="fill: #77b5b6; stroke: #77b5b6; stroke-linejoin: miter"/>
     <use xlink:href="#mc400be8e06" x="387.6625" y="134.867335" style="fill: #77b5b6; stroke: #77b5b6; stroke-linejoin: miter"/>
     <use xlink:href="#mc400be8e06" x="436.4875" y="141.937019" style="fill: #77b5b6; stroke: #77b5b6; stroke-linejoin: miter"/>
    </g>
   </g>
   <g id="line2d_29">
    <path d="M 45.8875 67.705344 
L 94.7125 83.612132 
L 143.5375 97.751498 
L 192.3625 108.356023 
L 241.1875 115.425706 
L 290.0125 122.49539 
L 338.8375 129.565073 
L 363.25 133.099914 
L 387.6625 136.634756 
L 407.1925 140.169598 
L 436.4875 143.704439 
" clip-path="url(#padb07fe77b)" style="fill: none; stroke: #e69f00; stroke-width: 2; stroke-linecap: square"/>
    <defs>
     <path id="m473de4577e" d="M -0 1.9 
L 1.9 -1.9 
L -1.9 -1.9 
z
" style="stroke: #e69f00; stroke-linejoin: miter"/>
    </defs>
    <g clip-path="url(#padb07fe77b)">
     <use xlink:href="#m473de4577e" x="45.8875" y="67.705344" style="fill: #e69f00; stroke: #e69f00; stroke-linejoin: miter"/>
     <use xlink:href="#m473de4577e" x="143.5375" y="97.751498" style="fill: #e69f00; stroke: #e69f00; stroke-linejoin: miter"/>
     <use xlink:href="#m473de4577e" x="241.1875" y="115.425706" style="fill: #e69f00; stroke: #e69f00; stroke-linejoin: miter"/>
     <use xlink:href="#m473de4577e" x="338.8375" y="129.565073" style="fill: #e69f00; stroke: #e69f00; stroke-linejoin: miter"/>
     <use xlink:href="#m473de4577e" x="387.6625" y="136.634756" style="fill: #e69f00; stroke: #e69f00; stroke-linejoin: miter"/>
     <use xlink:href="#m473de4577e" x="436.4875" y="143.704439" style="fill: #e69f00; stroke: #e69f00; stroke-linejoin: miter"/>
    </g>
   </g>
   <g id="patch_3">
    <path d="M 45.8875 149.448557 
L 45.8875 23.077969 
" style="fill: none; stroke: #000000; stroke-linejoin: miter; stroke-linecap: square"/>
   </g>
   <g id="patch_4">
    <path d="M 45.8875 149.448557 
L 436.4875 149.448557 
" style="fill: none; stroke: #000000; stroke-linejoin: miter; stroke-linecap: square"/>
   </g>
   <g id="text_5">
    <!-- Corner-Dependent Internal Voltages and Digital State -->
    <g transform="translate(63.362734 17.077969) scale(0.13 -0.13)">
     <defs>
      <path id="DejaVuSerif-43" d="M 4513 1234 
Q 4306 581 3820 245 
Q 3334 -91 2591 -91 
Q 2134 -91 1743 65 
Q 1353 222 1050 525 
Q 700 875 529 1320 
Q 359 1766 359 2328 
Q 359 3416 987 4083 
Q 1616 4750 2644 4750 
Q 3025 4750 3456 4650 
Q 3888 4550 4384 4347 
L 4384 3272 
L 4031 3272 
Q 3916 3859 3567 4137 
Q 3219 4416 2591 4416 
Q 1844 4416 1459 3886 
Q 1075 3356 1075 2328 
Q 1075 1303 1459 773 
Q 1844 244 2591 244 
Q 3113 244 3450 492 
Q 3788 741 3938 1234 
L 4513 1234 
z
" transform="scale(0.015625)"/>
      <path id="DejaVuSerif-72" d="M 3059 3328 
L 3059 2497 
L 2728 2497 
Q 2713 2744 2591 2866 
Q 2469 2988 2234 2988 
Q 1809 2988 1582 2694 
Q 1356 2400 1356 1850 
L 1356 331 
L 2022 331 
L 2022 0 
L 263 0 
L 263 331 
L 781 331 
L 781 2994 
L 231 2994 
L 231 3322 
L 1356 3322 
L 1356 2731 
Q 1525 3078 1790 3245 
Q 2056 3413 2438 3413 
Q 2578 3413 2733 3391 
Q 2888 3369 3059 3328 
z
" transform="scale(0.015625)"/>
      <path id="DejaVuSerif-6e" d="M 263 0 
L 263 331 
L 781 331 
L 781 2988 
L 231 2988 
L 231 3322 
L 1356 3322 
L 1356 2731 
Q 1516 3069 1770 3241 
Q 2025 3413 2363 3413 
Q 2913 3413 3172 3097 
Q 3431 2781 3431 2113 
L 3431 331 
L 3944 331 
L 3944 0 
L 2356 0 
L 2356 331 
L 2853 331 
L 2853 1931 
Q 2853 2541 2703 2767 
Q 2553 2994 2175 2994 
Q 1775 2994 1565 2701 
Q 1356 2409 1356 1850 
L 1356 331 
L 1856 331 
L 1856 0 
L 263 0 
z
" transform="scale(0.015625)"/>
      <path id="DejaVuSerif-2d" d="M 281 1959 
L 1881 1959 
L 1881 1472 
L 281 1472 
L 281 1959 
z
" transform="scale(0.015625)"/>
      <path id="DejaVuSerif-44" d="M 1581 331 
L 2163 331 
Q 3072 331 3558 850 
Q 4044 1369 4044 2338 
Q 4044 3306 3559 3818 
Q 3075 4331 2163 4331 
L 1581 4331 
L 1581 331 
z
M 353 0 
L 353 331 
L 947 331 
L 947 4331 
L 353 4331 
L 353 4666 
L 2209 4666 
Q 3416 4666 4089 4050 
Q 4763 3434 4763 2338 
Q 4763 1238 4088 619 
Q 3413 0 2209 0 
L 353 0 
z
" transform="scale(0.015625)"/>
      <path id="DejaVuSerif-70" d="M 1313 1825 
L 1313 1497 
Q 1313 897 1542 583 
Q 1772 269 2209 269 
Q 2650 269 2876 622 
Q 3103 975 3103 1663 
Q 3103 2353 2876 2703 
Q 2650 3053 2209 3053 
Q 1772 3053 1542 2737 
Q 1313 2422 1313 1825 
z
M 738 2988 
L 184 2988 
L 184 3322 
L 1313 3322 
L 1313 2803 
Q 1481 3116 1742 3264 
Q 2003 3413 2388 3413 
Q 3000 3413 3387 2928 
Q 3775 2444 3775 1663 
Q 3775 881 3387 395 
Q 3000 -91 2388 -91 
Q 2003 -91 1742 57 
Q 1481 206 1313 519 
L 1313 -997 
L 1856 -997 
L 1856 -1331 
L 184 -1331 
L 184 -997 
L 738 -997 
L 738 2988 
z
" transform="scale(0.015625)"/>
      <path id="DejaVuSerif-64" d="M 3359 331 
L 3909 331 
L 3909 0 
L 2784 0 
L 2784 519 
Q 2616 206 2355 57 
Q 2094 -91 1709 -91 
Q 1097 -91 708 395 
Q 319 881 319 1663 
Q 319 2444 706 2928 
Q 1094 3413 1709 3413 
Q 2094 3413 2355 3264 
Q 2616 3116 2784 2803 
L 2784 4531 
L 2241 4531 
L 2241 4863 
L 3359 4863 
L 3359 331 
z
M 2784 1497 
L 2784 1825 
Q 2784 2422 2554 2737 
Q 2325 3053 1888 3053 
Q 1444 3053 1217 2703 
Q 991 2353 991 1663 
Q 991 975 1217 622 
Q 1444 269 1888 269 
Q 2325 269 2554 583 
Q 2784 897 2784 1497 
z
" transform="scale(0.015625)"/>
      <path id="DejaVuSerif-49" d="M 1581 331 
L 2175 331 
L 2175 0 
L 353 0 
L 353 331 
L 947 331 
L 947 4331 
L 353 4331 
L 353 4666 
L 2175 4666 
L 2175 4331 
L 1581 4331 
L 1581 331 
z
" transform="scale(0.015625)"/>
      <path id="DejaVuSerif-73" d="M 359 184 
L 359 959 
L 691 959 
Q 703 588 923 403 
Q 1144 219 1575 219 
Q 1963 219 2166 364 
Q 2369 509 2369 788 
Q 2369 1006 2220 1140 
Q 2072 1275 1594 1428 
L 1178 1569 
Q 750 1706 558 1912 
Q 366 2119 366 2438 
Q 366 2894 700 3153 
Q 1034 3413 1625 3413 
Q 1888 3413 2178 3344 
Q 2469 3275 2778 3144 
L 2778 2419 
L 2447 2419 
Q 2434 2741 2221 2922 
Q 2009 3103 1644 3103 
Q 1281 3103 1095 2975 
Q 909 2847 909 2591 
Q 909 2381 1050 2254 
Q 1191 2128 1613 1997 
L 2069 1856 
Q 2541 1709 2748 1489 
Q 2956 1269 2956 922 
Q 2956 450 2595 179 
Q 2234 -91 1600 -91 
Q 1278 -91 972 -22 
Q 666 47 359 184 
z
" transform="scale(0.015625)"/>
      <path id="DejaVuSerif-69" d="M 622 4353 
Q 622 4497 726 4603 
Q 831 4709 978 4709 
Q 1122 4709 1226 4603 
Q 1331 4497 1331 4353 
Q 1331 4206 1228 4103 
Q 1125 4000 978 4000 
Q 831 4000 726 4103 
Q 622 4206 622 4353 
z
M 1356 331 
L 1900 331 
L 1900 0 
L 231 0 
L 231 331 
L 781 331 
L 781 2988 
L 231 2988 
L 231 3322 
L 1356 3322 
L 1356 331 
z
" transform="scale(0.015625)"/>
      <path id="DejaVuSerif-53" d="M 594 225 
L 594 1288 
L 953 1284 
Q 969 753 1261 498 
Q 1553 244 2150 244 
Q 2706 244 2998 464 
Q 3291 684 3291 1106 
Q 3291 1444 3114 1625 
Q 2938 1806 2369 1978 
L 1753 2163 
Q 1084 2366 811 2669 
Q 538 2972 538 3500 
Q 538 4094 959 4422 
Q 1381 4750 2144 4750 
Q 2469 4750 2856 4679 
Q 3244 4609 3681 4475 
L 3681 3481 
L 3328 3481 
Q 3275 3975 2998 4195 
Q 2722 4416 2156 4416 
Q 1663 4416 1405 4214 
Q 1147 4013 1147 3628 
Q 1147 3294 1340 3103 
Q 1534 2913 2163 2725 
L 2741 2553 
Q 3375 2363 3645 2067 
Q 3916 1772 3916 1275 
Q 3916 597 3481 253 
Q 3047 -91 2188 -91 
Q 1803 -91 1404 -12 
Q 1006 66 594 225 
z
" transform="scale(0.015625)"/>
     </defs>
     <use xlink:href="#DejaVuSerif-43"/>
     <use xlink:href="#DejaVuSerif-6f" transform="translate(76.513672 0)"/>
     <use xlink:href="#DejaVuSerif-72" transform="translate(136.71875 0)"/>
     <use xlink:href="#DejaVuSerif-6e" transform="translate(184.521484 0)"/>
     <use xlink:href="#DejaVuSerif-65" transform="translate(248.925781 0)"/>
     <use xlink:href="#DejaVuSerif-72" transform="translate(308.105469 0)"/>
     <use xlink:href="#DejaVuSerif-2d" transform="translate(355.908203 0)"/>
     <use xlink:href="#DejaVuSerif-44" transform="translate(389.697266 0)"/>
     <use xlink:href="#DejaVuSerif-65" transform="translate(469.873047 0)"/>
     <use xlink:href="#DejaVuSerif-70" transform="translate(529.052734 0)"/>
     <use xlink:href="#DejaVuSerif-65" transform="translate(593.066406 0)"/>
     <use xlink:href="#DejaVuSerif-6e" transform="translate(652.246094 0)"/>
     <use xlink:href="#DejaVuSerif-64" transform="translate(716.650391 0)"/>
     <use xlink:href="#DejaVuSerif-65" transform="translate(780.664062 0)"/>
     <use xlink:href="#DejaVuSerif-6e" transform="translate(839.84375 0)"/>
     <use xlink:href="#DejaVuSerif-74" transform="translate(904.248047 0)"/>
     <use xlink:href="#DejaVuSerif-20" transform="translate(944.433594 0)"/>
     <use xlink:href="#DejaVuSerif-49" transform="translate(976.220703 0)"/>
     <use xlink:href="#DejaVuSerif-6e" transform="translate(1015.722656 0)"/>
     <use xlink:href="#DejaVuSerif-74" transform="translate(1080.126953 0)"/>
     <use xlink:href="#DejaVuSerif-65" transform="translate(1120.3125 0)"/>
     <use xlink:href="#DejaVuSerif-72" transform="translate(1179.492188 0)"/>
     <use xlink:href="#DejaVuSerif-6e" transform="translate(1227.294922 0)"/>
     <use xlink:href="#DejaVuSerif-61" transform="translate(1291.699219 0)"/>
     <use xlink:href="#DejaVuSerif-6c" transform="translate(1351.318359 0)"/>
     <use xlink:href="#DejaVuSerif-20" transform="translate(1383.300781 0)"/>
     <use xlink:href="#DejaVuSerif-56" transform="translate(1415.087891 0)"/>
     <use xlink:href="#DejaVuSerif-6f" transform="translate(1478.179688 0)"/>
     <use xlink:href="#DejaVuSerif-6c" transform="translate(1538.384766 0)"/>
     <use xlink:href="#DejaVuSerif-74" transform="translate(1570.367188 0)"/>
     <use xlink:href="#DejaVuSerif-61" transform="translate(1610.552734 0)"/>
     <use xlink:href="#DejaVuSerif-67" transform="translate(1670.171875 0)"/>
     <use xlink:href="#DejaVuSerif-65" transform="translate(1734.185547 0)"/>
     <use xlink:href="#DejaVuSerif-73" transform="translate(1793.365234 0)"/>
     <use xlink:href="#DejaVuSerif-20" transform="translate(1844.683594 0)"/>
     <use xlink:href="#DejaVuSerif-61" transform="translate(1876.470703 0)"/>
     <use xlink:href="#DejaVuSerif-6e" transform="translate(1936.089844 0)"/>
     <use xlink:href="#DejaVuSerif-64" transform="translate(2000.494141 0)"/>
     <use xlink:href="#DejaVuSerif-20" transform="translate(2064.507812 0)"/>
     <use xlink:href="#DejaVuSerif-44" transform="translate(2096.294922 0)"/>
     <use xlink:href="#DejaVuSerif-69" transform="translate(2176.470703 0)"/>
     <use xlink:href="#DejaVuSerif-67" transform="translate(2208.453125 0)"/>
     <use xlink:href="#DejaVuSerif-69" transform="translate(2272.466797 0)"/>
     <use xlink:href="#DejaVuSerif-74" transform="translate(2304.449219 0)"/>
     <use xlink:href="#DejaVuSerif-61" transform="translate(2344.634766 0)"/>
     <use xlink:href="#DejaVuSerif-6c" transform="translate(2404.253906 0)"/>
     <use xlink:href="#DejaVuSerif-20" transform="translate(2436.236328 0)"/>
     <use xlink:href="#DejaVuSerif-53" transform="translate(2468.023438 0)"/>
     <use xlink:href="#DejaVuSerif-74" transform="translate(2536.529297 0)"/>
     <use xlink:href="#DejaVuSerif-61" transform="translate(2576.714844 0)"/>
     <use xlink:href="#DejaVuSerif-74" transform="translate(2636.333984 0)"/>
     <use xlink:href="#DejaVuSerif-65" transform="translate(2676.519531 0)"/>
    </g>
   </g>
   <g id="legend_1">
    <g id="line2d_30">
     <path d="M 452.3995 59.176075 
L 461.3995 59.176075 
L 470.3995 59.176075 
" style="fill: none; stroke: #6a408d; stroke-width: 2; stroke-linecap: square"/>
     <g>
      <use xlink:href="#m926171afd7" x="461.3995" y="59.176075" style="fill: #6a408d; stroke: #6a408d"/>
     </g>
    </g>
    <g id="text_6">
     <!-- v(t&lt;0&gt;) = 120 m -->
     <g transform="translate(477.5995 62.326075) scale(0.09 -0.09)">
      <defs>
       <path id="DejaVuSerif-76" d="M 1581 0 
L 359 2988 
L -19 2988 
L -19 3322 
L 1509 3322 
L 1509 2988 
L 978 2988 
L 1913 703 
L 2847 2988 
L 2350 2988 
L 2350 3322 
L 3597 3322 
L 3597 2988 
L 3225 2988 
L 2003 0 
L 1581 0 
z
" transform="scale(0.015625)"/>
       <path id="DejaVuSerif-3c" d="M 4684 3188 
L 1441 2003 
L 4684 825 
L 4684 294 
L 678 1747 
L 678 2266 
L 4684 3719 
L 4684 3188 
z
" transform="scale(0.015625)"/>
       <path id="DejaVuSerif-3e" d="M 678 3188 
L 678 3719 
L 4684 2266 
L 4684 1747 
L 678 294 
L 678 825 
L 3922 2003 
L 678 3188 
z
" transform="scale(0.015625)"/>
       <path id="DejaVuSerif-3d" d="M 678 2894 
L 4684 2894 
L 4684 2394 
L 678 2394 
L 678 2894 
z
M 678 1619 
L 4684 1619 
L 4684 1119 
L 678 1119 
L 678 1619 
z
" transform="scale(0.015625)"/>
       <path id="DejaVuSerif-31" d="M 909 0 
L 909 331 
L 1722 331 
L 1722 4213 
L 781 3603 
L 781 4013 
L 1919 4750 
L 2350 4750 
L 2350 331 
L 3163 331 
L 3163 0 
L 909 0 
z
" transform="scale(0.015625)"/>
       <path id="DejaVuSerif-6d" d="M 3316 2675 
Q 3481 3041 3739 3227 
Q 3997 3413 4341 3413 
Q 4863 3413 5119 3089 
Q 5375 2766 5375 2113 
L 5375 331 
L 5894 331 
L 5894 0 
L 4300 0 
L 4300 331 
L 4800 331 
L 4800 2047 
Q 4800 2556 4650 2772 
Q 4500 2988 4153 2988 
Q 3769 2988 3567 2697 
Q 3366 2406 3366 1850 
L 3366 331 
L 3866 331 
L 3866 0 
L 2291 0 
L 2291 331 
L 2791 331 
L 2791 2069 
Q 2791 2566 2641 2777 
Q 2491 2988 2144 2988 
Q 1759 2988 1557 2697 
Q 1356 2406 1356 1850 
L 1356 331 
L 1856 331 
L 1856 0 
L 263 0 
L 263 331 
L 781 331 
L 781 2994 
L 231 2994 
L 231 3322 
L 1356 3322 
L 1356 2731 
Q 1516 3063 1762 3238 
Q 2009 3413 2322 3413 
Q 2709 3413 2968 3220 
Q 3228 3028 3316 2675 
z
" transform="scale(0.015625)"/>
      </defs>
      <use xlink:href="#DejaVuSerif-76"/>
      <use xlink:href="#DejaVuSerif-28" transform="translate(56.494141 0)"/>
      <use xlink:href="#DejaVuSerif-74" transform="translate(95.507812 0)"/>
      <use xlink:href="#DejaVuSerif-3c" transform="translate(135.693359 0)"/>
      <use xlink:href="#DejaVuSerif-30" transform="translate(219.482422 0)"/>
      <use xlink:href="#DejaVuSerif-3e" transform="translate(283.105469 0)"/>
      <use xlink:href="#DejaVuSerif-29" transform="translate(366.894531 0)"/>
      <use xlink:href="#DejaVuSerif-20" transform="translate(405.908203 0)"/>
      <use xlink:href="#DejaVuSerif-3d" transform="translate(437.695312 0)"/>
      <use xlink:href="#DejaVuSerif-20" transform="translate(521.484375 0)"/>
      <use xlink:href="#DejaVuSerif-31" transform="translate(553.271484 0)"/>
      <use xlink:href="#DejaVuSerif-32" transform="translate(616.894531 0)"/>
      <use xlink:href="#DejaVuSerif-30" transform="translate(680.517578 0)"/>
      <use xlink:href="#DejaVuSerif-20" transform="translate(744.140625 0)"/>
      <use xlink:href="#DejaVuSerif-6d" transform="translate(775.927734 0)"/>
     </g>
    </g>
    <g id="line2d_31">
     <path d="M 452.3995 72.386388 
L 461.3995 72.386388 
L 470.3995 72.386388 
" style="fill: none; stroke-dasharray: 7.4,3.2; stroke-dashoffset: 0; stroke: #9671bd; stroke-width: 2"/>
     <g>
      <use xlink:href="#md2ec42ed38" x="461.3995" y="72.386388" style="fill: #9671bd; stroke: #9671bd; stroke-linejoin: miter"/>
     </g>
    </g>
    <g id="text_7">
     <!-- v(t&lt;1&gt;) = 89.7 m -->
     <g transform="translate(477.5995 75.536388) scale(0.09 -0.09)">
      <defs>
       <path id="DejaVuSerif-38" d="M 2981 1275 
Q 2981 1775 2732 2051 
Q 2484 2328 2034 2328 
Q 1584 2328 1336 2051 
Q 1088 1775 1088 1275 
Q 1088 772 1336 495 
Q 1584 219 2034 219 
Q 2484 219 2732 495 
Q 2981 772 2981 1275 
z
M 2853 3541 
Q 2853 3966 2637 4203 
Q 2422 4441 2034 4441 
Q 1650 4441 1433 4203 
Q 1216 3966 1216 3541 
Q 1216 3113 1433 2875 
Q 1650 2638 2034 2638 
Q 2422 2638 2637 2875 
Q 2853 3113 2853 3541 
z
M 2516 2484 
Q 3047 2413 3344 2092 
Q 3641 1772 3641 1275 
Q 3641 619 3225 264 
Q 2809 -91 2034 -91 
Q 1263 -91 845 264 
Q 428 619 428 1275 
Q 428 1772 725 2092 
Q 1022 2413 1556 2484 
Q 1084 2569 832 2842 
Q 581 3116 581 3541 
Q 581 4103 968 4426 
Q 1356 4750 2034 4750 
Q 2713 4750 3100 4426 
Q 3488 4103 3488 3541 
Q 3488 3116 3236 2842 
Q 2984 2569 2516 2484 
z
" transform="scale(0.015625)"/>
       <path id="DejaVuSerif-39" d="M 2994 2091 
Q 2784 1856 2512 1740 
Q 2241 1625 1900 1625 
Q 1206 1625 804 2044 
Q 403 2463 403 3188 
Q 403 3897 839 4323 
Q 1275 4750 2003 4750 
Q 2794 4750 3217 4161 
Q 3641 3572 3641 2478 
Q 3641 1253 3137 581 
Q 2634 -91 1722 -91 
Q 1475 -91 1203 -44 
Q 931 3 647 97 
L 647 872 
L 997 872 
Q 1038 556 1241 387 
Q 1444 219 1784 219 
Q 2391 219 2687 676 
Q 2984 1134 2994 2091 
z
M 1978 4441 
Q 1534 4441 1298 4117 
Q 1063 3794 1063 3188 
Q 1063 2581 1298 2256 
Q 1534 1931 1978 1931 
Q 2422 1931 2658 2245 
Q 2894 2559 2894 3150 
Q 2894 3772 2656 4106 
Q 2419 4441 1978 4441 
z
" transform="scale(0.015625)"/>
       <path id="DejaVuSerif-37" d="M 3609 4347 
L 1784 0 
L 1319 0 
L 3059 4153 
L 903 4153 
L 903 3578 
L 538 3578 
L 538 4666 
L 3609 4666 
L 3609 4347 
z
" transform="scale(0.015625)"/>
      </defs>
      <use xlink:href="#DejaVuSerif-76"/>
      <use xlink:href="#DejaVuSerif-28" transform="translate(56.494141 0)"/>
      <use xlink:href="#DejaVuSerif-74" transform="translate(95.507812 0)"/>
      <use xlink:href="#DejaVuSerif-3c" transform="translate(135.693359 0)"/>
      <use xlink:href="#DejaVuSerif-31" transform="translate(219.482422 0)"/>
      <use xlink:href="#DejaVuSerif-3e" transform="translate(283.105469 0)"/>
      <use xlink:href="#DejaVuSerif-29" transform="translate(366.894531 0)"/>
      <use xlink:href="#DejaVuSerif-20" transform="translate(405.908203 0)"/>
      <use xlink:href="#DejaVuSerif-3d" transform="translate(437.695312 0)"/>
      <use xlink:href="#DejaVuSerif-20" transform="translate(521.484375 0)"/>
      <use xlink:href="#DejaVuSerif-38" transform="translate(553.271484 0)"/>
      <use xlink:href="#DejaVuSerif-39" transform="translate(616.894531 0)"/>
      <use xlink:href="#DejaVuSerif-2e" transform="translate(680.517578 0)"/>
      <use xlink:href="#DejaVuSerif-37" transform="translate(712.304688 0)"/>
      <use xlink:href="#DejaVuSerif-20" transform="translate(775.927734 0)"/>
      <use xlink:href="#DejaVuSerif-6d" transform="translate(807.714844 0)"/>
     </g>
    </g>
    <g id="line2d_32">
     <path d="M 452.3995 85.5967 
L 461.3995 85.5967 
L 470.3995 85.5967 
" style="fill: none; stroke-dasharray: 12.8,3.2,2,3.2; stroke-dashoffset: 0; stroke: #378d94; stroke-width: 2"/>
     <g>
      <use xlink:href="#m54261d0ca6" x="461.3995" y="85.5967" style="fill: #378d94; stroke: #378d94; stroke-linejoin: miter"/>
     </g>
    </g>
    <g id="text_8">
     <!-- v(t&lt;2&gt;) = 70 m -->
     <g transform="translate(477.5995 88.7467) scale(0.09 -0.09)">
      <use xlink:href="#DejaVuSerif-76"/>
      <use xlink:href="#DejaVuSerif-28" transform="translate(56.494141 0)"/>
      <use xlink:href="#DejaVuSerif-74" transform="translate(95.507812 0)"/>
      <use xlink:href="#DejaVuSerif-3c" transform="translate(135.693359 0)"/>
      <use xlink:href="#DejaVuSerif-32" transform="translate(219.482422 0)"/>
      <use xlink:href="#DejaVuSerif-3e" transform="translate(283.105469 0)"/>
      <use xlink:href="#DejaVuSerif-29" transform="translate(366.894531 0)"/>
      <use xlink:href="#DejaVuSerif-20" transform="translate(405.908203 0)"/>
      <use xlink:href="#DejaVuSerif-3d" transform="translate(437.695312 0)"/>
      <use xlink:href="#DejaVuSerif-20" transform="translate(521.484375 0)"/>
      <use xlink:href="#DejaVuSerif-37" transform="translate(553.271484 0)"/>
      <use xlink:href="#DejaVuSerif-30" transform="translate(616.894531 0)"/>
      <use xlink:href="#DejaVuSerif-20" transform="translate(680.517578 0)"/>
      <use xlink:href="#DejaVuSerif-6d" transform="translate(712.304688 0)"/>
     </g>
    </g>
    <g id="line2d_33">
     <path d="M 452.3995 98.807013 
L 461.3995 98.807013 
L 470.3995 98.807013 
" style="fill: none; stroke-dasharray: 2,3.3; stroke-dashoffset: 0; stroke: #77b5b6; stroke-width: 2"/>
     <g>
      <use xlink:href="#mc400be8e06" x="461.3995" y="98.807013" style="fill: #77b5b6; stroke: #77b5b6; stroke-linejoin: miter"/>
     </g>
    </g>
    <g id="text_9">
     <!-- v(t&lt;3&gt;) = 53.3 m -->
     <g transform="translate(477.5995 101.957013) scale(0.09 -0.09)">
      <defs>
       <path id="DejaVuSerif-33" d="M 622 4469 
Q 988 4606 1323 4678 
Q 1659 4750 1953 4750 
Q 2638 4750 3022 4454 
Q 3406 4159 3406 3634 
Q 3406 3213 3140 2930 
Q 2875 2647 2388 2547 
Q 2963 2466 3280 2130 
Q 3597 1794 3597 1259 
Q 3597 606 3158 257 
Q 2719 -91 1894 -91 
Q 1528 -91 1179 -12 
Q 831 66 488 225 
L 488 1131 
L 838 1131 
Q 869 681 1141 450 
Q 1413 219 1906 219 
Q 2384 219 2661 495 
Q 2938 772 2938 1253 
Q 2938 1803 2653 2086 
Q 2369 2369 1819 2369 
L 1522 2369 
L 1522 2688 
L 1678 2688 
Q 2225 2688 2498 2914 
Q 2772 3141 2772 3597 
Q 2772 4006 2547 4223 
Q 2322 4441 1900 4441 
Q 1478 4441 1245 4241 
Q 1013 4041 972 3647 
L 622 3647 
L 622 4469 
z
" transform="scale(0.015625)"/>
       <path id="DejaVuSerif-35" d="M 3219 4666 
L 3219 4153 
L 1081 4153 
L 1081 2816 
Q 1244 2928 1461 2984 
Q 1678 3041 1947 3041 
Q 2703 3041 3140 2622 
Q 3578 2203 3578 1478 
Q 3578 738 3136 323 
Q 2694 -91 1894 -91 
Q 1572 -91 1234 -12 
Q 897 66 544 225 
L 544 1131 
L 897 1131 
Q 925 688 1179 453 
Q 1434 219 1894 219 
Q 2388 219 2653 544 
Q 2919 869 2919 1478 
Q 2919 2084 2655 2407 
Q 2391 2731 1894 2731 
Q 1613 2731 1398 2631 
Q 1184 2531 1019 2322 
L 750 2322 
L 750 4666 
L 3219 4666 
z
" transform="scale(0.015625)"/>
      </defs>
      <use xlink:href="#DejaVuSerif-76"/>
      <use xlink:href="#DejaVuSerif-28" transform="translate(56.494141 0)"/>
      <use xlink:href="#DejaVuSerif-74" transform="translate(95.507812 0)"/>
      <use xlink:href="#DejaVuSerif-3c" transform="translate(135.693359 0)"/>
      <use xlink:href="#DejaVuSerif-33" transform="translate(219.482422 0)"/>
      <use xlink:href="#DejaVuSerif-3e" transform="translate(283.105469 0)"/>
      <use xlink:href="#DejaVuSerif-29" transform="translate(366.894531 0)"/>
      <use xlink:href="#DejaVuSerif-20" transform="translate(405.908203 0)"/>
      <use xlink:href="#DejaVuSerif-3d" transform="translate(437.695312 0)"/>
      <use xlink:href="#DejaVuSerif-20" transform="translate(521.484375 0)"/>
      <use xlink:href="#DejaVuSerif-35" transform="translate(553.271484 0)"/>
      <use xlink:href="#DejaVuSerif-33" transform="translate(616.894531 0)"/>
      <use xlink:href="#DejaVuSerif-2e" transform="translate(680.517578 0)"/>
      <use xlink:href="#DejaVuSerif-33" transform="translate(712.304688 0)"/>
      <use xlink:href="#DejaVuSerif-20" transform="translate(775.927734 0)"/>
      <use xlink:href="#DejaVuSerif-6d" transform="translate(807.714844 0)"/>
     </g>
    </g>
    <g id="line2d_34">
     <path d="M 452.3995 112.017325 
L 461.3995 112.017325 
L 470.3995 112.017325 
" style="fill: none; stroke: #e69f00; stroke-width: 2; stroke-linecap: square"/>
     <g>
      <use xlink:href="#m473de4577e" x="461.3995" y="112.017325" style="fill: #e69f00; stroke: #e69f00; stroke-linejoin: miter"/>
     </g>
    </g>
    <g id="text_10">
     <!-- v(t&lt;4&gt;) = 36.3 m -->
     <g transform="translate(477.5995 115.167325) scale(0.09 -0.09)">
      <use xlink:href="#DejaVuSerif-76"/>
      <use xlink:href="#DejaVuSerif-28" transform="translate(56.494141 0)"/>
      <use xlink:href="#DejaVuSerif-74" transform="translate(95.507812 0)"/>
      <use xlink:href="#DejaVuSerif-3c" transform="translate(135.693359 0)"/>
      <use xlink:href="#DejaVuSerif-34" transform="translate(219.482422 0)"/>
      <use xlink:href="#DejaVuSerif-3e" transform="translate(283.105469 0)"/>
      <use xlink:href="#DejaVuSerif-29" transform="translate(366.894531 0)"/>
      <use xlink:href="#DejaVuSerif-20" transform="translate(405.908203 0)"/>
      <use xlink:href="#DejaVuSerif-3d" transform="translate(437.695312 0)"/>
      <use xlink:href="#DejaVuSerif-20" transform="translate(521.484375 0)"/>
      <use xlink:href="#DejaVuSerif-33" transform="translate(553.271484 0)"/>
      <use xlink:href="#DejaVuSerif-36" transform="translate(616.894531 0)"/>
      <use xlink:href="#DejaVuSerif-2e" transform="translate(680.517578 0)"/>
      <use xlink:href="#DejaVuSerif-33" transform="translate(712.304688 0)"/>
      <use xlink:href="#DejaVuSerif-20" transform="translate(775.927734 0)"/>
      <use xlink:href="#DejaVuSerif-6d" transform="translate(807.714844 0)"/>
     </g>
    </g>
   </g>
  </g>
  <g id="axes_2">
   <g id="patch_5">
    <path d="M 45.8875 255.787067 
L 436.4875 255.787067 
L 436.4875 162.179224 
L 45.8875 162.179224 
z
" style="fill: #ffffff"/>
   </g>
   <g id="matplotlib.axis_3">
    <g id="xtick_10">
     <g id="line2d_35">
      <path d="M 45.8875 255.787067 
L 45.8875 162.179224 
" clip-path="url(#pfc02c52a10)" style="fill: none; stroke-dasharray: 0.6,0.99; stroke-dashoffset: 0; stroke: #b0b0b0; stroke-width: 0.6"/>
     </g>
     <g id="line2d_36">
      <g>
       <use xlink:href="#mf30deb6c57" x="45.8875" y="255.787067" style="stroke: #000000; stroke-width: 0.8"/>
      </g>
     </g>
    </g>
    <g id="xtick_11">
     <g id="line2d_37">
      <path d="M 94.7125 255.787067 
L 94.7125 162.179224 
" clip-path="url(#pfc02c52a10)" style="fill: none; stroke-dasharray: 0.6,0.99; stroke-dashoffset: 0; stroke: #b0b0b0; stroke-width: 0.6"/>
     </g>
     <g id="line2d_38">
      <g>
       <use xlink:href="#mf30deb6c57" x="94.7125" y="255.787067" style="stroke: #000000; stroke-width: 0.8"/>
      </g>
     </g>
    </g>
    <g id="xtick_12">
     <g id="line2d_39">
      <path d="M 143.5375 255.787067 
L 143.5375 162.179224 
" clip-path="url(#pfc02c52a10)" style="fill: none; stroke-dasharray: 0.6,0.99; stroke-dashoffset: 0; stroke: #b0b0b0; stroke-width: 0.6"/>
     </g>
     <g id="line2d_40">
      <g>
       <use xlink:href="#mf30deb6c57" x="143.5375" y="255.787067" style="stroke: #000000; stroke-width: 0.8"/>
      </g>
     </g>
    </g>
    <g id="xtick_13">
     <g id="line2d_41">
      <path d="M 192.3625 255.787067 
L 192.3625 162.179224 
" clip-path="url(#pfc02c52a10)" style="fill: none; stroke-dasharray: 0.6,0.99; stroke-dashoffset: 0; stroke: #b0b0b0; stroke-width: 0.6"/>
     </g>
     <g id="line2d_42">
      <g>
       <use xlink:href="#mf30deb6c57" x="192.3625" y="255.787067" style="stroke: #000000; stroke-width: 0.8"/>
      </g>
     </g>
    </g>
    <g id="xtick_14">
     <g id="line2d_43">
      <path d="M 241.1875 255.787067 
L 241.1875 162.179224 
" clip-path="url(#pfc02c52a10)" style="fill: none; stroke-dasharray: 0.6,0.99; stroke-dashoffset: 0; stroke: #b0b0b0; stroke-width: 0.6"/>
     </g>
     <g id="line2d_44">
      <g>
       <use xlink:href="#mf30deb6c57" x="241.1875" y="255.787067" style="stroke: #000000; stroke-width: 0.8"/>
      </g>
     </g>
    </g>
    <g id="xtick_15">
     <g id="line2d_45">
      <path d="M 290.0125 255.787067 
L 290.0125 162.179224 
" clip-path="url(#pfc02c52a10)" style="fill: none; stroke-dasharray: 0.6,0.99; stroke-dashoffset: 0; stroke: #b0b0b0; stroke-width: 0.6"/>
     </g>
     <g id="line2d_46">
      <g>
       <use xlink:href="#mf30deb6c57" x="290.0125" y="255.787067" style="stroke: #000000; stroke-width: 0.8"/>
      </g>
     </g>
    </g>
    <g id="xtick_16">
     <g id="line2d_47">
      <path d="M 338.8375 255.787067 
L 338.8375 162.179224 
" clip-path="url(#pfc02c52a10)" style="fill: none; stroke-dasharray: 0.6,0.99; stroke-dashoffset: 0; stroke: #b0b0b0; stroke-width: 0.6"/>
     </g>
     <g id="line2d_48">
      <g>
       <use xlink:href="#mf30deb6c57" x="338.8375" y="255.787067" style="stroke: #000000; stroke-width: 0.8"/>
      </g>
     </g>
    </g>
    <g id="xtick_17">
     <g id="line2d_49">
      <path d="M 387.6625 255.787067 
L 387.6625 162.179224 
" clip-path="url(#pfc02c52a10)" style="fill: none; stroke-dasharray: 0.6,0.99; stroke-dashoffset: 0; stroke: #b0b0b0; stroke-width: 0.6"/>
     </g>
     <g id="line2d_50">
      <g>
       <use xlink:href="#mf30deb6c57" x="387.6625" y="255.787067" style="stroke: #000000; stroke-width: 0.8"/>
      </g>
     </g>
    </g>
    <g id="xtick_18">
     <g id="line2d_51">
      <path d="M 436.4875 255.787067 
L 436.4875 162.179224 
" clip-path="url(#pfc02c52a10)" style="fill: none; stroke-dasharray: 0.6,0.99; stroke-dashoffset: 0; stroke: #b0b0b0; stroke-width: 0.6"/>
     </g>
     <g id="line2d_52">
      <g>
       <use xlink:href="#mf30deb6c57" x="436.4875" y="255.787067" style="stroke: #000000; stroke-width: 0.8"/>
      </g>
     </g>
    </g>
   </g>
   <g id="matplotlib.axis_4">
    <g id="ytick_4">
     <g id="line2d_53">
      <path d="M 45.8875 232.852107 
L 436.4875 232.852107 
" clip-path="url(#pfc02c52a10)" style="fill: none; stroke-dasharray: 0.6,0.99; stroke-dashoffset: 0; stroke: #b0b0b0; stroke-width: 0.6"/>
     </g>
     <g id="line2d_54">
      <g>
       <use xlink:href="#m1fdf0f7298" x="45.8875" y="232.852107" style="stroke: #000000; stroke-width: 0.8"/>
      </g>
     </g>
     <g id="text_11">
      <!-- 0.2 -->
      <g transform="translate(22.984375 236.651326) scale(0.1 -0.1)">
       <use xlink:href="#DejaVuSerif-30"/>
       <use xlink:href="#DejaVuSerif-2e" transform="translate(63.623047 0)"/>
       <use xlink:href="#DejaVuSerif-32" transform="translate(95.410156 0)"/>
      </g>
     </g>
    </g>
    <g id="ytick_5">
     <g id="line2d_55">
      <path d="M 45.8875 205.177948 
L 436.4875 205.177948 
" clip-path="url(#pfc02c52a10)" style="fill: none; stroke-dasharray: 0.6,0.99; stroke-dashoffset: 0; stroke: #b0b0b0; stroke-width: 0.6"/>
     </g>
     <g id="line2d_56">
      <g>
       <use xlink:href="#m1fdf0f7298" x="45.8875" y="205.177948" style="stroke: #000000; stroke-width: 0.8"/>
      </g>
     </g>
     <g id="text_12">
      <!-- 0.4 -->
      <g transform="translate(22.984375 208.977167) scale(0.1 -0.1)">
       <use xlink:href="#DejaVuSerif-30"/>
       <use xlink:href="#DejaVuSerif-2e" transform="translate(63.623047 0)"/>
       <use xlink:href="#DejaVuSerif-34" transform="translate(95.410156 0)"/>
      </g>
     </g>
    </g>
    <g id="ytick_6">
     <g id="line2d_57">
      <path d="M 45.8875 177.503789 
L 436.4875 177.503789 
" clip-path="url(#pfc02c52a10)" style="fill: none; stroke-dasharray: 0.6,0.99; stroke-dashoffset: 0; stroke: #b0b0b0; stroke-width: 0.6"/>
     </g>
     <g id="line2d_58">
      <g>
       <use xlink:href="#m1fdf0f7298" x="45.8875" y="177.503789" style="stroke: #000000; stroke-width: 0.8"/>
      </g>
     </g>
     <g id="text_13">
      <!-- 0.6 -->
      <g transform="translate(22.984375 181.303008) scale(0.1 -0.1)">
       <use xlink:href="#DejaVuSerif-30"/>
       <use xlink:href="#DejaVuSerif-2e" transform="translate(63.623047 0)"/>
       <use xlink:href="#DejaVuSerif-36" transform="translate(95.410156 0)"/>
      </g>
     </g>
    </g>
    <g id="text_14">
     <!-- Voltage (V) -->
     <g transform="translate(16.318125 242.602833) rotate(-90) scale(0.12 -0.12)">
      <use xlink:href="#DejaVuSerif-56"/>
      <use xlink:href="#DejaVuSerif-6f" transform="translate(63.091797 0)"/>
      <use xlink:href="#DejaVuSerif-6c" transform="translate(123.296875 0)"/>
      <use xlink:href="#DejaVuSerif-74" transform="translate(155.279297 0)"/>
      <use xlink:href="#DejaVuSerif-61" transform="translate(195.464844 0)"/>
      <use xlink:href="#DejaVuSerif-67" transform="translate(255.083984 0)"/>
      <use xlink:href="#DejaVuSerif-65" transform="translate(319.097656 0)"/>
      <use xlink:href="#DejaVuSerif-20" transform="translate(378.277344 0)"/>
      <use xlink:href="#DejaVuSerif-28" transform="translate(410.064453 0)"/>
      <use xlink:href="#DejaVuSerif-56" transform="translate(449.078125 0)"/>
      <use xlink:href="#DejaVuSerif-29" transform="translate(521.294922 0)"/>
     </g>
    </g>
   </g>
   <g id="line2d_59">
    <path d="M 45.8875 166.434126 
L 94.7125 169.201542 
L 143.5375 173.352665 
L 192.3625 177.503789 
L 241.1875 181.654913 
L 290.0125 185.806037 
L 338.8375 189.957161 
L 363.25 192.724577 
L 387.6625 195.491993 
L 407.1925 198.259409 
L 436.4875 202.410532 
" clip-path="url(#pfc02c52a10)" style="fill: none; stroke: #6a408d; stroke-width: 2.2; stroke-linecap: square"/>
    <g clip-path="url(#pfc02c52a10)">
     <use xlink:href="#m926171afd7" x="45.8875" y="166.434126" style="fill: #6a408d; stroke: #6a408d"/>
     <use xlink:href="#m926171afd7" x="143.5375" y="173.352665" style="fill: #6a408d; stroke: #6a408d"/>
     <use xlink:href="#m926171afd7" x="241.1875" y="181.654913" style="fill: #6a408d; stroke: #6a408d"/>
     <use xlink:href="#m926171afd7" x="338.8375" y="189.957161" style="fill: #6a408d; stroke: #6a408d"/>
     <use xlink:href="#m926171afd7" x="387.6625" y="195.491993" style="fill: #6a408d; stroke: #6a408d"/>
     <use xlink:href="#m926171afd7" x="436.4875" y="202.410532" style="fill: #6a408d; stroke: #6a408d"/>
    </g>
   </g>
   <g id="line2d_60">
    <path d="M 45.8875 223.166152 
L 94.7125 226.625422 
L 143.5375 230.776546 
L 192.3625 234.927669 
L 241.1875 239.078793 
L 290.0125 242.538063 
L 338.8375 245.997333 
L 363.25 247.381041 
L 387.6625 249.041491 
L 407.1925 250.148457 
L 436.4875 251.532165 
" clip-path="url(#pfc02c52a10)" style="fill: none; stroke-dasharray: 8.14,3.52; stroke-dashoffset: 0; stroke: #378d94; stroke-width: 2.2"/>
    <defs>
     <path id="mdaab1515e1" d="M -1.9 1.9 
L 1.9 1.9 
L 1.9 -1.9 
L -1.9 -1.9 
z
" style="stroke: #378d94; stroke-linejoin: miter"/>
    </defs>
    <g clip-path="url(#pfc02c52a10)">
     <use xlink:href="#mdaab1515e1" x="45.8875" y="223.166152" style="fill: #378d94; stroke: #378d94; stroke-linejoin: miter"/>
     <use xlink:href="#mdaab1515e1" x="143.5375" y="230.776546" style="fill: #378d94; stroke: #378d94; stroke-linejoin: miter"/>
     <use xlink:href="#mdaab1515e1" x="241.1875" y="239.078793" style="fill: #378d94; stroke: #378d94; stroke-linejoin: miter"/>
     <use xlink:href="#mdaab1515e1" x="338.8375" y="245.997333" style="fill: #378d94; stroke: #378d94; stroke-linejoin: miter"/>
     <use xlink:href="#mdaab1515e1" x="387.6625" y="249.041491" style="fill: #378d94; stroke: #378d94; stroke-linejoin: miter"/>
     <use xlink:href="#mdaab1515e1" x="436.4875" y="251.532165" style="fill: #378d94; stroke: #378d94; stroke-linejoin: miter"/>
    </g>
   </g>
   <g id="patch_6">
    <path d="M 45.8875 255.787067 
L 45.8875 162.179224 
" style="fill: none; stroke: #000000; stroke-linejoin: miter; stroke-linecap: square"/>
   </g>
   <g id="patch_7">
    <path d="M 45.8875 255.787067 
L 436.4875 255.787067 
" style="fill: none; stroke: #000000; stroke-linejoin: miter; stroke-linecap: square"/>
   </g>
   <g id="legend_2">
    <g id="line2d_61">
     <path d="M 452.3995 201.461114 
L 461.3995 201.461114 
L 470.3995 201.461114 
" style="fill: none; stroke: #6a408d; stroke-width: 2.2; stroke-linecap: square"/>
     <g>
      <use xlink:href="#m926171afd7" x="461.3995" y="201.461114" style="fill: #6a408d; stroke: #6a408d"/>
     </g>
    </g>
    <g id="text_15">
     <!-- v(out_nmos) = 431 m -->
     <g transform="translate(477.5995 204.611114) scale(0.09 -0.09)">
      <defs>
       <path id="DejaVuSerif-75" d="M 2266 3322 
L 3341 3322 
L 3341 331 
L 3884 331 
L 3884 0 
L 2766 0 
L 2766 588 
Q 2606 256 2353 82 
Q 2100 -91 1766 -91 
Q 1213 -91 952 223 
Q 691 538 691 1209 
L 691 2988 
L 172 2988 
L 172 3322 
L 1269 3322 
L 1269 1388 
Q 1269 781 1417 556 
Q 1566 331 1947 331 
Q 2347 331 2556 625 
Q 2766 919 2766 1478 
L 2766 2988 
L 2266 2988 
L 2266 3322 
z
" transform="scale(0.015625)"/>
       <path id="DejaVuSerif-5f" d="M 3200 -1259 
L 3200 -1509 
L 0 -1509 
L 0 -1259 
L 3200 -1259 
z
" transform="scale(0.015625)"/>
      </defs>
      <use xlink:href="#DejaVuSerif-76"/>
      <use xlink:href="#DejaVuSerif-28" transform="translate(56.494141 0)"/>
      <use xlink:href="#DejaVuSerif-6f" transform="translate(95.507812 0)"/>
      <use xlink:href="#DejaVuSerif-75" transform="translate(155.712891 0)"/>
      <use xlink:href="#DejaVuSerif-74" transform="translate(220.117188 0)"/>
      <use xlink:href="#DejaVuSerif-5f" transform="translate(260.302734 0)"/>
      <use xlink:href="#DejaVuSerif-6e" transform="translate(310.302734 0)"/>
      <use xlink:href="#DejaVuSerif-6d" transform="translate(374.707031 0)"/>
      <use xlink:href="#DejaVuSerif-6f" transform="translate(469.53125 0)"/>
      <use xlink:href="#DejaVuSerif-73" transform="translate(529.736328 0)"/>
      <use xlink:href="#DejaVuSerif-29" transform="translate(581.054688 0)"/>
      <use xlink:href="#DejaVuSerif-20" transform="translate(620.068359 0)"/>
      <use xlink:href="#DejaVuSerif-3d" transform="translate(651.855469 0)"/>
      <use xlink:href="#DejaVuSerif-20" transform="translate(735.644531 0)"/>
      <use xlink:href="#DejaVuSerif-34" transform="translate(767.431641 0)"/>
      <use xlink:href="#DejaVuSerif-33" transform="translate(831.054688 0)"/>
      <use xlink:href="#DejaVuSerif-31" transform="translate(894.677734 0)"/>
      <use xlink:href="#DejaVuSerif-20" transform="translate(958.300781 0)"/>
      <use xlink:href="#DejaVuSerif-6d" transform="translate(990.087891 0)"/>
     </g>
    </g>
    <g id="line2d_62">
     <path d="M 452.3995 214.921739 
L 461.3995 214.921739 
L 470.3995 214.921739 
" style="fill: none; stroke-dasharray: 8.14,3.52; stroke-dashoffset: 0; stroke: #378d94; stroke-width: 2.2"/>
     <g>
      <use xlink:href="#mdaab1515e1" x="461.3995" y="214.921739" style="fill: #378d94; stroke: #378d94; stroke-linejoin: miter"/>
     </g>
    </g>
    <g id="text_16">
     <!-- v(out_pmos) = 63.6 m -->
     <g transform="translate(477.5995 218.071739) scale(0.09 -0.09)">
      <use xlink:href="#DejaVuSerif-76"/>
      <use xlink:href="#DejaVuSerif-28" transform="translate(56.494141 0)"/>
      <use xlink:href="#DejaVuSerif-6f" transform="translate(95.507812 0)"/>
      <use xlink:href="#DejaVuSerif-75" transform="translate(155.712891 0)"/>
      <use xlink:href="#DejaVuSerif-74" transform="translate(220.117188 0)"/>
      <use xlink:href="#DejaVuSerif-5f" transform="translate(260.302734 0)"/>
      <use xlink:href="#DejaVuSerif-70" transform="translate(310.302734 0)"/>
      <use xlink:href="#DejaVuSerif-6d" transform="translate(374.316406 0)"/>
      <use xlink:href="#DejaVuSerif-6f" transform="translate(469.140625 0)"/>
      <use xlink:href="#DejaVuSerif-73" transform="translate(529.345703 0)"/>
      <use xlink:href="#DejaVuSerif-29" transform="translate(580.664062 0)"/>
      <use xlink:href="#DejaVuSerif-20" transform="translate(619.677734 0)"/>
      <use xlink:href="#DejaVuSerif-3d" transform="translate(651.464844 0)"/>
      <use xlink:href="#DejaVuSerif-20" transform="translate(735.253906 0)"/>
      <use xlink:href="#DejaVuSerif-36" transform="translate(767.041016 0)"/>
      <use xlink:href="#DejaVuSerif-33" transform="translate(830.664062 0)"/>
      <use xlink:href="#DejaVuSerif-2e" transform="translate(894.287109 0)"/>
      <use xlink:href="#DejaVuSerif-36" transform="translate(926.074219 0)"/>
      <use xlink:href="#DejaVuSerif-20" transform="translate(989.697266 0)"/>
      <use xlink:href="#DejaVuSerif-6d" transform="translate(1021.484375 0)"/>
     </g>
    </g>
   </g>
  </g>
  <g id="axes_3">
   <g id="patch_8">
    <path d="M 45.8875 366.805969 
L 436.4875 366.805969 
L 436.4875 268.517733 
L 45.8875 268.517733 
z
" style="fill: #ffffff"/>
   </g>
   <g id="matplotlib.axis_5">
    <g id="xtick_19">
     <g id="line2d_63">
      <path d="M 45.8875 366.805969 
L 45.8875 268.517733 
" clip-path="url(#pe7d28934c2)" style="fill: none; stroke-dasharray: 0.6,0.99; stroke-dashoffset: 0; stroke: #b0b0b0; stroke-width: 0.6"/>
     </g>
     <g id="line2d_64">
      <g>
       <use xlink:href="#mf30deb6c57" x="45.8875" y="366.805969" style="stroke: #000000; stroke-width: 0.8"/>
      </g>
     </g>
     <g id="text_17">
      <!-- 0.0 -->
      <g transform="translate(37.935938 381.404406) scale(0.1 -0.1)">
       <use xlink:href="#DejaVuSerif-30"/>
       <use xlink:href="#DejaVuSerif-2e" transform="translate(63.623047 0)"/>
       <use xlink:href="#DejaVuSerif-30" transform="translate(95.410156 0)"/>
      </g>
     </g>
    </g>
    <g id="xtick_20">
     <g id="line2d_65">
      <path d="M 94.7125 366.805969 
L 94.7125 268.517733 
" clip-path="url(#pe7d28934c2)" style="fill: none; stroke-dasharray: 0.6,0.99; stroke-dashoffset: 0; stroke: #b0b0b0; stroke-width: 0.6"/>
     </g>
     <g id="line2d_66">
      <g>
       <use xlink:href="#mf30deb6c57" x="94.7125" y="366.805969" style="stroke: #000000; stroke-width: 0.8"/>
      </g>
     </g>
     <g id="text_18">
      <!-- 0.1 -->
      <g transform="translate(86.760938 381.404406) scale(0.1 -0.1)">
       <use xlink:href="#DejaVuSerif-30"/>
       <use xlink:href="#DejaVuSerif-2e" transform="translate(63.623047 0)"/>
       <use xlink:href="#DejaVuSerif-31" transform="translate(95.410156 0)"/>
      </g>
     </g>
    </g>
    <g id="xtick_21">
     <g id="line2d_67">
      <path d="M 143.5375 366.805969 
L 143.5375 268.517733 
" clip-path="url(#pe7d28934c2)" style="fill: none; stroke-dasharray: 0.6,0.99; stroke-dashoffset: 0; stroke: #b0b0b0; stroke-width: 0.6"/>
     </g>
     <g id="line2d_68">
      <g>
       <use xlink:href="#mf30deb6c57" x="143.5375" y="366.805969" style="stroke: #000000; stroke-width: 0.8"/>
      </g>
     </g>
     <g id="text_19">
      <!-- 0.2 -->
      <g transform="translate(135.585938 381.404406) scale(0.1 -0.1)">
       <use xlink:href="#DejaVuSerif-30"/>
       <use xlink:href="#DejaVuSerif-2e" transform="translate(63.623047 0)"/>
       <use xlink:href="#DejaVuSerif-32" transform="translate(95.410156 0)"/>
      </g>
     </g>
    </g>
    <g id="xtick_22">
     <g id="line2d_69">
      <path d="M 192.3625 366.805969 
L 192.3625 268.517733 
" clip-path="url(#pe7d28934c2)" style="fill: none; stroke-dasharray: 0.6,0.99; stroke-dashoffset: 0; stroke: #b0b0b0; stroke-width: 0.6"/>
     </g>
     <g id="line2d_70">
      <g>
       <use xlink:href="#mf30deb6c57" x="192.3625" y="366.805969" style="stroke: #000000; stroke-width: 0.8"/>
      </g>
     </g>
     <g id="text_20">
      <!-- 0.3 -->
      <g transform="translate(184.410938 381.404406) scale(0.1 -0.1)">
       <use xlink:href="#DejaVuSerif-30"/>
       <use xlink:href="#DejaVuSerif-2e" transform="translate(63.623047 0)"/>
       <use xlink:href="#DejaVuSerif-33" transform="translate(95.410156 0)"/>
      </g>
     </g>
    </g>
    <g id="xtick_23">
     <g id="line2d_71">
      <path d="M 241.1875 366.805969 
L 241.1875 268.517733 
" clip-path="url(#pe7d28934c2)" style="fill: none; stroke-dasharray: 0.6,0.99; stroke-dashoffset: 0; stroke: #b0b0b0; stroke-width: 0.6"/>
     </g>
     <g id="line2d_72">
      <g>
       <use xlink:href="#mf30deb6c57" x="241.1875" y="366.805969" style="stroke: #000000; stroke-width: 0.8"/>
      </g>
     </g>
     <g id="text_21">
      <!-- 0.4 -->
      <g transform="translate(233.235938 381.404406) scale(0.1 -0.1)">
       <use xlink:href="#DejaVuSerif-30"/>
       <use xlink:href="#DejaVuSerif-2e" transform="translate(63.623047 0)"/>
       <use xlink:href="#DejaVuSerif-34" transform="translate(95.410156 0)"/>
      </g>
     </g>
    </g>
    <g id="xtick_24">
     <g id="line2d_73">
      <path d="M 290.0125 366.805969 
L 290.0125 268.517733 
" clip-path="url(#pe7d28934c2)" style="fill: none; stroke-dasharray: 0.6,0.99; stroke-dashoffset: 0; stroke: #b0b0b0; stroke-width: 0.6"/>
     </g>
     <g id="line2d_74">
      <g>
       <use xlink:href="#mf30deb6c57" x="290.0125" y="366.805969" style="stroke: #000000; stroke-width: 0.8"/>
      </g>
     </g>
     <g id="text_22">
      <!-- 0.5 -->
      <g transform="translate(282.060937 381.404406) scale(0.1 -0.1)">
       <use xlink:href="#DejaVuSerif-30"/>
       <use xlink:href="#DejaVuSerif-2e" transform="translate(63.623047 0)"/>
       <use xlink:href="#DejaVuSerif-35" transform="translate(95.410156 0)"/>
      </g>
     </g>
    </g>
    <g id="xtick_25">
     <g id="line2d_75">
      <path d="M 338.8375 366.805969 
L 338.8375 268.517733 
" clip-path="url(#pe7d28934c2)" style="fill: none; stroke-dasharray: 0.6,0.99; stroke-dashoffset: 0; stroke: #b0b0b0; stroke-width: 0.6"/>
     </g>
     <g id="line2d_76">
      <g>
       <use xlink:href="#mf30deb6c57" x="338.8375" y="366.805969" style="stroke: #000000; stroke-width: 0.8"/>
      </g>
     </g>
     <g id="text_23">
      <!-- 0.6 -->
      <g transform="translate(330.885938 381.404406) scale(0.1 -0.1)">
       <use xlink:href="#DejaVuSerif-30"/>
       <use xlink:href="#DejaVuSerif-2e" transform="translate(63.623047 0)"/>
       <use xlink:href="#DejaVuSerif-36" transform="translate(95.410156 0)"/>
      </g>
     </g>
    </g>
    <g id="xtick_26">
     <g id="line2d_77">
      <path d="M 387.6625 366.805969 
L 387.6625 268.517733 
" clip-path="url(#pe7d28934c2)" style="fill: none; stroke-dasharray: 0.6,0.99; stroke-dashoffset: 0; stroke: #b0b0b0; stroke-width: 0.6"/>
     </g>
     <g id="line2d_78">
      <g>
       <use xlink:href="#mf30deb6c57" x="387.6625" y="366.805969" style="stroke: #000000; stroke-width: 0.8"/>
      </g>
     </g>
     <g id="text_24">
      <!-- 0.7 -->
      <g transform="translate(379.710938 381.404406) scale(0.1 -0.1)">
       <use xlink:href="#DejaVuSerif-30"/>
       <use xlink:href="#DejaVuSerif-2e" transform="translate(63.623047 0)"/>
       <use xlink:href="#DejaVuSerif-37" transform="translate(95.410156 0)"/>
      </g>
     </g>
    </g>
    <g id="xtick_27">
     <g id="line2d_79">
      <path d="M 436.4875 366.805969 
L 436.4875 268.517733 
" clip-path="url(#pe7d28934c2)" style="fill: none; stroke-dasharray: 0.6,0.99; stroke-dashoffset: 0; stroke: #b0b0b0; stroke-width: 0.6"/>
     </g>
     <g id="line2d_80">
      <g>
       <use xlink:href="#mf30deb6c57" x="436.4875" y="366.805969" style="stroke: #000000; stroke-width: 0.8"/>
      </g>
     </g>
     <g id="text_25">
      <!-- 0.8 -->
      <g transform="translate(428.535937 381.404406) scale(0.1 -0.1)">
       <use xlink:href="#DejaVuSerif-30"/>
       <use xlink:href="#DejaVuSerif-2e" transform="translate(63.623047 0)"/>
       <use xlink:href="#DejaVuSerif-38" transform="translate(95.410156 0)"/>
      </g>
     </g>
    </g>
    <g id="text_26">
     <!-- Sweep variable -->
     <g transform="translate(194.448438 396.602219) scale(0.12 -0.12)">
      <defs>
       <path id="DejaVuSerif-77" d="M 3072 3322 
L 3922 728 
L 4672 2988 
L 4191 2988 
L 4191 3322 
L 5394 3322 
L 5394 2988 
L 5025 2988 
L 4038 0 
L 3559 0 
L 2741 2484 
L 1919 0 
L 1459 0 
L 475 2988 
L 103 2988 
L 103 3322 
L 1606 3322 
L 1606 2988 
L 1069 2988 
L 1813 728 
L 2669 3322 
L 3072 3322 
z
" transform="scale(0.015625)"/>
       <path id="DejaVuSerif-62" d="M 738 331 
L 738 4531 
L 184 4531 
L 184 4863 
L 1313 4863 
L 1313 2803 
Q 1481 3116 1742 3264 
Q 2003 3413 2388 3413 
Q 3000 3413 3387 2928 
Q 3775 2444 3775 1663 
Q 3775 881 3387 395 
Q 3000 -91 2388 -91 
Q 2003 -91 1742 57 
Q 1481 206 1313 519 
L 1313 0 
L 184 0 
L 184 331 
L 738 331 
z
M 1313 1497 
Q 1313 897 1542 583 
Q 1772 269 2209 269 
Q 2650 269 2876 622 
Q 3103 975 3103 1663 
Q 3103 2353 2876 2703 
Q 2650 3053 2209 3053 
Q 1772 3053 1542 2737 
Q 1313 2422 1313 1825 
L 1313 1497 
z
" transform="scale(0.015625)"/>
      </defs>
      <use xlink:href="#DejaVuSerif-53"/>
      <use xlink:href="#DejaVuSerif-77" transform="translate(68.505859 0)"/>
      <use xlink:href="#DejaVuSerif-65" transform="translate(154.101562 0)"/>
      <use xlink:href="#DejaVuSerif-65" transform="translate(213.28125 0)"/>
      <use xlink:href="#DejaVuSerif-70" transform="translate(272.460938 0)"/>
      <use xlink:href="#DejaVuSerif-20" transform="translate(336.474609 0)"/>
      <use xlink:href="#DejaVuSerif-76" transform="translate(368.261719 0)"/>
      <use xlink:href="#DejaVuSerif-61" transform="translate(424.755859 0)"/>
      <use xlink:href="#DejaVuSerif-72" transform="translate(484.375 0)"/>
      <use xlink:href="#DejaVuSerif-69" transform="translate(532.177734 0)"/>
      <use xlink:href="#DejaVuSerif-61" transform="translate(564.160156 0)"/>
      <use xlink:href="#DejaVuSerif-62" transform="translate(623.779297 0)"/>
      <use xlink:href="#DejaVuSerif-6c" transform="translate(687.792969 0)"/>
      <use xlink:href="#DejaVuSerif-65" transform="translate(719.775391 0)"/>
     </g>
    </g>
   </g>
   <g id="matplotlib.axis_6">
    <g id="ytick_7">
     <g id="line2d_81">
      <path d="M 45.8875 363.997733 
L 436.4875 363.997733 
" clip-path="url(#pe7d28934c2)" style="fill: none; stroke-dasharray: 0.6,0.99; stroke-dashoffset: 0; stroke: #b0b0b0; stroke-width: 0.6"/>
     </g>
     <g id="line2d_82">
      <g>
       <use xlink:href="#m1fdf0f7298" x="45.8875" y="363.997733" style="stroke: #000000; stroke-width: 0.8"/>
      </g>
     </g>
     <g id="text_27">
      <!-- 0 -->
      <g transform="translate(32.525 367.796952) scale(0.1 -0.1)">
       <use xlink:href="#DejaVuSerif-30"/>
      </g>
     </g>
    </g>
    <g id="ytick_8">
     <g id="line2d_83">
      <path d="M 45.8875 335.915381 
L 436.4875 335.915381 
" clip-path="url(#pe7d28934c2)" style="fill: none; stroke-dasharray: 0.6,0.99; stroke-dashoffset: 0; stroke: #b0b0b0; stroke-width: 0.6"/>
     </g>
     <g id="line2d_84">
      <g>
       <use xlink:href="#m1fdf0f7298" x="45.8875" y="335.915381" style="stroke: #000000; stroke-width: 0.8"/>
      </g>
     </g>
     <g id="text_28">
      <!-- 10 -->
      <g transform="translate(26.1625 339.714599) scale(0.1 -0.1)">
       <use xlink:href="#DejaVuSerif-31"/>
       <use xlink:href="#DejaVuSerif-30" transform="translate(63.623047 0)"/>
      </g>
     </g>
    </g>
    <g id="ytick_9">
     <g id="line2d_85">
      <path d="M 45.8875 307.833028 
L 436.4875 307.833028 
" clip-path="url(#pe7d28934c2)" style="fill: none; stroke-dasharray: 0.6,0.99; stroke-dashoffset: 0; stroke: #b0b0b0; stroke-width: 0.6"/>
     </g>
     <g id="line2d_86">
      <g>
       <use xlink:href="#m1fdf0f7298" x="45.8875" y="307.833028" style="stroke: #000000; stroke-width: 0.8"/>
      </g>
     </g>
     <g id="text_29">
      <!-- 20 -->
      <g transform="translate(26.1625 311.632246) scale(0.1 -0.1)">
       <use xlink:href="#DejaVuSerif-32"/>
       <use xlink:href="#DejaVuSerif-30" transform="translate(63.623047 0)"/>
      </g>
     </g>
    </g>
    <g id="ytick_10">
     <g id="line2d_87">
      <path d="M 45.8875 279.750675 
L 436.4875 279.750675 
" clip-path="url(#pe7d28934c2)" style="fill: none; stroke-dasharray: 0.6,0.99; stroke-dashoffset: 0; stroke: #b0b0b0; stroke-width: 0.6"/>
     </g>
     <g id="line2d_88">
      <g>
       <use xlink:href="#m1fdf0f7298" x="45.8875" y="279.750675" style="stroke: #000000; stroke-width: 0.8"/>
      </g>
     </g>
     <g id="text_30">
      <!-- 30 -->
      <g transform="translate(26.1625 283.549893) scale(0.1 -0.1)">
       <use xlink:href="#DejaVuSerif-33"/>
       <use xlink:href="#DejaVuSerif-30" transform="translate(63.623047 0)"/>
      </g>
     </g>
    </g>
    <g id="text_31">
     <!-- Digital value -->
     <g transform="translate(19.49625 356.268101) rotate(-90) scale(0.12 -0.12)">
      <use xlink:href="#DejaVuSerif-44"/>
      <use xlink:href="#DejaVuSerif-69" transform="translate(80.175781 0)"/>
      <use xlink:href="#DejaVuSerif-67" transform="translate(112.158203 0)"/>
      <use xlink:href="#DejaVuSerif-69" transform="translate(176.171875 0)"/>
      <use xlink:href="#DejaVuSerif-74" transform="translate(208.154297 0)"/>
      <use xlink:href="#DejaVuSerif-61" transform="translate(248.339844 0)"/>
      <use xlink:href="#DejaVuSerif-6c" transform="translate(307.958984 0)"/>
      <use xlink:href="#DejaVuSerif-20" transform="translate(339.941406 0)"/>
      <use xlink:href="#DejaVuSerif-76" transform="translate(371.728516 0)"/>
      <use xlink:href="#DejaVuSerif-61" transform="translate(428.222656 0)"/>
      <use xlink:href="#DejaVuSerif-6c" transform="translate(487.841797 0)"/>
      <use xlink:href="#DejaVuSerif-75" transform="translate(519.824219 0)"/>
      <use xlink:href="#DejaVuSerif-65" transform="translate(584.228516 0)"/>
     </g>
    </g>
   </g>
   <g id="line2d_89">
    <path d="M 45.8875 276.942439 
L 94.7125 276.942439 
L 94.7125 279.750675 
L 163.0675 279.750675 
L 163.0675 285.367145 
L 241.1875 285.367145 
L 241.1875 296.600086 
L 324.19 296.600086 
L 324.19 319.065969 
L 387.6625 319.065969 
L 387.6625 363.997733 
L 436.4875 363.997733 
L 436.4875 363.997733 
" clip-path="url(#pe7d28934c2)" style="fill: none; stroke: #6a408d; stroke-width: 2.2; stroke-linecap: square"/>
   </g>
   <g id="patch_9">
    <path d="M 45.8875 366.805969 
L 45.8875 268.517733 
" style="fill: none; stroke: #000000; stroke-linejoin: miter; stroke-linecap: square"/>
   </g>
   <g id="patch_10">
    <path d="M 45.8875 366.805969 
L 436.4875 366.805969 
" style="fill: none; stroke: #000000; stroke-linejoin: miter; stroke-linecap: square"/>
   </g>
   <g id="PathCollection_1">
    <defs>
     <path id="m9766d10a07" d="M 0 2.915476 
C 0.773193 2.915476 1.514823 2.608283 2.061553 2.061553 
C 2.608283 1.514823 2.915476 0.773193 2.915476 0 
C 2.915476 -0.773193 2.608283 -1.514823 2.061553 -2.061553 
C 1.514823 -2.608283 0.773193 -2.915476 0 -2.915476 
C -0.773193 -2.915476 -1.514823 -2.608283 -2.061553 -2.061553 
C -2.608283 -1.514823 -2.915476 -0.773193 -2.915476 0 
C -2.915476 0.773193 -2.608283 1.514823 -2.061553 2.061553 
C -1.514823 2.608283 -0.773193 2.915476 0 2.915476 
z
" style="stroke: #6a408d; stroke-width: 0.7"/>
    </defs>
    <g clip-path="url(#pe7d28934c2)">
     <use xlink:href="#m9766d10a07" x="45.8875" y="276.942439" style="fill: #e69f00; stroke: #6a408d; stroke-width: 0.7"/>
     <use xlink:href="#m9766d10a07" x="94.7125" y="279.750675" style="fill: #e69f00; stroke: #6a408d; stroke-width: 0.7"/>
     <use xlink:href="#m9766d10a07" x="163.0675" y="285.367145" style="fill: #e69f00; stroke: #6a408d; stroke-width: 0.7"/>
     <use xlink:href="#m9766d10a07" x="241.1875" y="296.600086" style="fill: #e69f00; stroke: #6a408d; stroke-width: 0.7"/>
     <use xlink:href="#m9766d10a07" x="324.19" y="319.065969" style="fill: #e69f00; stroke: #6a408d; stroke-width: 0.7"/>
     <use xlink:href="#m9766d10a07" x="387.6625" y="363.997733" style="fill: #e69f00; stroke: #6a408d; stroke-width: 0.7"/>
    </g>
   </g>
   <g id="text_32">
    <g id="patch_11">
     <path d="M 56.779688 278.96076 
L 83.820313 278.96076 
Q 85.095313 278.96076 85.095313 277.68576 
L 85.095313 269.459354 
Q 85.095313 268.184354 83.820313 268.184354 
L 56.779688 268.184354 
Q 55.504688 268.184354 55.504688 269.459354 
L 55.504688 277.68576 
Q 55.504688 278.96076 56.779688 278.96076 
z
" style="fill: #ffffff; stroke: #d1cbe5; stroke-width: 0.8; stroke-linejoin: miter"/>
    </g>
    <!-- 11111 -->
    <g style="fill: #6a408d" transform="translate(56.779688 275.918026) scale(0.085 -0.085)">
     <use xlink:href="#DejaVuSerif-31"/>
     <use xlink:href="#DejaVuSerif-31" transform="translate(63.623047 0)"/>
     <use xlink:href="#DejaVuSerif-31" transform="translate(127.246094 0)"/>
     <use xlink:href="#DejaVuSerif-31" transform="translate(190.869141 0)"/>
     <use xlink:href="#DejaVuSerif-31" transform="translate(254.492188 0)"/>
    </g>
   </g>
   <g id="text_33">
    <g id="patch_12">
     <path d="M 115.369687 278.96076 
L 142.410312 278.96076 
Q 143.685312 278.96076 143.685312 277.68576 
L 143.685312 269.459354 
Q 143.685312 268.184354 142.410312 268.184354 
L 115.369687 268.184354 
Q 114.094687 268.184354 114.094687 269.459354 
L 114.094687 277.68576 
Q 114.094687 278.96076 115.369687 278.96076 
z
" style="fill: #ffffff; stroke: #d1cbe5; stroke-width: 0.8; stroke-linejoin: miter"/>
    </g>
    <!-- 11110 -->
    <g style="fill: #6a408d" transform="translate(115.369687 275.918026) scale(0.085 -0.085)">
     <use xlink:href="#DejaVuSerif-31"/>
     <use xlink:href="#DejaVuSerif-31" transform="translate(63.623047 0)"/>
     <use xlink:href="#DejaVuSerif-31" transform="translate(127.246094 0)"/>
     <use xlink:href="#DejaVuSerif-31" transform="translate(190.869141 0)"/>
     <use xlink:href="#DejaVuSerif-30" transform="translate(254.492188 0)"/>
    </g>
   </g>
   <g id="text_34">
    <g id="patch_13">
     <path d="M 188.607188 278.96076 
L 215.647813 278.96076 
Q 216.922813 278.96076 216.922813 277.68576 
L 216.922813 269.459354 
Q 216.922813 268.184354 215.647813 268.184354 
L 188.607188 268.184354 
Q 187.332188 268.184354 187.332188 269.459354 
L 187.332188 277.68576 
Q 187.332188 278.96076 188.607188 278.96076 
z
" style="fill: #ffffff; stroke: #d1cbe5; stroke-width: 0.8; stroke-linejoin: miter"/>
    </g>
    <!-- 11100 -->
    <g style="fill: #6a408d" transform="translate(188.607188 275.918026) scale(0.085 -0.085)">
     <use xlink:href="#DejaVuSerif-31"/>
     <use xlink:href="#DejaVuSerif-31" transform="translate(63.623047 0)"/>
     <use xlink:href="#DejaVuSerif-31" transform="translate(127.246094 0)"/>
     <use xlink:href="#DejaVuSerif-30" transform="translate(190.869141 0)"/>
     <use xlink:href="#DejaVuSerif-30" transform="translate(254.492188 0)"/>
    </g>
   </g>
   <g id="text_35">
    <g id="patch_14">
     <path d="M 269.168437 278.96076 
L 296.209062 278.96076 
Q 297.484062 278.96076 297.484062 277.68576 
L 297.484062 269.459354 
Q 297.484062 268.184354 296.209062 268.184354 
L 269.168437 268.184354 
Q 267.893438 268.184354 267.893438 269.459354 
L 267.893438 277.68576 
Q 267.893438 278.96076 269.168437 278.96076 
z
" style="fill: #ffffff; stroke: #d1cbe5; stroke-width: 0.8; stroke-linejoin: miter"/>
    </g>
    <!-- 11000 -->
    <g style="fill: #6a408d" transform="translate(269.168437 275.918026) scale(0.085 -0.085)">
     <use xlink:href="#DejaVuSerif-31"/>
     <use xlink:href="#DejaVuSerif-31" transform="translate(63.623047 0)"/>
     <use xlink:href="#DejaVuSerif-30" transform="translate(127.246094 0)"/>
     <use xlink:href="#DejaVuSerif-30" transform="translate(190.869141 0)"/>
     <use xlink:href="#DejaVuSerif-30" transform="translate(254.492188 0)"/>
    </g>
   </g>
   <g id="text_36">
    <g id="patch_15">
     <path d="M 342.405937 278.96076 
L 369.446563 278.96076 
Q 370.721563 278.96076 370.721563 277.68576 
L 370.721563 269.459354 
Q 370.721563 268.184354 369.446563 268.184354 
L 342.405937 268.184354 
Q 341.130938 268.184354 341.130938 269.459354 
L 341.130938 277.68576 
Q 341.130938 278.96076 342.405937 278.96076 
z
" style="fill: #ffffff; stroke: #d1cbe5; stroke-width: 0.8; stroke-linejoin: miter"/>
    </g>
    <!-- 10000 -->
    <g style="fill: #6a408d" transform="translate(342.405937 275.918026) scale(0.085 -0.085)">
     <use xlink:href="#DejaVuSerif-31"/>
     <use xlink:href="#DejaVuSerif-30" transform="translate(63.623047 0)"/>
     <use xlink:href="#DejaVuSerif-30" transform="translate(127.246094 0)"/>
     <use xlink:href="#DejaVuSerif-30" transform="translate(190.869141 0)"/>
     <use xlink:href="#DejaVuSerif-30" transform="translate(254.492188 0)"/>
    </g>
   </g>
   <g id="text_37">
    <g id="patch_16">
     <path d="M 398.554688 278.96076 
L 425.595312 278.96076 
Q 426.870313 278.96076 426.870313 277.68576 
L 426.870313 269.459354 
Q 426.870313 268.184354 425.595312 268.184354 
L 398.554688 268.184354 
Q 397.279688 268.184354 397.279688 269.459354 
L 397.279688 277.68576 
Q 397.279688 278.96076 398.554688 278.96076 
z
" style="fill: #ffffff; stroke: #d1cbe5; stroke-width: 0.8; stroke-linejoin: miter"/>
    </g>
    <!-- 00000 -->
    <g style="fill: #6a408d" transform="translate(398.554688 275.918026) scale(0.085 -0.085)">
     <use xlink:href="#DejaVuSerif-30"/>
     <use xlink:href="#DejaVuSerif-30" transform="translate(63.623047 0)"/>
     <use xlink:href="#DejaVuSerif-30" transform="translate(127.246094 0)"/>
     <use xlink:href="#DejaVuSerif-30" transform="translate(190.869141 0)"/>
     <use xlink:href="#DejaVuSerif-30" transform="translate(254.492188 0)"/>
    </g>
   </g>
   <g id="legend_3">
    <g id="line2d_90">
     <path d="M 452.3995 316.995289 
L 461.3995 316.995289 
L 461.3995 316.995289 
L 470.3995 316.995289 
L 470.3995 316.995289 
" style="fill: none; stroke: #6a408d; stroke-width: 2.2; stroke-linecap: square"/>
    </g>
    <g id="text_38">
     <!-- Decoded state -->
     <g transform="translate(477.5995 320.145289) scale(0.09 -0.09)">
      <defs>
       <path id="DejaVuSerif-63" d="M 3291 997 
Q 3169 466 2822 187 
Q 2475 -91 1925 -91 
Q 1200 -91 759 389 
Q 319 869 319 1663 
Q 319 2459 759 2936 
Q 1200 3413 1925 3413 
Q 2241 3413 2553 3339 
Q 2866 3266 3181 3116 
L 3181 2266 
L 2847 2266 
Q 2781 2703 2561 2903 
Q 2341 3103 1931 3103 
Q 1466 3103 1228 2742 
Q 991 2381 991 1663 
Q 991 944 1227 581 
Q 1463 219 1931 219 
Q 2303 219 2525 412 
Q 2747 606 2828 997 
L 3291 997 
z
" transform="scale(0.015625)"/>
      </defs>
      <use xlink:href="#DejaVuSerif-44"/>
      <use xlink:href="#DejaVuSerif-65" transform="translate(80.175781 0)"/>
      <use xlink:href="#DejaVuSerif-63" transform="translate(139.355469 0)"/>
      <use xlink:href="#DejaVuSerif-6f" transform="translate(195.361328 0)"/>
      <use xlink:href="#DejaVuSerif-64" transform="translate(255.566406 0)"/>
      <use xlink:href="#DejaVuSerif-65" transform="translate(319.580078 0)"/>
      <use xlink:href="#DejaVuSerif-64" transform="translate(378.759766 0)"/>
      <use xlink:href="#DejaVuSerif-20" transform="translate(442.773438 0)"/>
      <use xlink:href="#DejaVuSerif-73" transform="translate(474.560547 0)"/>
      <use xlink:href="#DejaVuSerif-74" transform="translate(525.878906 0)"/>
      <use xlink:href="#DejaVuSerif-61" transform="translate(566.064453 0)"/>
      <use xlink:href="#DejaVuSerif-74" transform="translate(625.683594 0)"/>
      <use xlink:href="#DejaVuSerif-65" transform="translate(665.869141 0)"/>
     </g>
    </g>
   </g>
  </g>
 </g>
 <defs>
  <clipPath id="padb07fe77b">
   <rect x="45.8875" y="23.077969" width="390.6" height="126.370588"/>
  </clipPath>
  <clipPath id="pfc02c52a10">
   <rect x="45.8875" y="162.179224" width="390.6" height="93.607843"/>
  </clipPath>
  <clipPath id="pe7d28934c2">
   <rect x="45.8875" y="268.517733" width="390.6" height="98.288235"/>
  </clipPath>
 </defs>
</svg>
